*
G04 Mass Parameters ***
*
G04 Image ***
*
%INC:\USERS\RITCH\GOOGLE_RITCHIE\DEVELOPMENT\REYAX\RYS8830\LAYOUT_EVB_V1.2\RYS8830_EVB_V12.SMT*%
%ICAS*%
%MOIN*%
%IPPOS*%
%ASAXBY*%
G74*%FSLAN2X34Y34*%
*
G04 Aperture Definitions ***
*
%ADD10C,0.0512*%
%ADD11C,0.0180*%
%ADD12R,0.0400X0.0340*%
%ADD13R,0.0500X0.0340*%
%ADD14R,0.0180X0.0220*%
%ADD15R,0.0500X0.0500*%
%ADD16C,0.0551*%
%ADD17R,0.0531X0.0394*%
%ADD18C,0.0394*%
%ADD19R,0.0610X0.0157*%
%ADD20C,0.0118*%
%ADD21R,0.0335X0.0118*%
%ADD22R,0.0118X0.0335*%
%ADD23R,0.0400X0.1000*%
%ADD24C,0.0600*%
%ADD25R,0.0472X0.0394*%
%ADD26R,0.0413X0.0157*%
%ADD27R,0.1181X0.0689*%
%ADD28R,0.1063X0.0315*%
%ADD29C,0.0157*%
%ADD30O,0.0236X0.0094*%
%ADD31R,0.0650X0.0925*%
%ADD32R,0.0220X0.0180*%
%ADD33R,0.0340X0.0400*%
%ADD34R,0.0340X0.0500*%
%ADD35C,0.0010*%
%ADD36C,0.0300*%
%ADD37C,0.0080*%
%ADD38C,0.0060*%
%ADD39C,0.0180*%
%ADD40C,0.0120*%
%ADD41C,0.0160*%
%ADD42C,0.0700*%
%ADD43C,0.0030*%
%ADD44C,0.0100*%
%ADD45R,0.0315X0.0394*%
%ADD46R,0.0400X0.0400*%
%ADD47O,0.0472X0.0315*%
%ADD48O,0.0315X0.0472*%
%ADD49R,0.1420X0.0880*%
%ADD50R,0.0480X0.0880*%
%ADD51C,0.0138*%
%ADD52C,0.0001*%
%ADD53C,0.0600*%
%ADD54C,0.0551*%
%ADD55C,0.0394*%
%ADD56C,0.0180*%
%ADD57C,0.0180*%
%ADD58R,0.0315X0.0394*%
%ADD59R,0.0500X0.0500*%
%ADD60R,0.0400X0.0400*%
%ADD61R,0.0180X0.0220*%
%ADD62C,0.0700*%
%ADD63C,0.0551*%
%ADD64R,0.0531X0.0394*%
%ADD65C,0.0394*%
%ADD66R,0.0610X0.0157*%
%ADD67R,0.0400X0.0340*%
%ADD68R,0.0500X0.0340*%
%ADD69R,0.0220X0.0180*%
%ADD70O,0.0472X0.0315*%
%ADD71O,0.0315X0.0472*%
%ADD72R,0.1420X0.0880*%
%ADD73R,0.0480X0.0880*%
%ADD74R,0.0340X0.0400*%
%ADD75R,0.0340X0.0500*%
%ADD76C,0.0118*%
%ADD77R,0.0118X0.0335*%
%ADD78R,0.0335X0.0118*%
%ADD79C,0.0138*%
%ADD80C,0.0098*%
%ADD81C,0.0700*%
%ADD82C,0.0040*%
%ADD83C,0.0180*%
%ADD84R,0.0315X0.0394*%
%ADD85R,0.0500X0.0500*%
%ADD86R,0.0400X0.0400*%
%ADD87R,0.0180X0.0220*%
%ADD88C,0.0600*%
%ADD89C,0.0551*%
%ADD90R,0.0531X0.0394*%
%ADD91C,0.0394*%
%ADD92R,0.0610X0.0157*%
%ADD93R,0.0400X0.0340*%
%ADD94R,0.0500X0.0340*%
%ADD95R,0.0220X0.0180*%
%ADD96O,0.0472X0.0315*%
%ADD97O,0.0315X0.0472*%
%ADD98R,0.1420X0.0880*%
%ADD99R,0.0480X0.0880*%
%ADD100R,0.0340X0.0400*%
%ADD101R,0.0340X0.0500*%
%ADD102C,0.0118*%
%ADD103R,0.0118X0.0335*%
%ADD104R,0.0335X0.0118*%
%ADD105C,0.0138*%
%ADD106C,0.0180*%
%ADD107C,0.0180*%
%ADD108R,0.0276X0.0472*%
%ADD109C,0.0098*%
%ADD110R,0.0276X0.0098*%
%ADD111C,0.0180*%
%ADD112R,0.0276X0.0472*%
%ADD113C,0.0098*%
%ADD114R,0.0276X0.0098*%
*
G04 Plot Data ***
*
G54D80*
G01X0003081Y0001133D02*
X0002644D01*
X0003081Y0001570D01*
Y0001680D01*
X0003026Y0001789D01*
X0002698D01*
X0002644Y0001680D01*
X0002283Y0001133D02*
X0002392D01*
Y0001242D01*
X0002283D01*
Y0001133D01*
X0001922D02*
X0001703D01*
X0001812D02*
Y0001789D01*
X0001703Y0001680D01*
X0001342Y0001789D02*
Y0001570D01*
X0001123Y0001133D01*
X0000905Y0001570D01*
Y0001789D01*
X0007849Y0002288D02*
Y0002944D01*
X0007794Y0002288D02*
X0008123D01*
X0008232Y0002397D01*
Y0002506D01*
X0008177Y0002616D01*
X0007849D02*
X0008177D01*
X0008232Y0002725D01*
Y0002835D01*
X0008123Y0002944D01*
X0007794D01*
X0007543D02*
Y0002725D01*
X0007324Y0002288D01*
X0007105Y0002725D01*
Y0002944D01*
X0006745Y0002616D02*
X0006416D01*
X0006854Y0002288D02*
X0006416D01*
Y0002944D01*
X0006854D01*
X0006165Y0002069D02*
X0005728D01*
X0005203Y0002288D02*
X0005093Y0002397D01*
X0005039Y0002506D01*
Y0002725D01*
X0005093Y0002835D01*
X0005203Y0002944D01*
X0005312D01*
X0005421Y0002835D01*
X0005476Y0002725D01*
Y0002506D01*
X0005421Y0002397D01*
X0005312Y0002288D01*
X0005203D01*
X0004350Y0002397D02*
X0004459Y0002288D01*
X0004678D01*
X0004787Y0002397D01*
Y0002506D01*
X0004568Y0002725D01*
X0004787Y0002944D01*
X0004350D01*
X0004043Y0002616D02*
X0004098Y0002725D01*
Y0002835D01*
X0004043Y0002944D01*
X0003715D01*
X0003661Y0002835D01*
Y0002725D01*
X0003715Y0002616D01*
X0004043D01*
X0004098Y0002506D01*
Y0002397D01*
X0004043Y0002288D01*
X0003715D01*
X0003661Y0002397D01*
Y0002506D01*
X0003715Y0002616D01*
X0003354D02*
X0003409Y0002725D01*
Y0002835D01*
X0003354Y0002944D01*
X0003026D01*
X0002972Y0002835D01*
Y0002725D01*
X0003026Y0002616D01*
X0003354D01*
X0003409Y0002506D01*
Y0002397D01*
X0003354Y0002288D01*
X0003026D01*
X0002972Y0002397D01*
Y0002506D01*
X0003026Y0002616D01*
X0002720Y0002835D02*
X0002665Y0002944D01*
X0002337D01*
X0002283Y0002835D01*
Y0002725D01*
X0002337Y0002616D01*
X0002665D01*
X0002720Y0002506D01*
Y0002397D01*
X0002665Y0002288D01*
X0002337D01*
X0002283Y0002397D01*
X0001812Y0002288D02*
Y0002616D01*
X0002031Y0002944D02*
X0001867Y0002616D01*
X0001758D01*
X0001594Y0002944D01*
X0001178Y0002616D02*
X0001342Y0002288D01*
X0000905Y0002616D02*
X0001233D01*
X0001342Y0002725D01*
Y0002835D01*
X0001233Y0002944D01*
X0000905D01*
Y0002288D01*
X0004063Y0003448D02*
X0003735Y0004104D01*
X0004063D02*
X0003735Y0003448D01*
X0003429Y0003666D02*
X0002992D01*
X0003429Y0003448D02*
Y0003776D01*
X0003265Y0004104D01*
X0003156D01*
X0002992Y0003776D01*
Y0003448D01*
X0002521D02*
Y0003776D01*
X0002740Y0004104D02*
X0002576Y0003776D01*
X0002467D01*
X0002303Y0004104D01*
X0001942Y0003776D02*
X0001614D01*
X0002051Y0003448D02*
X0001614D01*
Y0004104D01*
X0002051D01*
X0001198Y0003776D02*
X0001362Y0003448D01*
X0000925Y0003776D02*
X0001253D01*
X0001362Y0003885D01*
Y0003995D01*
X0001253Y0004104D01*
X0000925D01*
Y0003448D01*
G54D58*
X0014592Y0007431D03*
Y0005149D03*
X0016048D03*
Y0007431D03*
G54D59*
X0001233Y0010328D03*
Y0011168D03*
X0023490Y0009580D03*
X0022650D03*
X0008460Y0013800D03*
Y0012960D03*
X0005328Y0009344D03*
Y0010184D03*
X0007290Y0011850D03*
Y0012690D03*
X0003005Y0012821D03*
Y0011981D03*
G54D60*
X0011240Y0011220D03*
X0011920D03*
X0009740Y0010330D03*
X0010420D03*
X0009400Y0013930D03*
X0010080D03*
G54D61*
X0016030Y0009190D03*
X0016380D03*
X0004827Y0005367D03*
X0005177D03*
X0021645Y0009565D03*
X0021295D03*
X0007920Y0008630D03*
X0008270D03*
X0016030Y0009830D03*
X0016380D03*
G54D62*
X0008680Y0004010D03*
X0009680D03*
X0010680D03*
X0008640Y0007430D03*
X0009640D03*
X0010640D03*
X0008600Y0005910D03*
X0009600D03*
X0010600D03*
X0007670Y0009390D03*
X0008670D03*
X0009670D03*
G54D63*
X0001164Y0005909D03*
Y0008763D03*
G54D64*
Y0006548D03*
Y0008123D03*
G54D65*
X0002208Y0006381D03*
Y0008291D03*
G54D66*
X0002217Y0006824D03*
Y0007336D03*
Y0007080D03*
Y0007592D03*
Y0007848D03*
G54D67*
X0019530Y0009200D03*
Y0009940D03*
G54D68*
X0020320Y0009570D03*
G54D69*
X0017570Y0009520D03*
Y0009870D03*
X0015245Y0009515D03*
Y0009865D03*
X0012040Y0012900D03*
Y0013250D03*
X0011220Y0011880D03*
Y0012230D03*
Y0012890D03*
Y0013240D03*
X0001233Y0012307D03*
Y0012657D03*
X0012020Y0011890D03*
Y0012240D03*
G54D70*
X0013241Y0013871D03*
Y0013478D03*
Y0013084D03*
Y0012690D03*
Y0012296D03*
Y0011903D03*
X0017650D03*
Y0012296D03*
Y0012690D03*
Y0013084D03*
Y0013478D03*
Y0013871D03*
Y0014265D03*
X0013241D03*
Y0015442D03*
Y0015049D03*
X0017646Y0015442D03*
Y0015049D03*
G54D71*
X0014068Y0011470D03*
X0014462D03*
X0014855D03*
X0015249D03*
X0015643D03*
X0016430D03*
X0016824D03*
X0016036D03*
G54D72*
X0005362Y0011824D03*
G54D73*
X0006262Y0014264D03*
X0005362D03*
X0004462D03*
G54D74*
X0003517Y0009383D03*
X0002777D03*
G54D75*
X0003147Y0010173D03*
G54D76*
X0005406Y0007139D03*
X0005092D03*
Y0006824D03*
X0005406D03*
X0005721D03*
Y0007139D03*
Y0007454D03*
X0005406D03*
X0005092D03*
G54D77*
X0004914Y0006371D03*
X0005111D03*
X0005308D03*
X0005505D03*
X0005702D03*
X0005899D03*
Y0007907D03*
X0005702D03*
X0005505D03*
X0005308D03*
X0005111D03*
X0004914D03*
G54D78*
X0004639Y0007631D03*
Y0007434D03*
Y0007237D03*
Y0007040D03*
Y0006844D03*
Y0006647D03*
X0006174D03*
Y0006844D03*
Y0007040D03*
Y0007237D03*
Y0007434D03*
Y0007631D03*
G54D79*
X0016363Y0010269D03*
X0016757D03*
Y0010431D03*
X0016363D03*
G54D112*
X0009299Y0011460D03*
X0010401D03*
G54D113*
X0009850Y0012613D03*
Y0012810D03*
Y0013007D03*
G54D114*
X0009289Y0012810D03*
Y0012613D03*
X0010411D03*
Y0012810D03*
Y0013007D03*
X0009289D03*
M02*
