*
G04 Mass Parameters ***
*
G04 Image ***
*
%INC:\USERS\RITCH\GOOGLE_RITCHIE\DEVELOPMENT\REYAX\RYS8830\LAYOUT_EVB_V1.2\RYS8830_EVB_V12.DRD*%
%ICAS*%
%MOIN*%
%IPPOS*%
%ASAXBY*%
G74*%FSLAN2X34Y34*%
*
G04 Aperture Definitions ***
*
%ADD10C,0.0512*%
%ADD11C,0.0180*%
%ADD12R,0.0400X0.0340*%
%ADD13R,0.0500X0.0340*%
%ADD14R,0.0180X0.0220*%
%ADD15R,0.0500X0.0500*%
%ADD16C,0.0551*%
%ADD17R,0.0531X0.0394*%
%ADD18C,0.0394*%
%ADD19R,0.0610X0.0157*%
%ADD20C,0.0118*%
%ADD21R,0.0335X0.0118*%
%ADD22R,0.0118X0.0335*%
%ADD23R,0.0400X0.1000*%
%ADD24C,0.0600*%
%ADD25R,0.0472X0.0394*%
%ADD26R,0.0413X0.0157*%
%ADD27R,0.1181X0.0689*%
%ADD28R,0.1063X0.0315*%
%ADD29C,0.0157*%
%ADD30O,0.0236X0.0094*%
%ADD31R,0.0650X0.0925*%
%ADD32R,0.0220X0.0180*%
%ADD33R,0.0340X0.0400*%
%ADD34R,0.0340X0.0500*%
%ADD35C,0.0010*%
%ADD36C,0.0300*%
%ADD37C,0.0080*%
%ADD38C,0.0060*%
%ADD39C,0.0180*%
%ADD40C,0.0120*%
%ADD41C,0.0160*%
%ADD42C,0.0700*%
%ADD43C,0.0030*%
%ADD44C,0.0100*%
%ADD45R,0.0315X0.0394*%
%ADD46R,0.0400X0.0400*%
%ADD47O,0.0472X0.0315*%
%ADD48O,0.0315X0.0472*%
%ADD49R,0.1420X0.0880*%
%ADD50R,0.0480X0.0880*%
%ADD51C,0.0138*%
%ADD52C,0.0001*%
%ADD53C,0.0600*%
%ADD54C,0.0551*%
%ADD55C,0.0394*%
%ADD56C,0.0180*%
%ADD57C,0.0180*%
%ADD58R,0.0315X0.0394*%
%ADD59R,0.0500X0.0500*%
%ADD60R,0.0400X0.0400*%
%ADD61R,0.0180X0.0220*%
%ADD62C,0.0700*%
%ADD63C,0.0551*%
%ADD64R,0.0531X0.0394*%
%ADD65C,0.0394*%
%ADD66R,0.0610X0.0157*%
%ADD67R,0.0400X0.0340*%
%ADD68R,0.0500X0.0340*%
%ADD69R,0.0220X0.0180*%
%ADD70O,0.0472X0.0315*%
%ADD71O,0.0315X0.0472*%
%ADD72R,0.1420X0.0880*%
%ADD73R,0.0480X0.0880*%
%ADD74R,0.0340X0.0400*%
%ADD75R,0.0340X0.0500*%
%ADD76C,0.0118*%
%ADD77R,0.0118X0.0335*%
%ADD78R,0.0335X0.0118*%
%ADD79C,0.0138*%
%ADD80C,0.0098*%
%ADD81C,0.0700*%
%ADD82C,0.0040*%
%ADD83C,0.0180*%
%ADD84R,0.0315X0.0394*%
%ADD85R,0.0500X0.0500*%
%ADD86R,0.0400X0.0400*%
%ADD87R,0.0180X0.0220*%
%ADD88C,0.0600*%
%ADD89C,0.0551*%
%ADD90R,0.0531X0.0394*%
%ADD91C,0.0394*%
%ADD92R,0.0610X0.0157*%
%ADD93R,0.0400X0.0340*%
%ADD94R,0.0500X0.0340*%
%ADD95R,0.0220X0.0180*%
%ADD96O,0.0472X0.0315*%
%ADD97O,0.0315X0.0472*%
%ADD98R,0.1420X0.0880*%
%ADD99R,0.0480X0.0880*%
%ADD100R,0.0340X0.0400*%
%ADD101R,0.0340X0.0500*%
%ADD102C,0.0118*%
%ADD103R,0.0118X0.0335*%
%ADD104R,0.0335X0.0118*%
%ADD105C,0.0138*%
%ADD106C,0.0180*%
%ADD107C,0.0180*%
%ADD108R,0.0276X0.0472*%
%ADD109C,0.0098*%
%ADD110R,0.0276X0.0098*%
%ADD111C,0.0180*%
%ADD112R,0.0276X0.0472*%
%ADD113C,0.0098*%
%ADD114R,0.0276X0.0098*%
%ADD115C,0.0050*%
*
G04 Plot Data ***
*
G54D35*
G01X0030721Y0002454D02*
Y0015840D01*
X0000013D01*
Y0008832D01*
X0000603D01*
Y0005840D01*
X0000013D01*
Y0000092D01*
X0030721D01*
Y0002454D01*
G54D44*
G01X0025312Y-0015672D02*
X0024645D01*
X0024978Y-0015005D01*
X0025145D01*
Y-0016005D01*
X0024278Y-0015505D02*
X0024362Y-0015339D01*
Y-0015172D01*
X0024278Y-0015005D01*
X0023778D01*
X0023695Y-0015172D01*
Y-0015339D01*
X0023778Y-0015505D01*
X0024278D01*
X0024362Y-0015672D01*
Y-0015839D01*
X0024278Y-0016005D01*
X0023778D01*
X0023695Y-0015839D01*
Y-0015672D01*
X0023778Y-0015505D01*
X0023412Y-0016005D02*
X0023078D01*
X0023245D02*
Y-0015005D01*
X0023078Y-0015172D01*
X0012916Y-0016005D02*
X0012332D01*
Y-0015005D01*
X0012049Y-0015672D02*
X0011382D01*
X0012049Y-0016005D02*
Y-0015505D01*
X0011799Y-0015005D01*
X0011632D01*
X0011382Y-0015505D01*
Y-0016005D01*
X0010766D02*
Y-0015005D01*
X0011099D02*
X0010432D01*
X0009566Y-0016005D02*
X0009482Y-0015839D01*
Y-0015172D01*
X0009566Y-0015005D01*
X0010066D01*
X0010149Y-0015172D01*
Y-0015839D01*
X0010066Y-0016005D01*
X0009566D01*
X0008866D02*
Y-0015005D01*
X0009199D02*
X0008532D01*
X0025312Y-0014144D02*
X0024867D01*
X0025312Y-0013700D01*
Y-0013589D01*
X0025256Y-0013478D01*
X0024923D01*
X0024867Y-0013589D01*
X0011251Y-0014033D02*
X0011362Y-0014144D01*
X0011584D01*
X0011695Y-0014033D01*
Y-0013922D01*
X0011473Y-0013700D01*
X0011695Y-0013478D01*
X0011251D01*
X0010995Y-0013922D02*
X0010551D01*
X0010773Y-0013478D01*
X0010884D01*
Y-0014144D01*
X0010017D02*
X0009906Y-0014033D01*
X0009851Y-0013922D01*
Y-0013700D01*
X0009906Y-0013589D01*
X0010017Y-0013478D01*
X0010128D01*
X0010239Y-0013589D01*
X0010295Y-0013700D01*
Y-0013922D01*
X0010239Y-0014033D01*
X0010128Y-0014144D01*
X0010017D01*
X0009484D02*
X0009595D01*
Y-0014033D01*
X0009484D01*
Y-0014144D01*
X0008839D02*
X0008728Y-0014033D01*
X0008673Y-0013922D01*
Y-0013700D01*
X0008728Y-0013589D01*
X0008839Y-0013478D01*
X0008951D01*
X0009062Y-0013589D01*
X0009117Y-0013700D01*
Y-0013922D01*
X0009062Y-0014033D01*
X0008951Y-0014144D01*
X0008839D01*
X0025312Y-0012644D02*
X0024867D01*
X0025312Y-0012200D01*
Y-0012089D01*
X0025256Y-0011978D01*
X0024923D01*
X0024867Y-0012089D01*
X0024612Y-0012644D02*
X0024389D01*
X0024501D02*
Y-0011978D01*
X0024389Y-0012089D01*
X0011362Y-0012644D02*
X0011695Y-0011978D01*
X0011251D01*
X0010551Y-0012533D02*
X0010662Y-0012644D01*
X0010884D01*
X0010995Y-0012533D01*
Y-0012422D01*
X0010773Y-0012200D01*
X0010995Y-0011978D01*
X0010551D01*
X0010017Y-0012644D02*
X0009906Y-0012533D01*
X0009851Y-0012422D01*
Y-0012200D01*
X0009906Y-0012089D01*
X0010017Y-0011978D01*
X0010128D01*
X0010239Y-0012089D01*
X0010295Y-0012200D01*
Y-0012422D01*
X0010239Y-0012533D01*
X0010128Y-0012644D01*
X0010017D01*
X0009484D02*
X0009595D01*
Y-0012533D01*
X0009484D01*
Y-0012644D01*
X0008839D02*
X0008728Y-0012533D01*
X0008673Y-0012422D01*
Y-0012200D01*
X0008728Y-0012089D01*
X0008839Y-0011978D01*
X0008951D01*
X0009062Y-0012089D01*
X0009117Y-0012200D01*
Y-0012422D01*
X0009062Y-0012533D01*
X0008951Y-0012644D01*
X0008839D01*
X0025312Y-0011144D02*
X0024867D01*
X0025312Y-0010700D01*
Y-0010589D01*
X0025256Y-0010478D01*
X0024923D01*
X0024867Y-0010589D01*
X0011639Y-0010811D02*
X0011695Y-0010700D01*
Y-0010589D01*
X0011639Y-0010478D01*
X0011306D01*
X0011251Y-0010589D01*
Y-0010700D01*
X0011306Y-0010811D01*
X0011639D01*
X0011695Y-0010922D01*
Y-0011033D01*
X0011639Y-0011144D01*
X0011306D01*
X0011251Y-0011033D01*
Y-0010922D01*
X0011306Y-0010811D01*
X0010995Y-0011144D02*
X0010551D01*
X0010995Y-0010700D01*
Y-0010589D01*
X0010939Y-0010478D01*
X0010606D01*
X0010551Y-0010589D01*
X0010017Y-0011144D02*
X0009906Y-0011033D01*
X0009851Y-0010922D01*
Y-0010700D01*
X0009906Y-0010589D01*
X0010017Y-0010478D01*
X0010128D01*
X0010239Y-0010589D01*
X0010295Y-0010700D01*
Y-0010922D01*
X0010239Y-0011033D01*
X0010128Y-0011144D01*
X0010017D01*
X0009484D02*
X0009595D01*
Y-0011033D01*
X0009484D01*
Y-0011144D01*
X0008839D02*
X0008728Y-0011033D01*
X0008673Y-0010922D01*
Y-0010700D01*
X0008728Y-0010589D01*
X0008839Y-0010478D01*
X0008951D01*
X0009062Y-0010589D01*
X0009117Y-0010700D01*
Y-0010922D01*
X0009062Y-0011033D01*
X0008951Y-0011144D01*
X0008839D01*
X0025256Y-0009311D02*
X0025312Y-0009200D01*
Y-0009089D01*
X0025256Y-0008978D01*
X0024923D01*
X0024867Y-0009089D01*
Y-0009200D01*
X0024923Y-0009311D01*
X0025256D01*
X0025312Y-0009422D01*
Y-0009533D01*
X0025256Y-0009644D01*
X0024923D01*
X0024867Y-0009533D01*
Y-0009422D01*
X0024923Y-0009311D01*
X0024223D02*
X0024556D01*
X0024612Y-0009422D01*
Y-0009533D01*
X0024556Y-0009644D01*
X0024223D01*
X0024167Y-0009533D01*
Y-0009422D01*
X0024389Y-0008978D01*
X0023912Y-0009644D02*
X0023689D01*
X0023801D02*
Y-0008978D01*
X0023689Y-0009089D01*
X0011695Y-0009644D02*
X0011251D01*
X0011695Y-0009200D01*
Y-0009089D01*
X0011639Y-0008978D01*
X0011306D01*
X0011251Y-0009089D01*
X0010995Y-0009644D02*
X0010773D01*
X0010884D02*
Y-0008978D01*
X0010773Y-0009089D01*
X0010128Y-0009644D02*
X0010017Y-0009533D01*
X0009962Y-0009422D01*
Y-0009200D01*
X0010017Y-0009089D01*
X0010128Y-0008978D01*
X0010239D01*
X0010351Y-0009089D01*
X0010406Y-0009200D01*
Y-0009422D01*
X0010351Y-0009533D01*
X0010239Y-0009644D01*
X0010128D01*
X0009595D02*
X0009706D01*
Y-0009533D01*
X0009595D01*
Y-0009644D01*
X0008951D02*
X0008839Y-0009533D01*
X0008784Y-0009422D01*
Y-0009200D01*
X0008839Y-0009089D01*
X0008951Y-0008978D01*
X0009062D01*
X0009173Y-0009089D01*
X0009228Y-0009200D01*
Y-0009422D01*
X0009173Y-0009533D01*
X0009062Y-0009644D01*
X0008951D01*
X0033716Y-0007505D02*
X0033216D01*
X0033882Y-0008005D02*
X0033216D01*
Y-0007005D01*
X0033882D01*
X0032599Y-0008005D02*
Y-0007005D01*
X0032932D02*
X0032266D01*
X0031399Y-0008005D02*
X0031316Y-0007839D01*
Y-0007172D01*
X0031399Y-0007005D01*
X0031899D01*
X0031982Y-0007172D01*
Y-0007839D01*
X0031899Y-0008005D01*
X0031399D01*
X0031032Y-0007005D02*
Y-0008005D01*
X0030866Y-0007839D01*
X0030532Y-0007172D01*
X0030366Y-0007005D01*
Y-0008005D01*
X0024528D02*
Y-0007505D01*
X0024862Y-0007005D02*
X0024612Y-0007505D01*
X0024445D01*
X0024195Y-0007005D01*
X0023578Y-0008005D02*
Y-0007005D01*
X0023912D02*
X0023245D01*
X0022628Y-0007672D02*
X0022962Y-0008005D01*
X0022295Y-0007839D02*
X0022378Y-0008005D01*
X0022712D01*
X0022795Y-0007839D01*
X0022962Y-0007672D01*
Y-0007172D01*
X0022878Y-0007005D01*
X0022378D01*
X0022295Y-0007172D01*
Y-0007839D01*
X0018012Y-0008005D02*
X0017428D01*
Y-0007005D01*
X0016562Y-0008005D02*
X0016478Y-0007839D01*
Y-0007172D01*
X0016562Y-0007005D01*
X0017062D01*
X0017145Y-0007172D01*
Y-0007839D01*
X0017062Y-0008005D01*
X0016562D01*
X0015862D02*
Y-0007005D01*
X0016195D02*
X0015528D01*
X0010191Y-0008005D02*
Y-0007005D01*
X0010024Y-0007172D01*
X0009857Y-0007505D01*
X0009691Y-0007172D01*
X0009524Y-0007005D01*
Y-0008005D01*
X0009241Y-0007672D02*
X0008574D01*
X0009241Y-0008005D02*
Y-0007505D01*
X0008991Y-0007005D01*
X0008824D01*
X0008574Y-0007505D01*
Y-0008005D01*
X0008291D02*
X0007957D01*
X0008124D02*
Y-0007005D01*
X0008291D02*
X0007957D01*
X0006924Y-0008005D02*
Y-0007005D01*
X0006841Y-0008005D02*
X0007341D01*
X0007507Y-0007672D01*
Y-0007339D01*
X0007341Y-0007005D01*
X0006841D01*
X0003753Y-0008005D02*
Y-0007005D01*
X0003587Y-0007172D01*
X0003420Y-0007505D01*
X0003253Y-0007172D01*
X0003087Y-0007005D01*
Y-0008005D01*
X0002470D02*
Y-0007505D01*
X0002803Y-0007005D02*
X0002553Y-0007505D01*
X0002387D01*
X0002137Y-0007005D01*
X0001853Y-0007172D02*
X0001770Y-0007005D01*
X0001270D01*
X0001187Y-0007172D01*
Y-0007339D01*
X0001270Y-0007505D01*
X0001770D01*
X0001853Y-0007672D01*
Y-0007839D01*
X0001770Y-0008005D01*
X0001270D01*
X0001187Y-0007839D01*
X0024041Y-0006005D02*
Y-0005005D01*
X0024374D02*
X0023707D01*
X0023174Y-0005505D02*
X0023424Y-0006005D01*
X0022757Y-0005505D02*
X0023257D01*
X0023424Y-0005339D01*
Y-0005172D01*
X0023257Y-0005005D01*
X0022757D01*
Y-0006005D01*
X0022474Y-0005672D02*
X0021807D01*
X0022474Y-0006005D02*
Y-0005505D01*
X0022224Y-0005005D01*
X0022057D01*
X0021807Y-0005505D01*
Y-0006005D01*
X0021524Y-0005505D02*
X0020857D01*
X0021524Y-0006005D02*
Y-0005005D01*
X0020857Y-0006005D02*
Y-0005005D01*
X0020574Y-0005839D02*
X0020491Y-0006005D01*
X0019991D01*
X0019907Y-0005839D01*
Y-0005172D01*
X0019991Y-0005005D01*
X0020491D01*
X0020574Y-0005172D01*
X0018299Y-0006005D02*
X0017716D01*
Y-0005005D01*
X0017432Y-0006005D02*
X0016849D01*
Y-0005005D01*
X0016566Y-0006005D02*
X0016232D01*
X0016399D02*
Y-0005005D01*
X0016566D02*
X0016232D01*
X0015532Y-0005505D02*
X0015782Y-0006005D01*
X0015116Y-0005505D02*
X0015616D01*
X0015782Y-0005339D01*
Y-0005172D01*
X0015616Y-0005005D01*
X0015116D01*
Y-0006005D01*
X0014249D02*
Y-0005005D01*
X0014166Y-0006005D02*
X0014666D01*
X0014832Y-0005672D01*
Y-0005339D01*
X0014666Y-0005005D01*
X0014166D01*
X0009310Y0013120D02*
X0008810D01*
X0009060Y0013370D02*
Y0012870D01*
X0011010Y0012700D02*
X0010510D01*
X0010760Y0012950D02*
Y0012450D01*
X0010390Y0009900D02*
X0009890D01*
X0010140Y0010150D02*
Y0009650D01*
X0017199Y0010431D02*
X0016699D01*
X0016949Y0010681D02*
Y0010181D01*
X0005060Y0005700D02*
X0004560D01*
X0004810Y0005950D02*
Y0005450D01*
X0005070Y0008836D02*
X0004570D01*
X0004820Y0009086D02*
Y0008586D01*
X0005320Y0005910D02*
X0004820D01*
X0005070Y0006160D02*
Y0005660D01*
X0005612Y0011058D02*
X0005112D01*
X0005362Y0011308D02*
Y0010808D01*
X0020840Y0010950D02*
X0020340D01*
X0020590Y0011200D02*
Y0010700D01*
X0005860Y0008430D02*
X0005360D01*
X0005610Y0008680D02*
Y0008180D01*
X0020280Y0010960D02*
X0019780D01*
X0020030Y0011210D02*
Y0010710D01*
X0004400Y0007320D02*
X0003900D01*
X0004150Y0007570D02*
Y0007070D01*
X0003720Y0007080D02*
X0003220D01*
X0003470Y0007330D02*
Y0006830D01*
X0002178Y-0013672D02*
Y-0014172D01*
X0002678Y-0013672D02*
X0002178D01*
X0002678Y-0014172D02*
Y-0013672D01*
X0002178Y-0014172D02*
X0002678D01*
Y-0013672D02*
X0002178Y-0014172D01*
X0002678D02*
X0002178Y-0013672D01*
Y-0012172D02*
Y-0012672D01*
X0002678Y-0012172D02*
X0002178D01*
X0002678Y-0012672D02*
Y-0012172D01*
X0002178Y-0012672D02*
X0002678D01*
Y-0012422D02*
X0002178D01*
X0002428Y-0012172D02*
Y-0012672D01*
X0002678Y-0010672D02*
X0002178Y-0011172D01*
X0002678D02*
X0002178Y-0010672D01*
X0002678Y-0009422D02*
X0002178D01*
X0002428Y-0009172D02*
Y-0009672D01*
X0037903Y-0016722D02*
X0000553D01*
X0037853Y-0016672D02*
X0000603D01*
X0037853Y-0014672D02*
X0000603D01*
X0037853Y-0013172D02*
X0000603D01*
X0037853Y-0011672D02*
X0000603D01*
X0037853Y-0010172D02*
X0000603D01*
X0037853Y-0008672D02*
X0000603D01*
X0037853Y-0008622D02*
X0000603D01*
X0037853Y-0006672D02*
X0000603D01*
X0037853Y-0006622D02*
X0000603D01*
X0037853Y-0004672D02*
X0000603D01*
X0037903Y-0004622D02*
X0000553D01*
X0037903Y-0016672D02*
Y-0004672D01*
X0037853Y-0016672D02*
Y-0004672D01*
X0026312Y-0016672D02*
Y-0006672D01*
X0020762Y-0016672D02*
Y-0006672D01*
X0012695Y-0014672D02*
Y-0006672D01*
X0004303Y-0014672D02*
Y-0006672D01*
X0004253Y-0014672D02*
Y-0006672D01*
X0000553Y-0016672D02*
Y-0004672D01*
X0000603Y-0016672D02*
Y-0004672D01*
X0009400Y0008620D02*
X0008900D01*
X0009150Y0008870D02*
Y0008370D01*
X0015070Y0008130D02*
X0014570D01*
X0014820Y0008380D02*
Y0007880D01*
X0016740Y0008150D02*
X0016240D01*
X0016490Y0008400D02*
Y0007900D01*
X0017650Y0004390D02*
X0017150D01*
X0017400Y0004640D02*
Y0004140D01*
X0017050Y0005560D02*
X0016550D01*
X0016800Y0005810D02*
Y0005310D01*
X0006320Y0012810D02*
X0005820D01*
X0006070Y0013060D02*
Y0012560D01*
X0007520Y0013710D02*
X0007020D01*
X0007270Y0013960D02*
Y0013460D01*
X0012940Y0012400D02*
X0012440D01*
X0012690Y0012650D02*
Y0012150D01*
X0014630Y0010740D02*
X0014130D01*
X0014380Y0010990D02*
Y0010490D01*
X0013430Y0011090D02*
X0012930D01*
X0013180Y0011340D02*
Y0010840D01*
X0012600Y0013570D02*
X0012100D01*
X0012350Y0013820D02*
Y0013320D01*
X0009160Y0012390D02*
X0008660D01*
X0008910Y0012640D02*
Y0012140D01*
X0008630Y0011860D02*
X0008130D01*
X0008380Y0012110D02*
Y0011610D01*
X0008820Y0010750D02*
X0008320D01*
X0008570Y0011000D02*
Y0010500D01*
X0010110Y0012150D02*
X0009610D01*
X0009860Y0012400D02*
Y0011900D01*
X0011260Y0010660D02*
X0010760D01*
X0011010Y0010910D02*
Y0010410D01*
X0012620Y0011230D02*
X0012120D01*
X0012370Y0011480D02*
Y0010980D01*
X0011890Y0012610D02*
X0011390D01*
X0011640Y0012860D02*
Y0012360D01*
X0017520Y0011200D02*
X0017020D01*
X0017270Y0011450D02*
Y0010950D01*
X0006990Y0004550D02*
X0006490D01*
X0006740Y0004800D02*
Y0004300D01*
X0007890Y0004540D02*
X0007390D01*
X0007640Y0004790D02*
Y0004290D01*
X0013630Y0005170D02*
X0013130D01*
X0013380Y0005420D02*
Y0004920D01*
X0011690Y0005170D02*
X0011190D01*
X0011440Y0005420D02*
Y0004920D01*
X0007890Y0005430D02*
X0007390D01*
X0007640Y0005680D02*
Y0005180D01*
X0007000Y0005420D02*
X0006500D01*
X0006750Y0005670D02*
Y0005170D01*
X0008860Y0015540D02*
X0008360D01*
X0008610Y0015790D02*
Y0015290D01*
X0008860Y0014880D02*
X0008360D01*
X0008610Y0015130D02*
Y0014630D01*
X0010000Y0014920D02*
X0009500D01*
X0009750Y0015170D02*
Y0014670D01*
X0011640Y0014660D02*
X0011140D01*
X0011390Y0014910D02*
Y0014410D01*
X0011640Y0015080D02*
X0011140D01*
X0011390Y0015330D02*
Y0014830D01*
X0011640Y0015530D02*
X0011140D01*
X0011390Y0015780D02*
Y0015280D01*
X0020370Y0014640D02*
X0019870D01*
X0020120Y0014890D02*
Y0014390D01*
X0020370Y0015540D02*
X0019870D01*
X0020120Y0015790D02*
Y0015290D01*
X0020390Y0015080D02*
X0019890D01*
X0020140Y0015330D02*
Y0014830D01*
X0019570Y0015080D02*
X0019070D01*
X0019320Y0015330D02*
Y0014830D01*
X0019570Y0014640D02*
X0019070D01*
X0019320Y0014890D02*
Y0014390D01*
X0018520Y0015080D02*
X0018020D01*
X0018270Y0015330D02*
Y0014830D01*
X0012860Y0015080D02*
X0012360D01*
X0012610Y0015330D02*
Y0014830D01*
X0012290Y0015080D02*
X0011790D01*
X0012040Y0015330D02*
Y0014830D01*
X0012290Y0014660D02*
X0011790D01*
X0012040Y0014910D02*
Y0014410D01*
X0012310Y0015530D02*
X0011810D01*
X0012060Y0015780D02*
Y0015280D01*
X0006640Y0010940D02*
X0006140D01*
X0006390Y0011190D02*
Y0010690D01*
X0004530Y0010950D02*
X0004030D01*
X0004280Y0011200D02*
Y0010700D01*
X0016660Y0009460D02*
X0016160D01*
X0016410Y0009710D02*
Y0009210D01*
X0015110Y0009450D02*
X0014610D01*
X0014860Y0009700D02*
Y0009200D01*
X0018540Y0009150D02*
X0018040D01*
X0018290Y0009400D02*
Y0008900D01*
X0004510Y0008510D02*
X0004010D01*
X0004260Y0008760D02*
Y0008260D01*
X0003810Y0006380D02*
X0003310D01*
X0003560Y0006630D02*
Y0006130D01*
X0002390Y0011990D02*
X0001890D01*
X0002140Y0012240D02*
Y0011740D01*
X0006960Y0009000D02*
X0006460D01*
X0006710Y0009250D02*
Y0008750D01*
X0007940Y0007060D02*
X0007440D01*
X0007690Y0007310D02*
Y0006810D01*
X0011000Y0012400D02*
X0010500D01*
X0010750Y0012650D02*
Y0012150D01*
X0007720Y0014890D02*
X0007220D01*
X0007470Y0015140D02*
Y0014640D01*
X0000619Y0015550D02*
X0000119D01*
X0000369Y0015800D02*
Y0015300D01*
X0000619Y0014261D02*
X0000119D01*
X0000369Y0014511D02*
Y0014011D01*
X0001839Y0009531D02*
X0001339D01*
X0001589Y0009781D02*
Y0009281D01*
X0000629Y0009530D02*
X0000129D01*
X0000379Y0009780D02*
Y0009280D01*
X0001829Y0005050D02*
X0001329D01*
X0001579Y0005300D02*
Y0004800D01*
X0011699Y0008361D02*
X0011199D01*
X0011449Y0008611D02*
Y0008111D01*
X0011699Y0006420D02*
X0011199D01*
X0011449Y0006670D02*
Y0006170D01*
X0011710Y0009410D02*
X0011210D01*
X0011460Y0009660D02*
Y0009160D01*
X0018549Y0010340D02*
X0018049D01*
X0018299Y0010590D02*
Y0010090D01*
X0003809Y0014270D02*
X0003309D01*
X0003559Y0014520D02*
Y0014020D01*
X0019569Y0012261D02*
X0019069D01*
X0019319Y0012511D02*
Y0012011D01*
X0019569Y0015541D02*
X0019069D01*
X0019319Y0015791D02*
Y0015291D01*
X0000609Y0002421D02*
X0000109D01*
X0000359Y0002671D02*
Y0002171D01*
X0001829Y0002420D02*
X0001329D01*
X0001579Y0002670D02*
Y0002170D01*
X0003809Y0002430D02*
X0003309D01*
X0003559Y0002680D02*
Y0002180D01*
X0005779Y0002450D02*
X0005279D01*
X0005529Y0002700D02*
Y0002200D01*
X0007759Y0002450D02*
X0007259D01*
X0007509Y0002700D02*
Y0002200D01*
X0009729Y0002410D02*
X0009229D01*
X0009479Y0002660D02*
Y0002160D01*
X0011689Y0002440D02*
X0011189D01*
X0011439Y0002690D02*
Y0002190D01*
X0013609Y0002420D02*
X0013109D01*
X0013359Y0002670D02*
Y0002170D01*
X0015649Y0002420D02*
X0015149D01*
X0015399Y0002670D02*
Y0002170D01*
X0017609Y0002410D02*
X0017109D01*
X0017359Y0002660D02*
Y0002160D01*
X0019559Y0002390D02*
X0019059D01*
X0019309Y0002640D02*
Y0002140D01*
X0021529Y0002440D02*
X0021029D01*
X0021279Y0002690D02*
Y0002190D01*
X0025480Y0014244D02*
X0024980D01*
X0025230Y0014494D02*
Y0013994D01*
X0025480Y0012294D02*
X0024980D01*
X0025230Y0012544D02*
Y0012044D01*
X0025480Y0010324D02*
X0024980D01*
X0025230Y0010574D02*
Y0010074D01*
X0025480Y0008354D02*
X0024980D01*
X0025230Y0008604D02*
Y0008104D01*
X0025480Y0006374D02*
X0024980D01*
X0025230Y0006624D02*
Y0006124D01*
X0025480Y0004424D02*
X0024980D01*
X0025230Y0004674D02*
Y0004174D01*
X0025480Y0002434D02*
X0024980D01*
X0025230Y0002684D02*
Y0002184D01*
X0001840Y0000464D02*
X0001340D01*
X0001590Y0000714D02*
Y0000214D01*
X0003820Y0000464D02*
X0003320D01*
X0003570Y0000714D02*
Y0000214D01*
X0007760Y0000464D02*
X0007260D01*
X0007510Y0000714D02*
Y0000214D01*
X0009730Y0000464D02*
X0009230D01*
X0009480Y0000714D02*
Y0000214D01*
X0011690Y0000464D02*
X0011190D01*
X0011440Y0000714D02*
Y0000214D01*
X0013603Y0000466D02*
X0013103D01*
X0013353Y0000716D02*
Y0000216D01*
X0015640Y0000464D02*
X0015140D01*
X0015390Y0000714D02*
Y0000214D01*
X0017603Y0000466D02*
X0017103D01*
X0017353Y0000716D02*
Y0000216D01*
X0019560Y0000474D02*
X0019060D01*
X0019310Y0000724D02*
Y0000224D01*
X0021530Y0000474D02*
X0021030D01*
X0021280Y0000724D02*
Y0000224D01*
X0023513Y0000476D02*
X0023013D01*
X0023263Y0000726D02*
Y0000226D01*
X0029423Y0015556D02*
X0028923D01*
X0029173Y0015806D02*
Y0015306D01*
X0029413Y0014266D02*
X0028913D01*
X0029163Y0014516D02*
Y0014016D01*
X0029410Y0012274D02*
X0028910D01*
X0029160Y0012524D02*
Y0012024D01*
X0029410Y0010314D02*
X0028910D01*
X0029160Y0010564D02*
Y0010064D01*
X0029410Y0008364D02*
X0028910D01*
X0029160Y0008614D02*
Y0008114D01*
X0029400Y0006344D02*
X0028900D01*
X0029150Y0006594D02*
Y0006094D01*
X0027453Y0014246D02*
X0026953D01*
X0027203Y0014496D02*
Y0013996D01*
X0019569Y0014290D02*
X0019069D01*
X0019319Y0014540D02*
Y0014040D01*
X0017090Y0010780D02*
X0016590D01*
X0016840Y0011030D02*
Y0010530D01*
X0009990Y0015540D02*
X0009490D01*
X0009740Y0015790D02*
Y0015290D01*
X0012860Y0014660D02*
X0012360D01*
X0012610Y0014910D02*
Y0014410D01*
X0018520Y0014640D02*
X0018020D01*
X0018270Y0014890D02*
Y0014390D01*
X0013520Y0009380D02*
X0013020D01*
X0013270Y0009630D02*
Y0009130D01*
X0018519Y0015541D02*
X0018019D01*
X0018269Y0015791D02*
Y0015291D01*
X0015649Y0006410D02*
X0015149D01*
X0015399Y0006660D02*
Y0006160D01*
X0013600Y0006420D02*
X0013100D01*
X0013350Y0006670D02*
Y0006170D01*
X0007920Y0007830D02*
X0007420D01*
X0007670Y0008080D02*
Y0007580D01*
X0007000Y0008350D02*
X0006500D01*
X0006750Y0008600D02*
Y0008100D01*
X0027422Y0010316D02*
X0026922D01*
X0027172Y0010566D02*
Y0010066D01*
X0027433Y0008356D02*
X0026933D01*
X0027183Y0008606D02*
Y0008106D01*
X0021513Y0012266D02*
X0021013D01*
X0021263Y0012516D02*
Y0012016D01*
X0023523Y0015546D02*
X0023023D01*
X0023273Y0015796D02*
Y0015296D01*
X0025483Y0015556D02*
X0024983D01*
X0025233Y0015806D02*
Y0015306D01*
X0001840Y0015551D02*
X0001340D01*
X0001590Y0015801D02*
Y0015301D01*
X0000609Y0005060D02*
X0000109D01*
X0000359Y0005310D02*
Y0004810D01*
X0000609Y0000461D02*
X0000109D01*
X0000359Y0000711D02*
Y0000211D01*
X0005783Y0000466D02*
X0005283D01*
X0005533Y0000716D02*
Y0000216D01*
X0025483Y0000486D02*
X0024983D01*
X0025233Y0000736D02*
Y0000236D01*
X0027433Y0006366D02*
X0026933D01*
X0027183Y0006616D02*
Y0006116D01*
X0029403Y0000486D02*
X0028903D01*
X0029153Y0000736D02*
Y0000236D01*
X0029402Y0002446D02*
X0028902D01*
X0029152Y0002696D02*
Y0002196D01*
X0027463Y0015556D02*
X0026963D01*
X0027213Y0015806D02*
Y0015306D01*
X0021529Y0015541D02*
X0021029D01*
X0021279Y0015791D02*
Y0015291D01*
X0012860Y0015540D02*
X0012360D01*
X0012610Y0015790D02*
Y0015290D01*
X0005760Y0015551D02*
X0005260D01*
X0005510Y0015801D02*
Y0015301D01*
X0003800Y0015551D02*
X0003300D01*
X0003550Y0015801D02*
Y0015301D01*
X0001849Y0014260D02*
X0001349D01*
X0001599Y0014510D02*
Y0014010D01*
X0004530Y0010200D02*
X0004030D01*
X0004280Y0010450D02*
Y0009950D01*
X0004590Y0005870D02*
X0004090D01*
X0004340Y0006120D02*
Y0005620D01*
X0021520Y0006411D02*
X0021020D01*
X0021270Y0006661D02*
Y0006161D01*
X0021529Y0014240D02*
X0021029D01*
X0021279Y0014490D02*
Y0013990D01*
X0027433Y0012276D02*
X0026933D01*
X0027183Y0012526D02*
Y0012026D01*
X0023532Y0014276D02*
X0023032D01*
X0023282Y0014526D02*
Y0014026D01*
X0023513Y0012286D02*
X0023013D01*
X0023263Y0012536D02*
Y0012036D01*
X0027422Y0002456D02*
X0026922D01*
X0027172Y0002706D02*
Y0002206D01*
X0019560Y0006391D02*
X0019060D01*
X0019310Y0006641D02*
Y0006141D01*
X0017840Y0006420D02*
X0017340D01*
X0017590Y0006670D02*
Y0006170D01*
X0003809Y0005060D02*
X0003309D01*
X0003559Y0005310D02*
Y0004810D01*
X0007120Y0010170D02*
X0006620D01*
X0006870Y0010420D02*
Y0009920D01*
X0027423Y0000486D02*
X0026923D01*
X0027173Y0000736D02*
Y0000236D01*
X0013589Y0008361D02*
X0013089D01*
X0013339Y0008611D02*
Y0008111D01*
X0017840Y0008350D02*
X0017340D01*
X0017590Y0008600D02*
Y0008100D01*
X0029402Y0004416D02*
X0028902D01*
X0029152Y0004666D02*
Y0004166D01*
X0019540Y0008361D02*
X0019040D01*
X0019290Y0008611D02*
Y0008111D01*
X0007749Y0015551D02*
X0007249D01*
X0007499Y0015801D02*
Y0015301D01*
X0021523Y0008360D02*
X0021023D01*
X0021273Y0008610D02*
Y0008110D01*
X0006990Y0006470D02*
X0006490D01*
X0006740Y0006720D02*
Y0006220D01*
X0027433Y0004416D02*
X0026933D01*
X0027183Y0004666D02*
Y0004166D01*
X0023513Y0002456D02*
X0023013D01*
X0023263Y0002706D02*
Y0002206D01*
X0021510Y0010351D02*
X0021010D01*
X0021260Y0010601D02*
Y0010101D01*
X0008430Y0004260D02*
Y0003760D01*
X0008930Y0004260D02*
X0008430D01*
X0008930Y0003760D02*
Y0004260D01*
X0008430Y0003760D02*
X0008930D01*
Y0004010D02*
X0008430D01*
X0008680Y0004260D02*
Y0003760D01*
X0009430Y0004260D02*
Y0003760D01*
X0009930Y0004260D02*
X0009430D01*
X0009930Y0003760D02*
Y0004260D01*
X0009430Y0003760D02*
X0009930D01*
Y0004010D02*
X0009430D01*
X0009680Y0004260D02*
Y0003760D01*
X0010430Y0004260D02*
Y0003760D01*
X0010930Y0004260D02*
X0010430D01*
X0010930Y0003760D02*
Y0004260D01*
X0010430Y0003760D02*
X0010930D01*
Y0004010D02*
X0010430D01*
X0010680Y0004260D02*
Y0003760D01*
X0008390Y0007680D02*
Y0007180D01*
X0008890Y0007680D02*
X0008390D01*
X0008890Y0007180D02*
Y0007680D01*
X0008390Y0007180D02*
X0008890D01*
Y0007430D02*
X0008390D01*
X0008640Y0007680D02*
Y0007180D01*
X0009390Y0007680D02*
Y0007180D01*
X0009890Y0007680D02*
X0009390D01*
X0009890Y0007180D02*
Y0007680D01*
X0009390Y0007180D02*
X0009890D01*
Y0007430D02*
X0009390D01*
X0009640Y0007680D02*
Y0007180D01*
X0010390Y0007680D02*
Y0007180D01*
X0010890Y0007680D02*
X0010390D01*
X0010890Y0007180D02*
Y0007680D01*
X0010390Y0007180D02*
X0010890D01*
Y0007430D02*
X0010390D01*
X0010640Y0007680D02*
Y0007180D01*
X0008350Y0006160D02*
Y0005660D01*
X0008850Y0006160D02*
X0008350D01*
X0008850Y0005660D02*
Y0006160D01*
X0008350Y0005660D02*
X0008850D01*
Y0005910D02*
X0008350D01*
X0008600Y0006160D02*
Y0005660D01*
X0009350Y0006160D02*
Y0005660D01*
X0009850Y0006160D02*
X0009350D01*
X0009850Y0005660D02*
Y0006160D01*
X0009350Y0005660D02*
X0009850D01*
Y0005910D02*
X0009350D01*
X0009600Y0006160D02*
Y0005660D01*
X0010350Y0006160D02*
Y0005660D01*
X0010850Y0006160D02*
X0010350D01*
X0010850Y0005660D02*
Y0006160D01*
X0010350Y0005660D02*
X0010850D01*
Y0005910D02*
X0010350D01*
X0010600Y0006160D02*
Y0005660D01*
X0002458Y0006631D02*
X0001958Y0006131D01*
X0002458D02*
X0001958Y0006631D01*
X0002458Y0008541D02*
X0001958Y0008041D01*
X0002458D02*
X0001958Y0008541D01*
X0000914Y0006159D02*
Y0005659D01*
X0001414Y0006159D02*
X0000914D01*
X0001414Y0005659D02*
Y0006159D01*
X0000914Y0005659D02*
X0001414D01*
Y0006159D02*
X0000914Y0005659D01*
X0001414D02*
X0000914Y0006159D01*
Y0009013D02*
Y0008513D01*
X0001414Y0009013D02*
X0000914D01*
X0001414Y0008513D02*
Y0009013D01*
X0000914Y0008513D02*
X0001414D01*
Y0009013D02*
X0000914Y0008513D01*
X0001414D02*
X0000914Y0009013D01*
X0007420Y0009640D02*
Y0009140D01*
X0007920Y0009640D02*
X0007420D01*
X0007920Y0009140D02*
Y0009640D01*
X0007420Y0009140D02*
X0007920D01*
Y0009390D02*
X0007420D01*
X0007670Y0009640D02*
Y0009140D01*
X0008420Y0009640D02*
Y0009140D01*
X0008920Y0009640D02*
X0008420D01*
X0008920Y0009140D02*
Y0009640D01*
X0008420Y0009140D02*
X0008920D01*
Y0009390D02*
X0008420D01*
X0008670Y0009640D02*
Y0009140D01*
X0009420Y0009640D02*
Y0009140D01*
X0009920Y0009640D02*
X0009420D01*
X0009920Y0009140D02*
Y0009640D01*
X0009420Y0009140D02*
X0009920D01*
Y0009390D02*
X0009420D01*
X0009670Y0009640D02*
Y0009140D01*
M02*
