%
T1C0.0120F200S100
X000359Y000461
X000359Y002421
X000359Y005060
X000369Y014261
X000369Y015550
X000379Y009530
X001579Y002420
X001579Y005050
X001589Y009531
X001590Y000464
X001590Y015551
X001599Y014260
X002140Y011990
X003470Y007080
X003550Y015551
X003559Y002430
X003559Y005060
X003559Y014270
X003560Y006380
X003570Y000464
X004150Y007320
X004260Y008510
X004280Y010200
X004280Y010950
X004340Y005870
X004810Y005700
X004820Y008836
X005070Y005910
X005362Y011058
X005510Y015551
X005529Y002450
X005533Y000466
X005610Y008430
X006070Y012810
X006390Y010940
X006710Y009000
X006740Y004550
X006740Y006470
X006750Y005420
X006750Y008350
X006870Y010170
X007270Y013710
X007470Y014890
X007499Y015551
X007509Y002450
X007510Y000464
X007640Y004540
X007640Y005430
X007670Y007830
X007690Y007060
X008380Y011860
X008570Y010750
X008610Y014880
X008610Y015540
X008910Y012390
X009060Y013120
X009150Y008620
X009479Y002410
X009480Y000464
X009740Y015540
X009750Y014920
X009860Y012150
X010140Y009900
X010750Y012400
X010760Y012700
X011010Y010660
X011390Y014660
X011390Y015080
X011390Y015530
X011439Y002440
X011440Y000464
X011440Y005170
X011449Y006420
X011449Y008361
X011460Y009410
X011640Y012610
X012040Y014660
X012040Y015080
X012060Y015530
X012350Y013570
X012370Y011230
X012610Y015080
X012610Y014660
X012610Y015540
X012690Y012400
X013180Y011090
X013270Y009380
X013339Y008361
X013350Y006420
X013353Y000466
X013359Y002420
X013380Y005170
X014380Y010740
X014820Y008130
X014860Y009450
X015390Y000464
X015399Y002420
X015399Y006410
X016410Y009460
X016490Y008150
X016800Y005560
X016840Y010780
X016949Y010431
X017270Y011200
X017353Y000466
X017359Y002410
X017400Y004390
X017590Y006420
X017590Y008350
X018269Y015541
X018270Y015080
X018270Y014640
X018290Y009150
X018299Y010340
X019290Y008361
X019309Y002390
X019310Y000474
X019310Y006391
X019319Y012261
X019319Y014290
X019320Y014640
X019320Y015080
X019319Y015541
X020030Y010960
X020120Y014640
X020120Y015540
X020140Y015080
X020590Y010950
X021260Y010351
X021263Y012266
X021270Y006411
X021273Y008360
X021279Y002440
X021280Y000474
X021279Y014240
X021279Y015541
X023263Y000476
X023263Y002456
X023263Y012286
X023273Y015546
X023282Y014276
X025230Y002434
X025230Y004424
X025230Y006374
X025230Y008354
X025230Y010324
X025230Y012294
X025230Y014244
X025233Y000486
X027172Y002456
X027172Y010316
X025233Y015556
X027173Y000486
X027183Y004416
X027183Y006366
X027183Y008356
X027183Y012276
X027203Y014246
X027213Y015556
X029150Y006344
X029152Y002446
X029152Y004416
X029153Y000486
X029160Y008364
X029160Y010314
X029160Y012274
X029163Y014266
X029173Y015556
T3C0.0370F200S100
X007670Y009390
X008600Y005910
X008640Y007430
X008670Y009390
X008680Y004010
X009600Y005910
X009640Y007430
X009670Y009390
X009680Y004010
X010600Y005910
X010640Y007430
X010680Y004010
T2C0.0276F200S100
X002208Y006381
X002208Y008291
T4C0.0433F200S100
X001164Y005909
X001164Y008763
M30
