999
dxfrw 0.6.3
  0
SECTION
  2
HEADER
  9
$ACADVER
  1
AC1021
  9
$DWGCODEPAGE
  3
ANSI_950
  9
$INSBASE
 10
0
 20
0
 30
0
  9
$EXTMIN
 10
-0.38
 20
-0.48
 30
0
  9
$EXTMAX
 10
0.6800000000000002
 20
0.4329499999999999
 30
0
  9
$LIMMIN
 10
0
 20
0
  9
$LIMMAX
 10
12
 20
9
  9
$ORTHOMODE
 70
    0
  9
$REGENMODE
 70
    1
  9
$FILLMODE
 70
    1
  9
$QTEXTMODE
 70
    0
  9
$MIRRTEXT
 70
    0
  9
$LTSCALE
 40
1
  9
$ATTMODE
 70
    1
  9
$TEXTSIZE
 40
0.2
  9
$TRACEWID
 40
0.05
  9
$TEXTSTYLE
  7
Standard
  9
$CLAYER
  8
0
  9
$CELTYPE
  6
CONTINUOUS
  9
$CECOLOR
 62
  256
  9
$CELTSCALE
 40
1
  9
$DISPSILH
 70
    0
  9
$DIMSCALE
 40
1
  9
$DIMASZ
 40
0.03
  9
$DIMEXO
 40
0.0625
  9
$DIMDLI
 40
0.38
  9
$DIMRND
 40
0
  9
$DIMDLE
 40
0
  9
$DIMEXE
 40
0.18
  9
$DIMTP
 40
0
  9
$DIMTM
 40
0
  9
$DIMTXT
 40
0.03
  9
$DIMCEN
 40
0.09
  9
$DIMTSZ
 40
0
  9
$DIMTOL
 70
    0
  9
$DIMLIM
 70
    0
  9
$DIMTIH
 70
    1
  9
$DIMTOH
 70
    1
  9
$DIMSE1
 70
    0
  9
$DIMSE2
 70
    0
  9
$DIMTAD
 70
    0
  9
$DIMZIN
 70
    0
  9
$DIMBLK
  1

  9
$DIMASO
 70
    1
  9
$DIMSHO
 70
    1
  9
$DIMPOST
  1

  9
$DIMAPOST
  1

  9
$DIMALT
 70
    0
  9
$DIMALTD
 70
    1
  9
$DIMALTF
 40
25.4
  9
$DIMLFAC
 40
25.4
  9
$DIMTOFL
 70
    0
  9
$DIMTVP
 40
0
  9
$DIMTIX
 70
    0
  9
$DIMSOXD
 70
    0
  9
$DIMSAH
 70
    0
  9
$DIMBLK1
  1

  9
$DIMBLK2
  1

  9
$DIMSTYLE
  2
Standard
  9
$DIMCLRD
 70
    0
  9
$DIMCLRE
 70
    0
  9
$DIMCLRT
 70
    0
  9
$DIMTFAC
 40
1
  9
$DIMGAP
 40
0.09
  9
$DIMJUST
 70
    0
  9
$DIMSD1
 70
    0
  9
$DIMSD2
 70
    0
  9
$DIMTOLJ
 70
    1
  9
$DIMTZIN
 70
    0
  9
$DIMALTZ
 70
    0
  9
$DIMALTTZ
 70
    0
  9
$DIMUPT
 70
    0
  9
$DIMDEC
 70
    1
  9
$DIMTDEC
 70
    1
  9
$DIMALTU
 70
    2
  9
$DIMALTTD
 70
    1
  9
$DIMTXSTY
  7
Standard
  9
$DIMAUNIT
 70
    0
  9
$DIMADEC
 70
    0
  9
$DIMALTRND
 40
0
  9
$DIMAZIN
 70
    0
  9
$DIMDSEP
 70
   46
  9
$DIMATFIT
 70
    3
  9
$DIMFRAC
 70
    0
  9
$DIMLDRBLK
  1

  9
$DIMLUNIT
 70
    2
  9
$DIMLWD
 70
   -2
  9
$DIMLWE
 70
   -2
  9
$DIMTMOVE
 70
    0
  9
$DIMFXL
 40
1
  9
$DIMFXLON
 70
    0
  9
$DIMJOGANG
 40
0.7853981633974483
  9
$DIMTFILL
 70
    0
  9
$DIMTFILLCLR
 70
    0
  9
$DIMARCSYM
 70
    0
  9
$DIMLTYPE
  6

  9
$DIMLTEX1
  6

  9
$DIMLTEX2
  6

  9
$LUNITS
 70
    2
  9
$LUPREC
 70
    4
  9
$SKETCHINC
 40
0.1
  9
$FILLETRAD
 40
0
  9
$AUNITS
 70
    0
  9
$AUPREC
 70
    0
  9
$MENU
  1
.
  9
$ELEVATION
 40
0
  9
$PELEVATION
 40
0
  9
$THICKNESS
 40
0
  9
$LIMCHECK
 70
    0
  9
$CHAMFERA
 40
0
  9
$CHAMFERB
 40
0
  9
$CHAMFERC
 40
0
  9
$CHAMFERD
 40
0
  9
$SKPOLY
 70
    0
  9
$USRTIMER
 70
    1
  9
$ANGBASE
 50
0
  9
$ANGDIR
 70
    0
  9
$PDMODE
 70
    0
  9
$PDSIZE
 40
0
  9
$PLINEWID
 40
0
  9
$SPLFRAME
 70
    0
  9
$SPLINETYPE
 70
    6
  9
$SPLINESEGS
 70
    8
  9
$HANDSEED
  5
20000
  9
$SURFTAB1
 70
    6
  9
$SURFTAB2
 70
    6
  9
$SURFTYPE
 70
    6
  9
$SURFU
 70
    6
  9
$SURFV
 70
    6
  9
$UCSBASE
  2

  9
$UCSNAME
  2

  9
$UCSORG
 10
0
 20
0
 30
0
  9
$UCSXDIR
 10
1
 20
0
 30
0
  9
$UCSYDIR
 10
0
 20
1
 30
0
  9
$UCSORTHOREF
  2

  9
$UCSORTHOVIEW
 70
    0
  9
$UCSORGTOP
 10
0
 20
0
 30
0
  9
$UCSORGBOTTOM
 10
0
 20
0
 30
0
  9
$UCSORGLEFT
 10
0
 20
0
 30
0
  9
$UCSORGRIGHT
 10
0
 20
0
 30
0
  9
$UCSORGFRONT
 10
0
 20
0
 30
0
  9
$UCSORGBACK
 10
0
 20
0
 30
0
  9
$PUCSBASE
  2

  9
$PUCSNAME
  2

  9
$PUCSORG
 10
0
 20
0
 30
0
  9
$PUCSXDIR
 10
1
 20
0
 30
0
  9
$PUCSYDIR
 10
0
 20
1
 30
0
  9
$PUCSORTHOREF
  2

  9
$PUCSORTHOVIEW
 70
    0
  9
$PUCSORGTOP
 10
0
 20
0
 30
0
  9
$PUCSORGBOTTOM
 10
0
 20
0
 30
0
  9
$PUCSORGLEFT
 10
0
 20
0
 30
0
  9
$PUCSORGRIGHT
 10
0
 20
0
 30
0
  9
$PUCSORGFRONT
 10
0
 20
0
 30
0
  9
$PUCSORGBACK
 10
0
 20
0
 30
0
  9
$USERI1
 70
    0
  9
$USERI2
 70
    0
  9
$USERI3
 70
    0
  9
$USERI4
 70
    0
  9
$USERI5
 70
    0
  9
$USERR1
 40
0
  9
$USERR2
 40
0
  9
$USERR3
 40
0
  9
$USERR4
 40
0
  9
$USERR5
 40
0
  9
$WORLDVIEW
 70
    1
  9
$SHADEDGE
 70
    3
  9
$SHADEDIF
 70
   70
  9
$TILEMODE
 70
    1
  9
$MAXACTVP
 70
   64
  9
$PINSBASE
 10
0
 20
0
 30
0
  9
$PLIMCHECK
 70
    0
  9
$PEXTMIN
 10
1e+20
 20
1e+20
 30
1e+20
  9
$PEXTMAX
 10
-1e+20
 20
-1e+20
 30
-1e+20
  9
$GRIDMODE
 70
    1
  9
$SNAPSTYLE
 70
    0
  9
$PLIMMIN
 10
0
 20
0
  9
$PLIMMAX
 10
12
 20
9
  9
$UNITMODE
 70
    0
  9
$VISRETAIN
 70
    1
  9
$PLINEGEN
 70
    0
  9
$PSLTSCALE
 70
    1
  9
$TREEDEPTH
 70
 3020
  9
$CMLSTYLE
  2
Standard
  9
$CMLJUST
 70
    0
  9
$CMLSCALE
 40
1
  9
$PROXYGRAPHICS
 70
    1
  9
$MEASUREMENT
 70
    0
  9
$CELWEIGHT
370
   -1
  9
$ENDCAPS
280
    0
  9
$JOINSTYLE
280
    0
  9
$LWDISPLAY
290
    0
  9
$INSUNITS
 70
    0
  9
$HYPERLINKBASE
  1

  9
$STYLESHEET
  1

  9
$XEDIT
290
    1
  9
$CEPSNTYPE
380
    0
  9
$PSTYLEMODE
290
    1
  9
$EXTNAMES
290
    1
  9
$PSVPSCALE
 40
0
  9
$OLESTARTUP
290
    0
  9
$SORTENTS
280
  127
  9
$INDEXCTL
280
    0
  9
$HIDETEXT
280
    0
  9
$XCLIPFRAME
290
    2
  9
$HALOGAP
280
    0
  9
$OBSCOLOR
 70
  257
  9
$OBSLTYPE
280
    0
  9
$INTERSECTIONDISPLAY
280
    0
  9
$INTERSECTIONCOLOR
 70
  257
  9
$DIMASSOC
280
    1
  9
$PROJECTNAME
  1

  9
$CAMERADISPLAY
290
    0
  9
$LENSLENGTH
 40
50
  9
$CAMERAHEIGHT
 40
0
  9
$STEPSPERSEC
 40
2
  9
$STEPSIZE
 40
6
  9
$3DDWFPREC
 40
2
  9
$PSOLWIDTH
 40
0.25
  9
$PSOLHEIGHT
 40
4
  9
$LOFTANG1
 40
1.570796326794896
  9
$LOFTANG2
 40
1.570796326794896
  9
$LOFTMAG1
 40
0
  9
$LOFTMAG2
 40
0
  9
$LOFTPARAM
 70
    7
  9
$LOFTNORMALS
280
    1
  9
$LATITUDE
 40
37.795
  9
$LONGITUDE
 40
-122.394
  9
$NORTHDIRECTION
 40
0
  9
$TIMEZONE
 70
-8000
  9
$LIGHTGLYPHDISPLAY
280
    1
  9
$TILEMODELIGHTSYNCH
280
    1
  9
$SOLIDHIST
280
    0
  9
$SHOWHIST
280
    1
  9
$DWFFRAME
280
    2
  9
$DGNFRAME
280
    0
  9
$REALWORLDSCALE
290
    1
  9
$INTERFERECOLOR
 62
    1
  9
$CSHADOW
280
    0
  9
$SHADOWPLANELOCATION
 40
0
  0
ENDSEC
  0
SECTION
  2
CLASSES
  0
ENDSEC
  0
SECTION
  2
TABLES
  0
TABLE
  2
VPORT
  5
8
330
0
100
AcDbSymbolTable
 70
    1
  0
VPORT
  5
31
330
2
100
AcDbSymbolTableRecord
100
AcDbViewportTableRecord
  2
*ACTIVE
 70
    0
 10
0
 20
0
 11
1
 21
1
 12
0.2048144120566381
 22
0.1184002709496183
 13
0
 23
0
 14
10
 24
10
 15
10
 25
10
 16
0
 26
0
 36
1
 17
0
 27
0
 37
0
 40
0.4168514985938629
 41
1.940594059405941
 42
50
 43
0
 44
0
 50
0
 51
0
 71
    0
 72
  100
 73
    1
 74
    3
 75
    0
 76
    1
 77
    0
 78
    0
281
    0
 65
    1
110
0
120
0
130
0
111
1
121
0
131
0
112
0
122
1
132
0
 79
    0
146
0
348
10020
 60
    7
 61
    5
292
1
282
    1
141
0
142
0
 63
  250
421
3358443
  0
ENDTAB
  0
TABLE
  2
LTYPE
  5
5
330
0
100
AcDbSymbolTable
 70
    4
  0
LTYPE
  5
14
330
5
100
AcDbSymbolTableRecord
100
AcDbLinetypeTableRecord
  2
ByBlock
 70
    0
  3

 72
   65
 73
    0
 40
0
  0
LTYPE
  5
15
330
5
100
AcDbSymbolTableRecord
100
AcDbLinetypeTableRecord
  2
ByLayer
 70
    0
  3

 72
   65
 73
    0
 40
0
  0
LTYPE
  5
16
330
5
100
AcDbSymbolTableRecord
100
AcDbLinetypeTableRecord
  2
Continuous
 70
    0
  3
Solid line
 72
   65
 73
    0
 40
0
  0
LTYPE
  5
32
330
5
100
AcDbSymbolTableRecord
100
AcDbLinetypeTableRecord
  2
DOT
 70
    0
  3
Dot . . . . . . . . . . . . . . . . . . . . . .
 72
   65
 73
    2
 40
6.35
 49
0
 74
    0
 49
-6.35
 74
    0
  0
LTYPE
  5
33
330
5
100
AcDbSymbolTableRecord
100
AcDbLinetypeTableRecord
  2
DOTTINY
 70
    0
  3
Dot (.15x) .....................................
 72
   65
 73
    2
 40
0.9525
 49
0
 74
    0
 49
-0.9525
 74
    0
  0
LTYPE
  5
34
330
5
100
AcDbSymbolTableRecord
100
AcDbLinetypeTableRecord
  2
DOT2
 70
    0
  3
Dot (.5x) .....................................
 72
   65
 73
    2
 40
3.175
 49
0
 74
    0
 49
-3.175
 74
    0
  0
LTYPE
  5
35
330
5
100
AcDbSymbolTableRecord
100
AcDbLinetypeTableRecord
  2
DOTX2
 70
    0
  3
Dot (2x) .  .  .  .  .  .  .  .  .  .  .  .  .
 72
   65
 73
    2
 40
12.7
 49
0
 74
    0
 49
-12.7
 74
    0
  0
LTYPE
  5
36
330
5
100
AcDbSymbolTableRecord
100
AcDbLinetypeTableRecord
  2
DASHED
 70
    0
  3
Dashed _ _ _ _ _ _ _ _ _ _ _ _ _ _ _ _ _
 72
   65
 73
    2
 40
19.05
 49
12.7
 74
    0
 49
-6.35
 74
    0
  0
LTYPE
  5
37
330
5
100
AcDbSymbolTableRecord
100
AcDbLinetypeTableRecord
  2
DASHEDTINY
 70
    0
  3
Dashed (.15x) _ _ _ _ _ _ _ _ _ _ _ _ _ _ _ _ _
 72
   65
 73
    2
 40
2.8575
 49
1.905
 74
    0
 49
-0.9525
 74
    0
  0
LTYPE
  5
38
330
5
100
AcDbSymbolTableRecord
100
AcDbLinetypeTableRecord
  2
DASHED2
 70
    0
  3
Dashed (.5x) _ _ _ _ _ _ _ _ _ _ _ _ _ _ _ _ _
 72
   65
 73
    2
 40
9.524999999999999
 49
6.35
 74
    0
 49
-3.175
 74
    0
  0
LTYPE
  5
39
330
5
100
AcDbSymbolTableRecord
100
AcDbLinetypeTableRecord
  2
DASHEDX2
 70
    0
  3
Dashed (2x) ____  ____  ____  ____  ____  ___
 72
   65
 73
    2
 40
38.09999999999999
 49
25.4
 74
    0
 49
-12.7
 74
    0
  0
LTYPE
  5
3A
330
5
100
AcDbSymbolTableRecord
100
AcDbLinetypeTableRecord
  2
DASHDOT
 70
    0
  3
Dash dot __ . __ . __ . __ . __ . __ . __ . __
 72
   65
 73
    4
 40
25.4
 49
12.7
 74
    0
 49
-6.35
 74
    0
 49
0
 74
    0
 49
-6.35
 74
    0
  0
LTYPE
  5
3B
330
5
100
AcDbSymbolTableRecord
100
AcDbLinetypeTableRecord
  2
DASHDOTTINY
 70
    0
  3
Dash dot (.15x) _._._._._._._._._._._._._._._.
 72
   65
 73
    4
 40
3.81
 49
1.905
 74
    0
 49
-0.9525
 74
    0
 49
0
 74
    0
 49
-0.9525
 74
    0
  0
LTYPE
  5
3C
330
5
100
AcDbSymbolTableRecord
100
AcDbLinetypeTableRecord
  2
DASHDOT2
 70
    0
  3
Dash dot (.5x) _._._._._._._._._._._._._._._.
 72
   65
 73
    4
 40
12.7
 49
6.35
 74
    0
 49
-3.175
 74
    0
 49
0
 74
    0
 49
-3.175
 74
    0
  0
LTYPE
  5
3D
330
5
100
AcDbSymbolTableRecord
100
AcDbLinetypeTableRecord
  2
DASHDOTX2
 70
    0
  3
Dash dot (2x) ____  .  ____  .  ____  .  ___
 72
   65
 73
    4
 40
50.8
 49
25.4
 74
    0
 49
-12.7
 74
    0
 49
0
 74
    0
 49
-12.7
 74
    0
  0
LTYPE
  5
3E
330
5
100
AcDbSymbolTableRecord
100
AcDbLinetypeTableRecord
  2
DIVIDE
 70
    0
  3
Divide ____ . . ____ . . ____ . . ____ . . ____
 72
   65
 73
    6
 40
31.75
 49
12.7
 74
    0
 49
-6.35
 74
    0
 49
0
 74
    0
 49
-6.35
 74
    0
 49
0
 74
    0
 49
-6.35
 74
    0
  0
LTYPE
  5
3F
330
5
100
AcDbSymbolTableRecord
100
AcDbLinetypeTableRecord
  2
DIVIDETINY
 70
    0
  3
Divide (.15x) __..__..__..__..__..__..__..__.._
 72
   65
 73
    6
 40
4.7625
 49
1.905
 74
    0
 49
-0.9525
 74
    0
 49
0
 74
    0
 49
-0.9525
 74
    0
 49
0
 74
    0
 49
-0.9525
 74
    0
  0
LTYPE
  5
40
330
5
100
AcDbSymbolTableRecord
100
AcDbLinetypeTableRecord
  2
DIVIDE2
 70
    0
  3
Divide (.5x) __..__..__..__..__..__..__..__.._
 72
   65
 73
    6
 40
15.875
 49
6.35
 74
    0
 49
-3.175
 74
    0
 49
0
 74
    0
 49
-3.175
 74
    0
 49
0
 74
    0
 49
-3.175
 74
    0
  0
LTYPE
  5
41
330
5
100
AcDbSymbolTableRecord
100
AcDbLinetypeTableRecord
  2
DIVIDEX2
 70
    0
  3
Divide (2x) ________  .  .  ________  .  .  _
 72
   65
 73
    6
 40
63.5
 49
25.4
 74
    0
 49
-12.7
 74
    0
 49
0
 74
    0
 49
-12.7
 74
    0
 49
0
 74
    0
 49
-12.7
 74
    0
  0
LTYPE
  5
42
330
5
100
AcDbSymbolTableRecord
100
AcDbLinetypeTableRecord
  2
BORDER
 70
    0
  3
Border __ __ . __ __ . __ __ . __ __ . __ __ .
 72
   65
 73
    6
 40
44.45
 49
12.7
 74
    0
 49
-6.35
 74
    0
 49
12.7
 74
    0
 49
-6.35
 74
    0
 49
0
 74
    0
 49
-6.35
 74
    0
  0
LTYPE
  5
43
330
5
100
AcDbSymbolTableRecord
100
AcDbLinetypeTableRecord
  2
BORDERTINY
 70
    0
  3
Border (.15x) __.__.__.__.__.__.__.__.__.__.__.
 72
   65
 73
    6
 40
6.6675
 49
1.905
 74
    0
 49
-0.9525
 74
    0
 49
1.905
 74
    0
 49
-0.9525
 74
    0
 49
0
 74
    0
 49
-0.9525
 74
    0
  0
LTYPE
  5
44
330
5
100
AcDbSymbolTableRecord
100
AcDbLinetypeTableRecord
  2
BORDER2
 70
    0
  3
Border (.5x) __.__.__.__.__.__.__.__.__.__.__.
 72
   65
 73
    6
 40
22.225
 49
6.35
 74
    0
 49
-3.175
 74
    0
 49
6.35
 74
    0
 49
-3.175
 74
    0
 49
0
 74
    0
 49
-3.175
 74
    0
  0
LTYPE
  5
45
330
5
100
AcDbSymbolTableRecord
100
AcDbLinetypeTableRecord
  2
BORDERX2
 70
    0
  3
Border (2x) ____  ____  .  ____  ____  .  ___
 72
   65
 73
    6
 40
88.89999999999999
 49
25.4
 74
    0
 49
-12.7
 74
    0
 49
25.4
 74
    0
 49
-12.7
 74
    0
 49
0
 74
    0
 49
-12.7
 74
    0
  0
LTYPE
  5
46
330
5
100
AcDbSymbolTableRecord
100
AcDbLinetypeTableRecord
  2
CENTER
 70
    0
  3
Center ____ _ ____ _ ____ _ ____ _ ____ _ ____
 72
   65
 73
    4
 40
50.8
 49
31.75
 74
    0
 49
-6.35
 74
    0
 49
6.35
 74
    0
 49
-6.35
 74
    0
  0
LTYPE
  5
47
330
5
100
AcDbSymbolTableRecord
100
AcDbLinetypeTableRecord
  2
CENTERTINY
 70
    0
  3
Center (.15x) ___ _ ___ _ ___ _ ___ _ ___ _ ___
 72
   65
 73
    4
 40
7.619999999999999
 49
4.7625
 74
    0
 49
-0.9525
 74
    0
 49
0.9525
 74
    0
 49
-0.9525
 74
    0
  0
LTYPE
  5
48
330
5
100
AcDbSymbolTableRecord
100
AcDbLinetypeTableRecord
  2
CENTER2
 70
    0
  3
Center (.5x) ___ _ ___ _ ___ _ ___ _ ___ _ ___
 72
   65
 73
    4
 40
28.575
 49
19.05
 74
    0
 49
-3.175
 74
    0
 49
3.175
 74
    0
 49
-3.175
 74
    0
  0
LTYPE
  5
49
330
5
100
AcDbSymbolTableRecord
100
AcDbLinetypeTableRecord
  2
CENTERX2
 70
    0
  3
Center (2x) ________  __  ________  __  _____
 72
   65
 73
    4
 40
101.6
 49
63.5
 74
    0
 49
-12.7
 74
    0
 49
12.7
 74
    0
 49
-12.7
 74
    0
  0
ENDTAB
  0
TABLE
  2
LAYER
  5
2
330
0
100
AcDbSymbolTable
 70
    1
  0
LAYER
  5
10
330
2
100
AcDbSymbolTableRecord
100
AcDbLayerTableRecord
  2
0
 70
    0
 62
    1
  6
CONTINUOUS
370
   -3
390
F
  0
LAYER
  5
4A
330
2
100
AcDbSymbolTableRecord
100
AcDbLayerTableRecord
  2
1_RYS
 70
    0
 62
    3
  6
CONTINUOUS
370
   -3
390
F
  0
LAYER
  5
4B
330
2
100
AcDbSymbolTableRecord
100
AcDbLayerTableRecord
  2
3_RYS
 70
    0
 62
   94
  6
CONTINUOUS
370
   -3
390
F
  0
LAYER
  5
4C
330
2
100
AcDbSymbolTableRecord
100
AcDbLayerTableRecord
  2
5_RYS
 70
    0
 62
    7
  6
CONTINUOUS
370
   -3
390
F
  0
LAYER
  5
4D
330
2
100
AcDbSymbolTableRecord
100
AcDbLayerTableRecord
  2
6_RYS
 70
    0
 62
    1
  6
CONTINUOUS
370
   -3
390
F
  0
LAYER
  5
4E
330
2
100
AcDbSymbolTableRecord
100
AcDbLayerTableRecord
  2
Defpoints
 70
    0
 62
    7
  6
CONTINUOUS
290
0
370
   -3
390
F
  0
ENDTAB
  0
TABLE
  2
STYLE
  5
3
330
0
100
AcDbSymbolTable
 70
    3
  0
STYLE
  5
4F
330
2
100
AcDbSymbolTableRecord
100
AcDbTextStyleTableRecord
  2
Standard
 70
    0
 40
0
 41
1
 50
0
 71
    0
 42
1
  3
txt
  4

  0
ENDTAB
  0
TABLE
  2
VIEW
  5
6
330
0
100
AcDbSymbolTable
 70
    0
  0
ENDTAB
  0
TABLE
  2
UCS
  5
7
330
0
100
AcDbSymbolTable
 70
    0
  0
ENDTAB
  0
TABLE
  2
APPID
  5
9
330
0
100
AcDbSymbolTable
 70
    1
  0
APPID
  5
12
330
9
100
AcDbSymbolTableRecord
100
AcDbRegAppTableRecord
  2
ACAD
 70
    0
  0
APPID
  5
50
330
9
100
AcDbSymbolTableRecord
100
AcDbRegAppTableRecord
  2
LibreCad
 70
    0
  0
ENDTAB
  0
TABLE
  2
DIMSTYLE
  5
A
330
0
100
AcDbSymbolTable
 70
    1
100
AcDbDimStyleTable
 71
    1
  0
DIMSTYLE
105
51
330
A
100
AcDbSymbolTableRecord
100
AcDbDimStyleTableRecord
  2
Standard
 70
    0
 40
1
 41
0.03
 42
0.0625
 43
0.38
 44
0.18
 45
0
 46
0
 47
0
 48
0
 49
1
140
0.03
141
0.09
142
0
143
25.4
144
25.4
145
0
146
1
147
0.09
148
0
 71
    0
 72
    0
 73
    1
 74
    1
 75
    0
 76
    0
 77
    0
 78
    0
 79
    0
170
    0
171
    2
172
    0
173
    0
174
    0
175
    0
176
    0
177
    0
178
    0
179
    0
271
    1
272
    4
273
    2
274
    2
275
    0
276
    0
277
    2
278
   46
279
    0
280
    0
281
    0
282
    0
283
    1
284
    0
285
    0
286
    0
288
    0
289
    3
340
Standard
341

371
   -2
372
   -2
  0
ENDTAB
  0
TABLE
  2
BLOCK_RECORD
  5
1
330
0
100
AcDbSymbolTable
 70
    2
  0
BLOCK_RECORD
  5
1F
330
1
100
AcDbSymbolTableRecord
100
AcDbBlockTableRecord
  2
*Model_Space
 70
    0
280
    1
281
    0
  0
BLOCK_RECORD
  5
1E
330
1
100
AcDbSymbolTableRecord
100
AcDbBlockTableRecord
  2
*Paper_Space
 70
    0
280
    1
281
    0
  0
BLOCK_RECORD
  5
52
330
1
100
AcDbSymbolTableRecord
100
AcDbBlockTableRecord
  2
*D2
 70
    0
280
    1
281
    0
  0
BLOCK_RECORD
  5
55
330
1
100
AcDbSymbolTableRecord
100
AcDbBlockTableRecord
  2
*D3
 70
    0
280
    1
281
    0
  0
BLOCK_RECORD
  5
58
330
1
100
AcDbSymbolTableRecord
100
AcDbBlockTableRecord
  2
*D6
 70
    0
280
    1
281
    0
  0
BLOCK_RECORD
  5
5B
330
1
100
AcDbSymbolTableRecord
100
AcDbBlockTableRecord
  2
*D1
 70
    0
280
    1
281
    0
  0
BLOCK_RECORD
  5
5E
330
1
100
AcDbSymbolTableRecord
100
AcDbBlockTableRecord
  2
*D4
 70
    0
280
    1
281
    0
  0
BLOCK_RECORD
  5
61
330
1
100
AcDbSymbolTableRecord
100
AcDbBlockTableRecord
  2
*D7
 70
    0
280
    1
281
    0
  0
BLOCK_RECORD
  5
64
330
1
100
AcDbSymbolTableRecord
100
AcDbBlockTableRecord
  2
*D5
 70
    0
280
    1
281
    0
  0
BLOCK_RECORD
  5
67
330
1
100
AcDbSymbolTableRecord
100
AcDbBlockTableRecord
  2
D47OBLONG0_0472X0_0315
 70
    0
280
    1
281
    0
  0
BLOCK_RECORD
  5
6A
330
1
100
AcDbSymbolTableRecord
100
AcDbBlockTableRecord
  2
D48OBLONG0_0315X0_0472
 70
    0
280
    1
281
    0
  0
BLOCK_RECORD
  5
6D
330
1
100
AcDbSymbolTableRecord
100
AcDbBlockTableRecord
  2
D108OBLONG0_0472X0_0315
 70
    0
280
    1
281
    0
  0
BLOCK_RECORD
  5
70
330
1
100
AcDbSymbolTableRecord
100
AcDbBlockTableRecord
  2
D109OBLONG0_0315X0_0472
 70
    0
280
    1
281
    0
  0
ENDTAB
  0
ENDSEC
  0
SECTION
  2
BLOCKS
  0
BLOCK
  5
20
330
1F
100
AcDbEntity
  8
0
100
AcDbBlockBegin
  2
*Model_Space
 70
    0
 10
0
 20
0
 30
0
  3
*Model_Space
  1

  0
ENDBLK
  5
21
330
1F
100
AcDbEntity
  8
0
100
AcDbBlockEnd
  0
BLOCK
  5
1C
330
1B
100
AcDbEntity
  8
0
100
AcDbBlockBegin
  2
*Paper_Space
 70
    0
 10
0
 20
0
 30
0
  3
*Paper_Space
  1

  0
ENDBLK
  5
1D
330
1F
100
AcDbEntity
  8
0
100
AcDbBlockEnd
  0
BLOCK
  5
53
330
52
100
AcDbEntity
  8
0
100
AcDbBlockBegin
  2
*D2
 70
    1
 10
0
 20
0
  3
*D2
  1

  0
LINE
  5
73
100
AcDbEntity
  8
0
  6
ByBlock
 62
    0
370
   -2
100
AcDbLine
 10
0
 20
-0.1305659075836667
 11
0.09801666666666665
 21
-0.1305659075836667
  0
SOLID
  5
74
100
AcDbEntity
  8
0
  6
ByBlock
 62
    0
370
   -2
100
AcDbTrace
 10
0
 20
-0.1305659075836667
 30
0
 11
0.03
 21
-0.1255704916903926
 31
0
 12
0.03
 22
-0.1355613234769408
 32
0
 13
0.03
 23
-0.1355613234769408
 33
0
  0
SOLID
  5
75
100
AcDbEntity
  8
0
  6
ByBlock
 62
    0
370
   -2
100
AcDbTrace
 10
0.4327
 20
-0.1305659075836667
 30
0
 11
0.4026999999999999
 21
-0.1355613234769408
 31
0
 12
0.4026999999999999
 22
-0.1255704916903926
 32
0
 13
0.4026999999999999
 23
-0.1255704916903926
 33
0
  0
LINE
  5
76
100
AcDbEntity
  8
0
  6
ByBlock
 62
    0
370
   -2
100
AcDbLine
 10
0.3346833333333333
 20
-0.1305659075836667
 11
0.4327
 21
-0.1305659075836667
  0
MTEXT
  5
77
100
AcDbEntity
  8
0
  6
CONTINUOUS
 62
    0
370
   -2
100
AcDbMText
 10
0.21635
 20
-0.1305659075836667
 30
0
 40
0.03
 41
0.05666666666666666
 71
    5
 72
    1
  1
11.0
  7
Standard
210
0
220
0
230
1
 50
0
 73
    2
 44
1
  0
LINE
  5
78
100
AcDbEntity
  8
0
  6
ByBlock
 62
    0
370
   -2
100
AcDbLine
 10
-1.148106374200644e-17
 20
-0.0625
 11
-3.306546357697853e-17
 21
-0.3105659075836667
  0
LINE
  5
79
100
AcDbEntity
  8
0
  6
ByBlock
 62
    0
370
   -2
100
AcDbLine
 10
0.4327
 20
-0.0625
 11
0.4326999999999999
 21
-0.3105659075836667
  0
ENDBLK
  5
54
330
52
100
AcDbEntity
  8
0
100
AcDbBlockEnd
  0
BLOCK
  5
56
330
55
100
AcDbEntity
  8
0
100
AcDbBlockBegin
  2
*D3
 70
    1
 10
0
 20
0
  3
*D3
  1

  0
LINE
  5
7A
100
AcDbEntity
  8
0
  6
ByBlock
 62
    0
370
   -2
100
AcDbLine
 10
0
 20
-0.3
 11
0.079
 21
-0.3
  0
SOLID
  5
7B
100
AcDbEntity
  8
0
  6
ByBlock
 62
    0
370
   -2
100
AcDbTrace
 10
0
 20
-0.3
 30
0
 11
0.03
 21
-0.295004584106726
 31
0
 12
0.03
 22
-0.3049954158932741
 32
0
 13
0.03
 23
-0.3049954158932741
 33
0
  0
SOLID
  5
7C
100
AcDbEntity
  8
0
  6
ByBlock
 62
    0
370
   -2
100
AcDbTrace
 10
0.079
 20
-0.3
 30
0
 11
0.049
 21
-0.3049954158932741
 31
0
 12
0.049
 22
-0.295004584106726
 32
0
 13
0.049
 23
-0.295004584106726
 33
0
  0
MTEXT
  5
7D
100
AcDbEntity
  8
0
  6
CONTINUOUS
 62
    0
370
   -2
100
AcDbMText
 10
0.0395
 20
-0.3
 30
0
 40
0.03
 41
0.04666666666666666
 71
    5
 72
    1
  1
2.0
  7
Standard
210
0
220
0
230
1
 50
0
 73
    2
 44
1
  0
LINE
  5
7E
100
AcDbEntity
  8
0
  6
ByBlock
 62
    0
370
   -2
100
AcDbLine
 10
-1.158948395925499e-17
 20
-0.0625
 11
-3.306546357697853e-17
 21
-0.48
  0
LINE
  5
7F
100
AcDbEntity
  8
0
  6
ByBlock
 62
    0
370
   -2
100
AcDbLine
 10
0.07899999999999999
 20
-0.0625
 11
0.07899999999999997
 21
-0.48
  0
ENDBLK
  5
57
330
55
100
AcDbEntity
  8
0
100
AcDbBlockEnd
  0
BLOCK
  5
59
330
58
100
AcDbEntity
  8
0
100
AcDbBlockBegin
  2
*D6
 70
    1
 10
0
 20
0
  3
*D6
  1

  0
LINE
  5
80
100
AcDbEntity
  8
0
  6
ByBlock
 62
    0
370
   -2
100
AcDbLine
 10
-0.2
 20
0.07182500000000001
 11
-0.2
 21
-0.05999999999999998
  0
SOLID
  5
81
100
AcDbEntity
  8
0
  6
ByBlock
 62
    0
370
   -2
100
AcDbTrace
 10
-0.2
 20
0.01182500000000002
 30
0
 11
-0.2049954158932741
 21
0.04182500000000001
 31
0
 12
-0.1950045841067259
 22
0.04182500000000001
 32
0
 13
-0.1950045841067259
 23
0.04182500000000001
 33
0
  0
SOLID
  5
82
100
AcDbEntity
  8
0
  6
ByBlock
 62
    0
370
   -2
100
AcDbTrace
 10
-0.2
 20
1.711381036884063e-17
 30
0
 11
-0.1950045841067259
 21
-0.02999999999999998
 31
0
 12
-0.2049954158932741
 22
-0.02999999999999998
 32
0
 13
-0.2049954158932741
 23
-0.02999999999999998
 33
0
  0
MTEXT
  5
83
100
AcDbEntity
  8
0
  6
CONTINUOUS
 62
    0
370
   -2
100
AcDbMText
 10
-0.08075416666666575
 20
0.005912500000000015
 30
0
 40
0.03
 41
0.04666666666666852
 71
    5
 72
    1
  1
0.3
  7
Standard
210
0
220
0
230
1
 50
0
 73
    2
 44
1
  0
LINE
  5
84
100
AcDbEntity
  8
0
  6
ByBlock
 62
    0
370
   -2
100
AcDbLine
 10
0.016179
 20
0.01182500000000001
 11
-0.38
 21
0.01182500000000004
  0
LINE
  5
85
100
AcDbEntity
  8
0
  6
ByBlock
 62
    0
370
   -2
100
AcDbLine
 10
0.0165
 20
7.654042494670958e-18
 11
-0.38
 21
3.915745275349299e-17
  0
ENDBLK
  5
5A
330
58
100
AcDbEntity
  8
0
100
AcDbBlockEnd
  0
BLOCK
  5
5C
330
5B
100
AcDbEntity
  8
0
100
AcDbBlockBegin
  2
*D1
 70
    1
 10
0
 20
0
  3
*D1
  1

  0
LINE
  5
86
100
AcDbEntity
  8
0
  6
ByBlock
 62
    0
370
   -2
100
AcDbLine
 10
-0.1627259938085023
 20
0.4327
 11
-0.1627259938085023
 21
9.98158351297435e-18
  0
SOLID
  5
87
100
AcDbEntity
  8
0
  6
ByBlock
 62
    0
370
   -2
100
AcDbTrace
 10
-0.1627259938085023
 20
0.4327
 30
0
 11
-0.1577305779152282
 21
0.4026999999999999
 31
0
 12
-0.1677214097017764
 22
0.4026999999999999
 32
0
 13
-0.1677214097017764
 23
0.4026999999999999
 33
0
  0
SOLID
  5
88
100
AcDbEntity
  8
0
  6
ByBlock
 62
    0
370
   -2
100
AcDbTrace
 10
-0.1627259938085023
 20
9.98158351297435e-18
 30
0
 11
-0.1677214097017764
 21
0.03000000000000001
 31
0
 12
-0.1577305779152282
 22
0.03000000000000001
 32
0
 13
-0.1577305779152282
 23
0.03000000000000001
 33
0
  0
MTEXT
  5
89
100
AcDbEntity
  8
0
  6
CONTINUOUS
 62
    0
370
   -2
100
AcDbMText
 10
-0.3152259938085022
 20
-0.03
 30
0
 40
0.03
 41
0.05666666666666666
 71
    5
 72
    1
  1
11.0
  7
Standard
210
0
220
0
230
1
 50
0
 73
    2
 44
1
  0
LINE
  5
8A
100
AcDbEntity
  8
0
  6
ByBlock
 62
    0
370
   -2
100
AcDbLine
 10
-0.0625
 20
0.4327
 11
-0.3427259938085023
 21
0.4327
  0
LINE
  5
8B
100
AcDbEntity
  8
0
  6
ByBlock
 62
    0
370
   -2
100
AcDbLine
 10
-0.0625
 20
7.654042494670958e-18
 11
-0.3427259938085023
 21
3.202522589762671e-17
  0
ENDBLK
  5
5D
330
5B
100
AcDbEntity
  8
0
100
AcDbBlockEnd
  0
BLOCK
  5
5F
330
5E
100
AcDbEntity
  8
0
100
AcDbBlockBegin
  2
*D4
 70
    1
 10
0
 20
0
  3
*D4
  1

  0
LINE
  5
8C
100
AcDbEntity
  8
0
  6
ByBlock
 62
    0
370
   -2
100
AcDbLine
 10
0.010825
 20
0.03000000000000002
 11
0.146575
 21
0.03000000000000001
  0
SOLID
  5
8D
100
AcDbEntity
  8
0
  6
ByBlock
 62
    0
370
   -2
100
AcDbTrace
 10
0.070825
 20
0.03000000000000001
 30
0
 11
0.040825
 21
0.02500458410672593
 31
0
 12
0.040825
 22
0.0349954158932741
 32
0
 13
0.040825
 23
0.0349954158932741
 33
0
  0
SOLID
  5
8E
100
AcDbEntity
  8
0
  6
ByBlock
 62
    0
370
   -2
100
AcDbTrace
 10
0.086575
 20
0.03000000000000001
 30
0
 11
0.116575
 21
0.0349954158932741
 31
0
 12
0.116575
 22
0.02500458410672592
 32
0
 13
0.116575
 23
0.02500458410672592
 33
0
  0
MTEXT
  5
8F
100
AcDbEntity
  8
0
  6
CONTINUOUS
 62
    0
370
   -2
100
AcDbMText
 10
0.201575
 20
0.03000000000000001
 30
0
 40
0.03
 41
0.05
 71
    5
 72
    1
  1
0.4
  7
Standard
210
0
220
0
230
1
 50
0
 73
    2
 44
1
  0
LINE
  5
90
100
AcDbEntity
  8
0
  6
ByBlock
 62
    0
370
   -2
100
AcDbLine
 10
0.070825
 20
0.0625
 11
0.07082500000000001
 21
0.21
  0
LINE
  5
91
100
AcDbEntity
  8
0
  6
ByBlock
 62
    0
370
   -2
100
AcDbLine
 10
0.086575
 20
0.0625
 11
0.08657500000000001
 21
0.21
  0
ENDBLK
  5
60
330
5E
100
AcDbEntity
  8
0
100
AcDbBlockEnd
  0
BLOCK
  5
62
330
61
100
AcDbEntity
  8
0
100
AcDbBlockBegin
  2
*D7
 70
    1
 10
0
 20
0
  3
*D7
  1

  0
LINE
  5
92
100
AcDbEntity
  8
0
  6
ByBlock
 62
    0
370
   -2
100
AcDbLine
 10
0.019
 20
-0.03999999999999998
 11
0.178
 21
-0.03999999999999999
  0
SOLID
  5
93
100
AcDbEntity
  8
0
  6
ByBlock
 62
    0
370
   -2
100
AcDbTrace
 10
0.079
 20
-0.03999999999999999
 30
0
 11
0.049
 21
-0.04499541589327407
 31
0
 12
0.049
 22
-0.0350045841067259
 32
0
 13
0.049
 23
-0.0350045841067259
 33
0
  0
SOLID
  5
94
100
AcDbEntity
  8
0
  6
ByBlock
 62
    0
370
   -2
100
AcDbTrace
 10
0.118
 20
-0.03999999999999999
 30
0
 11
0.148
 21
-0.0350045841067259
 31
0
 12
0.148
 22
-0.04499541589327408
 32
0
 13
0.148
 23
-0.04499541589327408
 33
0
  0
MTEXT
  5
95
100
AcDbEntity
  8
0
  6
CONTINUOUS
 62
    0
370
   -2
100
AcDbMText
 10
0.228
 20
-0.03999999999999999
 30
0
 40
0.03
 41
0.03999999999999999
 71
    5
 72
    1
  1
1.0
  7
Standard
210
0
220
0
230
1
 50
0
 73
    2
 44
1
  0
LINE
  5
96
100
AcDbEntity
  8
0
  6
ByBlock
 62
    0
370
   -2
100
AcDbLine
 10
0.07899999999999999
 20
-0.0625
 11
0.07899999999999997
 21
-0.22
  0
LINE
  5
97
100
AcDbEntity
  8
0
  6
ByBlock
 62
    0
370
   -2
100
AcDbLine
 10
0.118
 20
-0.0625
 11
0.118
 21
-0.22
  0
ENDBLK
  5
63
330
61
100
AcDbEntity
  8
0
100
AcDbBlockEnd
  0
BLOCK
  5
65
330
64
100
AcDbEntity
  8
0
100
AcDbBlockBegin
  2
*D5
 70
    1
 10
0
 20
0
  3
*D5
  1

  0
LINE
  5
98
100
AcDbEntity
  8
0
  6
ByBlock
 62
    0
370
   -2
100
AcDbLine
 10
0.5000000000000001
 20
0.07182499999999997
 11
0.5000000000000001
 21
-0.07962500000000003
  0
SOLID
  5
99
100
AcDbEntity
  8
0
  6
ByBlock
 62
    0
370
   -2
100
AcDbTrace
 10
0.5000000000000001
 20
0.01182499999999997
 30
0
 11
0.495004584106726
 21
0.04182499999999997
 31
0
 12
0.5049954158932742
 22
0.04182499999999997
 32
0
 13
0.5049954158932742
 23
0.04182499999999997
 33
0
  0
SOLID
  5
9A
100
AcDbEntity
  8
0
  6
ByBlock
 62
    0
370
   -2
100
AcDbTrace
 10
0.5000000000000001
 20
-0.01962500000000002
 30
0
 11
0.5049954158932742
 21
-0.04962500000000002
 31
0
 12
0.495004584106726
 22
-0.04962500000000002
 32
0
 13
0.495004584106726
 23
-0.04962500000000002
 33
0
  0
MTEXT
  5
9B
100
AcDbEntity
  8
0
  6
CONTINUOUS
 62
    0
370
   -2
100
AcDbMText
 10
0.6290583333333335
 20
-0.003900000000000028
 30
0
 40
0.03
 41
0.04666666666666666
 71
    5
 72
    1
  1
0.8
  7
Standard
210
0
220
0
230
1
 50
0
 73
    2
 44
1
  0
LINE
  5
9C
100
AcDbEntity
  8
0
  6
ByBlock
 62
    0
370
   -2
100
AcDbLine
 10
0.141204
 20
0.011825
 11
0.6800000000000002
 21
0.01182499999999997
  0
LINE
  5
9D
100
AcDbEntity
  8
0
  6
ByBlock
 62
    0
370
   -2
100
AcDbLine
 10
0.141201
 20
-0.019625
 11
0.6800000000000002
 21
-0.01962500000000002
  0
ENDBLK
  5
66
330
64
100
AcDbEntity
  8
0
100
AcDbBlockEnd
  0
BLOCK
  5
68
330
67
100
AcDbEntity
  8
0
100
AcDbBlockBegin
  2
D47OBLONG0_0472X0_0315
 70
    0
 10
0.0236
 20
0.01575
  3
D47OBLONG0_0472X0_0315
  1

  0
LWPOLYLINE
  5
9E
100
AcDbEntity
  8
0
  6
ByLayer
 62
  256
370
   -1
100
AcDbPolyline
 90
    5
 70
    0
 43
0
 10
0.01575
 20
0.023625
 42
0.9999999999999999
 10
0.01575
 20
0.007875
 10
0.03145
 20
0.007875
 42
0.9999999999999999
 10
0.03145
 20
0.023625
 10
0.01575
 20
0.023625
  0
ENDBLK
  5
69
330
67
100
AcDbEntity
  8
0
100
AcDbBlockEnd
  0
BLOCK
  5
6B
330
6A
100
AcDbEntity
  8
0
100
AcDbBlockBegin
  2
D48OBLONG0_0315X0_0472
 70
    0
 10
0.01575
 20
0.0236
  3
D48OBLONG0_0315X0_0472
  1

  0
LWPOLYLINE
  5
9F
100
AcDbEntity
  8
0
  6
ByLayer
 62
  256
370
   -1
100
AcDbPolyline
 90
    5
 70
    0
 43
0
 10
0.007875
 20
0.01575
 42
0.9999999999999999
 10
0.023625
 20
0.01575
 10
0.023625
 20
0.03145
 42
0.9999999999999999
 10
0.007875
 20
0.03145
 10
0.007875
 20
0.01575
  0
ENDBLK
  5
6C
330
6A
100
AcDbEntity
  8
0
100
AcDbBlockEnd
  0
BLOCK
  5
6E
330
6D
100
AcDbEntity
  8
0
100
AcDbBlockBegin
  2
D108OBLONG0_0472X0_0315
 70
    0
 10
0.0236
 20
0.01575
  3
D108OBLONG0_0472X0_0315
  1

  0
LWPOLYLINE
  5
A0
100
AcDbEntity
  8
0
  6
ByLayer
 62
  256
370
   -1
100
AcDbPolyline
 90
    5
 70
    0
 43
0
 10
0.01575
 20
0.023625
 42
0.9999999999999999
 10
0.01575
 20
0.007875
 10
0.03145
 20
0.007875
 42
0.9999999999999999
 10
0.03145
 20
0.023625
 10
0.01575
 20
0.023625
  0
ENDBLK
  5
6F
330
6D
100
AcDbEntity
  8
0
100
AcDbBlockEnd
  0
BLOCK
  5
71
330
70
100
AcDbEntity
  8
0
100
AcDbBlockBegin
  2
D109OBLONG0_0315X0_0472
 70
    0
 10
0.01575
 20
0.0236
  3
D109OBLONG0_0315X0_0472
  1

  0
LWPOLYLINE
  5
A1
100
AcDbEntity
  8
0
  6
ByLayer
 62
  256
370
   -1
100
AcDbPolyline
 90
    5
 70
    0
 43
0
 10
0.007875
 20
0.01575
 42
0.9999999999999999
 10
0.023625
 20
0.01575
 10
0.023625
 20
0.03145
 42
0.9999999999999999
 10
0.007875
 20
0.03145
 10
0.007875
 20
0.01575
  0
ENDBLK
  5
72
330
70
100
AcDbEntity
  8
0
100
AcDbBlockEnd
  0
ENDSEC
  0
SECTION
  2
ENTITIES
  0
INSERT
  5
A2
100
AcDbEntity
  8
1_RYS
  6
ByLayer
 62
  256
370
   -1
100
AcDbBlockReference
  2
D47OBLONG0_0472X0_0315
 10
-0.0039
 20
0.2362
 30
0
 41
1
 42
1
 43
0
 50
0
 70
    1
 71
    1
 44
0
 45
0
  0
INSERT
  5
A3
100
AcDbEntity
  8
1_RYS
  6
ByLayer
 62
  256
370
   -1
100
AcDbBlockReference
  2
D47OBLONG0_0472X0_0315
 10
-0.0039
 20
0.1968
 30
0
 41
1
 42
1
 43
0
 50
0
 70
    1
 71
    1
 44
0
 45
0
  0
INSERT
  5
A4
100
AcDbEntity
  8
1_RYS
  6
ByLayer
 62
  256
370
   -1
100
AcDbBlockReference
  2
D47OBLONG0_0472X0_0315
 10
-0.0039
 20
0.1575
 30
0
 41
1
 42
1
 43
0
 50
0
 70
    1
 71
    1
 44
0
 45
0
  0
INSERT
  5
A5
100
AcDbEntity
  8
1_RYS
  6
ByLayer
 62
  256
370
   -1
100
AcDbBlockReference
  2
D47OBLONG0_0472X0_0315
 10
-0.0039
 20
0.1181
 30
0
 41
1
 42
1
 43
0
 50
0
 70
    1
 71
    1
 44
0
 45
0
  0
INSERT
  5
A6
100
AcDbEntity
  8
1_RYS
  6
ByLayer
 62
  256
370
   -1
100
AcDbBlockReference
  2
D47OBLONG0_0472X0_0315
 10
-0.0039
 20
0.07870000000000001
 30
0
 41
1
 42
1
 43
0
 50
0
 70
    1
 71
    1
 44
0
 45
0
  0
INSERT
  5
A7
100
AcDbEntity
  8
1_RYS
  6
ByLayer
 62
  256
370
   -1
100
AcDbBlockReference
  2
D47OBLONG0_0472X0_0315
 10
-0.0039
 20
0.0394
 30
0
 41
1
 42
1
 43
0
 50
0
 70
    1
 71
    1
 44
0
 45
0
  0
INSERT
  5
A8
100
AcDbEntity
  8
1_RYS
  6
ByLayer
 62
  256
370
   -1
100
AcDbBlockReference
  2
D47OBLONG0_0472X0_0315
 10
0.4370000000000001
 20
0.0394
 30
0
 41
1
 42
1
 43
0
 50
0
 70
    1
 71
    1
 44
0
 45
0
  0
INSERT
  5
A9
100
AcDbEntity
  8
1_RYS
  6
ByLayer
 62
  256
370
   -1
100
AcDbBlockReference
  2
D47OBLONG0_0472X0_0315
 10
0.4370000000000001
 20
0.07870000000000001
 30
0
 41
1
 42
1
 43
0
 50
0
 70
    1
 71
    1
 44
0
 45
0
  0
INSERT
  5
AA
100
AcDbEntity
  8
1_RYS
  6
ByLayer
 62
  256
370
   -1
100
AcDbBlockReference
  2
D47OBLONG0_0472X0_0315
 10
0.4370000000000001
 20
0.1181
 30
0
 41
1
 42
1
 43
0
 50
0
 70
    1
 71
    1
 44
0
 45
0
  0
INSERT
  5
AB
100
AcDbEntity
  8
1_RYS
  6
ByLayer
 62
  256
370
   -1
100
AcDbBlockReference
  2
D47OBLONG0_0472X0_0315
 10
0.4370000000000001
 20
0.1575
 30
0
 41
1
 42
1
 43
0
 50
0
 70
    1
 71
    1
 44
0
 45
0
  0
INSERT
  5
AC
100
AcDbEntity
  8
1_RYS
  6
ByLayer
 62
  256
370
   -1
100
AcDbBlockReference
  2
D47OBLONG0_0472X0_0315
 10
0.4370000000000001
 20
0.1968
 30
0
 41
1
 42
1
 43
0
 50
0
 70
    1
 71
    1
 44
0
 45
0
  0
INSERT
  5
AD
100
AcDbEntity
  8
1_RYS
  6
ByLayer
 62
  256
370
   -1
100
AcDbBlockReference
  2
D47OBLONG0_0472X0_0315
 10
0.4370000000000001
 20
0.2362
 30
0
 41
1
 42
1
 43
0
 50
0
 70
    1
 71
    1
 44
0
 45
0
  0
INSERT
  5
AE
100
AcDbEntity
  8
1_RYS
  6
ByLayer
 62
  256
370
   -1
100
AcDbBlockReference
  2
D47OBLONG0_0472X0_0315
 10
0.4370000000000001
 20
0.2756
 30
0
 41
1
 42
1
 43
0
 50
0
 70
    1
 71
    1
 44
0
 45
0
  0
INSERT
  5
AF
100
AcDbEntity
  8
1_RYS
  6
ByLayer
 62
  256
370
   -1
100
AcDbBlockReference
  2
D47OBLONG0_0472X0_0315
 10
-0.0039
 20
0.2756
 30
0
 41
1
 42
1
 43
0
 50
0
 70
    1
 71
    1
 44
0
 45
0
  0
INSERT
  5
B0
100
AcDbEntity
  8
1_RYS
  6
ByLayer
 62
  256
370
   -1
100
AcDbBlockReference
  2
D47OBLONG0_0472X0_0315
 10
-0.0039
 20
0.3933
 30
0
 41
1
 42
1
 43
0
 50
0
 70
    1
 71
    1
 44
0
 45
0
  0
INSERT
  5
B1
100
AcDbEntity
  8
1_RYS
  6
ByLayer
 62
  256
370
   -1
100
AcDbBlockReference
  2
D47OBLONG0_0472X0_0315
 10
-0.0039
 20
0.354
 30
0
 41
1
 42
1
 43
0
 50
0
 70
    1
 71
    1
 44
0
 45
0
  0
INSERT
  5
B2
100
AcDbEntity
  8
1_RYS
  6
ByLayer
 62
  256
370
   -1
100
AcDbBlockReference
  2
D47OBLONG0_0472X0_0315
 10
0.4366
 20
0.3933
 30
0
 41
1
 42
1
 43
0
 50
0
 70
    1
 71
    1
 44
0
 45
0
  0
INSERT
  5
B3
100
AcDbEntity
  8
1_RYS
  6
ByLayer
 62
  256
370
   -1
100
AcDbBlockReference
  2
D47OBLONG0_0472X0_0315
 10
0.4366
 20
0.354
 30
0
 41
1
 42
1
 43
0
 50
0
 70
    1
 71
    1
 44
0
 45
0
  0
INSERT
  5
B4
100
AcDbEntity
  8
1_RYS
  6
ByLayer
 62
  256
370
   -1
100
AcDbBlockReference
  2
D48OBLONG0_0315X0_0472
 10
0.07870000000000001
 20
-0.0039
 30
0
 41
1
 42
1
 43
0
 50
0
 70
    1
 71
    1
 44
0
 45
0
  0
INSERT
  5
B5
100
AcDbEntity
  8
1_RYS
  6
ByLayer
 62
  256
370
   -1
100
AcDbBlockReference
  2
D48OBLONG0_0315X0_0472
 10
0.1181
 20
-0.0039
 30
0
 41
1
 42
1
 43
0
 50
0
 70
    1
 71
    1
 44
0
 45
0
  0
INSERT
  5
B6
100
AcDbEntity
  8
1_RYS
  6
ByLayer
 62
  256
370
   -1
100
AcDbBlockReference
  2
D48OBLONG0_0315X0_0472
 10
0.1575
 20
-0.0039
 30
0
 41
1
 42
1
 43
0
 50
0
 70
    1
 71
    1
 44
0
 45
0
  0
INSERT
  5
B7
100
AcDbEntity
  8
1_RYS
  6
ByLayer
 62
  256
370
   -1
100
AcDbBlockReference
  2
D48OBLONG0_0315X0_0472
 10
0.1968
 20
-0.0039
 30
0
 41
1
 42
1
 43
0
 50
0
 70
    1
 71
    1
 44
0
 45
0
  0
INSERT
  5
B8
100
AcDbEntity
  8
1_RYS
  6
ByLayer
 62
  256
370
   -1
100
AcDbBlockReference
  2
D48OBLONG0_0315X0_0472
 10
0.2362
 20
-0.0039
 30
0
 41
1
 42
1
 43
0
 50
0
 70
    1
 71
    1
 44
0
 45
0
  0
INSERT
  5
B9
100
AcDbEntity
  8
1_RYS
  6
ByLayer
 62
  256
370
   -1
100
AcDbBlockReference
  2
D48OBLONG0_0315X0_0472
 10
0.315
 20
-0.0039
 30
0
 41
1
 42
1
 43
0
 50
0
 70
    1
 71
    1
 44
0
 45
0
  0
INSERT
  5
BA
100
AcDbEntity
  8
1_RYS
  6
ByLayer
 62
  256
370
   -1
100
AcDbBlockReference
  2
D48OBLONG0_0315X0_0472
 10
0.3543
 20
-0.0039
 30
0
 41
1
 42
1
 43
0
 50
0
 70
    1
 71
    1
 44
0
 45
0
  0
INSERT
  5
BB
100
AcDbEntity
  8
1_RYS
  6
ByLayer
 62
  256
370
   -1
100
AcDbBlockReference
  2
D48OBLONG0_0315X0_0472
 10
0.2756
 20
-0.0039
 30
0
 41
1
 42
1
 43
0
 50
0
 70
    1
 71
    1
 44
0
 45
0
  0
INSERT
  5
BC
100
AcDbEntity
  8
3_RYS
  6
ByLayer
 62
  256
370
   -1
100
AcDbBlockReference
  2
D108OBLONG0_0472X0_0315
 10
-0.0039
 20
0.2362
 30
0
 41
1
 42
1
 43
0
 50
0
 70
    1
 71
    1
 44
0
 45
0
  0
INSERT
  5
BD
100
AcDbEntity
  8
3_RYS
  6
ByLayer
 62
  256
370
   -1
100
AcDbBlockReference
  2
D108OBLONG0_0472X0_0315
 10
-0.0039
 20
0.1968
 30
0
 41
1
 42
1
 43
0
 50
0
 70
    1
 71
    1
 44
0
 45
0
  0
INSERT
  5
BE
100
AcDbEntity
  8
3_RYS
  6
ByLayer
 62
  256
370
   -1
100
AcDbBlockReference
  2
D108OBLONG0_0472X0_0315
 10
-0.0039
 20
0.1575
 30
0
 41
1
 42
1
 43
0
 50
0
 70
    1
 71
    1
 44
0
 45
0
  0
INSERT
  5
BF
100
AcDbEntity
  8
3_RYS
  6
ByLayer
 62
  256
370
   -1
100
AcDbBlockReference
  2
D108OBLONG0_0472X0_0315
 10
-0.0039
 20
0.1181
 30
0
 41
1
 42
1
 43
0
 50
0
 70
    1
 71
    1
 44
0
 45
0
  0
INSERT
  5
C0
100
AcDbEntity
  8
3_RYS
  6
ByLayer
 62
  256
370
   -1
100
AcDbBlockReference
  2
D108OBLONG0_0472X0_0315
 10
-0.0039
 20
0.07870000000000001
 30
0
 41
1
 42
1
 43
0
 50
0
 70
    1
 71
    1
 44
0
 45
0
  0
INSERT
  5
C1
100
AcDbEntity
  8
3_RYS
  6
ByLayer
 62
  256
370
   -1
100
AcDbBlockReference
  2
D108OBLONG0_0472X0_0315
 10
-0.0039
 20
0.0394
 30
0
 41
1
 42
1
 43
0
 50
0
 70
    1
 71
    1
 44
0
 45
0
  0
INSERT
  5
C2
100
AcDbEntity
  8
3_RYS
  6
ByLayer
 62
  256
370
   -1
100
AcDbBlockReference
  2
D108OBLONG0_0472X0_0315
 10
0.4370000000000001
 20
0.0394
 30
0
 41
1
 42
1
 43
0
 50
0
 70
    1
 71
    1
 44
0
 45
0
  0
INSERT
  5
C3
100
AcDbEntity
  8
3_RYS
  6
ByLayer
 62
  256
370
   -1
100
AcDbBlockReference
  2
D108OBLONG0_0472X0_0315
 10
0.4370000000000001
 20
0.07870000000000001
 30
0
 41
1
 42
1
 43
0
 50
0
 70
    1
 71
    1
 44
0
 45
0
  0
INSERT
  5
C4
100
AcDbEntity
  8
3_RYS
  6
ByLayer
 62
  256
370
   -1
100
AcDbBlockReference
  2
D108OBLONG0_0472X0_0315
 10
0.4370000000000001
 20
0.1181
 30
0
 41
1
 42
1
 43
0
 50
0
 70
    1
 71
    1
 44
0
 45
0
  0
INSERT
  5
C5
100
AcDbEntity
  8
3_RYS
  6
ByLayer
 62
  256
370
   -1
100
AcDbBlockReference
  2
D108OBLONG0_0472X0_0315
 10
0.4370000000000001
 20
0.1575
 30
0
 41
1
 42
1
 43
0
 50
0
 70
    1
 71
    1
 44
0
 45
0
  0
INSERT
  5
C6
100
AcDbEntity
  8
3_RYS
  6
ByLayer
 62
  256
370
   -1
100
AcDbBlockReference
  2
D108OBLONG0_0472X0_0315
 10
0.4370000000000001
 20
0.1968
 30
0
 41
1
 42
1
 43
0
 50
0
 70
    1
 71
    1
 44
0
 45
0
  0
INSERT
  5
C7
100
AcDbEntity
  8
3_RYS
  6
ByLayer
 62
  256
370
   -1
100
AcDbBlockReference
  2
D108OBLONG0_0472X0_0315
 10
0.4370000000000001
 20
0.2362
 30
0
 41
1
 42
1
 43
0
 50
0
 70
    1
 71
    1
 44
0
 45
0
  0
INSERT
  5
C8
100
AcDbEntity
  8
3_RYS
  6
ByLayer
 62
  256
370
   -1
100
AcDbBlockReference
  2
D108OBLONG0_0472X0_0315
 10
0.4370000000000001
 20
0.2756
 30
0
 41
1
 42
1
 43
0
 50
0
 70
    1
 71
    1
 44
0
 45
0
  0
INSERT
  5
C9
100
AcDbEntity
  8
3_RYS
  6
ByLayer
 62
  256
370
   -1
100
AcDbBlockReference
  2
D108OBLONG0_0472X0_0315
 10
-0.0039
 20
0.2756
 30
0
 41
1
 42
1
 43
0
 50
0
 70
    1
 71
    1
 44
0
 45
0
  0
INSERT
  5
CA
100
AcDbEntity
  8
3_RYS
  6
ByLayer
 62
  256
370
   -1
100
AcDbBlockReference
  2
D108OBLONG0_0472X0_0315
 10
-0.0039
 20
0.3933
 30
0
 41
1
 42
1
 43
0
 50
0
 70
    1
 71
    1
 44
0
 45
0
  0
INSERT
  5
CB
100
AcDbEntity
  8
3_RYS
  6
ByLayer
 62
  256
370
   -1
100
AcDbBlockReference
  2
D108OBLONG0_0472X0_0315
 10
-0.0039
 20
0.354
 30
0
 41
1
 42
1
 43
0
 50
0
 70
    1
 71
    1
 44
0
 45
0
  0
INSERT
  5
CC
100
AcDbEntity
  8
3_RYS
  6
ByLayer
 62
  256
370
   -1
100
AcDbBlockReference
  2
D108OBLONG0_0472X0_0315
 10
0.4366
 20
0.3933
 30
0
 41
1
 42
1
 43
0
 50
0
 70
    1
 71
    1
 44
0
 45
0
  0
INSERT
  5
CD
100
AcDbEntity
  8
3_RYS
  6
ByLayer
 62
  256
370
   -1
100
AcDbBlockReference
  2
D108OBLONG0_0472X0_0315
 10
0.4366
 20
0.354
 30
0
 41
1
 42
1
 43
0
 50
0
 70
    1
 71
    1
 44
0
 45
0
  0
INSERT
  5
CE
100
AcDbEntity
  8
3_RYS
  6
ByLayer
 62
  256
370
   -1
100
AcDbBlockReference
  2
D109OBLONG0_0315X0_0472
 10
0.07870000000000001
 20
-0.0039
 30
0
 41
1
 42
1
 43
0
 50
0
 70
    1
 71
    1
 44
0
 45
0
  0
INSERT
  5
CF
100
AcDbEntity
  8
3_RYS
  6
ByLayer
 62
  256
370
   -1
100
AcDbBlockReference
  2
D109OBLONG0_0315X0_0472
 10
0.1181
 20
-0.0039
 30
0
 41
1
 42
1
 43
0
 50
0
 70
    1
 71
    1
 44
0
 45
0
  0
INSERT
  5
D0
100
AcDbEntity
  8
3_RYS
  6
ByLayer
 62
  256
370
   -1
100
AcDbBlockReference
  2
D109OBLONG0_0315X0_0472
 10
0.1575
 20
-0.0039
 30
0
 41
1
 42
1
 43
0
 50
0
 70
    1
 71
    1
 44
0
 45
0
  0
INSERT
  5
D1
100
AcDbEntity
  8
3_RYS
  6
ByLayer
 62
  256
370
   -1
100
AcDbBlockReference
  2
D109OBLONG0_0315X0_0472
 10
0.1968
 20
-0.0039
 30
0
 41
1
 42
1
 43
0
 50
0
 70
    1
 71
    1
 44
0
 45
0
  0
INSERT
  5
D2
100
AcDbEntity
  8
3_RYS
  6
ByLayer
 62
  256
370
   -1
100
AcDbBlockReference
  2
D109OBLONG0_0315X0_0472
 10
0.2362
 20
-0.0039
 30
0
 41
1
 42
1
 43
0
 50
0
 70
    1
 71
    1
 44
0
 45
0
  0
INSERT
  5
D3
100
AcDbEntity
  8
3_RYS
  6
ByLayer
 62
  256
370
   -1
100
AcDbBlockReference
  2
D109OBLONG0_0315X0_0472
 10
0.315
 20
-0.0039
 30
0
 41
1
 42
1
 43
0
 50
0
 70
    1
 71
    1
 44
0
 45
0
  0
INSERT
  5
D4
100
AcDbEntity
  8
3_RYS
  6
ByLayer
 62
  256
370
   -1
100
AcDbBlockReference
  2
D109OBLONG0_0315X0_0472
 10
0.3543
 20
-0.0039
 30
0
 41
1
 42
1
 43
0
 50
0
 70
    1
 71
    1
 44
0
 45
0
  0
INSERT
  5
D5
100
AcDbEntity
  8
3_RYS
  6
ByLayer
 62
  256
370
   -1
100
AcDbBlockReference
  2
D109OBLONG0_0315X0_0472
 10
0.2756
 20
-0.0039
 30
0
 41
1
 42
1
 43
0
 50
0
 70
    1
 71
    1
 44
0
 45
0
  0
LWPOLYLINE
  5
D6
100
AcDbEntity
  8
5_RYS
  6
ByLayer
 62
  256
370
   -1
100
AcDbPolyline
 90
    3
 70
    1
 43
0
 10
0.08624999999999999
 20
0.4327
 42
0.9999999999999999
 10
0.08674999999999999
 20
0.4327
 42
0.9999999999999999
 10
0.08624999999999999
 20
0.4327
  0
LWPOLYLINE
  5
D7
100
AcDbEntity
  8
5_RYS
  6
ByLayer
 62
  256
370
   -1
100
AcDbPolyline
 90
    3
 70
    1
 43
0
 10
-0.00025
 20
0.4327
 42
0.9999999999999999
 10
0.00025
 20
0.4327
 42
0.9999999999999999
 10
-0.00025
 20
0.4327
  0
LWPOLYLINE
  5
D8
100
AcDbEntity
  8
5_RYS
  6
ByLayer
 62
  256
370
   -1
100
AcDbPolyline
 90
    3
 70
    1
 43
0
 10
-0.00025
 20
0.4327
 42
0.9999999999999999
 10
0.00025
 20
0.4327
 42
0.9999999999999999
 10
-0.00025
 20
0.4327
  0
LWPOLYLINE
  5
D9
100
AcDbEntity
  8
5_RYS
  6
ByLayer
 62
  256
370
   -1
100
AcDbPolyline
 90
    3
 70
    1
 43
0
 10
-0.00025
 20
3.061616997868383e-20
 42
0.9999999999999999
 10
0.00025
 20
0
 42
0.9999999999999999
 10
-0.00025
 20
3.061616997868383e-20
  0
LWPOLYLINE
  5
DA
100
AcDbEntity
  8
5_RYS
  6
ByLayer
 62
  256
370
   -1
100
AcDbPolyline
 90
    3
 70
    1
 43
0
 10
-0.00025
 20
3.061616997868383e-20
 42
0.9999999999999999
 10
0.00025
 20
0
 42
0.9999999999999999
 10
-0.00025
 20
3.061616997868383e-20
  0
LWPOLYLINE
  5
DB
100
AcDbEntity
  8
5_RYS
  6
ByLayer
 62
  256
370
   -1
100
AcDbPolyline
 90
    3
 70
    1
 43
0
 10
0.4324500000000002
 20
3.061616997868386e-20
 42
0.9999999999999999
 10
0.4329500000000002
 20
0
 42
0.9999999999999999
 10
0.4324500000000002
 20
3.061616997868046e-20
  0
LWPOLYLINE
  5
DC
100
AcDbEntity
  8
5_RYS
  6
ByLayer
 62
  256
370
   -1
100
AcDbPolyline
 90
    3
 70
    1
 43
0
 10
0.4324500000000002
 20
3.061616997868386e-20
 42
0.9999999999999999
 10
0.4329500000000002
 20
0
 42
0.9999999999999999
 10
0.4324500000000002
 20
3.061616997868046e-20
  0
LWPOLYLINE
  5
DD
100
AcDbEntity
  8
5_RYS
  6
ByLayer
 62
  256
370
   -1
100
AcDbPolyline
 90
    3
 70
    1
 43
0
 10
0.4324500000000002
 20
0.4327
 42
0.9999999999999999
 10
0.4329500000000002
 20
0.4327
 42
0.9999999999999999
 10
0.4324500000000002
 20
0.4327
  0
LWPOLYLINE
  5
DE
100
AcDbEntity
  8
5_RYS
  6
ByLayer
 62
  256
370
   -1
100
AcDbPolyline
 90
    3
 70
    1
 43
0
 10
0.4324500000000002
 20
0.4327
 42
0.9999999999999999
 10
0.4329500000000002
 20
0.4327
 42
0.9999999999999999
 10
0.4324500000000002
 20
0.4327
  0
LWPOLYLINE
  5
DF
100
AcDbEntity
  8
5_RYS
  6
ByLayer
 62
  256
370
   -1
100
AcDbPolyline
 90
    3
 70
    1
 43
0
 10
0.08624999999999999
 20
0.4327
 42
0.9999999999999999
 10
0.08674999999999999
 20
0.4327
 42
0.9999999999999999
 10
0.08624999999999999
 20
0.4327
  0
LWPOLYLINE
  5
E0
100
AcDbEntity
  8
5_RYS
  6
ByLayer
 62
  256
370
   -1
100
AcDbPolyline
 90
    6
 70
    0
 43
0
 10
0.08649999999999999
 20
0.4327
 10
0
 20
0.4327
 10
0
 20
0
 10
0.4327
 20
0
 10
0.4327
 20
0.4327
 10
0.08649999999999999
 20
0.4327
  0
LWPOLYLINE
  5
E1
100
AcDbEntity
  8
5_RYS
  6
ByLayer
 62
  256
370
   -1
100
AcDbPolyline
 90
    3
 70
    1
 43
0
 10
-0.07340000000000001
 20
0.2742
 42
0.9999999999999999
 10
-0.07140000000000001
 20
0.2742
 42
0.9999999999999999
 10
-0.07340000000000001
 20
0.2742
  0
LWPOLYLINE
  5
E2
100
AcDbEntity
  8
5_RYS
  6
ByLayer
 62
  256
370
   -1
100
AcDbPolyline
 90
    3
 70
    1
 43
0
 10
-0.0823
 20
0.2742
 42
0.9999999999999999
 10
-0.0803
 20
0.2742
 42
0.9999999999999999
 10
-0.0823
 20
0.2742
  0
LWPOLYLINE
  5
E3
100
AcDbEntity
  8
5_RYS
  6
ByLayer
 62
  256
370
   -1
100
AcDbPolyline
 90
    2
 70
    0
 43
0
 10
-0.07240000000000001
 20
0.2742
 10
-0.0813
 20
0.2742
  0
LWPOLYLINE
  5
E4
100
AcDbEntity
  8
5_RYS
  6
ByLayer
 62
  256
370
   -1
100
AcDbPolyline
 90
    3
 70
    1
 43
0
 10
-0.07780000000000001
 20
0.2742
 42
0.9999999999999999
 10
-0.07580000000000001
 20
0.2742
 42
0.9999999999999999
 10
-0.07780000000000001
 20
0.2742
  0
LWPOLYLINE
  5
E5
100
AcDbEntity
  8
5_RYS
  6
ByLayer
 62
  256
370
   -1
100
AcDbPolyline
 90
    3
 70
    1
 43
0
 10
-0.07780000000000001
 20
0.3009
 42
0.9999999999999999
 10
-0.07580000000000001
 20
0.3009
 42
0.9999999999999999
 10
-0.07780000000000001
 20
0.3009
  0
LWPOLYLINE
  5
E6
100
AcDbEntity
  8
5_RYS
  6
ByLayer
 62
  256
370
   -1
100
AcDbPolyline
 90
    3
 70
    1
 43
0
 10
-0.07780000000000001
 20
0.3009
 42
0.9999999999999999
 10
-0.07580000000000001
 20
0.3009
 42
0.9999999999999999
 10
-0.07780000000000001
 20
0.3009
  0
LWPOLYLINE
  5
E7
100
AcDbEntity
  8
5_RYS
  6
ByLayer
 62
  256
370
   -1
100
AcDbPolyline
 90
    3
 70
    1
 43
0
 10
-0.0823
 20
0.2965
 42
0.9999999999999999
 10
-0.0803
 20
0.2965
 42
0.9999999999999999
 10
-0.0823
 20
0.2965
  0
LWPOLYLINE
  5
E8
100
AcDbEntity
  8
5_RYS
  6
ByLayer
 62
  256
370
   -1
100
AcDbPolyline
 90
    3
 70
    0
 43
0
 10
-0.07679999999999999
 20
0.2742
 10
-0.07679999999999999
 20
0.3009
 10
-0.0813
 20
0.2965
  0
LWPOLYLINE
  5
E9
100
AcDbEntity
  8
5_RYS
  6
ByLayer
 62
  256
370
   -1
100
AcDbPolyline
 90
    3
 70
    1
 43
0
 10
-0.0969
 20
0.3009
 42
0.9999999999999999
 10
-0.0949
 20
0.3009
 42
0.9999999999999999
 10
-0.0969
 20
0.3009
  0
LWPOLYLINE
  5
EA
100
AcDbEntity
  8
5_RYS
  6
ByLayer
 62
  256
370
   -1
100
AcDbPolyline
 90
    3
 70
    1
 43
0
 10
-0.0969
 20
0.2787
 42
0.9999999999999999
 10
-0.0949
 20
0.2787
 42
0.9999999999999999
 10
-0.0969
 20
0.2787
  0
LWPOLYLINE
  5
EB
100
AcDbEntity
  8
5_RYS
  6
ByLayer
 62
  256
370
   -1
100
AcDbPolyline
 90
    3
 70
    1
 43
0
 10
-0.0969
 20
0.2787
 42
0.9999999999999999
 10
-0.0949
 20
0.2787
 42
0.9999999999999999
 10
-0.0969
 20
0.2787
  0
LWPOLYLINE
  5
EC
100
AcDbEntity
  8
5_RYS
  6
ByLayer
 62
  256
370
   -1
100
AcDbPolyline
 90
    3
 70
    1
 43
0
 10
-0.0992
 20
0.2742
 42
0.9999999999999999
 10
-0.09719999999999999
 20
0.2742
 42
0.9999999999999999
 10
-0.0992
 20
0.2742
  0
LWPOLYLINE
  5
ED
100
AcDbEntity
  8
5_RYS
  6
ByLayer
 62
  256
370
   -1
100
AcDbPolyline
 90
    3
 70
    1
 43
0
 10
-0.0992
 20
0.2742
 42
0.9999999999999999
 10
-0.09719999999999999
 20
0.2742
 42
0.9999999999999999
 10
-0.0992
 20
0.2742
  0
LWPOLYLINE
  5
EE
100
AcDbEntity
  8
5_RYS
  6
ByLayer
 62
  256
370
   -1
100
AcDbPolyline
 90
    3
 70
    1
 43
0
 10
-0.1125
 20
0.2742
 42
0.9999999999999999
 10
-0.1105
 20
0.2742
 42
0.9999999999999999
 10
-0.1125
 20
0.2742
  0
LWPOLYLINE
  5
EF
100
AcDbEntity
  8
5_RYS
  6
ByLayer
 62
  256
370
   -1
100
AcDbPolyline
 90
    3
 70
    1
 43
0
 10
-0.1125
 20
0.2742
 42
0.9999999999999999
 10
-0.1105
 20
0.2742
 42
0.9999999999999999
 10
-0.1125
 20
0.2742
  0
LWPOLYLINE
  5
F0
100
AcDbEntity
  8
5_RYS
  6
ByLayer
 62
  256
370
   -1
100
AcDbPolyline
 90
    3
 70
    1
 43
0
 10
-0.1147
 20
0.2787
 42
0.9999999999999999
 10
-0.1127
 20
0.2787
 42
0.9999999999999999
 10
-0.1147
 20
0.2787
  0
LWPOLYLINE
  5
F1
100
AcDbEntity
  8
5_RYS
  6
ByLayer
 62
  256
370
   -1
100
AcDbPolyline
 90
    3
 70
    1
 43
0
 10
-0.1147
 20
0.2787
 42
0.9999999999999999
 10
-0.1127
 20
0.2787
 42
0.9999999999999999
 10
-0.1147
 20
0.2787
  0
LWPOLYLINE
  5
F2
100
AcDbEntity
  8
5_RYS
  6
ByLayer
 62
  256
370
   -1
100
AcDbPolyline
 90
    3
 70
    1
 43
0
 10
-0.1147
 20
0.3009
 42
0.9999999999999999
 10
-0.1127
 20
0.3009
 42
0.9999999999999999
 10
-0.1147
 20
0.3009
  0
LWPOLYLINE
  5
F3
100
AcDbEntity
  8
5_RYS
  6
ByLayer
 62
  256
370
   -1
100
AcDbPolyline
 90
    6
 70
    0
 43
0
 10
-0.0959
 20
0.3009
 10
-0.0959
 20
0.2787
 10
-0.0982
 20
0.2742
 10
-0.1115
 20
0.2742
 10
-0.1137
 20
0.2787
 10
-0.1137
 20
0.3009
  0
DIMENSION
  5
F4
100
AcDbEntity
  8
0
  6
CONTINUOUS
 62
  256
370
   -1
100
AcDbDimension
  2
*D1
 10
-0.1627259938085023
 20
0
 30
0
 11
-0.3152259938085022
 21
-0.03
 31
0
 70
   32
 71
    5
 72
    0
  3
Standard
 53
0
210
0
220
0
230
1
100
AcDbAlignedDimension
 13
0
 23
0.4327
 33
0
 14
0
 24
0
 34
0
 50
90
100
AcDbRotatedDimension
  0
DIMENSION
  5
F5
100
AcDbEntity
  8
0
  6
CONTINUOUS
 62
  256
370
   -1
100
AcDbDimension
  2
*D2
 10
0.4327
 20
-0.1305659075836667
 30
0
 11
0.21635
 21
-0.1305659075836667
 31
0
 70
   32
 71
    5
 72
    0
  3
Standard
 53
0
210
0
220
0
230
1
100
AcDbAlignedDimension
 13
0
 23
0
 33
0
 14
0.4327
 24
0
 34
0
100
AcDbRotatedDimension
  0
DIMENSION
  5
F6
100
AcDbEntity
  8
0
  6
ByLayer
 62
  256
370
   -1
100
AcDbDimension
  2
*D3
 10
0.07899999999999999
 20
-0.3
 30
0
 11
0.0395
 21
-0.3
 31
0
 70
   32
 71
    5
  3
Standard
 53
0
210
0
220
0
230
1
100
AcDbAlignedDimension
 13
-1.084202172485504e-19
 23
5.421010862427522e-20
 33
0
 14
0.079
 24
-1.734723475976807e-18
 34
0
100
AcDbRotatedDimension
  0
DIMENSION
  5
F7
100
AcDbEntity
  8
0
  6
ByLayer
 62
  256
370
   -1
100
AcDbDimension
  2
*D4
 10
0.086575
 20
0.03000000000000001
 30
0
 11
0.07870000000000001
 21
0.03000000000000001
 31
0
 70
   32
 71
    5
  3
Standard
 53
0
210
0
220
0
230
1
100
AcDbAlignedDimension
 13
0.070825
 23
2.964615315390051e-21
 33
0
 14
0.086575
 24
-1.270549420881451e-21
 34
0
100
AcDbRotatedDimension
  0
DIMENSION
  5
F8
100
AcDbEntity
  8
0
  6
ByLayer
 62
  256
370
   -1
100
AcDbDimension
  2
*D5
 10
0.5000000000000001
 20
-0.01962500000000005
 30
0
 11
0.5000000000000001
 21
-0.003900000000000028
 31
0
 70
   32
 71
    5
  3
Standard
 53
0
210
0
220
0
230
1
100
AcDbAlignedDimension
 13
0.07870399999999998
 23
0.011825
 33
0
 14
0.07870100000000001
 24
-0.019625
 34
0
 50
90
100
AcDbRotatedDimension
  0
DIMENSION
  5
F9
100
AcDbEntity
  8
0
  6
ByLayer
 62
  256
370
   -1
100
AcDbDimension
  2
*D6
 10
-0.2
 20
3.416764569621115e-17
 30
0
 11
-0.2
 21
0.005912500000000015
 31
0
 70
   32
 71
    5
  3
Standard
 53
0
210
0
220
0
230
1
100
AcDbAlignedDimension
 13
0.078679
 23
0.011825
 33
0
 14
0.079
 24
0
 34
0
 50
90
100
AcDbRotatedDimension
  0
DIMENSION
  5
FA
100
AcDbEntity
  8
0
  6
ByLayer
 62
  256
370
   -1
100
AcDbDimension
  2
*D7
 10
0.118
 20
-0.03999999999999999
 30
0
 11
0.0985
 21
-0.03999999999999999
 31
0
 70
   32
 71
    5
  3
Standard
 53
0
210
0
220
0
230
1
100
AcDbAlignedDimension
 13
0.079
 23
-8.673617379884035e-19
 33
0
 14
0.118
 24
0
 34
0
100
AcDbRotatedDimension
  0
ENDSEC
  0
SECTION
  2
OBJECTS
  0
DICTIONARY
  5
C
330
0
100
AcDbDictionary
281
    1
  3
ACAD_GROUP
350
D
  0
DICTIONARY
  5
D
330
C
100
AcDbDictionary
281
    1
  0
ENDSEC
  0
EOF
