%TF.GenerationSoftware,KiCad,Pcbnew,9.0.1-9.0.1-0~ubuntu22.04.1*%
%TF.CreationDate,2025-04-16T22:26:59+05:30*%
%TF.ProjectId,BEEWATCH MK2,42454557-4154-4434-9820-4d4b322e6b69,rev?*%
%TF.SameCoordinates,Original*%
%TF.FileFunction,Legend,Top*%
%TF.FilePolarity,Positive*%
%FSLAX46Y46*%
G04 Gerber Fmt 4.6, Leading zero omitted, Abs format (unit mm)*
G04 Created by KiCad (PCBNEW 9.0.1-9.0.1-0~ubuntu22.04.1) date 2025-04-16 22:26:59*
%MOMM*%
%LPD*%
G01*
G04 APERTURE LIST*
G04 Aperture macros list*
%AMRoundRect*
0 Rectangle with rounded corners*
0 $1 Rounding radius*
0 $2 $3 $4 $5 $6 $7 $8 $9 X,Y pos of 4 corners*
0 Add a 4 corners polygon primitive as box body*
4,1,4,$2,$3,$4,$5,$6,$7,$8,$9,$2,$3,0*
0 Add four circle primitives for the rounded corners*
1,1,$1+$1,$2,$3*
1,1,$1+$1,$4,$5*
1,1,$1+$1,$6,$7*
1,1,$1+$1,$8,$9*
0 Add four rect primitives between the rounded corners*
20,1,$1+$1,$2,$3,$4,$5,0*
20,1,$1+$1,$4,$5,$6,$7,0*
20,1,$1+$1,$6,$7,$8,$9,0*
20,1,$1+$1,$8,$9,$2,$3,0*%
%AMRotRect*
0 Rectangle, with rotation*
0 The origin of the aperture is its center*
0 $1 length*
0 $2 width*
0 $3 Rotation angle, in degrees counterclockwise*
0 Add horizontal line*
21,1,$1,$2,0,0,$3*%
G04 Aperture macros list end*
%ADD10C,0.150000*%
%ADD11C,0.127000*%
%ADD12C,0.120000*%
%ADD13C,0.100000*%
%ADD14C,0.250000*%
%ADD15RoundRect,0.225000X-0.250000X0.225000X-0.250000X-0.225000X0.250000X-0.225000X0.250000X0.225000X0*%
%ADD16RoundRect,0.075000X0.350000X0.075000X-0.350000X0.075000X-0.350000X-0.075000X0.350000X-0.075000X0*%
%ADD17RoundRect,0.075000X-0.075000X0.350000X-0.075000X-0.350000X0.075000X-0.350000X0.075000X0.350000X0*%
%ADD18RoundRect,0.150000X0.150000X-0.512500X0.150000X0.512500X-0.150000X0.512500X-0.150000X-0.512500X0*%
%ADD19RoundRect,0.160000X0.252791X-0.026517X-0.026517X0.252791X-0.252791X0.026517X0.026517X-0.252791X0*%
%ADD20RoundRect,0.125000X0.000000X0.176777X-0.176777X0.000000X0.000000X-0.176777X0.176777X0.000000X0*%
%ADD21RoundRect,0.100000X0.162635X-0.021213X-0.021213X0.162635X-0.162635X0.021213X0.021213X-0.162635X0*%
%ADD22RoundRect,0.225000X-0.225000X-0.250000X0.225000X-0.250000X0.225000X0.250000X-0.225000X0.250000X0*%
%ADD23RoundRect,0.160000X-0.160000X0.197500X-0.160000X-0.197500X0.160000X-0.197500X0.160000X0.197500X0*%
%ADD24RoundRect,0.150000X0.150000X-0.587500X0.150000X0.587500X-0.150000X0.587500X-0.150000X-0.587500X0*%
%ADD25RoundRect,0.150000X0.309359X0.521491X-0.521491X-0.309359X-0.309359X-0.521491X0.521491X0.309359X0*%
%ADD26RoundRect,0.150000X0.512500X0.150000X-0.512500X0.150000X-0.512500X-0.150000X0.512500X-0.150000X0*%
%ADD27RoundRect,0.160000X-0.252791X0.026517X0.026517X-0.252791X0.252791X-0.026517X-0.026517X0.252791X0*%
%ADD28RoundRect,0.160000X-0.197500X-0.160000X0.197500X-0.160000X0.197500X0.160000X-0.197500X0.160000X0*%
%ADD29RoundRect,0.147500X0.226274X0.017678X0.017678X0.226274X-0.226274X-0.017678X-0.017678X-0.226274X0*%
%ADD30RoundRect,0.155000X0.259862X-0.040659X-0.040659X0.259862X-0.259862X0.040659X0.040659X-0.259862X0*%
%ADD31RoundRect,0.150000X-0.150000X0.512500X-0.150000X-0.512500X0.150000X-0.512500X0.150000X0.512500X0*%
%ADD32RoundRect,0.225000X0.250000X-0.225000X0.250000X0.225000X-0.250000X0.225000X-0.250000X-0.225000X0*%
%ADD33RoundRect,0.147500X-0.147500X-0.172500X0.147500X-0.172500X0.147500X0.172500X-0.147500X0.172500X0*%
%ADD34RoundRect,0.160000X0.160000X-0.197500X0.160000X0.197500X-0.160000X0.197500X-0.160000X-0.197500X0*%
%ADD35RoundRect,0.225000X0.335876X0.017678X0.017678X0.335876X-0.335876X-0.017678X-0.017678X-0.335876X0*%
%ADD36RoundRect,0.155000X-0.259862X0.040659X0.040659X-0.259862X0.259862X-0.040659X-0.040659X0.259862X0*%
%ADD37RoundRect,0.225000X-0.335876X-0.017678X-0.017678X-0.335876X0.335876X0.017678X0.017678X0.335876X0*%
%ADD38RoundRect,0.160000X0.197500X0.160000X-0.197500X0.160000X-0.197500X-0.160000X0.197500X-0.160000X0*%
%ADD39O,1.200000X0.800000*%
%ADD40O,0.800000X1.200000*%
%ADD41C,1.000000*%
%ADD42RoundRect,0.150000X-0.512500X-0.150000X0.512500X-0.150000X0.512500X0.150000X-0.512500X0.150000X0*%
%ADD43RoundRect,0.160000X0.026517X0.252791X-0.252791X-0.026517X-0.026517X-0.252791X0.252791X0.026517X0*%
%ADD44RoundRect,0.155000X0.212500X0.155000X-0.212500X0.155000X-0.212500X-0.155000X0.212500X-0.155000X0*%
%ADD45RoundRect,0.160000X-0.026517X-0.252791X0.252791X0.026517X0.026517X0.252791X-0.252791X-0.026517X0*%
%ADD46RoundRect,0.249999X0.459619X-1.096017X1.096017X-0.459619X-0.459619X1.096017X-1.096017X0.459619X0*%
%ADD47C,0.500000*%
%ADD48RoundRect,0.225000X-0.017678X0.335876X-0.335876X0.017678X0.017678X-0.335876X0.335876X-0.017678X0*%
%ADD49RoundRect,0.125000X0.125000X-0.125000X0.125000X0.125000X-0.125000X0.125000X-0.125000X-0.125000X0*%
%ADD50RoundRect,0.155000X0.040659X0.259862X-0.259862X-0.040659X-0.040659X-0.259862X0.259862X0.040659X0*%
%ADD51RoundRect,0.155000X-0.155000X0.212500X-0.155000X-0.212500X0.155000X-0.212500X0.155000X0.212500X0*%
%ADD52RoundRect,0.155000X-0.040659X-0.259862X0.259862X0.040659X0.040659X0.259862X-0.259862X-0.040659X0*%
%ADD53R,0.350000X2.500000*%
%ADD54RoundRect,0.050000X0.212132X0.282843X-0.282843X-0.212132X-0.212132X-0.282843X0.282843X0.212132X0*%
%ADD55RoundRect,0.050000X-0.212132X0.282843X-0.282843X0.212132X0.212132X-0.282843X0.282843X-0.212132X0*%
%ADD56RotRect,4.000000X4.000000X225.000000*%
%ADD57RoundRect,0.300000X-0.700000X0.300000X-0.700000X-0.300000X0.700000X-0.300000X0.700000X0.300000X0*%
%ADD58RoundRect,0.150000X-0.150000X0.587500X-0.150000X-0.587500X0.150000X-0.587500X0.150000X0.587500X0*%
%ADD59RotRect,0.900000X0.800000X45.000000*%
%ADD60RoundRect,0.150000X-0.150000X-0.200000X0.150000X-0.200000X0.150000X0.200000X-0.150000X0.200000X0*%
%ADD61RotRect,0.300000X0.800000X135.000000*%
%ADD62RotRect,1.450000X1.750000X135.000000*%
%ADD63RoundRect,0.155000X-0.212500X-0.155000X0.212500X-0.155000X0.212500X0.155000X-0.212500X0.155000X0*%
%ADD64RoundRect,0.225000X0.225000X0.250000X-0.225000X0.250000X-0.225000X-0.250000X0.225000X-0.250000X0*%
%ADD65RotRect,1.000000X1.800000X45.000000*%
%ADD66RoundRect,0.100000X-0.162635X0.021213X0.021213X-0.162635X0.162635X-0.021213X-0.021213X0.162635X0*%
%ADD67C,0.650000*%
%ADD68O,1.600000X1.000000*%
%ADD69O,2.100000X1.000000*%
%ADD70R,2.000000X2.000000*%
%ADD71C,2.000000*%
G04 APERTURE END LIST*
D10*
X-42530925Y1734D02*
X-42830925Y301734D01*
X-42530925Y1734D02*
X-42230925Y-298266D01*
X0Y0D02*
X-200000Y-200000D01*
X9450000Y-3600000D02*
X9950000Y-3600000D01*
X9700000Y-3400000D02*
X9700000Y-3200000D01*
X-42530925Y1734D02*
X-42230925Y301734D01*
X-209548Y200000D02*
X190452Y-200000D01*
X9650000Y-3800000D02*
X9750000Y-3800000D01*
X0Y0D02*
X200000Y200000D01*
X-42530925Y1734D02*
X-42830925Y-298266D01*
X9250000Y-3400000D02*
X10150000Y-3400000D01*
X-3577507Y12230181D02*
X-3577507Y11515896D01*
X-3577507Y11515896D02*
X-3625126Y11373039D01*
X-3625126Y11373039D02*
X-3720364Y11277800D01*
X-3720364Y11277800D02*
X-3863221Y11230181D01*
X-3863221Y11230181D02*
X-3958459Y11230181D01*
X-2625126Y11230181D02*
X-3101316Y11230181D01*
X-3101316Y11230181D02*
X-3101316Y12230181D01*
X-1720364Y11325420D02*
X-1767983Y11277800D01*
X-1767983Y11277800D02*
X-1910840Y11230181D01*
X-1910840Y11230181D02*
X-2006078Y11230181D01*
X-2006078Y11230181D02*
X-2148935Y11277800D01*
X-2148935Y11277800D02*
X-2244173Y11373039D01*
X-2244173Y11373039D02*
X-2291792Y11468277D01*
X-2291792Y11468277D02*
X-2339411Y11658753D01*
X-2339411Y11658753D02*
X-2339411Y11801610D01*
X-2339411Y11801610D02*
X-2291792Y11992086D01*
X-2291792Y11992086D02*
X-2244173Y12087324D01*
X-2244173Y12087324D02*
X-2148935Y12182562D01*
X-2148935Y12182562D02*
X-2006078Y12230181D01*
X-2006078Y12230181D02*
X-1910840Y12230181D01*
X-1910840Y12230181D02*
X-1767983Y12182562D01*
X-1767983Y12182562D02*
X-1720364Y12134943D01*
X-1006078Y12230181D02*
X-1006078Y11515896D01*
X-1006078Y11515896D02*
X-1053697Y11373039D01*
X-1053697Y11373039D02*
X-1148935Y11277800D01*
X-1148935Y11277800D02*
X-1291792Y11230181D01*
X-1291792Y11230181D02*
X-1387030Y11230181D01*
X-53697Y11230181D02*
X-529887Y11230181D01*
X-529887Y11230181D02*
X-529887Y12230181D01*
X851065Y11325420D02*
X803446Y11277800D01*
X803446Y11277800D02*
X660589Y11230181D01*
X660589Y11230181D02*
X565351Y11230181D01*
X565351Y11230181D02*
X422494Y11277800D01*
X422494Y11277800D02*
X327256Y11373039D01*
X327256Y11373039D02*
X279637Y11468277D01*
X279637Y11468277D02*
X232018Y11658753D01*
X232018Y11658753D02*
X232018Y11801610D01*
X232018Y11801610D02*
X279637Y11992086D01*
X279637Y11992086D02*
X327256Y12087324D01*
X327256Y12087324D02*
X422494Y12182562D01*
X422494Y12182562D02*
X565351Y12230181D01*
X565351Y12230181D02*
X660589Y12230181D01*
X660589Y12230181D02*
X803446Y12182562D01*
X803446Y12182562D02*
X851065Y12134943D01*
X1565351Y12230181D02*
X1565351Y11515896D01*
X1565351Y11515896D02*
X1517732Y11373039D01*
X1517732Y11373039D02*
X1422494Y11277800D01*
X1422494Y11277800D02*
X1279637Y11230181D01*
X1279637Y11230181D02*
X1184399Y11230181D01*
X2517732Y11230181D02*
X2041542Y11230181D01*
X2041542Y11230181D02*
X2041542Y12230181D01*
X3422494Y11325420D02*
X3374875Y11277800D01*
X3374875Y11277800D02*
X3232018Y11230181D01*
X3232018Y11230181D02*
X3136780Y11230181D01*
X3136780Y11230181D02*
X2993923Y11277800D01*
X2993923Y11277800D02*
X2898685Y11373039D01*
X2898685Y11373039D02*
X2851066Y11468277D01*
X2851066Y11468277D02*
X2803447Y11658753D01*
X2803447Y11658753D02*
X2803447Y11801610D01*
X2803447Y11801610D02*
X2851066Y11992086D01*
X2851066Y11992086D02*
X2898685Y12087324D01*
X2898685Y12087324D02*
X2993923Y12182562D01*
X2993923Y12182562D02*
X3136780Y12230181D01*
X3136780Y12230181D02*
X3232018Y12230181D01*
X3232018Y12230181D02*
X3374875Y12182562D01*
X3374875Y12182562D02*
X3422494Y12134943D01*
D11*
X11294790Y-2431226D02*
X11125456Y-2189321D01*
X11004504Y-2431226D02*
X11004504Y-1923226D01*
X11004504Y-1923226D02*
X11198028Y-1923226D01*
X11198028Y-1923226D02*
X11246409Y-1947416D01*
X11246409Y-1947416D02*
X11270599Y-1971607D01*
X11270599Y-1971607D02*
X11294790Y-2019988D01*
X11294790Y-2019988D02*
X11294790Y-2092559D01*
X11294790Y-2092559D02*
X11270599Y-2140940D01*
X11270599Y-2140940D02*
X11246409Y-2165131D01*
X11246409Y-2165131D02*
X11198028Y-2189321D01*
X11198028Y-2189321D02*
X11004504Y-2189321D01*
X11488313Y-2407036D02*
X11560885Y-2431226D01*
X11560885Y-2431226D02*
X11681837Y-2431226D01*
X11681837Y-2431226D02*
X11730218Y-2407036D01*
X11730218Y-2407036D02*
X11754409Y-2382845D01*
X11754409Y-2382845D02*
X11778599Y-2334464D01*
X11778599Y-2334464D02*
X11778599Y-2286083D01*
X11778599Y-2286083D02*
X11754409Y-2237702D01*
X11754409Y-2237702D02*
X11730218Y-2213512D01*
X11730218Y-2213512D02*
X11681837Y-2189321D01*
X11681837Y-2189321D02*
X11585075Y-2165131D01*
X11585075Y-2165131D02*
X11536694Y-2140940D01*
X11536694Y-2140940D02*
X11512504Y-2116750D01*
X11512504Y-2116750D02*
X11488313Y-2068369D01*
X11488313Y-2068369D02*
X11488313Y-2019988D01*
X11488313Y-2019988D02*
X11512504Y-1971607D01*
X11512504Y-1971607D02*
X11536694Y-1947416D01*
X11536694Y-1947416D02*
X11585075Y-1923226D01*
X11585075Y-1923226D02*
X11706028Y-1923226D01*
X11706028Y-1923226D02*
X11778599Y-1947416D01*
X11923742Y-1923226D02*
X12214028Y-1923226D01*
X12068885Y-2431226D02*
X12068885Y-1923226D01*
D10*
X-48272554Y22022296D02*
X-48272554Y23022296D01*
X-48272554Y23022296D02*
X-48034459Y23022296D01*
X-48034459Y23022296D02*
X-47891602Y22974677D01*
X-47891602Y22974677D02*
X-47796364Y22879439D01*
X-47796364Y22879439D02*
X-47748745Y22784201D01*
X-47748745Y22784201D02*
X-47701126Y22593725D01*
X-47701126Y22593725D02*
X-47701126Y22450868D01*
X-47701126Y22450868D02*
X-47748745Y22260392D01*
X-47748745Y22260392D02*
X-47796364Y22165154D01*
X-47796364Y22165154D02*
X-47891602Y22069915D01*
X-47891602Y22069915D02*
X-48034459Y22022296D01*
X-48034459Y22022296D02*
X-48272554Y22022296D01*
X-47320173Y22069915D02*
X-47177316Y22022296D01*
X-47177316Y22022296D02*
X-46939221Y22022296D01*
X-46939221Y22022296D02*
X-46843983Y22069915D01*
X-46843983Y22069915D02*
X-46796364Y22117535D01*
X-46796364Y22117535D02*
X-46748745Y22212773D01*
X-46748745Y22212773D02*
X-46748745Y22308011D01*
X-46748745Y22308011D02*
X-46796364Y22403249D01*
X-46796364Y22403249D02*
X-46843983Y22450868D01*
X-46843983Y22450868D02*
X-46939221Y22498487D01*
X-46939221Y22498487D02*
X-47129697Y22546106D01*
X-47129697Y22546106D02*
X-47224935Y22593725D01*
X-47224935Y22593725D02*
X-47272554Y22641344D01*
X-47272554Y22641344D02*
X-47320173Y22736582D01*
X-47320173Y22736582D02*
X-47320173Y22831820D01*
X-47320173Y22831820D02*
X-47272554Y22927058D01*
X-47272554Y22927058D02*
X-47224935Y22974677D01*
X-47224935Y22974677D02*
X-47129697Y23022296D01*
X-47129697Y23022296D02*
X-46891602Y23022296D01*
X-46891602Y23022296D02*
X-46748745Y22974677D01*
X-45796364Y22022296D02*
X-46367792Y22022296D01*
X-46082078Y22022296D02*
X-46082078Y23022296D01*
X-46082078Y23022296D02*
X-46177316Y22879439D01*
X-46177316Y22879439D02*
X-46272554Y22784201D01*
X-46272554Y22784201D02*
X-46367792Y22736582D01*
X-45542554Y13492296D02*
X-46113982Y13492296D01*
X-45828268Y13492296D02*
X-45828268Y14492296D01*
X-45828268Y14492296D02*
X-45923506Y14349439D01*
X-45923506Y14349439D02*
X-46018744Y14254201D01*
X-46018744Y14254201D02*
X-46113982Y14206582D01*
X-38818745Y13442296D02*
X-39390173Y13442296D01*
X-39104459Y13442296D02*
X-39104459Y14442296D01*
X-39104459Y14442296D02*
X-39199697Y14299439D01*
X-39199697Y14299439D02*
X-39294935Y14204201D01*
X-39294935Y14204201D02*
X-39390173Y14156582D01*
X-38437792Y14347058D02*
X-38390173Y14394677D01*
X-38390173Y14394677D02*
X-38294935Y14442296D01*
X-38294935Y14442296D02*
X-38056840Y14442296D01*
X-38056840Y14442296D02*
X-37961602Y14394677D01*
X-37961602Y14394677D02*
X-37913983Y14347058D01*
X-37913983Y14347058D02*
X-37866364Y14251820D01*
X-37866364Y14251820D02*
X-37866364Y14156582D01*
X-37866364Y14156582D02*
X-37913983Y14013725D01*
X-37913983Y14013725D02*
X-38485411Y13442296D01*
X-38485411Y13442296D02*
X-37866364Y13442296D01*
D12*
%TO.C,C14*%
X7590000Y9540580D02*
X7590000Y9259420D01*
X8610000Y9540580D02*
X8610000Y9259420D01*
%TO.C,U3*%
X9500000Y11500000D02*
X9500000Y10975000D01*
X9500000Y11500000D02*
X10025000Y11500000D01*
X9500000Y7200000D02*
X9500000Y7725000D01*
X9500000Y7200000D02*
X10025000Y7200000D01*
X13275000Y7200000D02*
X13500000Y7200000D01*
X13800000Y11500000D02*
X13275000Y11500000D01*
X13800000Y11500000D02*
X13800000Y10975000D01*
X13800000Y7665000D02*
X13800000Y7440000D01*
X14040000Y6870000D02*
X13560000Y6870000D01*
X13800000Y7200000D01*
X14040000Y6870000D01*
G36*
X14040000Y6870000D02*
G01*
X13560000Y6870000D01*
X13800000Y7200000D01*
X14040000Y6870000D01*
G37*
%TO.C,Q8*%
X-2497500Y4900000D02*
X-2497500Y5700000D01*
X-2497500Y4900000D02*
X-2497500Y4100000D01*
X622500Y4900000D02*
X622500Y5700000D01*
X622500Y4900000D02*
X622500Y4100000D01*
X-2447500Y3600000D02*
X-2777500Y3360000D01*
X-2777500Y3840000D01*
X-2447500Y3600000D01*
G36*
X-2447500Y3600000D02*
G01*
X-2777500Y3360000D01*
X-2777500Y3840000D01*
X-2447500Y3600000D01*
G37*
%TO.C,R25*%
X-16650175Y7312773D02*
X-16887227Y7549825D01*
X-16112773Y7850175D02*
X-16349825Y8087227D01*
%TO.C,D3*%
X2737401Y2639483D02*
X856497Y758579D01*
X3939483Y1437401D02*
X2058579Y-443503D01*
X3939483Y1437401D02*
X2737401Y2639483D01*
%TO.C,C24*%
X-9640580Y-9090000D02*
X-9359420Y-9090000D01*
X-9640580Y-10110000D02*
X-9359420Y-10110000D01*
%TO.C,R12*%
X11688629Y5467621D02*
X11688629Y5132379D01*
X12448629Y5467621D02*
X12448629Y5132379D01*
%TO.C,Q6*%
X340000Y-15900000D02*
X340000Y-15250000D01*
X340000Y-15900000D02*
X340000Y-16550000D01*
X3460000Y-15900000D02*
X3460000Y-15250000D01*
X3460000Y-15900000D02*
X3460000Y-16550000D01*
X390000Y-17062500D02*
X60000Y-17302500D01*
X60000Y-16822500D01*
X390000Y-17062500D01*
G36*
X390000Y-17062500D02*
G01*
X60000Y-17302500D01*
X60000Y-16822500D01*
X390000Y-17062500D01*
G37*
%TO.C,Q7*%
X7096913Y2903087D02*
X6637294Y2443467D01*
X7096913Y2903087D02*
X7556533Y3362706D01*
X9303087Y696913D02*
X8843467Y237294D01*
X9303087Y696913D02*
X9762706Y1156533D01*
X10492794Y1490641D02*
X10153382Y1151230D01*
X10089743Y1554280D01*
X10492794Y1490641D01*
G36*
X10492794Y1490641D02*
G01*
X10153382Y1151230D01*
X10089743Y1554280D01*
X10492794Y1490641D01*
G37*
%TO.C,U5*%
X-8967417Y-5340000D02*
X-9767417Y-5340000D01*
X-8967417Y-5340000D02*
X-8167417Y-5340000D01*
X-8967417Y-8460000D02*
X-9767417Y-8460000D01*
X-8967417Y-8460000D02*
X-8167417Y-8460000D01*
X-7427417Y-8740000D02*
X-7907417Y-8740000D01*
X-7667417Y-8410000D01*
X-7427417Y-8740000D01*
G36*
X-7427417Y-8740000D02*
G01*
X-7907417Y-8740000D01*
X-7667417Y-8410000D01*
X-7427417Y-8740000D01*
G37*
%TO.C,R33*%
X9674644Y3537954D02*
X9911696Y3300902D01*
X10212046Y4075356D02*
X10449098Y3838304D01*
%TO.C,R41*%
X-11565121Y5580000D02*
X-11229879Y5580000D01*
X-11565121Y4820000D02*
X-11229879Y4820000D01*
%TO.C,R14*%
X14820000Y8167621D02*
X14820000Y7832379D01*
X15580000Y8167621D02*
X15580000Y7832379D01*
%TO.C,C31*%
X-15240580Y-5290000D02*
X-14959420Y-5290000D01*
X-15240580Y-6310000D02*
X-14959420Y-6310000D01*
%TO.C,C10*%
X-1672651Y363534D02*
X-1836466Y527349D01*
X-1163534Y872651D02*
X-1327349Y1036466D01*
%TO.C,Q3*%
X-9960000Y4437500D02*
X-9960000Y5237500D01*
X-9960000Y4437500D02*
X-9960000Y3637500D01*
X-6840000Y4437500D02*
X-6840000Y5237500D01*
X-6840000Y4437500D02*
X-6840000Y3637500D01*
X-6560000Y5497500D02*
X-6890000Y5737500D01*
X-6560000Y5977500D01*
X-6560000Y5497500D01*
G36*
X-6560000Y5497500D02*
G01*
X-6890000Y5737500D01*
X-6560000Y5977500D01*
X-6560000Y5497500D01*
G37*
%TO.C,C26*%
X-8110000Y10659420D02*
X-8110000Y10940580D01*
X-7090000Y10659420D02*
X-7090000Y10940580D01*
%TO.C,R7*%
X-5887227Y-3650175D02*
X-5650175Y-3887227D01*
X-5349825Y-3112773D02*
X-5112773Y-3349825D01*
%TO.C,R50*%
X6182500Y5332379D02*
X6182500Y5667621D01*
X6942500Y5332379D02*
X6942500Y5667621D01*
%TO.C,C28*%
X-11961219Y13239970D02*
X-12160030Y13438781D01*
X-11239970Y13961219D02*
X-11438781Y14160030D01*
%TO.C,C6*%
X6762251Y-7171368D02*
X6926066Y-7335183D01*
X7271368Y-6662251D02*
X7435183Y-6826066D01*
%TO.C,R52*%
X10017781Y-13014731D02*
X9780729Y-12777679D01*
X10555183Y-12477329D02*
X10318131Y-12240277D01*
%TO.C,C27*%
X-8760030Y14238781D02*
X-8561219Y14039970D01*
X-8038781Y14960030D02*
X-7839970Y14761219D01*
%TO.C,R21*%
X-19317500Y-384880D02*
X-19317500Y-720122D01*
X-18557500Y-384880D02*
X-18557500Y-720122D01*
%TO.C,R11*%
X12820000Y5470121D02*
X12820000Y5134879D01*
X13580000Y5470121D02*
X13580000Y5134879D01*
%TO.C,Q5*%
X-3610000Y-15837500D02*
X-3610000Y-15187500D01*
X-3610000Y-15837500D02*
X-3610000Y-16487500D01*
X-490000Y-15837500D02*
X-490000Y-15187500D01*
X-490000Y-15837500D02*
X-490000Y-16487500D01*
X-3560000Y-17000000D02*
X-3890000Y-17240000D01*
X-3890000Y-16760000D01*
X-3560000Y-17000000D01*
G36*
X-3560000Y-17000000D02*
G01*
X-3890000Y-17240000D01*
X-3890000Y-16760000D01*
X-3560000Y-17000000D01*
G37*
%TO.C,R32*%
X1767621Y-18082498D02*
X1432379Y-18082498D01*
X1767621Y-18842498D02*
X1432379Y-18842498D01*
%TO.C,Q9*%
X-10903087Y-13196913D02*
X-11362706Y-13656533D01*
X-10903087Y-13196913D02*
X-10443467Y-12737294D01*
X-8696913Y-15403087D02*
X-9156533Y-15862706D01*
X-8696913Y-15403087D02*
X-8237294Y-14943467D01*
X-7507206Y-14609359D02*
X-7846618Y-14948770D01*
X-7910257Y-14545720D01*
X-7507206Y-14609359D01*
G36*
X-7507206Y-14609359D02*
G01*
X-7846618Y-14948770D01*
X-7910257Y-14545720D01*
X-7507206Y-14609359D01*
G37*
%TO.C,R39*%
X-5372671Y-9464731D02*
X-5609723Y-9227679D01*
X-4835269Y-8927329D02*
X-5072321Y-8690277D01*
%TO.C,R6*%
X-24110925Y2631613D02*
X-24110925Y2966855D01*
X-23350925Y2631613D02*
X-23350925Y2966855D01*
%TO.C,C25*%
X-17912022Y6390773D02*
X-17713211Y6191962D01*
X-17190773Y7112022D02*
X-16991962Y6913211D01*
%TO.C,U8*%
X-16660000Y-8800000D02*
X-16660000Y-8000000D01*
X-16660000Y-8800000D02*
X-16660000Y-9600000D01*
X-13540000Y-8800000D02*
X-13540000Y-8000000D01*
X-13540000Y-8800000D02*
X-13540000Y-9600000D01*
X-13260000Y-7740000D02*
X-13590000Y-7500000D01*
X-13260000Y-7260000D01*
X-13260000Y-7740000D01*
G36*
X-13260000Y-7740000D02*
G01*
X-13590000Y-7500000D01*
X-13260000Y-7260000D01*
X-13260000Y-7740000D01*
G37*
%TO.C,U7*%
X-5400000Y19650000D02*
X-5400000Y19150000D01*
X-5400000Y19650000D02*
X5600000Y19650000D01*
X-5400000Y16250000D02*
X-5400000Y17050000D01*
X-5400000Y9025000D02*
X-5400000Y8675000D01*
X-3975000Y8650000D02*
X-5400000Y8650000D01*
X5600000Y19650000D02*
X5600000Y19150000D01*
X5600000Y16250000D02*
X5600000Y17050000D01*
X5600000Y9025000D02*
X5600000Y8675000D01*
X5600000Y8650000D02*
X4175000Y8650000D01*
%TO.C,R46*%
X-6441336Y-13921891D02*
X-6678388Y-13684839D01*
X-5903934Y-13384489D02*
X-6140986Y-13147437D01*
%TO.C,R24*%
X1182500Y3732379D02*
X1182500Y4067621D01*
X1942500Y3732379D02*
X1942500Y4067621D01*
%TO.C,TP1*%
X11400000Y-500000D02*
G75*
G02*
X10000000Y-500000I-700000J0D01*
G01*
X10000000Y-500000D02*
G75*
G02*
X11400000Y-500000I700000J0D01*
G01*
%TO.C,U4*%
X-15737500Y1709999D02*
X-16537500Y1709999D01*
X-15737500Y1709999D02*
X-14937500Y1709999D01*
X-15737500Y-1410001D02*
X-16537500Y-1410001D01*
X-15737500Y-1410001D02*
X-14937500Y-1410001D01*
X-17037500Y1659999D02*
X-17277500Y1989999D01*
X-16797500Y1989999D01*
X-17037500Y1659999D01*
G36*
X-17037500Y1659999D02*
G01*
X-17277500Y1989999D01*
X-16797500Y1989999D01*
X-17037500Y1659999D01*
G37*
%TO.C,R4*%
X-5350175Y987227D02*
X-5587227Y750175D01*
X-4812773Y449825D02*
X-5049825Y212773D01*
%TO.C,C23*%
X-8384165Y-3240000D02*
X-8615835Y-3240000D01*
X-8384165Y-3960000D02*
X-8615835Y-3960000D01*
%TO.C,R51*%
X8980729Y-13577679D02*
X9217781Y-13814731D01*
X9518131Y-13040277D02*
X9755183Y-13277329D01*
%TO.C,R16*%
X14449825Y12112773D02*
X14212773Y12349825D01*
X14987227Y12650175D02*
X14750175Y12887227D01*
%TO.C,R23*%
X5112773Y-9249825D02*
X5349825Y-9012773D01*
X5650175Y-9787227D02*
X5887227Y-9550175D01*
%TO.C,R47*%
X-8441336Y-11921891D02*
X-8678388Y-11684839D01*
X-7903934Y-11384489D02*
X-8140986Y-11147437D01*
%TO.C,R35*%
X-3809723Y-11027679D02*
X-3572671Y-11264731D01*
X-3272321Y-10490277D02*
X-3035269Y-10727329D01*
%TO.C,L3*%
X-14989016Y8200000D02*
X-14882950Y8093934D01*
X-14989016Y8200000D02*
X-12500000Y10689016D01*
X-12500000Y10689016D02*
X-12393934Y10582950D01*
X-12500000Y5710984D02*
X-12606066Y5817050D01*
X-12500000Y5710984D02*
X-10010984Y8200000D01*
X-10010984Y8200000D02*
X-10117050Y8306066D01*
%TO.C,R34*%
X-4832219Y-12105183D02*
X-4595167Y-12342235D01*
X-4294817Y-11567781D02*
X-4057765Y-11804833D01*
%TO.C,C22*%
X-8384165Y-1940000D02*
X-8615835Y-1940000D01*
X-8384165Y-2660000D02*
X-8615835Y-2660000D01*
%TO.C,R42*%
X10479188Y13872394D02*
X10479188Y13537152D01*
X11239188Y13872394D02*
X11239188Y13537152D01*
%TO.C,C29*%
X-9613211Y12808038D02*
X-9812022Y12609227D01*
X-8891962Y12086789D02*
X-9090773Y11887978D01*
%TO.C,C15*%
X8864264Y13559420D02*
X8864264Y13840580D01*
X9884264Y13559420D02*
X9884264Y13840580D01*
%TO.C,R49*%
X-7680000Y8032379D02*
X-7680000Y8367621D01*
X-6920000Y8032379D02*
X-6920000Y8367621D01*
%TO.C,D2*%
X-4687500Y2790000D02*
X-4687500Y5450000D01*
X-4687500Y2790000D02*
X-2987500Y2790000D01*
X-2987500Y2790000D02*
X-2987500Y5450000D01*
%TO.C,C11*%
X1917801Y-11013534D02*
X1753986Y-11177349D01*
X2426918Y-11522651D02*
X2263103Y-11686466D01*
%TO.C,C19*%
X-11975580Y-340001D02*
X-11694420Y-340001D01*
X-11975580Y-1360001D02*
X-11694420Y-1360001D01*
%TO.C,C30*%
X-13010000Y-9040580D02*
X-13010000Y-8759420D01*
X-11990000Y-9040580D02*
X-11990000Y-8759420D01*
%TO.C,R22*%
X-19317500Y1582378D02*
X-19317500Y1917620D01*
X-18557500Y1582378D02*
X-18557500Y1917620D01*
%TO.C,TP2*%
X10400000Y-2500000D02*
G75*
G02*
X9000000Y-2500000I-700000J0D01*
G01*
X9000000Y-2500000D02*
G75*
G02*
X10400000Y-2500000I700000J0D01*
G01*
%TO.C,C13*%
X11661320Y-4651665D02*
X11661320Y-4883335D01*
X12381320Y-4651665D02*
X12381320Y-4883335D01*
%TO.C,R28*%
X-8980000Y8365121D02*
X-8980000Y8029879D01*
X-8220000Y8365121D02*
X-8220000Y8029879D01*
%TO.C,C9*%
X5763534Y-2527349D02*
X5927349Y-2363534D01*
X6272651Y-3036466D02*
X6436466Y-2872651D01*
%TO.C,C17*%
X12090000Y13659420D02*
X12090000Y13940580D01*
X13110000Y13659420D02*
X13110000Y13940580D01*
%TO.C,R13*%
X7509339Y13872394D02*
X7509339Y13537152D01*
X8269339Y13872394D02*
X8269339Y13537152D01*
%TO.C,C20*%
X-6206078Y4582002D02*
X-6206078Y4300842D01*
X-5186078Y4582002D02*
X-5186078Y4300842D01*
D10*
%TO.C,DS1*%
X-48478268Y20747115D02*
X-48478268Y14497115D01*
X-48078268Y21147115D02*
X-36678268Y21147115D01*
X-47678268Y13697115D02*
X-47678268Y11097115D01*
X-46278268Y10747115D02*
X-47278268Y10747115D01*
X-36678268Y10747115D02*
X-37678268Y10747115D01*
X-36278268Y20747115D02*
X-36278268Y11147115D01*
X-48478268Y20747115D02*
G75*
G02*
X-48078268Y21147115I399999J1D01*
G01*
X-48078268Y14097115D02*
G75*
G02*
X-48478268Y14497115I-1J399999D01*
G01*
X-48078268Y14097115D02*
G75*
G02*
X-47678268Y13697115I1J-399999D01*
G01*
X-47278268Y10747115D02*
G75*
G02*
X-47678268Y11147115I-1J399999D01*
G01*
X-36678268Y21147115D02*
G75*
G02*
X-36278221Y20747115I47J-400000D01*
G01*
X-36278268Y11147115D02*
G75*
G02*
X-36678268Y10747162I-399953J0D01*
G01*
X-46778268Y14997115D02*
G75*
G02*
X-47778268Y14997115I-500000J0D01*
G01*
X-47778268Y14997115D02*
G75*
G02*
X-46778268Y14997115I500000J0D01*
G01*
X-25178268Y-2885D02*
G75*
G02*
X-59880574Y-2885I-17351153J0D01*
G01*
X-59880574Y-2885D02*
G75*
G02*
X-25178268Y-2885I17351153J0D01*
G01*
X-36778268Y14997115D02*
G75*
G02*
X-37778268Y14997115I-500000J0D01*
G01*
X-37778268Y14997115D02*
G75*
G02*
X-36778268Y14997115I500000J0D01*
G01*
D12*
%TO.C,R37*%
X627329Y2064731D02*
X390277Y1827679D01*
X1164731Y1527329D02*
X927679Y1290277D01*
%TO.C,U1*%
X-5114859Y-6250000D02*
X-4655240Y-6709619D01*
X-4655240Y-5790381D02*
X-5114859Y-6250000D01*
X-469167Y-1604308D02*
X-9548Y-1144689D01*
X-9548Y-1144689D02*
X450071Y-1604308D01*
X-9548Y-11355311D02*
X-469167Y-10895692D01*
X450071Y-10895692D02*
X-9548Y-11355311D01*
X4636144Y-5790381D02*
X4926057Y-6080294D01*
X4636144Y-6709619D02*
X4883631Y-6462132D01*
X5498814Y-6313640D02*
X5159403Y-6653051D01*
X5095763Y-6250000D01*
X5498814Y-6313640D01*
G36*
X5498814Y-6313640D02*
G01*
X5159403Y-6653051D01*
X5095763Y-6250000D01*
X5498814Y-6313640D01*
G37*
%TO.C,C5*%
X5956185Y-7955251D02*
X6120000Y-8119066D01*
X6465302Y-7446134D02*
X6629117Y-7609949D01*
D10*
%TO.C,AE1*%
X16450002Y-3000000D02*
X16450000Y2600000D01*
X18850000Y-3000000D02*
X18849998Y2600000D01*
X18750000Y-1900000D02*
X16450000Y-1900000D01*
X16450000Y-1100000D01*
X18750000Y-1100000D01*
X18750000Y-1900000D01*
G36*
X18750000Y-1900000D02*
G01*
X16450000Y-1900000D01*
X16450000Y-1100000D01*
X18750000Y-1100000D01*
X18750000Y-1900000D01*
G37*
D12*
%TO.C,R40*%
X6535269Y-3327329D02*
X6772321Y-3090277D01*
X7072671Y-3864731D02*
X7309723Y-3627679D01*
%TO.C,R45*%
X-7250175Y-14912773D02*
X-7487227Y-15149825D01*
X-6712773Y-15450175D02*
X-6949825Y-15687227D01*
%TO.C,C8*%
X4963534Y-1727349D02*
X5127349Y-1563534D01*
X5472651Y-2236466D02*
X5636466Y-2072651D01*
%TO.C,R48*%
X-8380000Y-232379D02*
X-8380000Y-567621D01*
X-7620000Y-232379D02*
X-7620000Y-567621D01*
%TO.C,R36*%
X5711696Y-99098D02*
X5474644Y137954D01*
X6249098Y438304D02*
X6012046Y675356D01*
%TO.C,Q4*%
X2502500Y4700000D02*
X2502500Y5350000D01*
X2502500Y4700000D02*
X2502500Y4050000D01*
X5622500Y4700000D02*
X5622500Y5350000D01*
X5622500Y4700000D02*
X5622500Y4050000D01*
X5902500Y5622500D02*
X5572500Y5862500D01*
X5902500Y6102500D01*
X5902500Y5622500D01*
G36*
X5902500Y5622500D02*
G01*
X5572500Y5862500D01*
X5902500Y6102500D01*
X5902500Y5622500D01*
G37*
%TO.C,R31*%
X-2282379Y-18057500D02*
X-2617621Y-18057500D01*
X-2282379Y-18817500D02*
X-2617621Y-18817500D01*
%TO.C,R8*%
X-6587227Y-4450175D02*
X-6350175Y-4687227D01*
X-6049825Y-3912773D02*
X-5812773Y-4149825D01*
%TO.C,R27*%
X-10687227Y14149825D02*
X-10450175Y13912773D01*
X-10149825Y14687227D02*
X-9912773Y14450175D01*
%TO.C,R15*%
X14820000Y10129879D02*
X14820000Y10465121D01*
X15580000Y10129879D02*
X15580000Y10465121D01*
%TO.C,Y1*%
X5132233Y-10841421D02*
X6758579Y-12467767D01*
X6758579Y-12467767D02*
X8667767Y-10558579D01*
%TO.C,R38*%
X-6372671Y-10464731D02*
X-6609723Y-10227679D01*
X-5835269Y-9927329D02*
X-6072321Y-9690277D01*
%TO.C,R26*%
X-11227679Y16309723D02*
X-11464731Y16072671D01*
X-10690277Y15772321D02*
X-10927329Y15535269D01*
D13*
%TO.C,D1*%
X-24780925Y901734D02*
X-23280925Y901734D01*
X-24780925Y-898266D02*
X-23280925Y-898266D01*
D14*
%TO.C,U2*%
X-16782179Y10200000D02*
G75*
G02*
X-17032179Y10200000I-125000J0D01*
G01*
X-17032179Y10200000D02*
G75*
G02*
X-16782179Y10200000I125000J0D01*
G01*
D12*
%TO.C,R44*%
X-6350175Y-15712773D02*
X-6587227Y-15949825D01*
X-5812773Y-16250175D02*
X-6049825Y-16487227D01*
%TO.C,C12*%
X9784165Y-4973185D02*
X10015835Y-4973185D01*
X9784165Y-5693185D02*
X10015835Y-5693185D01*
%TO.C,C16*%
X10140580Y6410000D02*
X9859420Y6410000D01*
X10140580Y5390000D02*
X9859420Y5390000D01*
%TO.C,R20*%
X-12402621Y1529999D02*
X-12067379Y1529999D01*
X-12402621Y769999D02*
X-12067379Y769999D01*
%TO.C,C7*%
X4163534Y-927349D02*
X4327349Y-763534D01*
X4672651Y-1436466D02*
X4836466Y-1272651D01*
%TO.C,Y2*%
X-5815254Y-1542462D02*
X-4542462Y-2815254D01*
X-4860660Y-517157D02*
X-4082843Y260660D01*
X-3517157Y-1860660D02*
X-2739340Y-1082843D01*
%TO.C,R43*%
X-12150175Y-12387227D02*
X-12387227Y-12150175D01*
X-11612773Y-11849825D02*
X-11849825Y-11612773D01*
%TO.C,C21*%
X-7340580Y2010000D02*
X-7059420Y2010000D01*
X-7340580Y990000D02*
X-7059420Y990000D01*
%TD*%
%LPC*%
D15*
%TO.C,C14*%
X8100000Y10175000D03*
X8100000Y8625000D03*
%TD*%
D16*
%TO.C,U3*%
X13600000Y8100000D03*
X13600000Y8600000D03*
X13600000Y9100000D03*
X13600000Y9600000D03*
X13600000Y10100000D03*
X13600000Y10600000D03*
D17*
X12900000Y11300000D03*
X12400000Y11300000D03*
X11900000Y11300000D03*
X11400000Y11300000D03*
X10900000Y11300000D03*
X10400000Y11300000D03*
D16*
X9700000Y10600000D03*
X9700000Y10100000D03*
X9700000Y9600000D03*
X9700000Y9100000D03*
X9700000Y8600000D03*
X9700000Y8100000D03*
D17*
X10400000Y7400000D03*
X10900000Y7400000D03*
X11400000Y7400000D03*
X11900000Y7400000D03*
X12400000Y7400000D03*
X12900000Y7400000D03*
%TD*%
D18*
%TO.C,Q8*%
X-1887500Y3762500D03*
X12500Y3762500D03*
X-937500Y6037500D03*
%TD*%
D19*
%TO.C,R25*%
X-16077504Y7277504D03*
X-16922496Y8122496D03*
%TD*%
D20*
%TO.C,D3*%
X2977817Y1677817D03*
X1422183Y122183D03*
%TD*%
D21*
%TO.C,C4*%
X-6173726Y-726274D03*
X-6626274Y-273726D03*
%TD*%
D22*
%TO.C,C24*%
X-10275000Y-9600000D03*
X-8725000Y-9600000D03*
%TD*%
D23*
%TO.C,R12*%
X12068629Y5897500D03*
X12068629Y4702500D03*
%TD*%
D24*
%TO.C,Q6*%
X950000Y-16837500D03*
X2850000Y-16837500D03*
X1900000Y-14962500D03*
%TD*%
D25*
%TO.C,Q7*%
X9534664Y1791161D03*
X8191161Y3134664D03*
X7537087Y1137087D03*
%TD*%
D26*
%TO.C,U5*%
X-7829917Y-7850000D03*
X-7829917Y-6900000D03*
X-7829917Y-5950000D03*
X-10104917Y-5950000D03*
X-10104917Y-7850000D03*
%TD*%
D27*
%TO.C,R33*%
X9639375Y4110625D03*
X10484367Y3265633D03*
%TD*%
D28*
%TO.C,R41*%
X-11995000Y5200000D03*
X-10800000Y5200000D03*
%TD*%
D29*
%TO.C,L1*%
X4942947Y-3942947D03*
X4257053Y-3257053D03*
%TD*%
D23*
%TO.C,R14*%
X15200000Y8597500D03*
X15200000Y7402500D03*
%TD*%
D22*
%TO.C,C31*%
X-15875000Y-5800000D03*
X-14325000Y-5800000D03*
%TD*%
D30*
%TO.C,C10*%
X-1098717Y298717D03*
X-1901283Y1101283D03*
%TD*%
D21*
%TO.C,C3*%
X-3873726Y1573726D03*
X-4326274Y2026274D03*
%TD*%
D31*
%TO.C,Q3*%
X-7450000Y5575000D03*
X-9350000Y5575000D03*
X-8400000Y3300000D03*
%TD*%
D32*
%TO.C,C26*%
X-7600000Y10025000D03*
X-7600000Y11575000D03*
%TD*%
D27*
%TO.C,R7*%
X-5922496Y-3077504D03*
X-5077504Y-3922496D03*
%TD*%
D33*
%TO.C,L2*%
X13115000Y-5333185D03*
X14085000Y-5333185D03*
%TD*%
D34*
%TO.C,R50*%
X6562500Y4902500D03*
X6562500Y6097500D03*
%TD*%
D35*
%TO.C,C28*%
X-11151992Y13151992D03*
X-12248008Y14248008D03*
%TD*%
D36*
%TO.C,C6*%
X6697434Y-6597434D03*
X7500000Y-7400000D03*
%TD*%
D19*
%TO.C,R52*%
X10590452Y-13050000D03*
X9745460Y-12205008D03*
%TD*%
D37*
%TO.C,C27*%
X-8848008Y15048008D03*
X-7751992Y13951992D03*
%TD*%
D23*
%TO.C,R21*%
X-18937500Y44999D03*
X-18937500Y-1150001D03*
%TD*%
%TO.C,R11*%
X13200000Y5900000D03*
X13200000Y4705000D03*
%TD*%
D24*
%TO.C,Q5*%
X-3000000Y-16775000D03*
X-1100000Y-16775000D03*
X-2050000Y-14900000D03*
%TD*%
D38*
%TO.C,R32*%
X2197500Y-18462498D03*
X1002500Y-18462498D03*
%TD*%
D25*
%TO.C,Q9*%
X-8465336Y-14308839D03*
X-9808839Y-12965336D03*
X-10462913Y-14962913D03*
%TD*%
D19*
%TO.C,R39*%
X-4800000Y-9500000D03*
X-5644992Y-8655008D03*
%TD*%
D34*
%TO.C,R6*%
X-23730925Y2201734D03*
X-23730925Y3396734D03*
%TD*%
D37*
%TO.C,C25*%
X-18000000Y7200000D03*
X-16903984Y6103984D03*
%TD*%
D31*
%TO.C,U8*%
X-14150000Y-7662500D03*
X-16050000Y-7662500D03*
X-15100000Y-9937500D03*
%TD*%
D39*
%TO.C,U7*%
X-5500000Y15650000D03*
X-5500000Y14650000D03*
X-5500000Y13650000D03*
X-5500000Y12650000D03*
X-5500000Y11650000D03*
X-5500000Y10650000D03*
X-5500000Y9650000D03*
D40*
X-3400000Y8550000D03*
X-2400000Y8550000D03*
X-1400000Y8550000D03*
X-400000Y8550000D03*
X600000Y8550000D03*
X1600000Y8550000D03*
X2600000Y8550000D03*
X3600000Y8550000D03*
D39*
X5700000Y9650000D03*
X5700000Y10650000D03*
X5700000Y11650000D03*
X5700000Y12650000D03*
X5700000Y13650000D03*
X5700000Y14650000D03*
X5700000Y15650000D03*
X-5500000Y18650000D03*
X-5500000Y17650000D03*
X5700000Y17650000D03*
X5700000Y18650000D03*
%TD*%
D19*
%TO.C,R46*%
X-5868665Y-13957160D03*
X-6713657Y-13112168D03*
%TD*%
D34*
%TO.C,R24*%
X1562500Y3302500D03*
X1562500Y4497500D03*
%TD*%
D41*
%TO.C,TP1*%
X10700000Y-500000D03*
%TD*%
D42*
%TO.C,U4*%
X-16875000Y1099999D03*
X-16875000Y149999D03*
X-16875000Y-800001D03*
X-14600000Y-800001D03*
X-14600000Y1099999D03*
%TD*%
D43*
%TO.C,R4*%
X-4777504Y1022496D03*
X-5622496Y177504D03*
%TD*%
D44*
%TO.C,C23*%
X-7932500Y-3600000D03*
X-9067500Y-3600000D03*
%TD*%
D27*
%TO.C,R51*%
X8945460Y-13005008D03*
X9790452Y-13850000D03*
%TD*%
D19*
%TO.C,R16*%
X15022496Y12077504D03*
X14177504Y12922496D03*
%TD*%
D45*
%TO.C,R23*%
X5077504Y-9822496D03*
X5922496Y-8977504D03*
%TD*%
D21*
%TO.C,C1*%
X5600000Y-12200000D03*
X5147452Y-11747452D03*
%TD*%
D19*
%TO.C,R47*%
X-7868665Y-11957160D03*
X-8713657Y-11112168D03*
%TD*%
D27*
%TO.C,R35*%
X-3844992Y-10455008D03*
X-3000000Y-11300000D03*
%TD*%
D46*
%TO.C,L3*%
X-13242462Y7457538D03*
X-11757538Y8942462D03*
%TD*%
D47*
%TO.C,mouse-bite-2.54mm-slot*%
X-22361866Y-800000D03*
X-20161866Y-800000D03*
X-22361866Y0D03*
X-20161866Y0D03*
X-22361866Y800000D03*
X-20161866Y800000D03*
%TD*%
D27*
%TO.C,R34*%
X-4867488Y-11532512D03*
X-4022496Y-12377504D03*
%TD*%
D44*
%TO.C,C22*%
X-7932500Y-2300000D03*
X-9067500Y-2300000D03*
%TD*%
D23*
%TO.C,R42*%
X10859188Y14302273D03*
X10859188Y13107273D03*
%TD*%
D48*
%TO.C,C29*%
X-8803984Y12896016D03*
X-9900000Y11800000D03*
%TD*%
D32*
%TO.C,C15*%
X9374264Y12925000D03*
X9374264Y14475000D03*
%TD*%
D34*
%TO.C,R49*%
X-7300000Y7602500D03*
X-7300000Y8797500D03*
%TD*%
D49*
%TO.C,D2*%
X-3837500Y3300000D03*
X-3837500Y5500000D03*
%TD*%
D50*
%TO.C,C11*%
X2491735Y-10948717D03*
X1689169Y-11751283D03*
%TD*%
D22*
%TO.C,C19*%
X-12610000Y-850001D03*
X-11060000Y-850001D03*
%TD*%
D32*
%TO.C,C30*%
X-12500000Y-9675000D03*
X-12500000Y-8125000D03*
%TD*%
D34*
%TO.C,R22*%
X-18937500Y1152499D03*
X-18937500Y2347499D03*
%TD*%
D41*
%TO.C,TP2*%
X9700000Y-2500000D03*
%TD*%
D51*
%TO.C,C13*%
X12021320Y-4200000D03*
X12021320Y-5335000D03*
%TD*%
D23*
%TO.C,R28*%
X-8600000Y8795000D03*
X-8600000Y7600000D03*
%TD*%
D52*
%TO.C,C9*%
X5698717Y-3101283D03*
X6501283Y-2298717D03*
%TD*%
D32*
%TO.C,C17*%
X12600000Y13025000D03*
X12600000Y14575000D03*
%TD*%
D23*
%TO.C,R13*%
X7889339Y14302273D03*
X7889339Y13107273D03*
%TD*%
D15*
%TO.C,C20*%
X-5696078Y5216422D03*
X-5696078Y3666422D03*
%TD*%
D53*
%TO.C,DS1*%
X-45828268Y11697115D03*
X-45128268Y11697115D03*
X-44428268Y11697115D03*
X-43728268Y11697115D03*
X-43028268Y11697115D03*
X-42328268Y11697115D03*
X-41628268Y11697115D03*
X-40928268Y11697115D03*
X-40228268Y11697115D03*
X-39528268Y11697115D03*
X-38828268Y11697115D03*
X-38128268Y11697115D03*
%TD*%
D43*
%TO.C,R37*%
X1200000Y2100000D03*
X355008Y1255008D03*
%TD*%
D54*
%TO.C,U1*%
X4268448Y-5648959D03*
X3985605Y-5366117D03*
X3702763Y-5083274D03*
X3419920Y-4800431D03*
X3137077Y-4517588D03*
X2854234Y-4234746D03*
X2571392Y-3951903D03*
X2288549Y-3669060D03*
X2005706Y-3386218D03*
X1722864Y-3103375D03*
X1440021Y-2820532D03*
X1157178Y-2537689D03*
X874335Y-2254847D03*
X591493Y-1972004D03*
D55*
X-610589Y-1972004D03*
X-893431Y-2254847D03*
X-1176274Y-2537689D03*
X-1459117Y-2820532D03*
X-1741960Y-3103375D03*
X-2024802Y-3386218D03*
X-2307645Y-3669060D03*
X-2590488Y-3951903D03*
X-2873330Y-4234746D03*
X-3156173Y-4517588D03*
X-3439016Y-4800431D03*
X-3721859Y-5083274D03*
X-4004701Y-5366117D03*
X-4287544Y-5648959D03*
D54*
X-4287544Y-6851041D03*
X-4004701Y-7133883D03*
X-3721859Y-7416726D03*
X-3439016Y-7699569D03*
X-3156173Y-7982412D03*
X-2873330Y-8265254D03*
X-2590488Y-8548097D03*
X-2307645Y-8830940D03*
X-2024802Y-9113782D03*
X-1741960Y-9396625D03*
X-1459117Y-9679468D03*
X-1176274Y-9962311D03*
X-893431Y-10245153D03*
X-610589Y-10527996D03*
D55*
X591493Y-10527996D03*
X874335Y-10245153D03*
X1157178Y-9962311D03*
X1440021Y-9679468D03*
X1722864Y-9396625D03*
X2005706Y-9113782D03*
X2288549Y-8830940D03*
X2571392Y-8548097D03*
X2854234Y-8265254D03*
X3137077Y-7982412D03*
X3419920Y-7699569D03*
X3702763Y-7416726D03*
X3985605Y-7133883D03*
X4268448Y-6851041D03*
D56*
X-9548Y-6250000D03*
%TD*%
D36*
%TO.C,C5*%
X5891368Y-7381317D03*
X6693934Y-8183883D03*
%TD*%
D57*
%TO.C,AE1*%
X17650000Y-2950000D03*
X17650000Y2550000D03*
%TD*%
D45*
%TO.C,R40*%
X6500000Y-3900000D03*
X7344992Y-3055008D03*
%TD*%
D43*
%TO.C,R45*%
X-6677504Y-14877504D03*
X-7522496Y-15722496D03*
%TD*%
D52*
%TO.C,C8*%
X4898717Y-2301283D03*
X5701283Y-1498717D03*
%TD*%
D23*
%TO.C,R48*%
X-8000000Y197500D03*
X-8000000Y-997500D03*
%TD*%
D19*
%TO.C,R36*%
X6284367Y-134367D03*
X5439375Y710625D03*
%TD*%
D58*
%TO.C,Q4*%
X5012500Y5637500D03*
X3112500Y5637500D03*
X4062500Y3762500D03*
%TD*%
D38*
%TO.C,R31*%
X-1852500Y-18437500D03*
X-3047500Y-18437500D03*
%TD*%
D27*
%TO.C,R8*%
X-6622496Y-3877504D03*
X-5777504Y-4722496D03*
%TD*%
%TO.C,R27*%
X-10722496Y14722496D03*
X-9877504Y13877504D03*
%TD*%
D34*
%TO.C,R15*%
X15200000Y9700000D03*
X15200000Y10895000D03*
%TD*%
D59*
%TO.C,Y1*%
X6793934Y-11583883D03*
X7783883Y-10593934D03*
X7006066Y-9816117D03*
X6016117Y-10806066D03*
%TD*%
D19*
%TO.C,R38*%
X-5800000Y-10500000D03*
X-6644992Y-9655008D03*
%TD*%
D43*
%TO.C,R26*%
X-10655008Y16344992D03*
X-11500000Y15500000D03*
%TD*%
D60*
%TO.C,D1*%
X-23280925Y451734D03*
X-24780925Y451734D03*
X-24780925Y-448266D03*
X-23280925Y-448266D03*
%TD*%
D61*
%TO.C,U2*%
X-16164717Y10023223D03*
X-15811163Y9669670D03*
X-15457610Y9316116D03*
X-13336289Y11437437D03*
X-13689843Y11790990D03*
X-14043396Y12144544D03*
D62*
X-14750503Y10730330D03*
%TD*%
D43*
%TO.C,R44*%
X-5777504Y-15677504D03*
X-6622496Y-16522496D03*
%TD*%
D63*
%TO.C,C12*%
X9332500Y-5333185D03*
X10467500Y-5333185D03*
%TD*%
D64*
%TO.C,C16*%
X10775000Y5900000D03*
X9225000Y5900000D03*
%TD*%
D28*
%TO.C,R20*%
X-12832500Y1149999D03*
X-11637500Y1149999D03*
%TD*%
D52*
%TO.C,C7*%
X4098717Y-1501283D03*
X4901283Y-698717D03*
%TD*%
D65*
%TO.C,Y2*%
X-4683883Y-1683883D03*
X-2916117Y83883D03*
%TD*%
D66*
%TO.C,C2*%
X8073726Y-9173726D03*
X8526274Y-9626274D03*
%TD*%
D19*
%TO.C,R43*%
X-11577504Y-12422496D03*
X-12422496Y-11577504D03*
%TD*%
D22*
%TO.C,C21*%
X-7975000Y1500000D03*
X-6425000Y1500000D03*
%TD*%
D67*
%TO.C,J1*%
X-14495000Y-2890000D03*
X-14495000Y2890000D03*
D68*
X-18175000Y-4320000D03*
D69*
X-13995000Y-4320000D03*
D68*
X-18175000Y4320000D03*
D69*
X-13995000Y4320000D03*
%TD*%
D70*
%TO.C,BT1*%
X-10700000Y-4000000D03*
D71*
X-10700000Y3200000D03*
%TD*%
%LPD*%
M02*
