%TF.GenerationSoftware,KiCad,Pcbnew,9.0.1-9.0.1-0~ubuntu22.04.1*%
%TF.CreationDate,2025-04-16T22:26:59+05:30*%
%TF.ProjectId,BEEWATCH MK2,42454557-4154-4434-9820-4d4b322e6b69,rev?*%
%TF.SameCoordinates,Original*%
%TF.FileFunction,Paste,Top*%
%TF.FilePolarity,Positive*%
%FSLAX46Y46*%
G04 Gerber Fmt 4.6, Leading zero omitted, Abs format (unit mm)*
G04 Created by KiCad (PCBNEW 9.0.1-9.0.1-0~ubuntu22.04.1) date 2025-04-16 22:26:59*
%MOMM*%
%LPD*%
G01*
G04 APERTURE LIST*
G04 Aperture macros list*
%AMRoundRect*
0 Rectangle with rounded corners*
0 $1 Rounding radius*
0 $2 $3 $4 $5 $6 $7 $8 $9 X,Y pos of 4 corners*
0 Add a 4 corners polygon primitive as box body*
4,1,4,$2,$3,$4,$5,$6,$7,$8,$9,$2,$3,0*
0 Add four circle primitives for the rounded corners*
1,1,$1+$1,$2,$3*
1,1,$1+$1,$4,$5*
1,1,$1+$1,$6,$7*
1,1,$1+$1,$8,$9*
0 Add four rect primitives between the rounded corners*
20,1,$1+$1,$2,$3,$4,$5,0*
20,1,$1+$1,$4,$5,$6,$7,0*
20,1,$1+$1,$6,$7,$8,$9,0*
20,1,$1+$1,$8,$9,$2,$3,0*%
%AMRotRect*
0 Rectangle, with rotation*
0 The origin of the aperture is its center*
0 $1 length*
0 $2 width*
0 $3 Rotation angle, in degrees counterclockwise*
0 Add horizontal line*
21,1,$1,$2,0,0,$3*%
G04 Aperture macros list end*
%ADD10RoundRect,0.225000X-0.250000X0.225000X-0.250000X-0.225000X0.250000X-0.225000X0.250000X0.225000X0*%
%ADD11RoundRect,0.075000X0.350000X0.075000X-0.350000X0.075000X-0.350000X-0.075000X0.350000X-0.075000X0*%
%ADD12RoundRect,0.075000X-0.075000X0.350000X-0.075000X-0.350000X0.075000X-0.350000X0.075000X0.350000X0*%
%ADD13RoundRect,0.150000X0.150000X-0.512500X0.150000X0.512500X-0.150000X0.512500X-0.150000X-0.512500X0*%
%ADD14RoundRect,0.160000X0.252791X-0.026517X-0.026517X0.252791X-0.252791X0.026517X0.026517X-0.252791X0*%
%ADD15RoundRect,0.125000X0.000000X0.176777X-0.176777X0.000000X0.000000X-0.176777X0.176777X0.000000X0*%
%ADD16RoundRect,0.079500X0.127279X0.014849X0.014849X0.127279X-0.127279X-0.014849X-0.014849X-0.127279X0*%
%ADD17RoundRect,0.225000X-0.225000X-0.250000X0.225000X-0.250000X0.225000X0.250000X-0.225000X0.250000X0*%
%ADD18RoundRect,0.160000X-0.160000X0.197500X-0.160000X-0.197500X0.160000X-0.197500X0.160000X0.197500X0*%
%ADD19RoundRect,0.150000X0.150000X-0.587500X0.150000X0.587500X-0.150000X0.587500X-0.150000X-0.587500X0*%
%ADD20RoundRect,0.150000X0.309359X0.521491X-0.521491X-0.309359X-0.309359X-0.521491X0.521491X0.309359X0*%
%ADD21RoundRect,0.150000X0.512500X0.150000X-0.512500X0.150000X-0.512500X-0.150000X0.512500X-0.150000X0*%
%ADD22RoundRect,0.160000X-0.252791X0.026517X0.026517X-0.252791X0.252791X-0.026517X-0.026517X0.252791X0*%
%ADD23RoundRect,0.160000X-0.197500X-0.160000X0.197500X-0.160000X0.197500X0.160000X-0.197500X0.160000X0*%
%ADD24RoundRect,0.147500X0.226274X0.017678X0.017678X0.226274X-0.226274X-0.017678X-0.017678X-0.226274X0*%
%ADD25RoundRect,0.155000X0.259862X-0.040659X-0.040659X0.259862X-0.259862X0.040659X0.040659X-0.259862X0*%
%ADD26RoundRect,0.150000X-0.150000X0.512500X-0.150000X-0.512500X0.150000X-0.512500X0.150000X0.512500X0*%
%ADD27RoundRect,0.225000X0.250000X-0.225000X0.250000X0.225000X-0.250000X0.225000X-0.250000X-0.225000X0*%
%ADD28RoundRect,0.147500X-0.147500X-0.172500X0.147500X-0.172500X0.147500X0.172500X-0.147500X0.172500X0*%
%ADD29RoundRect,0.160000X0.160000X-0.197500X0.160000X0.197500X-0.160000X0.197500X-0.160000X-0.197500X0*%
%ADD30RoundRect,0.225000X0.335876X0.017678X0.017678X0.335876X-0.335876X-0.017678X-0.017678X-0.335876X0*%
%ADD31RoundRect,0.155000X-0.259862X0.040659X0.040659X-0.259862X0.259862X-0.040659X-0.040659X0.259862X0*%
%ADD32RoundRect,0.225000X-0.335876X-0.017678X-0.017678X-0.335876X0.335876X0.017678X0.017678X0.335876X0*%
%ADD33RoundRect,0.160000X0.197500X0.160000X-0.197500X0.160000X-0.197500X-0.160000X0.197500X-0.160000X0*%
%ADD34O,1.200000X0.800000*%
%ADD35O,0.800000X1.200000*%
%ADD36RoundRect,0.150000X-0.512500X-0.150000X0.512500X-0.150000X0.512500X0.150000X-0.512500X0.150000X0*%
%ADD37RoundRect,0.160000X0.026517X0.252791X-0.252791X-0.026517X-0.026517X-0.252791X0.252791X0.026517X0*%
%ADD38RoundRect,0.155000X0.212500X0.155000X-0.212500X0.155000X-0.212500X-0.155000X0.212500X-0.155000X0*%
%ADD39RoundRect,0.160000X-0.026517X-0.252791X0.252791X0.026517X0.026517X0.252791X-0.252791X-0.026517X0*%
%ADD40RoundRect,0.249999X0.459619X-1.096017X1.096017X-0.459619X-0.459619X1.096017X-1.096017X0.459619X0*%
%ADD41RoundRect,0.225000X-0.017678X0.335876X-0.335876X0.017678X0.017678X-0.335876X0.335876X-0.017678X0*%
%ADD42RoundRect,0.125000X0.125000X-0.125000X0.125000X0.125000X-0.125000X0.125000X-0.125000X-0.125000X0*%
%ADD43RoundRect,0.155000X0.040659X0.259862X-0.259862X-0.040659X-0.040659X-0.259862X0.259862X0.040659X0*%
%ADD44RoundRect,0.155000X-0.155000X0.212500X-0.155000X-0.212500X0.155000X-0.212500X0.155000X0.212500X0*%
%ADD45RoundRect,0.155000X-0.040659X-0.259862X0.259862X0.040659X0.040659X0.259862X-0.259862X-0.040659X0*%
%ADD46R,0.350000X2.500000*%
%ADD47RoundRect,0.250000X0.000000X0.403051X-0.403051X0.000000X0.000000X-0.403051X0.403051X0.000000X0*%
%ADD48RoundRect,0.050000X0.212132X0.282843X-0.282843X-0.212132X-0.212132X-0.282843X0.282843X0.212132X0*%
%ADD49RoundRect,0.050000X-0.212132X0.282843X-0.282843X0.212132X0.212132X-0.282843X0.282843X-0.212132X0*%
%ADD50RoundRect,0.300000X-0.700000X0.300000X-0.700000X-0.300000X0.700000X-0.300000X0.700000X0.300000X0*%
%ADD51RoundRect,0.150000X-0.150000X0.587500X-0.150000X-0.587500X0.150000X-0.587500X0.150000X0.587500X0*%
%ADD52RotRect,0.900000X0.800000X45.000000*%
%ADD53RoundRect,0.150000X-0.150000X-0.200000X0.150000X-0.200000X0.150000X0.200000X-0.150000X0.200000X0*%
%ADD54RotRect,0.300000X0.800000X135.000000*%
%ADD55RotRect,1.450000X1.750000X135.000000*%
%ADD56RoundRect,0.155000X-0.212500X-0.155000X0.212500X-0.155000X0.212500X0.155000X-0.212500X0.155000X0*%
%ADD57RoundRect,0.225000X0.225000X0.250000X-0.225000X0.250000X-0.225000X-0.250000X0.225000X-0.250000X0*%
%ADD58RotRect,1.000000X1.800000X45.000000*%
%ADD59RoundRect,0.079500X-0.127279X-0.014849X-0.014849X-0.127279X0.127279X0.014849X0.014849X0.127279X0*%
G04 APERTURE END LIST*
D10*
%TO.C,C14*%
X8100000Y10175000D03*
X8100000Y8625000D03*
%TD*%
D11*
%TO.C,U3*%
X13600000Y8100000D03*
X13600000Y8600000D03*
X13600000Y9100000D03*
X13600000Y9600000D03*
X13600000Y10100000D03*
X13600000Y10600000D03*
D12*
X12900000Y11300000D03*
X12400000Y11300000D03*
X11900000Y11300000D03*
X11400000Y11300000D03*
X10900000Y11300000D03*
X10400000Y11300000D03*
D11*
X9700000Y10600000D03*
X9700000Y10100000D03*
X9700000Y9600000D03*
X9700000Y9100000D03*
X9700000Y8600000D03*
X9700000Y8100000D03*
D12*
X10400000Y7400000D03*
X10900000Y7400000D03*
X11400000Y7400000D03*
X11900000Y7400000D03*
X12400000Y7400000D03*
X12900000Y7400000D03*
%TD*%
D13*
%TO.C,Q8*%
X-1887500Y3762500D03*
X12500Y3762500D03*
X-937500Y6037500D03*
%TD*%
D14*
%TO.C,R25*%
X-16077504Y7277504D03*
X-16922496Y8122496D03*
%TD*%
D15*
%TO.C,D3*%
X2977817Y1677817D03*
X1422183Y122183D03*
%TD*%
D16*
%TO.C,C4*%
X-6156048Y-743952D03*
X-6643952Y-256048D03*
%TD*%
D17*
%TO.C,C24*%
X-10275000Y-9600000D03*
X-8725000Y-9600000D03*
%TD*%
D18*
%TO.C,R12*%
X12068629Y5897500D03*
X12068629Y4702500D03*
%TD*%
D19*
%TO.C,Q6*%
X950000Y-16837500D03*
X2850000Y-16837500D03*
X1900000Y-14962500D03*
%TD*%
D20*
%TO.C,Q7*%
X9534664Y1791161D03*
X8191161Y3134664D03*
X7537087Y1137087D03*
%TD*%
D21*
%TO.C,U5*%
X-7829917Y-7850000D03*
X-7829917Y-6900000D03*
X-7829917Y-5950000D03*
X-10104917Y-5950000D03*
X-10104917Y-7850000D03*
%TD*%
D22*
%TO.C,R33*%
X9639375Y4110625D03*
X10484367Y3265633D03*
%TD*%
D23*
%TO.C,R41*%
X-11995000Y5200000D03*
X-10800000Y5200000D03*
%TD*%
D24*
%TO.C,L1*%
X4942947Y-3942947D03*
X4257053Y-3257053D03*
%TD*%
D18*
%TO.C,R14*%
X15200000Y8597500D03*
X15200000Y7402500D03*
%TD*%
D17*
%TO.C,C31*%
X-15875000Y-5800000D03*
X-14325000Y-5800000D03*
%TD*%
D25*
%TO.C,C10*%
X-1098717Y298717D03*
X-1901283Y1101283D03*
%TD*%
D16*
%TO.C,C3*%
X-3856048Y1556048D03*
X-4343952Y2043952D03*
%TD*%
D26*
%TO.C,Q3*%
X-7450000Y5575000D03*
X-9350000Y5575000D03*
X-8400000Y3300000D03*
%TD*%
D27*
%TO.C,C26*%
X-7600000Y10025000D03*
X-7600000Y11575000D03*
%TD*%
D22*
%TO.C,R7*%
X-5922496Y-3077504D03*
X-5077504Y-3922496D03*
%TD*%
D28*
%TO.C,L2*%
X13115000Y-5333185D03*
X14085000Y-5333185D03*
%TD*%
D29*
%TO.C,R50*%
X6562500Y4902500D03*
X6562500Y6097500D03*
%TD*%
D30*
%TO.C,C28*%
X-11151992Y13151992D03*
X-12248008Y14248008D03*
%TD*%
D31*
%TO.C,C6*%
X6697434Y-6597434D03*
X7500000Y-7400000D03*
%TD*%
D14*
%TO.C,R52*%
X10590452Y-13050000D03*
X9745460Y-12205008D03*
%TD*%
D32*
%TO.C,C27*%
X-8848008Y15048008D03*
X-7751992Y13951992D03*
%TD*%
D18*
%TO.C,R21*%
X-18937500Y44999D03*
X-18937500Y-1150001D03*
%TD*%
%TO.C,R11*%
X13200000Y5900000D03*
X13200000Y4705000D03*
%TD*%
D19*
%TO.C,Q5*%
X-3000000Y-16775000D03*
X-1100000Y-16775000D03*
X-2050000Y-14900000D03*
%TD*%
D33*
%TO.C,R32*%
X2197500Y-18462498D03*
X1002500Y-18462498D03*
%TD*%
D20*
%TO.C,Q9*%
X-8465336Y-14308839D03*
X-9808839Y-12965336D03*
X-10462913Y-14962913D03*
%TD*%
D14*
%TO.C,R39*%
X-4800000Y-9500000D03*
X-5644992Y-8655008D03*
%TD*%
D29*
%TO.C,R6*%
X-23730925Y2201734D03*
X-23730925Y3396734D03*
%TD*%
D32*
%TO.C,C25*%
X-18000000Y7200000D03*
X-16903984Y6103984D03*
%TD*%
D26*
%TO.C,U8*%
X-14150000Y-7662500D03*
X-16050000Y-7662500D03*
X-15100000Y-9937500D03*
%TD*%
D34*
%TO.C,U7*%
X-5500000Y15650000D03*
X-5500000Y14650000D03*
X-5500000Y13650000D03*
X-5500000Y12650000D03*
X-5500000Y11650000D03*
X-5500000Y10650000D03*
X-5500000Y9650000D03*
D35*
X-3400000Y8550000D03*
X-2400000Y8550000D03*
X-1400000Y8550000D03*
X-400000Y8550000D03*
X600000Y8550000D03*
X1600000Y8550000D03*
X2600000Y8550000D03*
X3600000Y8550000D03*
D34*
X5700000Y9650000D03*
X5700000Y10650000D03*
X5700000Y11650000D03*
X5700000Y12650000D03*
X5700000Y13650000D03*
X5700000Y14650000D03*
X5700000Y15650000D03*
X-5500000Y18650000D03*
X-5500000Y17650000D03*
X5700000Y17650000D03*
X5700000Y18650000D03*
%TD*%
D14*
%TO.C,R46*%
X-5868665Y-13957160D03*
X-6713657Y-13112168D03*
%TD*%
D29*
%TO.C,R24*%
X1562500Y3302500D03*
X1562500Y4497500D03*
%TD*%
D36*
%TO.C,U4*%
X-16875000Y1099999D03*
X-16875000Y149999D03*
X-16875000Y-800001D03*
X-14600000Y-800001D03*
X-14600000Y1099999D03*
%TD*%
D37*
%TO.C,R4*%
X-4777504Y1022496D03*
X-5622496Y177504D03*
%TD*%
D38*
%TO.C,C23*%
X-7932500Y-3600000D03*
X-9067500Y-3600000D03*
%TD*%
D22*
%TO.C,R51*%
X8945460Y-13005008D03*
X9790452Y-13850000D03*
%TD*%
D14*
%TO.C,R16*%
X15022496Y12077504D03*
X14177504Y12922496D03*
%TD*%
D39*
%TO.C,R23*%
X5077504Y-9822496D03*
X5922496Y-8977504D03*
%TD*%
D16*
%TO.C,C1*%
X5617678Y-12217678D03*
X5129774Y-11729774D03*
%TD*%
D14*
%TO.C,R47*%
X-7868665Y-11957160D03*
X-8713657Y-11112168D03*
%TD*%
D22*
%TO.C,R35*%
X-3844992Y-10455008D03*
X-3000000Y-11300000D03*
%TD*%
D40*
%TO.C,L3*%
X-13242462Y7457538D03*
X-11757538Y8942462D03*
%TD*%
D22*
%TO.C,R34*%
X-4867488Y-11532512D03*
X-4022496Y-12377504D03*
%TD*%
D38*
%TO.C,C22*%
X-7932500Y-2300000D03*
X-9067500Y-2300000D03*
%TD*%
D18*
%TO.C,R42*%
X10859188Y14302273D03*
X10859188Y13107273D03*
%TD*%
D41*
%TO.C,C29*%
X-8803984Y12896016D03*
X-9900000Y11800000D03*
%TD*%
D27*
%TO.C,C15*%
X9374264Y12925000D03*
X9374264Y14475000D03*
%TD*%
D29*
%TO.C,R49*%
X-7300000Y7602500D03*
X-7300000Y8797500D03*
%TD*%
D42*
%TO.C,D2*%
X-3837500Y3300000D03*
X-3837500Y5500000D03*
%TD*%
D43*
%TO.C,C11*%
X2491735Y-10948717D03*
X1689169Y-11751283D03*
%TD*%
D17*
%TO.C,C19*%
X-12610000Y-850001D03*
X-11060000Y-850001D03*
%TD*%
D27*
%TO.C,C30*%
X-12500000Y-9675000D03*
X-12500000Y-8125000D03*
%TD*%
D29*
%TO.C,R22*%
X-18937500Y1152499D03*
X-18937500Y2347499D03*
%TD*%
D44*
%TO.C,C13*%
X12021320Y-4200000D03*
X12021320Y-5335000D03*
%TD*%
D18*
%TO.C,R28*%
X-8600000Y8795000D03*
X-8600000Y7600000D03*
%TD*%
D45*
%TO.C,C9*%
X5698717Y-3101283D03*
X6501283Y-2298717D03*
%TD*%
D27*
%TO.C,C17*%
X12600000Y13025000D03*
X12600000Y14575000D03*
%TD*%
D18*
%TO.C,R13*%
X7889339Y14302273D03*
X7889339Y13107273D03*
%TD*%
D10*
%TO.C,C20*%
X-5696078Y5216422D03*
X-5696078Y3666422D03*
%TD*%
D46*
%TO.C,DS1*%
X-45828268Y11697115D03*
X-45128268Y11697115D03*
X-44428268Y11697115D03*
X-43728268Y11697115D03*
X-43028268Y11697115D03*
X-42328268Y11697115D03*
X-41628268Y11697115D03*
X-40928268Y11697115D03*
X-40228268Y11697115D03*
X-39528268Y11697115D03*
X-38828268Y11697115D03*
X-38128268Y11697115D03*
%TD*%
D37*
%TO.C,R37*%
X1200000Y2100000D03*
X355008Y1255008D03*
%TD*%
D47*
%TO.C,U1*%
X1871356Y-6250000D03*
X930904Y-5309548D03*
X-9548Y-4369096D03*
X930904Y-7190452D03*
X-9548Y-6250000D03*
X-950000Y-5309548D03*
X-9548Y-8130904D03*
X-950000Y-7190452D03*
X-1890452Y-6250000D03*
D48*
X4268448Y-5648959D03*
X3985605Y-5366117D03*
X3702763Y-5083274D03*
X3419920Y-4800431D03*
X3137077Y-4517588D03*
X2854234Y-4234746D03*
X2571392Y-3951903D03*
X2288549Y-3669060D03*
X2005706Y-3386218D03*
X1722864Y-3103375D03*
X1440021Y-2820532D03*
X1157178Y-2537689D03*
X874335Y-2254847D03*
X591493Y-1972004D03*
D49*
X-610589Y-1972004D03*
X-893431Y-2254847D03*
X-1176274Y-2537689D03*
X-1459117Y-2820532D03*
X-1741960Y-3103375D03*
X-2024802Y-3386218D03*
X-2307645Y-3669060D03*
X-2590488Y-3951903D03*
X-2873330Y-4234746D03*
X-3156173Y-4517588D03*
X-3439016Y-4800431D03*
X-3721859Y-5083274D03*
X-4004701Y-5366117D03*
X-4287544Y-5648959D03*
D48*
X-4287544Y-6851041D03*
X-4004701Y-7133883D03*
X-3721859Y-7416726D03*
X-3439016Y-7699569D03*
X-3156173Y-7982412D03*
X-2873330Y-8265254D03*
X-2590488Y-8548097D03*
X-2307645Y-8830940D03*
X-2024802Y-9113782D03*
X-1741960Y-9396625D03*
X-1459117Y-9679468D03*
X-1176274Y-9962311D03*
X-893431Y-10245153D03*
X-610589Y-10527996D03*
D49*
X591493Y-10527996D03*
X874335Y-10245153D03*
X1157178Y-9962311D03*
X1440021Y-9679468D03*
X1722864Y-9396625D03*
X2005706Y-9113782D03*
X2288549Y-8830940D03*
X2571392Y-8548097D03*
X2854234Y-8265254D03*
X3137077Y-7982412D03*
X3419920Y-7699569D03*
X3702763Y-7416726D03*
X3985605Y-7133883D03*
X4268448Y-6851041D03*
%TD*%
D31*
%TO.C,C5*%
X5891368Y-7381317D03*
X6693934Y-8183883D03*
%TD*%
D50*
%TO.C,AE1*%
X17650000Y-2950000D03*
X17650000Y2550000D03*
%TD*%
D39*
%TO.C,R40*%
X6500000Y-3900000D03*
X7344992Y-3055008D03*
%TD*%
D37*
%TO.C,R45*%
X-6677504Y-14877504D03*
X-7522496Y-15722496D03*
%TD*%
D45*
%TO.C,C8*%
X4898717Y-2301283D03*
X5701283Y-1498717D03*
%TD*%
D18*
%TO.C,R48*%
X-8000000Y197500D03*
X-8000000Y-997500D03*
%TD*%
D14*
%TO.C,R36*%
X6284367Y-134367D03*
X5439375Y710625D03*
%TD*%
D51*
%TO.C,Q4*%
X5012500Y5637500D03*
X3112500Y5637500D03*
X4062500Y3762500D03*
%TD*%
D33*
%TO.C,R31*%
X-1852500Y-18437500D03*
X-3047500Y-18437500D03*
%TD*%
D22*
%TO.C,R8*%
X-6622496Y-3877504D03*
X-5777504Y-4722496D03*
%TD*%
%TO.C,R27*%
X-10722496Y14722496D03*
X-9877504Y13877504D03*
%TD*%
D29*
%TO.C,R15*%
X15200000Y9700000D03*
X15200000Y10895000D03*
%TD*%
D52*
%TO.C,Y1*%
X6793934Y-11583883D03*
X7783883Y-10593934D03*
X7006066Y-9816117D03*
X6016117Y-10806066D03*
%TD*%
D14*
%TO.C,R38*%
X-5800000Y-10500000D03*
X-6644992Y-9655008D03*
%TD*%
D37*
%TO.C,R26*%
X-10655008Y16344992D03*
X-11500000Y15500000D03*
%TD*%
D53*
%TO.C,D1*%
X-23280925Y451734D03*
X-24780925Y451734D03*
X-24780925Y-448266D03*
X-23280925Y-448266D03*
%TD*%
D54*
%TO.C,U2*%
X-16164717Y10023223D03*
X-15811163Y9669670D03*
X-15457610Y9316116D03*
X-13336289Y11437437D03*
X-13689843Y11790990D03*
X-14043396Y12144544D03*
D55*
X-14750503Y10730330D03*
%TD*%
D37*
%TO.C,R44*%
X-5777504Y-15677504D03*
X-6622496Y-16522496D03*
%TD*%
D56*
%TO.C,C12*%
X9332500Y-5333185D03*
X10467500Y-5333185D03*
%TD*%
D57*
%TO.C,C16*%
X10775000Y5900000D03*
X9225000Y5900000D03*
%TD*%
D23*
%TO.C,R20*%
X-12832500Y1149999D03*
X-11637500Y1149999D03*
%TD*%
D45*
%TO.C,C7*%
X4098717Y-1501283D03*
X4901283Y-698717D03*
%TD*%
D58*
%TO.C,Y2*%
X-4683883Y-1683883D03*
X-2916117Y83883D03*
%TD*%
D59*
%TO.C,C2*%
X8056048Y-9156048D03*
X8543952Y-9643952D03*
%TD*%
D14*
%TO.C,R43*%
X-11577504Y-12422496D03*
X-12422496Y-11577504D03*
%TD*%
D17*
%TO.C,C21*%
X-7975000Y1500000D03*
X-6425000Y1500000D03*
%TD*%
M02*
