M48
; DRILL file {KiCad 9.0.1-9.0.1-0~ubuntu22.04.1} date 2025-04-16T22:26:59+0530
; FORMAT={-:-/ absolute / inch / decimal}
; #@! TF.CreationDate,2025-04-16T22:26:59+05:30
; #@! TF.GenerationSoftware,Kicad,Pcbnew,9.0.1-9.0.1-0~ubuntu22.04.1
; #@! TF.FileFunction,Plated,1,4,PTH
FMAT,2
INCH
; #@! TA.AperFunction,Plated,PTH,ViaDrill
T1C0.0079
; #@! TA.AperFunction,Plated,PTH,ComponentDrill
T2C0.0236
; #@! TA.AperFunction,Plated,PTH,ComponentDrill
T3C0.0394
%
G90
G05
T1
X-1.8595Y-0.6968
X-1.8346Y0.5157
X-1.8043Y0.3681
X-1.7926Y-0.6417
X-1.7453Y-0.6417
X-1.7224Y0.5354
X-1.7224Y0.3681
X-1.6949Y0.3681
X-1.6941Y-0.6417
X-1.6929Y0.5354
X-1.6673Y0.5354
X-1.6673Y0.3681
X-1.6469Y-0.6456
X-1.6389Y0.3031
X-1.6113Y0.2519
X-1.5957Y0.0394
X-1.5918Y-0.6417
X-1.5838Y0.2086
X-1.5562Y0.1693
X-1.5445Y0.0394
X-1.5248Y0.3224
X-1.502Y0.3681
X-1.4646Y0.5157
X-0.9756Y-0.0865
X-0.9422Y0.1772
X-0.9268Y0.0493
X-0.7126Y0.0906
X-0.7126Y0.0039
X-0.6662Y0.3648
X-0.6535Y0.2047
X-0.6439Y0.262
X-0.626Y-0.1575
X-0.6102Y0.3031
X-0.5984Y0.0866
X-0.5945Y-0.2913
X-0.5709Y0.0
X-0.5512Y0.378
X-0.5315Y0.3976
X-0.5315Y0.3622
X-0.5276Y-0.2283
X-0.5197Y0.4803
X-0.5118Y0.4173
X-0.4957Y0.4644
X-0.4789Y-0.2891
X-0.4724Y0.2402
X-0.4692Y0.0846
X-0.4646Y-0.0748
X-0.4488Y-0.3346
X-0.4409Y-0.378
X-0.4331Y0.0236
X-0.4232Y-0.4652
X-0.4061Y-0.4815
X-0.4055Y-0.2835
X-0.405Y-0.0886
X-0.4045Y-0.3425
X-0.4016Y0.2362
X-0.3898Y0.6299
X-0.3898Y-0.4173
X-0.3898Y-0.4646
X-0.3788Y0.3316
X-0.378Y-0.4449
X-0.3626Y-0.1909
X-0.3563Y-0.1181
X-0.3543Y-0.2717
X-0.328Y-0.4039
X-0.3189Y-0.6535
X-0.3071Y-0.685
X-0.2911Y0.4897
X-0.2894Y0.582
X-0.2854Y-0.3431
X-0.2757Y-0.062
X-0.2756Y-0.5591
X-0.2752Y0.0246
X-0.2677Y0.126
X-0.2602Y0.4433
X-0.2602Y0.3642
X-0.2599Y-0.3424
X-0.2598Y0.7244
X-0.2598Y0.6969
X-0.2545Y0.6197
X-0.2526Y-0.4442
X-0.2441Y-0.2283
X-0.244Y-0.062
X-0.2362Y-0.7244
X-0.2327Y0.3532
X-0.2324Y-0.593
X-0.2165Y0.0591
X-0.2049Y-0.4801
X-0.2008Y0.0787
X-0.185Y-0.5
X-0.1731Y0.3582
X-0.1672Y0.2595
X-0.1654Y-0.752
X-0.1614Y-0.7165
X-0.1595Y-0.1437
X-0.1575Y-0.4409
X-0.1575Y-0.6142
X-0.1417Y-0.2402
X-0.1239Y-0.3962
X-0.1143Y0.1368
X-0.112Y0.0895
X-0.099Y0.0675
X-0.0945Y0.3858
X-0.0945Y-0.4173
X-0.0795Y-0.5
X-0.0786Y-0.2601
X-0.0773Y-0.1893
X-0.0707Y-0.631
X-0.0642Y-0.4795
X-0.063Y0.1063
X-0.0614Y-0.045
X-0.0505Y-0.5038
X-0.0433Y-0.2992
X-0.0397Y-0.0245
X-0.0286Y-0.1371
X-0.0252Y-0.5016
X-0.0181Y-0.0477
X-0.0151Y-0.0175
X-0.0004Y-0.2461
X-0.0003Y-0.066
X0.0001Y-0.3359
X0.0072Y-0.0394
X0.0116Y0.017
X0.0185Y-0.4638
X0.0236Y-0.7756
X0.0305Y-0.2991
X0.05Y-0.5
X0.0542Y-0.4316
X0.0591Y0.3701
X0.0702Y0.0278
X0.0748Y-0.2598
X0.0827Y0.0709
X0.0903Y-0.185
X0.0933Y-0.476
X0.1051Y-0.2074
X0.1063Y-0.0827
X0.1109Y0.2618
X0.1299Y-0.0669
X0.1321Y0.3745
X0.1397Y-0.0382
X0.1433Y-0.111
X0.1437Y-0.1482
X0.1438Y-0.2455
X0.146Y-0.0876
X0.1487Y0.0453
X0.1532Y-0.7185
X0.1535Y-0.748
X0.1558Y-0.5521
X0.1571Y0.4311
X0.1629Y-0.162
X0.1654Y-0.685
X0.1689Y-0.002
X0.1695Y-0.4044
X0.1718Y-0.3689
X0.1797Y-0.4309
X0.1805Y-0.2454
X0.1811Y0.4921
X0.1811Y0.4606
X0.1811Y-0.5945
X0.1831Y0.4193
X0.1886Y-0.4823
X0.1895Y0.1508
X0.1965Y0.0061
X0.2126Y0.0709
X0.2148Y-0.329
X0.2162Y-0.5098
X0.2179Y-0.2454
X0.218Y-0.1842
X0.2244Y0.3228
X0.2273Y-0.0249
X0.2339Y-0.1667
X0.2358Y-0.3878
X0.2359Y-0.0562
X0.2472Y-0.2433
X0.252Y0.0315
X0.2544Y-0.0366
X0.2638Y0.563
X0.2679Y0.3226
X0.2717Y0.7244
X0.2752Y-0.5138
X0.2795Y0.6181
X0.2814Y0.6964
X0.2814Y-0.003
X0.2856Y0.1296
X0.2874Y0.3819
X0.2912Y0.3332
X0.2926Y-0.1745
X0.2926Y-0.2454
X0.2988Y-0.3386
X0.3024Y-0.4898
X0.311Y0.5906
X0.3189Y-0.315
X0.3248Y0.2323
X0.33Y-0.1745
X0.33Y-0.2454
X0.3303Y-0.0426
X0.3332Y0.5812
X0.3497Y-0.4426
X0.3543Y-0.3622
X0.3583Y-0.5709
X0.3674Y-0.1745
X0.3674Y-0.2454
X0.3701Y0.6063
X0.3701Y0.1142
X0.3736Y-0.3819
X0.3736Y-0.42
X0.3858Y-0.2835
X0.3858Y-0.3307
X0.4016Y0.0
X0.4121Y-0.1745
X0.4121Y-0.2454
X0.4291Y0.5945
X0.4331Y0.171
X0.4402Y-0.4921
X0.4461Y0.1992
X0.4567Y-0.2835
X0.4567Y-0.3307
X0.4567Y-0.378
X0.4567Y-0.4252
X0.4567Y-0.4699
X0.4646Y0.5906
X0.4732Y-0.2454
X0.4764Y0.0604
X0.4764Y0.0132
X0.4764Y-0.0341
X0.4764Y-0.0787
X0.4764Y-0.126
X0.4785Y0.1056
X0.5276Y-0.2835
X0.5276Y-0.3307
X0.5276Y-0.378
X0.5276Y-0.4252
X0.5276Y-0.4699
X0.5315Y0.5315
X0.5512Y0.2008
X0.5984Y0.2126
X0.5984Y0.1679
X0.5984Y-0.2835
X0.5984Y-0.3307
X0.5984Y-0.378
X0.5984Y-0.4252
X0.5984Y-0.4699
X0.6299Y0.4291
X0.6299Y0.3386
X0.6693Y0.3504
X0.6693Y0.3031
X0.6693Y0.2559
X0.6693Y0.2112
X0.6693Y0.1679
X0.6693Y-0.2835
X0.6693Y-0.3307
X0.6693Y-0.378
X0.7402Y0.2112
X0.7402Y0.1679
T3
X-0.4213Y0.126
X-0.4213Y-0.1575
T2
G00X-0.7274Y0.1701
M15
G01X-0.7037Y0.1701
M16
G05
G00X-0.7274Y-0.1701
M15
G01X-0.7037Y-0.1701
M16
G05
G00X-0.5726Y0.1701
M15
G01X-0.5293Y0.1701
M16
G05
G00X-0.5726Y-0.1701
M15
G01X-0.5293Y-0.1701
M16
G05
M30
