%TF.GenerationSoftware,KiCad,Pcbnew,9.0.1-9.0.1-0~ubuntu22.04.1*%
%TF.CreationDate,2025-04-16T22:26:59+05:30*%
%TF.ProjectId,BEEWATCH MK2,42454557-4154-4434-9820-4d4b322e6b69,rev?*%
%TF.SameCoordinates,Original*%
%TF.FileFunction,Profile,NP*%
%FSLAX46Y46*%
G04 Gerber Fmt 4.6, Leading zero omitted, Abs format (unit mm)*
G04 Created by KiCad (PCBNEW 9.0.1-9.0.1-0~ubuntu22.04.1) date 2025-04-16 22:26:59*
%MOMM*%
%LPD*%
G01*
G04 APERTURE LIST*
%TA.AperFunction,Profile*%
%ADD10C,0.150000*%
%TD*%
%TA.AperFunction,Profile*%
%ADD11C,0.100000*%
%TD*%
G04 APERTURE END LIST*
D10*
X13300000Y-14000000D02*
G75*
G02*
X11700000Y-14000000I-800000J0D01*
G01*
X11700000Y-14000000D02*
G75*
G02*
X13300000Y-14000000I800000J0D01*
G01*
X-29800000Y-14000000D02*
G75*
G02*
X-31400000Y-14000000I-800000J0D01*
G01*
X-31400000Y-14000000D02*
G75*
G02*
X-29800000Y-14000000I800000J0D01*
G01*
D11*
X-4509548Y16000000D02*
X4790452Y16000000D01*
X-22536791Y-2330000D02*
G75*
G02*
X-22531868Y2330000I-19970909J2351100D01*
G01*
X4790452Y16000000D02*
X4790452Y19550000D01*
X9406226Y16800000D02*
G75*
G02*
X7793774Y16800000I-806226J0D01*
G01*
X7793774Y16800000D02*
G75*
G02*
X9406226Y16800000I806226J0D01*
G01*
X-4509548Y19619223D02*
X-4509548Y16000000D01*
D10*
X-50800000Y16700000D02*
G75*
G02*
X-52400000Y16700000I-800000J0D01*
G01*
X-52400000Y16700000D02*
G75*
G02*
X-50800000Y16700000I800000J0D01*
G01*
D11*
X-7693774Y16700000D02*
G75*
G02*
X-9306226Y16700000I-806226J0D01*
G01*
X-9306226Y16700000D02*
G75*
G02*
X-7693774Y16700000I806226J0D01*
G01*
D10*
X-33700000Y16800000D02*
G75*
G02*
X-35300000Y16800000I-800000J0D01*
G01*
X-35300000Y16800000D02*
G75*
G02*
X-33700000Y16800000I800000J0D01*
G01*
D11*
X4790452Y19550000D02*
G75*
G02*
X-19993034Y-2330136I-4790452J-19550000D01*
G01*
X-19991866Y2330000D02*
G75*
G02*
X-4508736Y19615680I19991866J-2330000D01*
G01*
%TO.C,mouse-bite-2.54mm-slot*%
X-22531866Y-2330000D02*
G75*
G02*
X-19991866Y-2330000I1270000J0D01*
G01*
X-19991866Y2330000D02*
G75*
G02*
X-22531866Y2330000I-1270000J0D01*
G01*
%TO.C,DS1*%
X-46768366Y14997115D02*
G75*
G02*
X-47788170Y14997115I-509902J0D01*
G01*
X-47788170Y14997115D02*
G75*
G02*
X-46768366Y14997115I509902J0D01*
G01*
X-36778268Y14997115D02*
G75*
G02*
X-37778268Y14997115I-500000J0D01*
G01*
X-37778268Y14997115D02*
G75*
G02*
X-36778268Y14997115I500000J0D01*
G01*
%TO.C,SW1*%
X-12613446Y13060660D02*
G75*
G02*
X-13507874Y13060660I-447214J0D01*
G01*
X-13507874Y13060660D02*
G75*
G02*
X-12613446Y13060660I447214J0D01*
G01*
X-10492126Y10939340D02*
G75*
G02*
X-11386554Y10939340I-447214J0D01*
G01*
X-11386554Y10939340D02*
G75*
G02*
X-10492126Y10939340I447214J0D01*
G01*
%TO.C,SW2*%
X-12613446Y-13060660D02*
G75*
G02*
X-13507874Y-13060660I-447214J0D01*
G01*
X-13507874Y-13060660D02*
G75*
G02*
X-12613446Y-13060660I447214J0D01*
G01*
X-10492126Y-10939340D02*
G75*
G02*
X-11386554Y-10939340I-447214J0D01*
G01*
X-11386554Y-10939340D02*
G75*
G02*
X-10492126Y-10939340I447214J0D01*
G01*
%TD*%
M02*
