%TF.GenerationSoftware,KiCad,Pcbnew,9.0.1-9.0.1-0~ubuntu22.04.1*%
%TF.CreationDate,2025-04-16T22:26:59+05:30*%
%TF.ProjectId,BEEWATCH MK2,42454557-4154-4434-9820-4d4b322e6b69,rev?*%
%TF.SameCoordinates,Original*%
%TF.FileFunction,Other,Comment*%
%FSLAX46Y46*%
G04 Gerber Fmt 4.6, Leading zero omitted, Abs format (unit mm)*
G04 Created by KiCad (PCBNEW 9.0.1-9.0.1-0~ubuntu22.04.1) date 2025-04-16 22:26:59*
%MOMM*%
%LPD*%
G01*
G04 APERTURE LIST*
%ADD10C,0.150000*%
%ADD11C,0.100000*%
%ADD12C,0.040000*%
G04 APERTURE END LIST*
D10*
X12700000Y3400000D02*
X19700000Y3400000D01*
X19700000Y-6600000D01*
X12700000Y-6600000D01*
X12700000Y3400000D01*
D11*
X-22400103Y-29088D02*
G75*
G02*
X-62661747Y-29088I-20130822J0D01*
G01*
X-62661747Y-29088D02*
G75*
G02*
X-22400103Y-29088I20130822J0D01*
G01*
X4790453Y19552533D02*
G75*
G02*
X-4509550Y19619224I-4790453J-19552533D01*
G01*
D10*
X23504819Y-5647618D02*
X23504819Y-6219046D01*
X23504819Y-5933332D02*
X22504819Y-5933332D01*
X22504819Y-5933332D02*
X22647676Y-6028570D01*
X22647676Y-6028570D02*
X22742914Y-6123808D01*
X22742914Y-6123808D02*
X22790533Y-6219046D01*
X22504819Y-5028570D02*
X22504819Y-4933332D01*
X22504819Y-4933332D02*
X22552438Y-4838094D01*
X22552438Y-4838094D02*
X22600057Y-4790475D01*
X22600057Y-4790475D02*
X22695295Y-4742856D01*
X22695295Y-4742856D02*
X22885771Y-4695237D01*
X22885771Y-4695237D02*
X23123866Y-4695237D01*
X23123866Y-4695237D02*
X23314342Y-4742856D01*
X23314342Y-4742856D02*
X23409580Y-4790475D01*
X23409580Y-4790475D02*
X23457200Y-4838094D01*
X23457200Y-4838094D02*
X23504819Y-4933332D01*
X23504819Y-4933332D02*
X23504819Y-5028570D01*
X23504819Y-5028570D02*
X23457200Y-5123808D01*
X23457200Y-5123808D02*
X23409580Y-5171427D01*
X23409580Y-5171427D02*
X23314342Y-5219046D01*
X23314342Y-5219046D02*
X23123866Y-5266665D01*
X23123866Y-5266665D02*
X22885771Y-5266665D01*
X22885771Y-5266665D02*
X22695295Y-5219046D01*
X22695295Y-5219046D02*
X22600057Y-5171427D01*
X22600057Y-5171427D02*
X22552438Y-5123808D01*
X22552438Y-5123808D02*
X22504819Y-5028570D01*
X23409580Y-4266665D02*
X23457200Y-4219046D01*
X23457200Y-4219046D02*
X23504819Y-4266665D01*
X23504819Y-4266665D02*
X23457200Y-4314284D01*
X23457200Y-4314284D02*
X23409580Y-4266665D01*
X23409580Y-4266665D02*
X23504819Y-4266665D01*
X22504819Y-3599999D02*
X22504819Y-3504761D01*
X22504819Y-3504761D02*
X22552438Y-3409523D01*
X22552438Y-3409523D02*
X22600057Y-3361904D01*
X22600057Y-3361904D02*
X22695295Y-3314285D01*
X22695295Y-3314285D02*
X22885771Y-3266666D01*
X22885771Y-3266666D02*
X23123866Y-3266666D01*
X23123866Y-3266666D02*
X23314342Y-3314285D01*
X23314342Y-3314285D02*
X23409580Y-3361904D01*
X23409580Y-3361904D02*
X23457200Y-3409523D01*
X23457200Y-3409523D02*
X23504819Y-3504761D01*
X23504819Y-3504761D02*
X23504819Y-3599999D01*
X23504819Y-3599999D02*
X23457200Y-3695237D01*
X23457200Y-3695237D02*
X23409580Y-3742856D01*
X23409580Y-3742856D02*
X23314342Y-3790475D01*
X23314342Y-3790475D02*
X23123866Y-3838094D01*
X23123866Y-3838094D02*
X22885771Y-3838094D01*
X22885771Y-3838094D02*
X22695295Y-3790475D01*
X22695295Y-3790475D02*
X22600057Y-3742856D01*
X22600057Y-3742856D02*
X22552438Y-3695237D01*
X22552438Y-3695237D02*
X22504819Y-3599999D01*
X22504819Y-2647618D02*
X22504819Y-2552380D01*
X22504819Y-2552380D02*
X22552438Y-2457142D01*
X22552438Y-2457142D02*
X22600057Y-2409523D01*
X22600057Y-2409523D02*
X22695295Y-2361904D01*
X22695295Y-2361904D02*
X22885771Y-2314285D01*
X22885771Y-2314285D02*
X23123866Y-2314285D01*
X23123866Y-2314285D02*
X23314342Y-2361904D01*
X23314342Y-2361904D02*
X23409580Y-2409523D01*
X23409580Y-2409523D02*
X23457200Y-2457142D01*
X23457200Y-2457142D02*
X23504819Y-2552380D01*
X23504819Y-2552380D02*
X23504819Y-2647618D01*
X23504819Y-2647618D02*
X23457200Y-2742856D01*
X23457200Y-2742856D02*
X23409580Y-2790475D01*
X23409580Y-2790475D02*
X23314342Y-2838094D01*
X23314342Y-2838094D02*
X23123866Y-2885713D01*
X23123866Y-2885713D02*
X22885771Y-2885713D01*
X22885771Y-2885713D02*
X22695295Y-2838094D01*
X22695295Y-2838094D02*
X22600057Y-2790475D01*
X22600057Y-2790475D02*
X22552438Y-2742856D01*
X22552438Y-2742856D02*
X22504819Y-2647618D01*
X22504819Y-1695237D02*
X22504819Y-1599999D01*
X22504819Y-1599999D02*
X22552438Y-1504761D01*
X22552438Y-1504761D02*
X22600057Y-1457142D01*
X22600057Y-1457142D02*
X22695295Y-1409523D01*
X22695295Y-1409523D02*
X22885771Y-1361904D01*
X22885771Y-1361904D02*
X23123866Y-1361904D01*
X23123866Y-1361904D02*
X23314342Y-1409523D01*
X23314342Y-1409523D02*
X23409580Y-1457142D01*
X23409580Y-1457142D02*
X23457200Y-1504761D01*
X23457200Y-1504761D02*
X23504819Y-1599999D01*
X23504819Y-1599999D02*
X23504819Y-1695237D01*
X23504819Y-1695237D02*
X23457200Y-1790475D01*
X23457200Y-1790475D02*
X23409580Y-1838094D01*
X23409580Y-1838094D02*
X23314342Y-1885713D01*
X23314342Y-1885713D02*
X23123866Y-1933332D01*
X23123866Y-1933332D02*
X22885771Y-1933332D01*
X22885771Y-1933332D02*
X22695295Y-1885713D01*
X22695295Y-1885713D02*
X22600057Y-1838094D01*
X22600057Y-1838094D02*
X22552438Y-1790475D01*
X22552438Y-1790475D02*
X22504819Y-1695237D01*
X22504819Y-742856D02*
X22504819Y-647618D01*
X22504819Y-647618D02*
X22552438Y-552380D01*
X22552438Y-552380D02*
X22600057Y-504761D01*
X22600057Y-504761D02*
X22695295Y-457142D01*
X22695295Y-457142D02*
X22885771Y-409523D01*
X22885771Y-409523D02*
X23123866Y-409523D01*
X23123866Y-409523D02*
X23314342Y-457142D01*
X23314342Y-457142D02*
X23409580Y-504761D01*
X23409580Y-504761D02*
X23457200Y-552380D01*
X23457200Y-552380D02*
X23504819Y-647618D01*
X23504819Y-647618D02*
X23504819Y-742856D01*
X23504819Y-742856D02*
X23457200Y-838094D01*
X23457200Y-838094D02*
X23409580Y-885713D01*
X23409580Y-885713D02*
X23314342Y-933332D01*
X23314342Y-933332D02*
X23123866Y-980951D01*
X23123866Y-980951D02*
X22885771Y-980951D01*
X22885771Y-980951D02*
X22695295Y-933332D01*
X22695295Y-933332D02*
X22600057Y-885713D01*
X22600057Y-885713D02*
X22552438Y-838094D01*
X22552438Y-838094D02*
X22504819Y-742856D01*
X23504819Y780954D02*
X22838152Y780954D01*
X22933390Y780954D02*
X22885771Y828573D01*
X22885771Y828573D02*
X22838152Y923811D01*
X22838152Y923811D02*
X22838152Y1066668D01*
X22838152Y1066668D02*
X22885771Y1161906D01*
X22885771Y1161906D02*
X22981009Y1209525D01*
X22981009Y1209525D02*
X23504819Y1209525D01*
X22981009Y1209525D02*
X22885771Y1257144D01*
X22885771Y1257144D02*
X22838152Y1352382D01*
X22838152Y1352382D02*
X22838152Y1495239D01*
X22838152Y1495239D02*
X22885771Y1590478D01*
X22885771Y1590478D02*
X22981009Y1638097D01*
X22981009Y1638097D02*
X23504819Y1638097D01*
X23504819Y2114287D02*
X22838152Y2114287D01*
X22933390Y2114287D02*
X22885771Y2161906D01*
X22885771Y2161906D02*
X22838152Y2257144D01*
X22838152Y2257144D02*
X22838152Y2400001D01*
X22838152Y2400001D02*
X22885771Y2495239D01*
X22885771Y2495239D02*
X22981009Y2542858D01*
X22981009Y2542858D02*
X23504819Y2542858D01*
X22981009Y2542858D02*
X22885771Y2590477D01*
X22885771Y2590477D02*
X22838152Y2685715D01*
X22838152Y2685715D02*
X22838152Y2828572D01*
X22838152Y2828572D02*
X22885771Y2923811D01*
X22885771Y2923811D02*
X22981009Y2971430D01*
X22981009Y2971430D02*
X23504819Y2971430D01*
X20200000Y3400000D02*
X24786420Y3400000D01*
X24786420Y-6600000D02*
X20200000Y-6600000D01*
X24200000Y3400000D02*
X24200000Y-6600000D01*
X24200000Y3400000D02*
X24786421Y2273496D01*
X24200000Y3400000D02*
X23613579Y2273496D01*
X24200000Y-6600000D02*
X23613579Y-5473496D01*
X24200000Y-6600000D02*
X24786421Y-5473496D01*
X26479819Y-9140475D02*
X26479819Y-8521428D01*
X26479819Y-8521428D02*
X26860771Y-8854761D01*
X26860771Y-8854761D02*
X26860771Y-8711904D01*
X26860771Y-8711904D02*
X26908390Y-8616666D01*
X26908390Y-8616666D02*
X26956009Y-8569047D01*
X26956009Y-8569047D02*
X27051247Y-8521428D01*
X27051247Y-8521428D02*
X27289342Y-8521428D01*
X27289342Y-8521428D02*
X27384580Y-8569047D01*
X27384580Y-8569047D02*
X27432200Y-8616666D01*
X27432200Y-8616666D02*
X27479819Y-8711904D01*
X27479819Y-8711904D02*
X27479819Y-8997618D01*
X27479819Y-8997618D02*
X27432200Y-9092856D01*
X27432200Y-9092856D02*
X27384580Y-9140475D01*
X27384580Y-8092856D02*
X27432200Y-8045237D01*
X27432200Y-8045237D02*
X27479819Y-8092856D01*
X27479819Y-8092856D02*
X27432200Y-8140475D01*
X27432200Y-8140475D02*
X27384580Y-8092856D01*
X27384580Y-8092856D02*
X27479819Y-8092856D01*
X26479819Y-7711904D02*
X26479819Y-7092857D01*
X26479819Y-7092857D02*
X26860771Y-7426190D01*
X26860771Y-7426190D02*
X26860771Y-7283333D01*
X26860771Y-7283333D02*
X26908390Y-7188095D01*
X26908390Y-7188095D02*
X26956009Y-7140476D01*
X26956009Y-7140476D02*
X27051247Y-7092857D01*
X27051247Y-7092857D02*
X27289342Y-7092857D01*
X27289342Y-7092857D02*
X27384580Y-7140476D01*
X27384580Y-7140476D02*
X27432200Y-7188095D01*
X27432200Y-7188095D02*
X27479819Y-7283333D01*
X27479819Y-7283333D02*
X27479819Y-7569047D01*
X27479819Y-7569047D02*
X27432200Y-7664285D01*
X27432200Y-7664285D02*
X27384580Y-7711904D01*
X26479819Y-6473809D02*
X26479819Y-6378571D01*
X26479819Y-6378571D02*
X26527438Y-6283333D01*
X26527438Y-6283333D02*
X26575057Y-6235714D01*
X26575057Y-6235714D02*
X26670295Y-6188095D01*
X26670295Y-6188095D02*
X26860771Y-6140476D01*
X26860771Y-6140476D02*
X27098866Y-6140476D01*
X27098866Y-6140476D02*
X27289342Y-6188095D01*
X27289342Y-6188095D02*
X27384580Y-6235714D01*
X27384580Y-6235714D02*
X27432200Y-6283333D01*
X27432200Y-6283333D02*
X27479819Y-6378571D01*
X27479819Y-6378571D02*
X27479819Y-6473809D01*
X27479819Y-6473809D02*
X27432200Y-6569047D01*
X27432200Y-6569047D02*
X27384580Y-6616666D01*
X27384580Y-6616666D02*
X27289342Y-6664285D01*
X27289342Y-6664285D02*
X27098866Y-6711904D01*
X27098866Y-6711904D02*
X26860771Y-6711904D01*
X26860771Y-6711904D02*
X26670295Y-6664285D01*
X26670295Y-6664285D02*
X26575057Y-6616666D01*
X26575057Y-6616666D02*
X26527438Y-6569047D01*
X26527438Y-6569047D02*
X26479819Y-6473809D01*
X26479819Y-5521428D02*
X26479819Y-5426190D01*
X26479819Y-5426190D02*
X26527438Y-5330952D01*
X26527438Y-5330952D02*
X26575057Y-5283333D01*
X26575057Y-5283333D02*
X26670295Y-5235714D01*
X26670295Y-5235714D02*
X26860771Y-5188095D01*
X26860771Y-5188095D02*
X27098866Y-5188095D01*
X27098866Y-5188095D02*
X27289342Y-5235714D01*
X27289342Y-5235714D02*
X27384580Y-5283333D01*
X27384580Y-5283333D02*
X27432200Y-5330952D01*
X27432200Y-5330952D02*
X27479819Y-5426190D01*
X27479819Y-5426190D02*
X27479819Y-5521428D01*
X27479819Y-5521428D02*
X27432200Y-5616666D01*
X27432200Y-5616666D02*
X27384580Y-5664285D01*
X27384580Y-5664285D02*
X27289342Y-5711904D01*
X27289342Y-5711904D02*
X27098866Y-5759523D01*
X27098866Y-5759523D02*
X26860771Y-5759523D01*
X26860771Y-5759523D02*
X26670295Y-5711904D01*
X26670295Y-5711904D02*
X26575057Y-5664285D01*
X26575057Y-5664285D02*
X26527438Y-5616666D01*
X26527438Y-5616666D02*
X26479819Y-5521428D01*
X26479819Y-4569047D02*
X26479819Y-4473809D01*
X26479819Y-4473809D02*
X26527438Y-4378571D01*
X26527438Y-4378571D02*
X26575057Y-4330952D01*
X26575057Y-4330952D02*
X26670295Y-4283333D01*
X26670295Y-4283333D02*
X26860771Y-4235714D01*
X26860771Y-4235714D02*
X27098866Y-4235714D01*
X27098866Y-4235714D02*
X27289342Y-4283333D01*
X27289342Y-4283333D02*
X27384580Y-4330952D01*
X27384580Y-4330952D02*
X27432200Y-4378571D01*
X27432200Y-4378571D02*
X27479819Y-4473809D01*
X27479819Y-4473809D02*
X27479819Y-4569047D01*
X27479819Y-4569047D02*
X27432200Y-4664285D01*
X27432200Y-4664285D02*
X27384580Y-4711904D01*
X27384580Y-4711904D02*
X27289342Y-4759523D01*
X27289342Y-4759523D02*
X27098866Y-4807142D01*
X27098866Y-4807142D02*
X26860771Y-4807142D01*
X26860771Y-4807142D02*
X26670295Y-4759523D01*
X26670295Y-4759523D02*
X26575057Y-4711904D01*
X26575057Y-4711904D02*
X26527438Y-4664285D01*
X26527438Y-4664285D02*
X26479819Y-4569047D01*
X27479819Y-3045237D02*
X26813152Y-3045237D01*
X26908390Y-3045237D02*
X26860771Y-2997618D01*
X26860771Y-2997618D02*
X26813152Y-2902380D01*
X26813152Y-2902380D02*
X26813152Y-2759523D01*
X26813152Y-2759523D02*
X26860771Y-2664285D01*
X26860771Y-2664285D02*
X26956009Y-2616666D01*
X26956009Y-2616666D02*
X27479819Y-2616666D01*
X26956009Y-2616666D02*
X26860771Y-2569047D01*
X26860771Y-2569047D02*
X26813152Y-2473809D01*
X26813152Y-2473809D02*
X26813152Y-2330952D01*
X26813152Y-2330952D02*
X26860771Y-2235713D01*
X26860771Y-2235713D02*
X26956009Y-2188094D01*
X26956009Y-2188094D02*
X27479819Y-2188094D01*
X27479819Y-1711904D02*
X26813152Y-1711904D01*
X26908390Y-1711904D02*
X26860771Y-1664285D01*
X26860771Y-1664285D02*
X26813152Y-1569047D01*
X26813152Y-1569047D02*
X26813152Y-1426190D01*
X26813152Y-1426190D02*
X26860771Y-1330952D01*
X26860771Y-1330952D02*
X26956009Y-1283333D01*
X26956009Y-1283333D02*
X27479819Y-1283333D01*
X26956009Y-1283333D02*
X26860771Y-1235714D01*
X26860771Y-1235714D02*
X26813152Y-1140476D01*
X26813152Y-1140476D02*
X26813152Y-997619D01*
X26813152Y-997619D02*
X26860771Y-902380D01*
X26860771Y-902380D02*
X26956009Y-854761D01*
X26956009Y-854761D02*
X27479819Y-854761D01*
X20200000Y-6600000D02*
X28761420Y-6600000D01*
X28761420Y-3300000D02*
X18700000Y-3300000D01*
X28175000Y-6600000D02*
X28175000Y-3300000D01*
X28175000Y-6600000D02*
X27588579Y-5473496D01*
X28175000Y-6600000D02*
X28761421Y-5473496D01*
X28175000Y-3300000D02*
X28761421Y-4426504D01*
X28175000Y-3300000D02*
X27588579Y-4426504D01*
X10409524Y6795181D02*
X11028571Y6795181D01*
X11028571Y6795181D02*
X10695238Y6414229D01*
X10695238Y6414229D02*
X10838095Y6414229D01*
X10838095Y6414229D02*
X10933333Y6366610D01*
X10933333Y6366610D02*
X10980952Y6318991D01*
X10980952Y6318991D02*
X11028571Y6223753D01*
X11028571Y6223753D02*
X11028571Y5985658D01*
X11028571Y5985658D02*
X10980952Y5890420D01*
X10980952Y5890420D02*
X10933333Y5842800D01*
X10933333Y5842800D02*
X10838095Y5795181D01*
X10838095Y5795181D02*
X10552381Y5795181D01*
X10552381Y5795181D02*
X10457143Y5842800D01*
X10457143Y5842800D02*
X10409524Y5890420D01*
X11457143Y5890420D02*
X11504762Y5842800D01*
X11504762Y5842800D02*
X11457143Y5795181D01*
X11457143Y5795181D02*
X11409524Y5842800D01*
X11409524Y5842800D02*
X11457143Y5890420D01*
X11457143Y5890420D02*
X11457143Y5795181D01*
X12076190Y6366610D02*
X11980952Y6414229D01*
X11980952Y6414229D02*
X11933333Y6461848D01*
X11933333Y6461848D02*
X11885714Y6557086D01*
X11885714Y6557086D02*
X11885714Y6604705D01*
X11885714Y6604705D02*
X11933333Y6699943D01*
X11933333Y6699943D02*
X11980952Y6747562D01*
X11980952Y6747562D02*
X12076190Y6795181D01*
X12076190Y6795181D02*
X12266666Y6795181D01*
X12266666Y6795181D02*
X12361904Y6747562D01*
X12361904Y6747562D02*
X12409523Y6699943D01*
X12409523Y6699943D02*
X12457142Y6604705D01*
X12457142Y6604705D02*
X12457142Y6557086D01*
X12457142Y6557086D02*
X12409523Y6461848D01*
X12409523Y6461848D02*
X12361904Y6414229D01*
X12361904Y6414229D02*
X12266666Y6366610D01*
X12266666Y6366610D02*
X12076190Y6366610D01*
X12076190Y6366610D02*
X11980952Y6318991D01*
X11980952Y6318991D02*
X11933333Y6271372D01*
X11933333Y6271372D02*
X11885714Y6176134D01*
X11885714Y6176134D02*
X11885714Y5985658D01*
X11885714Y5985658D02*
X11933333Y5890420D01*
X11933333Y5890420D02*
X11980952Y5842800D01*
X11980952Y5842800D02*
X12076190Y5795181D01*
X12076190Y5795181D02*
X12266666Y5795181D01*
X12266666Y5795181D02*
X12361904Y5842800D01*
X12361904Y5842800D02*
X12409523Y5890420D01*
X12409523Y5890420D02*
X12457142Y5985658D01*
X12457142Y5985658D02*
X12457142Y6176134D01*
X12457142Y6176134D02*
X12409523Y6271372D01*
X12409523Y6271372D02*
X12361904Y6318991D01*
X12361904Y6318991D02*
X12266666Y6366610D01*
X13076190Y6795181D02*
X13171428Y6795181D01*
X13171428Y6795181D02*
X13266666Y6747562D01*
X13266666Y6747562D02*
X13314285Y6699943D01*
X13314285Y6699943D02*
X13361904Y6604705D01*
X13361904Y6604705D02*
X13409523Y6414229D01*
X13409523Y6414229D02*
X13409523Y6176134D01*
X13409523Y6176134D02*
X13361904Y5985658D01*
X13361904Y5985658D02*
X13314285Y5890420D01*
X13314285Y5890420D02*
X13266666Y5842800D01*
X13266666Y5842800D02*
X13171428Y5795181D01*
X13171428Y5795181D02*
X13076190Y5795181D01*
X13076190Y5795181D02*
X12980952Y5842800D01*
X12980952Y5842800D02*
X12933333Y5890420D01*
X12933333Y5890420D02*
X12885714Y5985658D01*
X12885714Y5985658D02*
X12838095Y6176134D01*
X12838095Y6176134D02*
X12838095Y6414229D01*
X12838095Y6414229D02*
X12885714Y6604705D01*
X12885714Y6604705D02*
X12933333Y6699943D01*
X12933333Y6699943D02*
X12980952Y6747562D01*
X12980952Y6747562D02*
X13076190Y6795181D01*
X14028571Y6795181D02*
X14123809Y6795181D01*
X14123809Y6795181D02*
X14219047Y6747562D01*
X14219047Y6747562D02*
X14266666Y6699943D01*
X14266666Y6699943D02*
X14314285Y6604705D01*
X14314285Y6604705D02*
X14361904Y6414229D01*
X14361904Y6414229D02*
X14361904Y6176134D01*
X14361904Y6176134D02*
X14314285Y5985658D01*
X14314285Y5985658D02*
X14266666Y5890420D01*
X14266666Y5890420D02*
X14219047Y5842800D01*
X14219047Y5842800D02*
X14123809Y5795181D01*
X14123809Y5795181D02*
X14028571Y5795181D01*
X14028571Y5795181D02*
X13933333Y5842800D01*
X13933333Y5842800D02*
X13885714Y5890420D01*
X13885714Y5890420D02*
X13838095Y5985658D01*
X13838095Y5985658D02*
X13790476Y6176134D01*
X13790476Y6176134D02*
X13790476Y6414229D01*
X13790476Y6414229D02*
X13838095Y6604705D01*
X13838095Y6604705D02*
X13885714Y6699943D01*
X13885714Y6699943D02*
X13933333Y6747562D01*
X13933333Y6747562D02*
X14028571Y6795181D01*
X14980952Y6795181D02*
X15076190Y6795181D01*
X15076190Y6795181D02*
X15171428Y6747562D01*
X15171428Y6747562D02*
X15219047Y6699943D01*
X15219047Y6699943D02*
X15266666Y6604705D01*
X15266666Y6604705D02*
X15314285Y6414229D01*
X15314285Y6414229D02*
X15314285Y6176134D01*
X15314285Y6176134D02*
X15266666Y5985658D01*
X15266666Y5985658D02*
X15219047Y5890420D01*
X15219047Y5890420D02*
X15171428Y5842800D01*
X15171428Y5842800D02*
X15076190Y5795181D01*
X15076190Y5795181D02*
X14980952Y5795181D01*
X14980952Y5795181D02*
X14885714Y5842800D01*
X14885714Y5842800D02*
X14838095Y5890420D01*
X14838095Y5890420D02*
X14790476Y5985658D01*
X14790476Y5985658D02*
X14742857Y6176134D01*
X14742857Y6176134D02*
X14742857Y6414229D01*
X14742857Y6414229D02*
X14790476Y6604705D01*
X14790476Y6604705D02*
X14838095Y6699943D01*
X14838095Y6699943D02*
X14885714Y6747562D01*
X14885714Y6747562D02*
X14980952Y6795181D01*
X16504762Y5795181D02*
X16504762Y6461848D01*
X16504762Y6366610D02*
X16552381Y6414229D01*
X16552381Y6414229D02*
X16647619Y6461848D01*
X16647619Y6461848D02*
X16790476Y6461848D01*
X16790476Y6461848D02*
X16885714Y6414229D01*
X16885714Y6414229D02*
X16933333Y6318991D01*
X16933333Y6318991D02*
X16933333Y5795181D01*
X16933333Y6318991D02*
X16980952Y6414229D01*
X16980952Y6414229D02*
X17076190Y6461848D01*
X17076190Y6461848D02*
X17219047Y6461848D01*
X17219047Y6461848D02*
X17314286Y6414229D01*
X17314286Y6414229D02*
X17361905Y6318991D01*
X17361905Y6318991D02*
X17361905Y5795181D01*
X17838095Y5795181D02*
X17838095Y6461848D01*
X17838095Y6366610D02*
X17885714Y6414229D01*
X17885714Y6414229D02*
X17980952Y6461848D01*
X17980952Y6461848D02*
X18123809Y6461848D01*
X18123809Y6461848D02*
X18219047Y6414229D01*
X18219047Y6414229D02*
X18266666Y6318991D01*
X18266666Y6318991D02*
X18266666Y5795181D01*
X18266666Y6318991D02*
X18314285Y6414229D01*
X18314285Y6414229D02*
X18409523Y6461848D01*
X18409523Y6461848D02*
X18552380Y6461848D01*
X18552380Y6461848D02*
X18647619Y6414229D01*
X18647619Y6414229D02*
X18695238Y6318991D01*
X18695238Y6318991D02*
X18695238Y5795181D01*
X12700000Y1400000D02*
X12700000Y5686420D01*
X16500000Y5686420D02*
X16500000Y1400000D01*
X12700000Y5100000D02*
X16500000Y5100000D01*
X12700000Y5100000D02*
X13826504Y5686421D01*
X12700000Y5100000D02*
X13826504Y4513579D01*
X16500000Y5100000D02*
X15373496Y4513579D01*
X16500000Y5100000D02*
X15373496Y5686421D01*
X12009524Y-10904819D02*
X12676190Y-10904819D01*
X12676190Y-10904819D02*
X12247619Y-11904819D01*
X13057143Y-11809580D02*
X13104762Y-11857200D01*
X13104762Y-11857200D02*
X13057143Y-11904819D01*
X13057143Y-11904819D02*
X13009524Y-11857200D01*
X13009524Y-11857200D02*
X13057143Y-11809580D01*
X13057143Y-11809580D02*
X13057143Y-11904819D01*
X13723809Y-10904819D02*
X13819047Y-10904819D01*
X13819047Y-10904819D02*
X13914285Y-10952438D01*
X13914285Y-10952438D02*
X13961904Y-11000057D01*
X13961904Y-11000057D02*
X14009523Y-11095295D01*
X14009523Y-11095295D02*
X14057142Y-11285771D01*
X14057142Y-11285771D02*
X14057142Y-11523866D01*
X14057142Y-11523866D02*
X14009523Y-11714342D01*
X14009523Y-11714342D02*
X13961904Y-11809580D01*
X13961904Y-11809580D02*
X13914285Y-11857200D01*
X13914285Y-11857200D02*
X13819047Y-11904819D01*
X13819047Y-11904819D02*
X13723809Y-11904819D01*
X13723809Y-11904819D02*
X13628571Y-11857200D01*
X13628571Y-11857200D02*
X13580952Y-11809580D01*
X13580952Y-11809580D02*
X13533333Y-11714342D01*
X13533333Y-11714342D02*
X13485714Y-11523866D01*
X13485714Y-11523866D02*
X13485714Y-11285771D01*
X13485714Y-11285771D02*
X13533333Y-11095295D01*
X13533333Y-11095295D02*
X13580952Y-11000057D01*
X13580952Y-11000057D02*
X13628571Y-10952438D01*
X13628571Y-10952438D02*
X13723809Y-10904819D01*
X14676190Y-10904819D02*
X14771428Y-10904819D01*
X14771428Y-10904819D02*
X14866666Y-10952438D01*
X14866666Y-10952438D02*
X14914285Y-11000057D01*
X14914285Y-11000057D02*
X14961904Y-11095295D01*
X14961904Y-11095295D02*
X15009523Y-11285771D01*
X15009523Y-11285771D02*
X15009523Y-11523866D01*
X15009523Y-11523866D02*
X14961904Y-11714342D01*
X14961904Y-11714342D02*
X14914285Y-11809580D01*
X14914285Y-11809580D02*
X14866666Y-11857200D01*
X14866666Y-11857200D02*
X14771428Y-11904819D01*
X14771428Y-11904819D02*
X14676190Y-11904819D01*
X14676190Y-11904819D02*
X14580952Y-11857200D01*
X14580952Y-11857200D02*
X14533333Y-11809580D01*
X14533333Y-11809580D02*
X14485714Y-11714342D01*
X14485714Y-11714342D02*
X14438095Y-11523866D01*
X14438095Y-11523866D02*
X14438095Y-11285771D01*
X14438095Y-11285771D02*
X14485714Y-11095295D01*
X14485714Y-11095295D02*
X14533333Y-11000057D01*
X14533333Y-11000057D02*
X14580952Y-10952438D01*
X14580952Y-10952438D02*
X14676190Y-10904819D01*
X15628571Y-10904819D02*
X15723809Y-10904819D01*
X15723809Y-10904819D02*
X15819047Y-10952438D01*
X15819047Y-10952438D02*
X15866666Y-11000057D01*
X15866666Y-11000057D02*
X15914285Y-11095295D01*
X15914285Y-11095295D02*
X15961904Y-11285771D01*
X15961904Y-11285771D02*
X15961904Y-11523866D01*
X15961904Y-11523866D02*
X15914285Y-11714342D01*
X15914285Y-11714342D02*
X15866666Y-11809580D01*
X15866666Y-11809580D02*
X15819047Y-11857200D01*
X15819047Y-11857200D02*
X15723809Y-11904819D01*
X15723809Y-11904819D02*
X15628571Y-11904819D01*
X15628571Y-11904819D02*
X15533333Y-11857200D01*
X15533333Y-11857200D02*
X15485714Y-11809580D01*
X15485714Y-11809580D02*
X15438095Y-11714342D01*
X15438095Y-11714342D02*
X15390476Y-11523866D01*
X15390476Y-11523866D02*
X15390476Y-11285771D01*
X15390476Y-11285771D02*
X15438095Y-11095295D01*
X15438095Y-11095295D02*
X15485714Y-11000057D01*
X15485714Y-11000057D02*
X15533333Y-10952438D01*
X15533333Y-10952438D02*
X15628571Y-10904819D01*
X16580952Y-10904819D02*
X16676190Y-10904819D01*
X16676190Y-10904819D02*
X16771428Y-10952438D01*
X16771428Y-10952438D02*
X16819047Y-11000057D01*
X16819047Y-11000057D02*
X16866666Y-11095295D01*
X16866666Y-11095295D02*
X16914285Y-11285771D01*
X16914285Y-11285771D02*
X16914285Y-11523866D01*
X16914285Y-11523866D02*
X16866666Y-11714342D01*
X16866666Y-11714342D02*
X16819047Y-11809580D01*
X16819047Y-11809580D02*
X16771428Y-11857200D01*
X16771428Y-11857200D02*
X16676190Y-11904819D01*
X16676190Y-11904819D02*
X16580952Y-11904819D01*
X16580952Y-11904819D02*
X16485714Y-11857200D01*
X16485714Y-11857200D02*
X16438095Y-11809580D01*
X16438095Y-11809580D02*
X16390476Y-11714342D01*
X16390476Y-11714342D02*
X16342857Y-11523866D01*
X16342857Y-11523866D02*
X16342857Y-11285771D01*
X16342857Y-11285771D02*
X16390476Y-11095295D01*
X16390476Y-11095295D02*
X16438095Y-11000057D01*
X16438095Y-11000057D02*
X16485714Y-10952438D01*
X16485714Y-10952438D02*
X16580952Y-10904819D01*
X18104762Y-11904819D02*
X18104762Y-11238152D01*
X18104762Y-11333390D02*
X18152381Y-11285771D01*
X18152381Y-11285771D02*
X18247619Y-11238152D01*
X18247619Y-11238152D02*
X18390476Y-11238152D01*
X18390476Y-11238152D02*
X18485714Y-11285771D01*
X18485714Y-11285771D02*
X18533333Y-11381009D01*
X18533333Y-11381009D02*
X18533333Y-11904819D01*
X18533333Y-11381009D02*
X18580952Y-11285771D01*
X18580952Y-11285771D02*
X18676190Y-11238152D01*
X18676190Y-11238152D02*
X18819047Y-11238152D01*
X18819047Y-11238152D02*
X18914286Y-11285771D01*
X18914286Y-11285771D02*
X18961905Y-11381009D01*
X18961905Y-11381009D02*
X18961905Y-11904819D01*
X19438095Y-11904819D02*
X19438095Y-11238152D01*
X19438095Y-11333390D02*
X19485714Y-11285771D01*
X19485714Y-11285771D02*
X19580952Y-11238152D01*
X19580952Y-11238152D02*
X19723809Y-11238152D01*
X19723809Y-11238152D02*
X19819047Y-11285771D01*
X19819047Y-11285771D02*
X19866666Y-11381009D01*
X19866666Y-11381009D02*
X19866666Y-11904819D01*
X19866666Y-11381009D02*
X19914285Y-11285771D01*
X19914285Y-11285771D02*
X20009523Y-11238152D01*
X20009523Y-11238152D02*
X20152380Y-11238152D01*
X20152380Y-11238152D02*
X20247619Y-11285771D01*
X20247619Y-11285771D02*
X20295238Y-11381009D01*
X20295238Y-11381009D02*
X20295238Y-11904819D01*
X12700000Y-7100000D02*
X12700000Y-13186420D01*
X19700000Y-13186420D02*
X19700000Y-7100000D01*
X12700000Y-12600000D02*
X19700000Y-12600000D01*
X12700000Y-12600000D02*
X13826504Y-12013579D01*
X12700000Y-12600000D02*
X13826504Y-13186421D01*
X19700000Y-12600000D02*
X18573496Y-13186421D01*
X19700000Y-12600000D02*
X18573496Y-12013579D01*
D12*
X11030953Y8759557D02*
X11030953Y8959557D01*
X11145238Y8759557D02*
X11059524Y8873842D01*
X11145238Y8959557D02*
X11030953Y8845271D01*
X11230953Y8864319D02*
X11297619Y8864319D01*
X11326191Y8759557D02*
X11230953Y8759557D01*
X11230953Y8759557D02*
X11230953Y8959557D01*
X11230953Y8959557D02*
X11326191Y8959557D01*
X11411905Y8864319D02*
X11478571Y8864319D01*
X11507143Y8759557D02*
X11411905Y8759557D01*
X11411905Y8759557D02*
X11411905Y8959557D01*
X11411905Y8959557D02*
X11507143Y8959557D01*
X11592857Y8759557D02*
X11592857Y8959557D01*
X11592857Y8959557D02*
X11669047Y8959557D01*
X11669047Y8959557D02*
X11688095Y8950033D01*
X11688095Y8950033D02*
X11697618Y8940509D01*
X11697618Y8940509D02*
X11707142Y8921461D01*
X11707142Y8921461D02*
X11707142Y8892890D01*
X11707142Y8892890D02*
X11697618Y8873842D01*
X11697618Y8873842D02*
X11688095Y8864319D01*
X11688095Y8864319D02*
X11669047Y8854795D01*
X11669047Y8854795D02*
X11592857Y8854795D01*
X11830952Y8959557D02*
X11869047Y8959557D01*
X11869047Y8959557D02*
X11888095Y8950033D01*
X11888095Y8950033D02*
X11907142Y8930985D01*
X11907142Y8930985D02*
X11916666Y8892890D01*
X11916666Y8892890D02*
X11916666Y8826223D01*
X11916666Y8826223D02*
X11907142Y8788128D01*
X11907142Y8788128D02*
X11888095Y8769080D01*
X11888095Y8769080D02*
X11869047Y8759557D01*
X11869047Y8759557D02*
X11830952Y8759557D01*
X11830952Y8759557D02*
X11811904Y8769080D01*
X11811904Y8769080D02*
X11792857Y8788128D01*
X11792857Y8788128D02*
X11783333Y8826223D01*
X11783333Y8826223D02*
X11783333Y8892890D01*
X11783333Y8892890D02*
X11792857Y8930985D01*
X11792857Y8930985D02*
X11811904Y8950033D01*
X11811904Y8950033D02*
X11830952Y8959557D01*
X12002381Y8959557D02*
X12002381Y8797652D01*
X12002381Y8797652D02*
X12011904Y8778604D01*
X12011904Y8778604D02*
X12021428Y8769080D01*
X12021428Y8769080D02*
X12040476Y8759557D01*
X12040476Y8759557D02*
X12078571Y8759557D01*
X12078571Y8759557D02*
X12097619Y8769080D01*
X12097619Y8769080D02*
X12107142Y8778604D01*
X12107142Y8778604D02*
X12116666Y8797652D01*
X12116666Y8797652D02*
X12116666Y8959557D01*
X12183333Y8959557D02*
X12297619Y8959557D01*
X12240476Y8759557D02*
X12240476Y8959557D01*
X10983333Y9828604D02*
X10973809Y9819080D01*
X10973809Y9819080D02*
X10945238Y9809557D01*
X10945238Y9809557D02*
X10926190Y9809557D01*
X10926190Y9809557D02*
X10897619Y9819080D01*
X10897619Y9819080D02*
X10878571Y9838128D01*
X10878571Y9838128D02*
X10869048Y9857176D01*
X10869048Y9857176D02*
X10859524Y9895271D01*
X10859524Y9895271D02*
X10859524Y9923842D01*
X10859524Y9923842D02*
X10869048Y9961938D01*
X10869048Y9961938D02*
X10878571Y9980985D01*
X10878571Y9980985D02*
X10897619Y10000033D01*
X10897619Y10000033D02*
X10926190Y10009557D01*
X10926190Y10009557D02*
X10945238Y10009557D01*
X10945238Y10009557D02*
X10973809Y10000033D01*
X10973809Y10000033D02*
X10983333Y9990509D01*
X11097619Y9809557D02*
X11078571Y9819080D01*
X11078571Y9819080D02*
X11069048Y9828604D01*
X11069048Y9828604D02*
X11059524Y9847652D01*
X11059524Y9847652D02*
X11059524Y9904795D01*
X11059524Y9904795D02*
X11069048Y9923842D01*
X11069048Y9923842D02*
X11078571Y9933366D01*
X11078571Y9933366D02*
X11097619Y9942890D01*
X11097619Y9942890D02*
X11126190Y9942890D01*
X11126190Y9942890D02*
X11145238Y9933366D01*
X11145238Y9933366D02*
X11154762Y9923842D01*
X11154762Y9923842D02*
X11164286Y9904795D01*
X11164286Y9904795D02*
X11164286Y9847652D01*
X11164286Y9847652D02*
X11154762Y9828604D01*
X11154762Y9828604D02*
X11145238Y9819080D01*
X11145238Y9819080D02*
X11126190Y9809557D01*
X11126190Y9809557D02*
X11097619Y9809557D01*
X11250000Y9809557D02*
X11250000Y9942890D01*
X11250000Y9923842D02*
X11259523Y9933366D01*
X11259523Y9933366D02*
X11278571Y9942890D01*
X11278571Y9942890D02*
X11307142Y9942890D01*
X11307142Y9942890D02*
X11326190Y9933366D01*
X11326190Y9933366D02*
X11335714Y9914319D01*
X11335714Y9914319D02*
X11335714Y9809557D01*
X11335714Y9914319D02*
X11345238Y9933366D01*
X11345238Y9933366D02*
X11364285Y9942890D01*
X11364285Y9942890D02*
X11392857Y9942890D01*
X11392857Y9942890D02*
X11411904Y9933366D01*
X11411904Y9933366D02*
X11421428Y9914319D01*
X11421428Y9914319D02*
X11421428Y9809557D01*
X11516667Y9942890D02*
X11516667Y9742890D01*
X11516667Y9933366D02*
X11535714Y9942890D01*
X11535714Y9942890D02*
X11573809Y9942890D01*
X11573809Y9942890D02*
X11592857Y9933366D01*
X11592857Y9933366D02*
X11602381Y9923842D01*
X11602381Y9923842D02*
X11611905Y9904795D01*
X11611905Y9904795D02*
X11611905Y9847652D01*
X11611905Y9847652D02*
X11602381Y9828604D01*
X11602381Y9828604D02*
X11592857Y9819080D01*
X11592857Y9819080D02*
X11573809Y9809557D01*
X11573809Y9809557D02*
X11535714Y9809557D01*
X11535714Y9809557D02*
X11516667Y9819080D01*
X11726190Y9809557D02*
X11707142Y9819080D01*
X11707142Y9819080D02*
X11697619Y9828604D01*
X11697619Y9828604D02*
X11688095Y9847652D01*
X11688095Y9847652D02*
X11688095Y9904795D01*
X11688095Y9904795D02*
X11697619Y9923842D01*
X11697619Y9923842D02*
X11707142Y9933366D01*
X11707142Y9933366D02*
X11726190Y9942890D01*
X11726190Y9942890D02*
X11754761Y9942890D01*
X11754761Y9942890D02*
X11773809Y9933366D01*
X11773809Y9933366D02*
X11783333Y9923842D01*
X11783333Y9923842D02*
X11792857Y9904795D01*
X11792857Y9904795D02*
X11792857Y9847652D01*
X11792857Y9847652D02*
X11783333Y9828604D01*
X11783333Y9828604D02*
X11773809Y9819080D01*
X11773809Y9819080D02*
X11754761Y9809557D01*
X11754761Y9809557D02*
X11726190Y9809557D01*
X11878571Y9942890D02*
X11878571Y9809557D01*
X11878571Y9923842D02*
X11888094Y9933366D01*
X11888094Y9933366D02*
X11907142Y9942890D01*
X11907142Y9942890D02*
X11935713Y9942890D01*
X11935713Y9942890D02*
X11954761Y9933366D01*
X11954761Y9933366D02*
X11964285Y9914319D01*
X11964285Y9914319D02*
X11964285Y9809557D01*
X12135713Y9819080D02*
X12116665Y9809557D01*
X12116665Y9809557D02*
X12078570Y9809557D01*
X12078570Y9809557D02*
X12059523Y9819080D01*
X12059523Y9819080D02*
X12049999Y9838128D01*
X12049999Y9838128D02*
X12049999Y9914319D01*
X12049999Y9914319D02*
X12059523Y9933366D01*
X12059523Y9933366D02*
X12078570Y9942890D01*
X12078570Y9942890D02*
X12116665Y9942890D01*
X12116665Y9942890D02*
X12135713Y9933366D01*
X12135713Y9933366D02*
X12145237Y9914319D01*
X12145237Y9914319D02*
X12145237Y9895271D01*
X12145237Y9895271D02*
X12049999Y9876223D01*
X12230952Y9942890D02*
X12230952Y9809557D01*
X12230952Y9923842D02*
X12240475Y9933366D01*
X12240475Y9933366D02*
X12259523Y9942890D01*
X12259523Y9942890D02*
X12288094Y9942890D01*
X12288094Y9942890D02*
X12307142Y9933366D01*
X12307142Y9933366D02*
X12316666Y9914319D01*
X12316666Y9914319D02*
X12316666Y9809557D01*
X12383332Y9942890D02*
X12459523Y9942890D01*
X12411904Y10009557D02*
X12411904Y9838128D01*
X12411904Y9838128D02*
X12421427Y9819080D01*
X12421427Y9819080D02*
X12440475Y9809557D01*
X12440475Y9809557D02*
X12459523Y9809557D01*
X10907143Y9159557D02*
X10907143Y9359557D01*
X10907143Y9359557D02*
X11021428Y9159557D01*
X11021428Y9159557D02*
X11021428Y9359557D01*
X11145238Y9159557D02*
X11126190Y9169080D01*
X11126190Y9169080D02*
X11116667Y9178604D01*
X11116667Y9178604D02*
X11107143Y9197652D01*
X11107143Y9197652D02*
X11107143Y9254795D01*
X11107143Y9254795D02*
X11116667Y9273842D01*
X11116667Y9273842D02*
X11126190Y9283366D01*
X11126190Y9283366D02*
X11145238Y9292890D01*
X11145238Y9292890D02*
X11173809Y9292890D01*
X11173809Y9292890D02*
X11192857Y9283366D01*
X11192857Y9283366D02*
X11202381Y9273842D01*
X11202381Y9273842D02*
X11211905Y9254795D01*
X11211905Y9254795D02*
X11211905Y9197652D01*
X11211905Y9197652D02*
X11202381Y9178604D01*
X11202381Y9178604D02*
X11192857Y9169080D01*
X11192857Y9169080D02*
X11173809Y9159557D01*
X11173809Y9159557D02*
X11145238Y9159557D01*
X11564285Y9178604D02*
X11554761Y9169080D01*
X11554761Y9169080D02*
X11526190Y9159557D01*
X11526190Y9159557D02*
X11507142Y9159557D01*
X11507142Y9159557D02*
X11478571Y9169080D01*
X11478571Y9169080D02*
X11459523Y9188128D01*
X11459523Y9188128D02*
X11450000Y9207176D01*
X11450000Y9207176D02*
X11440476Y9245271D01*
X11440476Y9245271D02*
X11440476Y9273842D01*
X11440476Y9273842D02*
X11450000Y9311938D01*
X11450000Y9311938D02*
X11459523Y9330985D01*
X11459523Y9330985D02*
X11478571Y9350033D01*
X11478571Y9350033D02*
X11507142Y9359557D01*
X11507142Y9359557D02*
X11526190Y9359557D01*
X11526190Y9359557D02*
X11554761Y9350033D01*
X11554761Y9350033D02*
X11564285Y9340509D01*
X11678571Y9159557D02*
X11659523Y9169080D01*
X11659523Y9169080D02*
X11650000Y9178604D01*
X11650000Y9178604D02*
X11640476Y9197652D01*
X11640476Y9197652D02*
X11640476Y9254795D01*
X11640476Y9254795D02*
X11650000Y9273842D01*
X11650000Y9273842D02*
X11659523Y9283366D01*
X11659523Y9283366D02*
X11678571Y9292890D01*
X11678571Y9292890D02*
X11707142Y9292890D01*
X11707142Y9292890D02*
X11726190Y9283366D01*
X11726190Y9283366D02*
X11735714Y9273842D01*
X11735714Y9273842D02*
X11745238Y9254795D01*
X11745238Y9254795D02*
X11745238Y9197652D01*
X11745238Y9197652D02*
X11735714Y9178604D01*
X11735714Y9178604D02*
X11726190Y9169080D01*
X11726190Y9169080D02*
X11707142Y9159557D01*
X11707142Y9159557D02*
X11678571Y9159557D01*
X11830952Y9292890D02*
X11830952Y9092890D01*
X11830952Y9283366D02*
X11849999Y9292890D01*
X11849999Y9292890D02*
X11888094Y9292890D01*
X11888094Y9292890D02*
X11907142Y9283366D01*
X11907142Y9283366D02*
X11916666Y9273842D01*
X11916666Y9273842D02*
X11926190Y9254795D01*
X11926190Y9254795D02*
X11926190Y9197652D01*
X11926190Y9197652D02*
X11916666Y9178604D01*
X11916666Y9178604D02*
X11907142Y9169080D01*
X11907142Y9169080D02*
X11888094Y9159557D01*
X11888094Y9159557D02*
X11849999Y9159557D01*
X11849999Y9159557D02*
X11830952Y9169080D01*
X12011904Y9292890D02*
X12011904Y9092890D01*
X12011904Y9283366D02*
X12030951Y9292890D01*
X12030951Y9292890D02*
X12069046Y9292890D01*
X12069046Y9292890D02*
X12088094Y9283366D01*
X12088094Y9283366D02*
X12097618Y9273842D01*
X12097618Y9273842D02*
X12107142Y9254795D01*
X12107142Y9254795D02*
X12107142Y9197652D01*
X12107142Y9197652D02*
X12097618Y9178604D01*
X12097618Y9178604D02*
X12088094Y9169080D01*
X12088094Y9169080D02*
X12069046Y9159557D01*
X12069046Y9159557D02*
X12030951Y9159557D01*
X12030951Y9159557D02*
X12011904Y9169080D01*
X12269046Y9169080D02*
X12249998Y9159557D01*
X12249998Y9159557D02*
X12211903Y9159557D01*
X12211903Y9159557D02*
X12192856Y9169080D01*
X12192856Y9169080D02*
X12183332Y9188128D01*
X12183332Y9188128D02*
X12183332Y9264319D01*
X12183332Y9264319D02*
X12192856Y9283366D01*
X12192856Y9283366D02*
X12211903Y9292890D01*
X12211903Y9292890D02*
X12249998Y9292890D01*
X12249998Y9292890D02*
X12269046Y9283366D01*
X12269046Y9283366D02*
X12278570Y9264319D01*
X12278570Y9264319D02*
X12278570Y9245271D01*
X12278570Y9245271D02*
X12183332Y9226223D01*
X12364285Y9159557D02*
X12364285Y9292890D01*
X12364285Y9254795D02*
X12373808Y9273842D01*
X12373808Y9273842D02*
X12383332Y9283366D01*
X12383332Y9283366D02*
X12402380Y9292890D01*
X12402380Y9292890D02*
X12421427Y9292890D01*
X10621428Y9509557D02*
X10621428Y9709557D01*
X10621428Y9709557D02*
X10669047Y9709557D01*
X10669047Y9709557D02*
X10697618Y9700033D01*
X10697618Y9700033D02*
X10716666Y9680985D01*
X10716666Y9680985D02*
X10726189Y9661938D01*
X10726189Y9661938D02*
X10735713Y9623842D01*
X10735713Y9623842D02*
X10735713Y9595271D01*
X10735713Y9595271D02*
X10726189Y9557176D01*
X10726189Y9557176D02*
X10716666Y9538128D01*
X10716666Y9538128D02*
X10697618Y9519080D01*
X10697618Y9519080D02*
X10669047Y9509557D01*
X10669047Y9509557D02*
X10621428Y9509557D01*
X10821428Y9509557D02*
X10821428Y9642890D01*
X10821428Y9709557D02*
X10811904Y9700033D01*
X10811904Y9700033D02*
X10821428Y9690509D01*
X10821428Y9690509D02*
X10830951Y9700033D01*
X10830951Y9700033D02*
X10821428Y9709557D01*
X10821428Y9709557D02*
X10821428Y9690509D01*
X10916666Y9509557D02*
X10916666Y9642890D01*
X10916666Y9604795D02*
X10926189Y9623842D01*
X10926189Y9623842D02*
X10935713Y9633366D01*
X10935713Y9633366D02*
X10954761Y9642890D01*
X10954761Y9642890D02*
X10973808Y9642890D01*
X11116666Y9519080D02*
X11097618Y9509557D01*
X11097618Y9509557D02*
X11059523Y9509557D01*
X11059523Y9509557D02*
X11040476Y9519080D01*
X11040476Y9519080D02*
X11030952Y9538128D01*
X11030952Y9538128D02*
X11030952Y9614319D01*
X11030952Y9614319D02*
X11040476Y9633366D01*
X11040476Y9633366D02*
X11059523Y9642890D01*
X11059523Y9642890D02*
X11097618Y9642890D01*
X11097618Y9642890D02*
X11116666Y9633366D01*
X11116666Y9633366D02*
X11126190Y9614319D01*
X11126190Y9614319D02*
X11126190Y9595271D01*
X11126190Y9595271D02*
X11030952Y9576223D01*
X11297619Y9519080D02*
X11278571Y9509557D01*
X11278571Y9509557D02*
X11240476Y9509557D01*
X11240476Y9509557D02*
X11221428Y9519080D01*
X11221428Y9519080D02*
X11211905Y9528604D01*
X11211905Y9528604D02*
X11202381Y9547652D01*
X11202381Y9547652D02*
X11202381Y9604795D01*
X11202381Y9604795D02*
X11211905Y9623842D01*
X11211905Y9623842D02*
X11221428Y9633366D01*
X11221428Y9633366D02*
X11240476Y9642890D01*
X11240476Y9642890D02*
X11278571Y9642890D01*
X11278571Y9642890D02*
X11297619Y9633366D01*
X11354762Y9642890D02*
X11430953Y9642890D01*
X11383334Y9709557D02*
X11383334Y9538128D01*
X11383334Y9538128D02*
X11392857Y9519080D01*
X11392857Y9519080D02*
X11411905Y9509557D01*
X11411905Y9509557D02*
X11430953Y9509557D01*
X11526191Y9509557D02*
X11507143Y9519080D01*
X11507143Y9519080D02*
X11497620Y9538128D01*
X11497620Y9538128D02*
X11497620Y9709557D01*
X11583334Y9642890D02*
X11630953Y9509557D01*
X11678572Y9642890D02*
X11630953Y9509557D01*
X11630953Y9509557D02*
X11611905Y9461938D01*
X11611905Y9461938D02*
X11602382Y9452414D01*
X11602382Y9452414D02*
X11583334Y9442890D01*
X11973810Y9614319D02*
X12002382Y9604795D01*
X12002382Y9604795D02*
X12011905Y9595271D01*
X12011905Y9595271D02*
X12021429Y9576223D01*
X12021429Y9576223D02*
X12021429Y9547652D01*
X12021429Y9547652D02*
X12011905Y9528604D01*
X12011905Y9528604D02*
X12002382Y9519080D01*
X12002382Y9519080D02*
X11983334Y9509557D01*
X11983334Y9509557D02*
X11907144Y9509557D01*
X11907144Y9509557D02*
X11907144Y9709557D01*
X11907144Y9709557D02*
X11973810Y9709557D01*
X11973810Y9709557D02*
X11992858Y9700033D01*
X11992858Y9700033D02*
X12002382Y9690509D01*
X12002382Y9690509D02*
X12011905Y9671461D01*
X12011905Y9671461D02*
X12011905Y9652414D01*
X12011905Y9652414D02*
X12002382Y9633366D01*
X12002382Y9633366D02*
X11992858Y9623842D01*
X11992858Y9623842D02*
X11973810Y9614319D01*
X11973810Y9614319D02*
X11907144Y9614319D01*
X12183334Y9519080D02*
X12164286Y9509557D01*
X12164286Y9509557D02*
X12126191Y9509557D01*
X12126191Y9509557D02*
X12107144Y9519080D01*
X12107144Y9519080D02*
X12097620Y9538128D01*
X12097620Y9538128D02*
X12097620Y9614319D01*
X12097620Y9614319D02*
X12107144Y9633366D01*
X12107144Y9633366D02*
X12126191Y9642890D01*
X12126191Y9642890D02*
X12164286Y9642890D01*
X12164286Y9642890D02*
X12183334Y9633366D01*
X12183334Y9633366D02*
X12192858Y9614319D01*
X12192858Y9614319D02*
X12192858Y9595271D01*
X12192858Y9595271D02*
X12097620Y9576223D01*
X12307144Y9509557D02*
X12288096Y9519080D01*
X12288096Y9519080D02*
X12278573Y9538128D01*
X12278573Y9538128D02*
X12278573Y9709557D01*
X12411906Y9509557D02*
X12392858Y9519080D01*
X12392858Y9519080D02*
X12383335Y9528604D01*
X12383335Y9528604D02*
X12373811Y9547652D01*
X12373811Y9547652D02*
X12373811Y9604795D01*
X12373811Y9604795D02*
X12383335Y9623842D01*
X12383335Y9623842D02*
X12392858Y9633366D01*
X12392858Y9633366D02*
X12411906Y9642890D01*
X12411906Y9642890D02*
X12440477Y9642890D01*
X12440477Y9642890D02*
X12459525Y9633366D01*
X12459525Y9633366D02*
X12469049Y9623842D01*
X12469049Y9623842D02*
X12478573Y9604795D01*
X12478573Y9604795D02*
X12478573Y9547652D01*
X12478573Y9547652D02*
X12469049Y9528604D01*
X12469049Y9528604D02*
X12459525Y9519080D01*
X12459525Y9519080D02*
X12440477Y9509557D01*
X12440477Y9509557D02*
X12411906Y9509557D01*
X12545239Y9642890D02*
X12583334Y9509557D01*
X12583334Y9509557D02*
X12621429Y9604795D01*
X12621429Y9604795D02*
X12659525Y9509557D01*
X12659525Y9509557D02*
X12697620Y9642890D01*
M02*
