%TF.GenerationSoftware,KiCad,Pcbnew,9.0.1-9.0.1-0~ubuntu22.04.1*%
%TF.CreationDate,2025-04-16T22:26:59+05:30*%
%TF.ProjectId,BEEWATCH MK2,42454557-4154-4434-9820-4d4b322e6b69,rev?*%
%TF.SameCoordinates,Original*%
%TF.FileFunction,Paste,Bot*%
%TF.FilePolarity,Positive*%
%FSLAX46Y46*%
G04 Gerber Fmt 4.6, Leading zero omitted, Abs format (unit mm)*
G04 Created by KiCad (PCBNEW 9.0.1-9.0.1-0~ubuntu22.04.1) date 2025-04-16 22:26:59*
%MOMM*%
%LPD*%
G01*
G04 APERTURE LIST*
G04 Aperture macros list*
%AMRoundRect*
0 Rectangle with rounded corners*
0 $1 Rounding radius*
0 $2 $3 $4 $5 $6 $7 $8 $9 X,Y pos of 4 corners*
0 Add a 4 corners polygon primitive as box body*
4,1,4,$2,$3,$4,$5,$6,$7,$8,$9,$2,$3,0*
0 Add four circle primitives for the rounded corners*
1,1,$1+$1,$2,$3*
1,1,$1+$1,$4,$5*
1,1,$1+$1,$6,$7*
1,1,$1+$1,$8,$9*
0 Add four rect primitives between the rounded corners*
20,1,$1+$1,$2,$3,$4,$5,0*
20,1,$1+$1,$4,$5,$6,$7,0*
20,1,$1+$1,$6,$7,$8,$9,0*
20,1,$1+$1,$8,$9,$2,$3,0*%
%AMRotRect*
0 Rectangle, with rotation*
0 The origin of the aperture is its center*
0 $1 length*
0 $2 width*
0 $3 Rotation angle, in degrees counterclockwise*
0 Add horizontal line*
21,1,$1,$2,0,0,$3*%
G04 Aperture macros list end*
%ADD10RoundRect,0.160000X-0.197500X-0.160000X0.197500X-0.160000X0.197500X0.160000X-0.197500X0.160000X0*%
%ADD11RoundRect,0.150000X-0.150000X0.587500X-0.150000X-0.587500X0.150000X-0.587500X0.150000X0.587500X0*%
%ADD12RoundRect,0.160000X-0.160000X0.197500X-0.160000X-0.197500X0.160000X-0.197500X0.160000X0.197500X0*%
%ADD13RoundRect,0.160000X-0.252791X0.026517X0.026517X-0.252791X0.252791X-0.026517X-0.026517X0.252791X0*%
%ADD14R,0.740000X2.400000*%
%ADD15R,1.570000X1.600000*%
%ADD16R,1.150000X0.300000*%
%ADD17RoundRect,0.160000X0.197500X0.160000X-0.197500X0.160000X-0.197500X-0.160000X0.197500X-0.160000X0*%
%ADD18RoundRect,0.125000X0.125000X-0.125000X0.125000X0.125000X-0.125000X0.125000X-0.125000X-0.125000X0*%
%ADD19RoundRect,0.225000X0.250000X-0.225000X0.250000X0.225000X-0.250000X0.225000X-0.250000X-0.225000X0*%
%ADD20RoundRect,0.150000X-0.587500X-0.150000X0.587500X-0.150000X0.587500X0.150000X-0.587500X0.150000X0*%
%ADD21RotRect,1.400000X1.500000X315.000000*%
%ADD22RoundRect,0.160000X-0.026517X-0.252791X0.252791X0.026517X0.026517X0.252791X-0.252791X-0.026517X0*%
%ADD23RotRect,1.400000X1.500000X45.000000*%
%ADD24RoundRect,0.160000X0.160000X-0.197500X0.160000X0.197500X-0.160000X0.197500X-0.160000X-0.197500X0*%
G04 APERTURE END LIST*
D10*
%TO.C,R9*%
X7152500Y10650000D03*
X8347500Y10650000D03*
%TD*%
D11*
%TO.C,Q2*%
X5850000Y-15462500D03*
X7750000Y-15462500D03*
X6800000Y-17337500D03*
%TD*%
D12*
%TO.C,R17*%
X-5200000Y-13402500D03*
X-5200000Y-14597500D03*
%TD*%
D10*
%TO.C,R29*%
X-4397500Y10100000D03*
X-3202500Y10100000D03*
%TD*%
%TO.C,R2*%
X-10897500Y1500000D03*
X-9702500Y1500000D03*
%TD*%
D13*
%TO.C,R3*%
X-8522496Y14722496D03*
X-7677504Y13877504D03*
%TD*%
D14*
%TO.C,J4*%
X-45625000Y-14300000D03*
X-45625000Y-18200000D03*
X-44355000Y-14300000D03*
X-44355000Y-18200000D03*
X-43085000Y-14300000D03*
X-43085000Y-18200000D03*
X-41815000Y-14300000D03*
X-41815000Y-18200000D03*
X-40545000Y-14300000D03*
X-40545000Y-18200000D03*
X-39275000Y-14300000D03*
X-39275000Y-18200000D03*
%TD*%
D15*
%TO.C,BZ1*%
X4500000Y13750000D03*
X-4500000Y13750000D03*
%TD*%
D12*
%TO.C,R19*%
X-5300000Y-16100000D03*
X-5300000Y-17295000D03*
%TD*%
D16*
%TO.C,J1*%
X-13430000Y-3350000D03*
X-13430000Y-2550000D03*
X-13430000Y-1250000D03*
X-13430000Y-250000D03*
X-13430000Y250000D03*
X-13430000Y1250000D03*
X-13430000Y2550000D03*
X-13430000Y3350000D03*
X-13430000Y3050000D03*
X-13430000Y2250000D03*
X-13430000Y1750000D03*
X-13430000Y750000D03*
X-13430000Y-750000D03*
X-13430000Y-1750000D03*
X-13430000Y-2250000D03*
X-13430000Y-3050000D03*
%TD*%
D17*
%TO.C,R30*%
X3953579Y10150000D03*
X2758579Y10150000D03*
%TD*%
D18*
%TO.C,D4*%
X6500000Y15300000D03*
X6500000Y17500000D03*
%TD*%
D19*
%TO.C,C18*%
X-6600000Y-17495000D03*
X-6600000Y-15945000D03*
%TD*%
D20*
%TO.C,Q1*%
X8462500Y11950000D03*
X8462500Y13850000D03*
X10337500Y12900000D03*
%TD*%
D10*
%TO.C,R1*%
X-10897500Y-1400000D03*
X-9702500Y-1400000D03*
%TD*%
D21*
%TO.C,SW1*%
X-15252691Y11151472D03*
X-11151472Y15252691D03*
X-12848528Y8747309D03*
X-8747309Y12848528D03*
%TD*%
D12*
%TO.C,R10*%
X6650000Y13297500D03*
X6650000Y12102500D03*
%TD*%
D22*
%TO.C,R5*%
X-15683120Y-9183120D03*
X-14838128Y-8338128D03*
%TD*%
D14*
%TO.C,J3*%
X-3175000Y-14350000D03*
X-3175000Y-18250000D03*
X-1905000Y-14350000D03*
X-1905000Y-18250000D03*
X-635000Y-14350000D03*
X-635000Y-18250000D03*
X635000Y-14350000D03*
X635000Y-18250000D03*
X1905000Y-14350000D03*
X1905000Y-18250000D03*
X3175000Y-14350000D03*
X3175000Y-18250000D03*
%TD*%
D23*
%TO.C,SW2*%
X-11151472Y-15252691D03*
X-15252691Y-11151472D03*
X-8747309Y-12848528D03*
X-12848528Y-8747309D03*
%TD*%
D24*
%TO.C,R53*%
X-4500000Y11202500D03*
X-4500000Y12397500D03*
%TD*%
D10*
%TO.C,R18*%
X6252500Y-13762500D03*
X7447500Y-13762500D03*
%TD*%
M02*
