M48
; DRILL file {KiCad 9.0.1-9.0.1-0~ubuntu22.04.1} date 2025-05-08T23:53:08+0530
; FORMAT={-:-/ absolute / metric / decimal}
; #@! TF.CreationDate,2025-05-08T23:53:08+05:30
; #@! TF.GenerationSoftware,Kicad,Pcbnew,9.0.1-9.0.1-0~ubuntu22.04.1
; #@! TF.FileFunction,Plated,1,4,PTH
FMAT,2
METRIC
; #@! TA.AperFunction,Plated,PTH,ViaDrill
T1C0.250
; #@! TA.AperFunction,Plated,PTH,ComponentDrill
T2C0.600
; #@! TA.AperFunction,Plated,PTH,ComponentDrill
T3C1.000
%
G90
G05
T1
X387.301Y-335.482
X387.932Y-304.683
X388.704Y-308.433
X389.001Y-334.082
X390.201Y-334.082
X390.782Y-304.183
X390.782Y-308.433
X391.501Y-334.082
X391.532Y-304.183
X391.542Y-309.127
X392.182Y-304.183
X392.182Y-308.433
X392.701Y-334.182
X392.904Y-310.083
X393.604Y-311.384
X394.001Y-316.782
X394.101Y-334.082
X394.304Y-312.484
X395.004Y-313.484
X395.301Y-316.782
X395.801Y-309.595
X396.382Y-308.433
X397.332Y-304.683
X409.751Y-319.982
X410.601Y-313.282
X410.992Y-316.532
X416.082Y-324.483
X416.432Y-315.483
X416.432Y-317.683
X416.742Y-325.827
X417.342Y-327.027
X417.61Y-308.518
X417.932Y-312.583
X417.942Y-328.127
X418.178Y-311.129
X418.632Y-321.783
X419.032Y-310.083
X419.032Y-311.683
X419.332Y-315.583
X419.432Y-325.183
X419.632Y-310.833
X419.642Y-317.577
X420.292Y-308.427
X420.432Y-311.633
X420.792Y-307.927
X421.132Y-323.583
X421.242Y-307.477
X421.692Y-307.027
X422.042Y-305.733
X422.242Y-306.627
X422.367Y-325.126
X422.532Y-311.683
X422.615Y-315.633
X422.732Y-319.683
X423.132Y-326.283
X423.332Y-327.383
X423.382Y-330.883
X424.142Y-334.383
X424.218Y-330.013
X424.232Y-324.983
X424.246Y-320.033
X424.257Y-326.483
X424.307Y-317.946
X424.332Y-311.783
X424.632Y-301.652
X424.632Y-328.383
X424.632Y-329.583
X424.91Y-309.362
X424.932Y-329.083
X425.323Y-322.633
X425.332Y-335.027
X425.482Y-320.783
X425.532Y-324.683
X426.2Y-328.043
X426.432Y-334.383
X426.532Y-335.283
X427.142Y-304.977
X427.242Y-302.877
X427.282Y-326.499
X427.492Y-314.127
X427.53Y-319.359
X427.532Y-331.983
X427.894Y-317.1
X427.923Y-306.524
X427.923Y-308.533
X427.932Y-299.383
X427.932Y-300.083
X427.942Y-326.127
X428.115Y-329.065
X428.197Y-301.914
X428.332Y-323.583
X428.334Y-319.359
X428.532Y-336.183
X428.623Y-308.812
X428.629Y-332.977
X429.032Y-316.283
X429.432Y-315.783
X429.508Y-330.045
X429.969Y-330.608
X430.135Y-308.686
X430.286Y-311.192
X430.332Y-336.883
X430.432Y-335.983
X430.482Y-321.434
X430.532Y-328.983
X430.532Y-333.383
X431.002Y-324.125
X431.432Y-315.509
X431.529Y-328.164
X431.628Y-314.309
X432.018Y-316.069
X432.132Y-307.983
X432.492Y-328.027
X432.492Y-330.377
X432.499Y-322.39
X432.609Y-333.914
X432.642Y-324.227
X432.767Y-319.042
X432.984Y-315.135
X433.249Y-330.472
X433.265Y-329.6
X433.3Y-318.436
X433.432Y-325.383
X433.807Y-321.266
X434.06Y-319.126
X434.093Y-318.326
X434.12Y-330.408
X434.36Y-324.22
X434.535Y-326.315
X434.732Y-303.033
X434.732Y-305.383
X434.74Y-319.371
X434.826Y-317.477
X434.899Y-329.059
X434.932Y-318.637
X435.308Y-325.381
X435.799Y-330.518
X436.032Y-308.383
X436.065Y-328.678
X436.292Y-316.927
X436.492Y-322.477
X436.492Y-324.427
X436.56Y-315.775
X436.967Y-329.948
X437.2Y-323.051
X437.242Y-319.127
X437.348Y-311.133
X437.592Y-308.377
X437.792Y-319.727
X437.892Y-320.604
X438.101Y-318.297
X438.15Y-319.035
X438.183Y-321.548
X438.185Y-324.019
X438.22Y-316.721
X438.423Y-336.033
X438.432Y-336.783
X438.51Y-331.97
X438.523Y-306.833
X438.732Y-335.183
X438.742Y-322.027
X438.823Y-317.833
X439.088Y-328.367
X439.116Y-324.017
X439.132Y-305.283
X439.132Y-306.083
X439.132Y-332.883
X439.182Y-307.133
X439.323Y-330.033
X439.345Y-313.952
X439.482Y-336.527
X439.524Y-317.629
X439.889Y-315.873
X439.892Y-322.427
X440.023Y-330.733
X440.066Y-324.017
X440.232Y-309.583
X440.305Y-318.415
X440.416Y-327.497
X440.542Y-336.227
X440.651Y-322.316
X440.811Y-323.962
X440.932Y-316.983
X441.092Y-318.727
X441.232Y-303.483
X441.337Y-309.588
X441.432Y-299.383
X441.523Y-330.708
X441.632Y-301.908
X441.787Y-314.492
X441.792Y-308.827
X441.832Y-308.083
X441.942Y-300.127
X441.965Y-322.217
X441.965Y-324.017
X442.123Y-326.383
X442.142Y-335.727
X442.214Y-330.225
X442.432Y-302.783
X442.498Y-317.384
X442.632Y-325.783
X442.782Y-311.883
X442.915Y-322.217
X442.915Y-324.017
X442.995Y-303.021
X443.282Y-335.227
X443.414Y-329.025
X443.532Y-326.983
X443.632Y-332.283
X443.865Y-322.217
X443.865Y-324.017
X443.932Y-302.383
X443.932Y-314.883
X443.942Y-318.927
X444.023Y-327.483
X444.023Y-328.451
X444.332Y-324.983
X444.332Y-326.183
X444.342Y-334.627
X445.0Y-322.217
X445.0Y-324.017
X445.242Y-318.327
X445.432Y-302.683
X445.532Y-333.927
X445.533Y-313.439
X445.713Y-330.283
X445.862Y-312.725
X446.132Y-324.983
X446.132Y-326.183
X446.132Y-327.383
X446.132Y-328.583
X446.132Y-329.718
X446.332Y-302.783
X446.552Y-324.017
X446.632Y-316.248
X446.632Y-317.448
X446.632Y-318.648
X446.632Y-319.783
X446.632Y-320.983
X446.642Y-333.127
X446.686Y-315.102
X447.932Y-324.983
X447.932Y-326.183
X447.932Y-327.383
X447.932Y-328.583
X447.932Y-329.718
X448.032Y-304.283
X448.642Y-312.683
X448.642Y-331.227
X449.732Y-312.383
X449.732Y-313.518
X449.732Y-324.983
X449.732Y-326.183
X449.732Y-327.383
X449.732Y-328.583
X449.732Y-329.718
X450.532Y-306.883
X450.532Y-309.183
X451.532Y-308.883
X451.532Y-310.083
X451.532Y-311.283
X451.532Y-312.418
X451.532Y-313.518
X451.532Y-324.983
X451.532Y-326.183
X451.532Y-327.383
X453.332Y-312.418
X453.332Y-313.518
T3
X423.832Y-314.583
X423.832Y-321.783
T2
G00X416.057Y-313.463
M15
G01X416.657Y-313.463
M16
G05
G00X416.057Y-322.103
M15
G01X416.657Y-322.103
M16
G05
G00X419.987Y-313.463
M15
G01X421.087Y-313.463
M16
G05
G00X419.987Y-322.103
M15
G01X421.087Y-322.103
M16
G05
M30
