%TF.GenerationSoftware,KiCad,Pcbnew,9.0.1-9.0.1-0~ubuntu22.04.1*%
%TF.CreationDate,2025-05-08T23:44:46+05:30*%
%TF.ProjectId,BEEWATCH MK2,42454557-4154-4434-9820-4d4b322e6b69,A*%
%TF.SameCoordinates,Original*%
%TF.FileFunction,Drillmap*%
%TF.FilePolarity,Positive*%
%FSLAX45Y45*%
G04 Gerber Fmt 4.5, Leading zero omitted, Abs format (unit mm)*
G04 Created by KiCad (PCBNEW 9.0.1-9.0.1-0~ubuntu22.04.1) date 2025-05-08 23:44:46*
%MOMM*%
%LPD*%
G01*
G04 APERTURE LIST*
%ADD10C,0.100000*%
%ADD11C,0.200000*%
G04 APERTURE END LIST*
D10*
X41454021Y-32011343D02*
X41459028Y-32042232D01*
X39438922Y-34031061D02*
X43219162Y-34030246D01*
X38944577Y-33773824D02*
G75*
G02*
X41200022Y-31545343I254931J1997592D01*
G01*
X43002253Y-30178343D02*
X43932253Y-30178343D01*
X38972922Y-34031061D02*
X37184164Y-34031061D01*
X45464163Y-34542743D02*
X37184164Y-34542743D01*
X43932253Y-30178343D02*
X43932253Y-29823343D01*
X43685162Y-34030246D02*
X45464163Y-34030246D01*
X37184164Y-34031061D02*
X37184164Y-34542743D01*
X43002334Y-29816775D02*
X43002253Y-30178343D01*
X45464163Y-34030246D02*
X45464163Y-34542743D01*
X43685162Y-33776246D02*
X43703882Y-33775508D01*
X38944577Y-33773824D02*
X38972922Y-33777249D01*
X43219160Y-33776246D02*
G75*
G02*
X41459027Y-32042233I234050J1997906D01*
G01*
X41200839Y-32011440D02*
G75*
G02*
X39438922Y-33777061I-2001329J235210D01*
G01*
X41454021Y-31545343D02*
G75*
G02*
X43002333Y-29816771I1999189J-232997D01*
G01*
X43932253Y-29823343D02*
G75*
G02*
X43703882Y-33775508I-479045J-1955000D01*
G01*
X38972922Y-33777061D02*
G75*
G02*
X38972922Y-34031061I0J-127000D01*
G01*
X39438922Y-34031061D02*
G75*
G02*
X39438922Y-33777061I0J127000D01*
G01*
X41200021Y-32011343D02*
G75*
G02*
X41454021Y-32011343I127000J0D01*
G01*
X41454021Y-31545343D02*
G75*
G02*
X41200021Y-31545343I-127000J0D01*
G01*
X43219162Y-33776246D02*
G75*
G02*
X43219162Y-34030246I0J-127000D01*
G01*
X43685162Y-34030246D02*
G75*
G02*
X43685162Y-33776246I0J127000D01*
G01*
D11*
D10*
X38717615Y-33535670D02*
X38742615Y-33560670D01*
X38742615Y-33535670D02*
X38717615Y-33560670D01*
X38780708Y-30455843D02*
X38805708Y-30480843D01*
X38805708Y-30455843D02*
X38780708Y-30480843D01*
X38857881Y-30830843D02*
X38882881Y-30855843D01*
X38882881Y-30830843D02*
X38857881Y-30855843D01*
X38887615Y-33395670D02*
X38912615Y-33420670D01*
X38912615Y-33395670D02*
X38887615Y-33420670D01*
X39007615Y-33395670D02*
X39032615Y-33420670D01*
X39032615Y-33395670D02*
X39007615Y-33420670D01*
X39065708Y-30405843D02*
X39090708Y-30430843D01*
X39090708Y-30405843D02*
X39065708Y-30430843D01*
X39065708Y-30830843D02*
X39090708Y-30855843D01*
X39090708Y-30830843D02*
X39065708Y-30855843D01*
X39137615Y-33395670D02*
X39162615Y-33420670D01*
X39162615Y-33395670D02*
X39137615Y-33420670D01*
X39140708Y-30405843D02*
X39165708Y-30430843D01*
X39165708Y-30405843D02*
X39140708Y-30430843D01*
X39141664Y-30900243D02*
X39166664Y-30925243D01*
X39166664Y-30900243D02*
X39141664Y-30925243D01*
X39205708Y-30405843D02*
X39230708Y-30430843D01*
X39230708Y-30405843D02*
X39205708Y-30430843D01*
X39205708Y-30830843D02*
X39230708Y-30855843D01*
X39230708Y-30830843D02*
X39205708Y-30855843D01*
X39257615Y-33405670D02*
X39282615Y-33430670D01*
X39282615Y-33405670D02*
X39257615Y-33430670D01*
X39277881Y-30995843D02*
X39302881Y-31020843D01*
X39302881Y-30995843D02*
X39277881Y-31020843D01*
X39347881Y-31125936D02*
X39372881Y-31150936D01*
X39372881Y-31125936D02*
X39347881Y-31150936D01*
X39387615Y-31665670D02*
X39412615Y-31690670D01*
X39412615Y-31665670D02*
X39387615Y-31690670D01*
X39397615Y-33395670D02*
X39422615Y-33420670D01*
X39422615Y-33395670D02*
X39397615Y-33420670D01*
X39417881Y-31235936D02*
X39442881Y-31260936D01*
X39442881Y-31235936D02*
X39417881Y-31260936D01*
X39487881Y-31335936D02*
X39512881Y-31360936D01*
X39512881Y-31335936D02*
X39487881Y-31360936D01*
X39517615Y-31665670D02*
X39542615Y-31690670D01*
X39542615Y-31665670D02*
X39517615Y-31690670D01*
X39567615Y-30946987D02*
X39592615Y-30971987D01*
X39592615Y-30946987D02*
X39567615Y-30971987D01*
X39625708Y-30830843D02*
X39650708Y-30855843D01*
X39650708Y-30830843D02*
X39625708Y-30855843D01*
X39720708Y-30455843D02*
X39745708Y-30480843D01*
X39745708Y-30455843D02*
X39720708Y-30480843D01*
X40962615Y-31985670D02*
X40987615Y-32010670D01*
X40987615Y-31985670D02*
X40962615Y-32010670D01*
X41047615Y-31315670D02*
X41072615Y-31340670D01*
X41072615Y-31315670D02*
X41047615Y-31340670D01*
X41086660Y-31640670D02*
X41111660Y-31665670D01*
X41111660Y-31640670D02*
X41086660Y-31665670D01*
X41595708Y-32435843D02*
X41620708Y-32460843D01*
X41620708Y-32435843D02*
X41595708Y-32460843D01*
X41630708Y-31535843D02*
X41655708Y-31560843D01*
X41655708Y-31535843D02*
X41630708Y-31560843D01*
X41630708Y-31755843D02*
X41655708Y-31780843D01*
X41655708Y-31755843D02*
X41630708Y-31780843D01*
X41661664Y-32570243D02*
X41686664Y-32595243D01*
X41686664Y-32570243D02*
X41661664Y-32595243D01*
X41721664Y-32690243D02*
X41746664Y-32715243D01*
X41746664Y-32690243D02*
X41721664Y-32715243D01*
X41748458Y-30839299D02*
X41773458Y-30864299D01*
X41773458Y-30839299D02*
X41748458Y-30864299D01*
X41780708Y-31245843D02*
X41805708Y-31270843D01*
X41805708Y-31245843D02*
X41780708Y-31270843D01*
X41781664Y-32800243D02*
X41806664Y-32825243D01*
X41806664Y-32800243D02*
X41781664Y-32825243D01*
X41805309Y-31100445D02*
X41830309Y-31125445D01*
X41830309Y-31100445D02*
X41805309Y-31125445D01*
X41850708Y-32165843D02*
X41875708Y-32190843D01*
X41875708Y-32165843D02*
X41850708Y-32190843D01*
X41890708Y-30995843D02*
X41915708Y-31020843D01*
X41915708Y-30995843D02*
X41890708Y-31020843D01*
X41890708Y-31155843D02*
X41915708Y-31180843D01*
X41915708Y-31155843D02*
X41890708Y-31180843D01*
X41920708Y-31545843D02*
X41945708Y-31570843D01*
X41945708Y-31545843D02*
X41920708Y-31570843D01*
X41930708Y-32505843D02*
X41955708Y-32530843D01*
X41955708Y-32505843D02*
X41930708Y-32530843D01*
X41950708Y-31070843D02*
X41975708Y-31095843D01*
X41975708Y-31070843D02*
X41950708Y-31095843D01*
X41951664Y-31745243D02*
X41976664Y-31770243D01*
X41976664Y-31745243D02*
X41951664Y-31770243D01*
X42016664Y-30830243D02*
X42041664Y-30855243D01*
X42041664Y-30830243D02*
X42016664Y-30855243D01*
X42030708Y-31150843D02*
X42055708Y-31175843D01*
X42055708Y-31150843D02*
X42030708Y-31175843D01*
X42066664Y-30780243D02*
X42091664Y-30805243D01*
X42091664Y-30780243D02*
X42066664Y-30805243D01*
X42100708Y-32345843D02*
X42125708Y-32370843D01*
X42125708Y-32345843D02*
X42100708Y-32370843D01*
X42111664Y-30735243D02*
X42136664Y-30760243D01*
X42136664Y-30735243D02*
X42111664Y-30760243D01*
X42156664Y-30690243D02*
X42181664Y-30715243D01*
X42181664Y-30690243D02*
X42156664Y-30715243D01*
X42191664Y-30560843D02*
X42216664Y-30585843D01*
X42216664Y-30560843D02*
X42191664Y-30585843D01*
X42211664Y-30650243D02*
X42236664Y-30675243D01*
X42236664Y-30650243D02*
X42211664Y-30675243D01*
X42224225Y-32500108D02*
X42249225Y-32525108D01*
X42249225Y-32500108D02*
X42224225Y-32525108D01*
X42240708Y-31155843D02*
X42265708Y-31180843D01*
X42265708Y-31155843D02*
X42240708Y-31180843D01*
X42248971Y-31550843D02*
X42273971Y-31575843D01*
X42273971Y-31550843D02*
X42248971Y-31575843D01*
X42260708Y-31955843D02*
X42285708Y-31980843D01*
X42285708Y-31955843D02*
X42260708Y-31980843D01*
X42300708Y-32615843D02*
X42325708Y-32640843D01*
X42325708Y-32615843D02*
X42300708Y-32640843D01*
X42320708Y-32725843D02*
X42345708Y-32750843D01*
X42345708Y-32725843D02*
X42320708Y-32750843D01*
X42325708Y-33075843D02*
X42350708Y-33100843D01*
X42350708Y-33075843D02*
X42325708Y-33100843D01*
X42401664Y-33425843D02*
X42426664Y-33450843D01*
X42426664Y-33425843D02*
X42401664Y-33450843D01*
X42409339Y-32988796D02*
X42434339Y-33013796D01*
X42434339Y-32988796D02*
X42409339Y-33013796D01*
X42410708Y-32485843D02*
X42435708Y-32510843D01*
X42435708Y-32485843D02*
X42410708Y-32510843D01*
X42412108Y-31990843D02*
X42437108Y-32015843D01*
X42437108Y-31990843D02*
X42412108Y-32015843D01*
X42413208Y-32635843D02*
X42438208Y-32660843D01*
X42438208Y-32635843D02*
X42413208Y-32660843D01*
X42418165Y-31782077D02*
X42443165Y-31807077D01*
X42443165Y-31782077D02*
X42418165Y-31807077D01*
X42420708Y-31165843D02*
X42445708Y-31190843D01*
X42445708Y-31165843D02*
X42420708Y-31190843D01*
X42450708Y-30152743D02*
X42475708Y-30177743D01*
X42475708Y-30152743D02*
X42450708Y-30177743D01*
X42450708Y-32825843D02*
X42475708Y-32850843D01*
X42475708Y-32825843D02*
X42450708Y-32850843D01*
X42450708Y-32945843D02*
X42475708Y-32970843D01*
X42475708Y-32945843D02*
X42450708Y-32970843D01*
X42478517Y-30923653D02*
X42503517Y-30948653D01*
X42503517Y-30923653D02*
X42478517Y-30948653D01*
X42480708Y-32895843D02*
X42505708Y-32920843D01*
X42505708Y-32895843D02*
X42480708Y-32920843D01*
X42519753Y-32250843D02*
X42544753Y-32275843D01*
X42544753Y-32250843D02*
X42519753Y-32275843D01*
X42520708Y-33490243D02*
X42545708Y-33515243D01*
X42545708Y-33490243D02*
X42520708Y-33515243D01*
X42535708Y-32065843D02*
X42560708Y-32090843D01*
X42560708Y-32065843D02*
X42535708Y-32090843D01*
X42540708Y-32455843D02*
X42565708Y-32480843D01*
X42565708Y-32455843D02*
X42540708Y-32480843D01*
X42607528Y-32791811D02*
X42632528Y-32816811D01*
X42632528Y-32791811D02*
X42607528Y-32816811D01*
X42630708Y-33425843D02*
X42655708Y-33450843D01*
X42655708Y-33425843D02*
X42630708Y-33450843D01*
X42640708Y-33515843D02*
X42665708Y-33540843D01*
X42665708Y-33515843D02*
X42640708Y-33540843D01*
X42701664Y-30485243D02*
X42726664Y-30510243D01*
X42726664Y-30485243D02*
X42701664Y-30510243D01*
X42711664Y-30275243D02*
X42736664Y-30300243D01*
X42736664Y-30275243D02*
X42711664Y-30300243D01*
X42715708Y-32637399D02*
X42740708Y-32662399D01*
X42740708Y-32637399D02*
X42715708Y-32662399D01*
X42736664Y-31400243D02*
X42761664Y-31425243D01*
X42761664Y-31400243D02*
X42736664Y-31425243D01*
X42740548Y-31923378D02*
X42765548Y-31948378D01*
X42765548Y-31923378D02*
X42740548Y-31948378D01*
X42740708Y-33185843D02*
X42765708Y-33210843D01*
X42765708Y-33185843D02*
X42740708Y-33210843D01*
X42776912Y-31697454D02*
X42801912Y-31722454D01*
X42801912Y-31697454D02*
X42776912Y-31722454D01*
X42779753Y-30639889D02*
X42804753Y-30664889D01*
X42804753Y-30639889D02*
X42779753Y-30664889D01*
X42779753Y-30840843D02*
X42804753Y-30865843D01*
X42804753Y-30840843D02*
X42779753Y-30865843D01*
X42780708Y-29925843D02*
X42805708Y-29950843D01*
X42805708Y-29925843D02*
X42780708Y-29950843D01*
X42780708Y-29995843D02*
X42805708Y-30020843D01*
X42805708Y-29995843D02*
X42780708Y-30020843D01*
X42781664Y-32600243D02*
X42806664Y-32625243D01*
X42806664Y-32600243D02*
X42781664Y-32625243D01*
X42798999Y-32894021D02*
X42823999Y-32919021D01*
X42823999Y-32894021D02*
X42798999Y-32919021D01*
X42807222Y-30178877D02*
X42832222Y-30203877D01*
X42832222Y-30178877D02*
X42807222Y-30203877D01*
X42820708Y-32345843D02*
X42845708Y-32370843D01*
X42845708Y-32345843D02*
X42820708Y-32370843D01*
X42820868Y-31923378D02*
X42845868Y-31948378D01*
X42845868Y-31923378D02*
X42820868Y-31948378D01*
X42840708Y-33605843D02*
X42865708Y-33630843D01*
X42865708Y-33605843D02*
X42840708Y-33630843D01*
X42849753Y-30868653D02*
X42874753Y-30893653D01*
X42874753Y-30868653D02*
X42849753Y-30893653D01*
X42850426Y-33285243D02*
X42875426Y-33310243D01*
X42875426Y-33285243D02*
X42850426Y-33310243D01*
X42890708Y-31615843D02*
X42915708Y-31640843D01*
X42915708Y-31615843D02*
X42890708Y-31640843D01*
X42930708Y-31565843D02*
X42955708Y-31590843D01*
X42955708Y-31565843D02*
X42930708Y-31590843D01*
X42938343Y-32991953D02*
X42963343Y-33016953D01*
X42963343Y-32991953D02*
X42938343Y-33016953D01*
X42984435Y-33048343D02*
X43009435Y-33073343D01*
X43009435Y-33048343D02*
X42984435Y-33073343D01*
X43000958Y-30856093D02*
X43025958Y-30881093D01*
X43025958Y-30856093D02*
X43000958Y-30881093D01*
X43016088Y-31106731D02*
X43041088Y-31131731D01*
X43041088Y-31106731D02*
X43016088Y-31131731D01*
X43020708Y-33675843D02*
X43045708Y-33700843D01*
X43045708Y-33675843D02*
X43020708Y-33700843D01*
X43030708Y-33585843D02*
X43055708Y-33610843D01*
X43055708Y-33585843D02*
X43030708Y-33610843D01*
X43035658Y-32130893D02*
X43060658Y-32155893D01*
X43060658Y-32130893D02*
X43035658Y-32155893D01*
X43040708Y-32885843D02*
X43065708Y-32910843D01*
X43065708Y-32885843D02*
X43040708Y-32910843D01*
X43040708Y-33325843D02*
X43065708Y-33350843D01*
X43065708Y-33325843D02*
X43040708Y-33350843D01*
X43087693Y-32399989D02*
X43112693Y-32424989D01*
X43112693Y-32399989D02*
X43087693Y-32424989D01*
X43130708Y-31538423D02*
X43155708Y-31563423D01*
X43155708Y-31538423D02*
X43130708Y-31563423D01*
X43140408Y-32803933D02*
X43165408Y-32828933D01*
X43165408Y-32803933D02*
X43140408Y-32828933D01*
X43150345Y-31418423D02*
X43175345Y-31443423D01*
X43175345Y-31418423D02*
X43150345Y-31443423D01*
X43189307Y-31594443D02*
X43214307Y-31619443D01*
X43214307Y-31594443D02*
X43189307Y-31619443D01*
X43200708Y-30785843D02*
X43225708Y-30810843D01*
X43225708Y-30785843D02*
X43200708Y-30810843D01*
X43236664Y-32790243D02*
X43261664Y-32815243D01*
X43261664Y-32790243D02*
X43236664Y-32815243D01*
X43236664Y-33025243D02*
X43261664Y-33050243D01*
X43261664Y-33025243D02*
X43236664Y-33050243D01*
X43237353Y-32226486D02*
X43262353Y-32251486D01*
X43262353Y-32226486D02*
X43237353Y-32251486D01*
X43248375Y-33378924D02*
X43273375Y-33403924D01*
X43273375Y-33378924D02*
X43248375Y-33403924D01*
X43251664Y-32410243D02*
X43276664Y-32435243D01*
X43276664Y-32410243D02*
X43251664Y-32435243D01*
X43264209Y-31891654D02*
X43289209Y-31916654D01*
X43289209Y-31891654D02*
X43264209Y-31916654D01*
X43285886Y-31501021D02*
X43310886Y-31526021D01*
X43310886Y-31501021D02*
X43285886Y-31526021D01*
X43312363Y-33034663D02*
X43337363Y-33059663D01*
X43337363Y-33034663D02*
X43312363Y-33059663D01*
X43314030Y-32947455D02*
X43339030Y-32972455D01*
X43339030Y-32947455D02*
X43314030Y-32972455D01*
X43317519Y-31831062D02*
X43342519Y-31856062D01*
X43342519Y-31831062D02*
X43317519Y-31856062D01*
X43330708Y-32525843D02*
X43355708Y-32550843D01*
X43355708Y-32525843D02*
X43330708Y-32550843D01*
X43368187Y-32114067D02*
X43393187Y-32139067D01*
X43393187Y-32114067D02*
X43368187Y-32139067D01*
X43393549Y-31900057D02*
X43418549Y-31925057D01*
X43418549Y-31900057D02*
X43393549Y-31925057D01*
X43396768Y-31820121D02*
X43421768Y-31845121D01*
X43421768Y-31820121D02*
X43396768Y-31845121D01*
X43399510Y-33028343D02*
X43424510Y-33053343D01*
X43424510Y-33028343D02*
X43399510Y-33053343D01*
X43423452Y-32409542D02*
X43448452Y-32434542D01*
X43448452Y-32409542D02*
X43423452Y-32434542D01*
X43441027Y-32618966D02*
X43466027Y-32643966D01*
X43466027Y-32618966D02*
X43441027Y-32643966D01*
X43460708Y-30290843D02*
X43485708Y-30315843D01*
X43485708Y-30290843D02*
X43460708Y-30315843D01*
X43460708Y-30525843D02*
X43485708Y-30550843D01*
X43485708Y-30525843D02*
X43460708Y-30550843D01*
X43461459Y-31924646D02*
X43486459Y-31949646D01*
X43486459Y-31924646D02*
X43461459Y-31949646D01*
X43470100Y-31735243D02*
X43495100Y-31760243D01*
X43495100Y-31735243D02*
X43470100Y-31760243D01*
X43477375Y-32893448D02*
X43502375Y-32918448D01*
X43502375Y-32893448D02*
X43477375Y-32918448D01*
X43480687Y-31851234D02*
X43505687Y-31876234D01*
X43505687Y-31851234D02*
X43480687Y-31876234D01*
X43518289Y-32525557D02*
X43543289Y-32550557D01*
X43543289Y-32525557D02*
X43518289Y-32550557D01*
X43567410Y-33039251D02*
X43592410Y-33064251D01*
X43592410Y-33039251D02*
X43567410Y-33064251D01*
X43590708Y-30825843D02*
X43615708Y-30850843D01*
X43615708Y-30825843D02*
X43590708Y-30850843D01*
X43593974Y-32855341D02*
X43618974Y-32880341D01*
X43618974Y-32855341D02*
X43593974Y-32880341D01*
X43616664Y-31680243D02*
X43641664Y-31705243D01*
X43641664Y-31680243D02*
X43616664Y-31705243D01*
X43636664Y-32235243D02*
X43661664Y-32260243D01*
X43661664Y-32235243D02*
X43636664Y-32260243D01*
X43636664Y-32430243D02*
X43661664Y-32455243D01*
X43661664Y-32430243D02*
X43636664Y-32455243D01*
X43643520Y-31565036D02*
X43668520Y-31590036D01*
X43668520Y-31565036D02*
X43643520Y-31590036D01*
X43684164Y-32982333D02*
X43709164Y-33007333D01*
X43709164Y-32982333D02*
X43684164Y-33007333D01*
X43707550Y-32292578D02*
X43732550Y-32317578D01*
X43732550Y-32292578D02*
X43707550Y-32317578D01*
X43711664Y-31900243D02*
X43736664Y-31925243D01*
X43736664Y-31900243D02*
X43711664Y-31925243D01*
X43722333Y-31100843D02*
X43747333Y-31125843D01*
X43747333Y-31100843D02*
X43722333Y-31125843D01*
X43746664Y-30825243D02*
X43771664Y-30850243D01*
X43771664Y-30825243D02*
X43746664Y-30850243D01*
X43766664Y-31960243D02*
X43791664Y-31985243D01*
X43791664Y-31960243D02*
X43766664Y-31985243D01*
X43776664Y-32047903D02*
X43801664Y-32072903D01*
X43801664Y-32047903D02*
X43776664Y-32072903D01*
X43797582Y-31817215D02*
X43822582Y-31842215D01*
X43822582Y-31817215D02*
X43797582Y-31842215D01*
X43802487Y-31891001D02*
X43827487Y-31916001D01*
X43827487Y-31891001D02*
X43802487Y-31916001D01*
X43805792Y-32142313D02*
X43830792Y-32167313D01*
X43830792Y-32142313D02*
X43805792Y-32167313D01*
X43805981Y-32389376D02*
X43830981Y-32414376D01*
X43830981Y-32389376D02*
X43805981Y-32414376D01*
X43809545Y-31659637D02*
X43834545Y-31684637D01*
X43834545Y-31659637D02*
X43809545Y-31684637D01*
X43829753Y-33590843D02*
X43854753Y-33615843D01*
X43854753Y-33590843D02*
X43829753Y-33615843D01*
X43830708Y-33665843D02*
X43855708Y-33690843D01*
X43855708Y-33665843D02*
X43830708Y-33690843D01*
X43838502Y-33184550D02*
X43863502Y-33209550D01*
X43863502Y-33184550D02*
X43838502Y-33209550D01*
X43839753Y-30670843D02*
X43864753Y-30695843D01*
X43864753Y-30670843D02*
X43839753Y-30695843D01*
X43860708Y-33505843D02*
X43885708Y-33530843D01*
X43885708Y-33505843D02*
X43860708Y-33530843D01*
X43861664Y-32190243D02*
X43886664Y-32215243D01*
X43886664Y-32190243D02*
X43861664Y-32215243D01*
X43869753Y-31770843D02*
X43894753Y-31795843D01*
X43894753Y-31770843D02*
X43869753Y-31795843D01*
X43896310Y-32824232D02*
X43921310Y-32849232D01*
X43921310Y-32824232D02*
X43896310Y-32849232D01*
X43899130Y-32389162D02*
X43924130Y-32414162D01*
X43924130Y-32389162D02*
X43899130Y-32414162D01*
X43900708Y-30515843D02*
X43925708Y-30540843D01*
X43925708Y-30515843D02*
X43900708Y-30540843D01*
X43900708Y-30595843D02*
X43925708Y-30620843D01*
X43925708Y-30595843D02*
X43900708Y-30620843D01*
X43900708Y-33275843D02*
X43925708Y-33300843D01*
X43925708Y-33275843D02*
X43900708Y-33300843D01*
X43905708Y-30700843D02*
X43930708Y-30725843D01*
X43930708Y-30700843D02*
X43905708Y-30725843D01*
X43919753Y-32990843D02*
X43944753Y-33015843D01*
X43944753Y-32990843D02*
X43919753Y-33015843D01*
X43921958Y-31382722D02*
X43946958Y-31407722D01*
X43946958Y-31382722D02*
X43921958Y-31407722D01*
X43935708Y-33640243D02*
X43960708Y-33665243D01*
X43960708Y-33640243D02*
X43935708Y-33665243D01*
X43939901Y-31750440D02*
X43964901Y-31775440D01*
X43964901Y-31750440D02*
X43939901Y-31775440D01*
X43976355Y-31574775D02*
X44001355Y-31599775D01*
X44001355Y-31574775D02*
X43976355Y-31599775D01*
X43976664Y-32230243D02*
X44001664Y-32255243D01*
X44001664Y-32230243D02*
X43976664Y-32255243D01*
X43989753Y-33060843D02*
X44014753Y-33085843D01*
X44014753Y-33060843D02*
X43989753Y-33085843D01*
X43994095Y-32389162D02*
X44019095Y-32414162D01*
X44019095Y-32389162D02*
X43994095Y-32414162D01*
X44010708Y-30945843D02*
X44035708Y-30970843D01*
X44035708Y-30945843D02*
X44010708Y-30970843D01*
X44018009Y-31829032D02*
X44043009Y-31854032D01*
X44043009Y-31829032D02*
X44018009Y-31854032D01*
X44029106Y-32737202D02*
X44054106Y-32762202D01*
X44054106Y-32737202D02*
X44029106Y-32762202D01*
X44041664Y-33610243D02*
X44066664Y-33635243D01*
X44066664Y-33610243D02*
X44041664Y-33635243D01*
X44052644Y-32219095D02*
X44077644Y-32244095D01*
X44077644Y-32219095D02*
X44052644Y-32244095D01*
X44068603Y-32383739D02*
X44093603Y-32408739D01*
X44093603Y-32383739D02*
X44068603Y-32408739D01*
X44080708Y-31685843D02*
X44105708Y-31710843D01*
X44105708Y-31685843D02*
X44080708Y-31710843D01*
X44096664Y-31860243D02*
X44121664Y-31885243D01*
X44121664Y-31860243D02*
X44096664Y-31885243D01*
X44110708Y-30335843D02*
X44135708Y-30360843D01*
X44135708Y-30335843D02*
X44110708Y-30360843D01*
X44121230Y-30946333D02*
X44146230Y-30971333D01*
X44146230Y-30946333D02*
X44121230Y-30971333D01*
X44130708Y-29925843D02*
X44155708Y-29950843D01*
X44155708Y-29925843D02*
X44130708Y-29950843D01*
X44139753Y-33058343D02*
X44164753Y-33083343D01*
X44164753Y-33058343D02*
X44139753Y-33083343D01*
X44150708Y-30178343D02*
X44175708Y-30203343D01*
X44175708Y-30178343D02*
X44150708Y-30203343D01*
X44166244Y-31436689D02*
X44191244Y-31461689D01*
X44191244Y-31436689D02*
X44166244Y-31461689D01*
X44166664Y-30870243D02*
X44191664Y-30895243D01*
X44191664Y-30870243D02*
X44166664Y-30895243D01*
X44170708Y-30795843D02*
X44195708Y-30820843D01*
X44195708Y-30795843D02*
X44170708Y-30820843D01*
X44181664Y-30000243D02*
X44206664Y-30025243D01*
X44206664Y-30000243D02*
X44181664Y-30025243D01*
X44184026Y-32209162D02*
X44209026Y-32234162D01*
X44209026Y-32209162D02*
X44184026Y-32234162D01*
X44184026Y-32389162D02*
X44209026Y-32414162D01*
X44209026Y-32389162D02*
X44184026Y-32414162D01*
X44199753Y-32625843D02*
X44224753Y-32650843D01*
X44224753Y-32625843D02*
X44199753Y-32650843D01*
X44201664Y-33560243D02*
X44226664Y-33585243D01*
X44226664Y-33560243D02*
X44201664Y-33585243D01*
X44208918Y-33010008D02*
X44233918Y-33035008D01*
X44233918Y-33010008D02*
X44208918Y-33035008D01*
X44230708Y-30265843D02*
X44255708Y-30290843D01*
X44255708Y-30265843D02*
X44230708Y-30290843D01*
X44237322Y-31725902D02*
X44262322Y-31750902D01*
X44262322Y-31725902D02*
X44237322Y-31750902D01*
X44250708Y-32565843D02*
X44275708Y-32590843D01*
X44275708Y-32565843D02*
X44250708Y-32590843D01*
X44265708Y-31175843D02*
X44290708Y-31200843D01*
X44290708Y-31175843D02*
X44265708Y-31200843D01*
X44278992Y-32209162D02*
X44303992Y-32234162D01*
X44303992Y-32209162D02*
X44278992Y-32234162D01*
X44278992Y-32389162D02*
X44303992Y-32414162D01*
X44303992Y-32389162D02*
X44278992Y-32414162D01*
X44286958Y-30289593D02*
X44311958Y-30314593D01*
X44311958Y-30289593D02*
X44286958Y-30314593D01*
X44315708Y-33510243D02*
X44340708Y-33535243D01*
X44340708Y-33510243D02*
X44315708Y-33535243D01*
X44328918Y-32890008D02*
X44353918Y-32915008D01*
X44353918Y-32890008D02*
X44328918Y-32915008D01*
X44340708Y-32685843D02*
X44365708Y-32710843D01*
X44365708Y-32685843D02*
X44340708Y-32710843D01*
X44350708Y-33215843D02*
X44375708Y-33240843D01*
X44375708Y-33215843D02*
X44350708Y-33240843D01*
X44373958Y-32209162D02*
X44398958Y-32234162D01*
X44398958Y-32209162D02*
X44373958Y-32234162D01*
X44373958Y-32389162D02*
X44398958Y-32414162D01*
X44398958Y-32389162D02*
X44373958Y-32414162D01*
X44380708Y-30225843D02*
X44405708Y-30250843D01*
X44405708Y-30225843D02*
X44380708Y-30250843D01*
X44380708Y-31475843D02*
X44405708Y-31500843D01*
X44405708Y-31475843D02*
X44380708Y-31500843D01*
X44381664Y-31880243D02*
X44406664Y-31905243D01*
X44406664Y-31880243D02*
X44381664Y-31905243D01*
X44389753Y-32735843D02*
X44414753Y-32760843D01*
X44414753Y-32735843D02*
X44389753Y-32760843D01*
X44389753Y-32832623D02*
X44414753Y-32857623D01*
X44414753Y-32832623D02*
X44389753Y-32857623D01*
X44420708Y-32485843D02*
X44445708Y-32510843D01*
X44445708Y-32485843D02*
X44420708Y-32510843D01*
X44420708Y-32605843D02*
X44445708Y-32630843D01*
X44445708Y-32605843D02*
X44420708Y-32630843D01*
X44421664Y-33450243D02*
X44446664Y-33475243D01*
X44446664Y-33450243D02*
X44421664Y-33475243D01*
X44487458Y-32209162D02*
X44512458Y-32234162D01*
X44512458Y-32209162D02*
X44487458Y-32234162D01*
X44487458Y-32389162D02*
X44512458Y-32414162D01*
X44512458Y-32389162D02*
X44487458Y-32414162D01*
X44511664Y-31820243D02*
X44536664Y-31845243D01*
X44536664Y-31820243D02*
X44511664Y-31845243D01*
X44530708Y-30255843D02*
X44555708Y-30280843D01*
X44555708Y-30255843D02*
X44530708Y-30280843D01*
X44540708Y-33380243D02*
X44565708Y-33405243D01*
X44565708Y-33380243D02*
X44540708Y-33405243D01*
X44540819Y-31331381D02*
X44565819Y-31356381D01*
X44565819Y-31331381D02*
X44540819Y-31356381D01*
X44558798Y-33015843D02*
X44583798Y-33040843D01*
X44583798Y-33015843D02*
X44558798Y-33040843D01*
X44573701Y-31259968D02*
X44598701Y-31284968D01*
X44598701Y-31259968D02*
X44573701Y-31284968D01*
X44600708Y-32485843D02*
X44625708Y-32510843D01*
X44625708Y-32485843D02*
X44600708Y-32510843D01*
X44600708Y-32605843D02*
X44625708Y-32630843D01*
X44625708Y-32605843D02*
X44600708Y-32630843D01*
X44600708Y-32725843D02*
X44625708Y-32750843D01*
X44625708Y-32725843D02*
X44600708Y-32750843D01*
X44600708Y-32845843D02*
X44625708Y-32870843D01*
X44625708Y-32845843D02*
X44600708Y-32870843D01*
X44600708Y-32959343D02*
X44625708Y-32984343D01*
X44625708Y-32959343D02*
X44600708Y-32984343D01*
X44620708Y-30265843D02*
X44645708Y-30290843D01*
X44645708Y-30265843D02*
X44620708Y-30290843D01*
X44642658Y-32389162D02*
X44667658Y-32414162D01*
X44667658Y-32389162D02*
X44642658Y-32414162D01*
X44650708Y-31612343D02*
X44675708Y-31637343D01*
X44675708Y-31612343D02*
X44650708Y-31637343D01*
X44650708Y-31732343D02*
X44675708Y-31757343D01*
X44675708Y-31732343D02*
X44650708Y-31757343D01*
X44650708Y-31852343D02*
X44675708Y-31877343D01*
X44675708Y-31852343D02*
X44650708Y-31877343D01*
X44650708Y-31965843D02*
X44675708Y-31990843D01*
X44675708Y-31965843D02*
X44650708Y-31990843D01*
X44650708Y-32085843D02*
X44675708Y-32110843D01*
X44675708Y-32085843D02*
X44650708Y-32110843D01*
X44651664Y-33300243D02*
X44676664Y-33325243D01*
X44676664Y-33300243D02*
X44651664Y-33325243D01*
X44656063Y-31497699D02*
X44681063Y-31522699D01*
X44681063Y-31497699D02*
X44656063Y-31522699D01*
X44780707Y-32485843D02*
X44805707Y-32510843D01*
X44805707Y-32485843D02*
X44780707Y-32510843D01*
X44780707Y-32605843D02*
X44805707Y-32630843D01*
X44805707Y-32605843D02*
X44780707Y-32630843D01*
X44780707Y-32725843D02*
X44805707Y-32750843D01*
X44805707Y-32725843D02*
X44780707Y-32750843D01*
X44780707Y-32845843D02*
X44805707Y-32870843D01*
X44805707Y-32845843D02*
X44780707Y-32870843D01*
X44780707Y-32959343D02*
X44805707Y-32984343D01*
X44805707Y-32959343D02*
X44780707Y-32984343D01*
X44790707Y-30415843D02*
X44815707Y-30440843D01*
X44815707Y-30415843D02*
X44790707Y-30440843D01*
X44851663Y-31255843D02*
X44876663Y-31280843D01*
X44876663Y-31255843D02*
X44851663Y-31280843D01*
X44851663Y-33110243D02*
X44876663Y-33135243D01*
X44876663Y-33110243D02*
X44851663Y-33135243D01*
X44960707Y-31225843D02*
X44985707Y-31250843D01*
X44985707Y-31225843D02*
X44960707Y-31250843D01*
X44960707Y-31339343D02*
X44985707Y-31364343D01*
X44985707Y-31339343D02*
X44960707Y-31364343D01*
X44960707Y-32485843D02*
X44985707Y-32510843D01*
X44985707Y-32485843D02*
X44960707Y-32510843D01*
X44960707Y-32605843D02*
X44985707Y-32630843D01*
X44985707Y-32605843D02*
X44960707Y-32630843D01*
X44960707Y-32725843D02*
X44985707Y-32750843D01*
X44985707Y-32725843D02*
X44960707Y-32750843D01*
X44960707Y-32845843D02*
X44985707Y-32870843D01*
X44985707Y-32845843D02*
X44960707Y-32870843D01*
X44960707Y-32959343D02*
X44985707Y-32984343D01*
X44985707Y-32959343D02*
X44960707Y-32984343D01*
X45040707Y-30675843D02*
X45065707Y-30700843D01*
X45065707Y-30675843D02*
X45040707Y-30700843D01*
X45040707Y-30905843D02*
X45065707Y-30930843D01*
X45065707Y-30905843D02*
X45040707Y-30930843D01*
X45140707Y-30875843D02*
X45165707Y-30900843D01*
X45165707Y-30875843D02*
X45140707Y-30900843D01*
X45140707Y-30995843D02*
X45165707Y-31020843D01*
X45165707Y-30995843D02*
X45140707Y-31020843D01*
X45140707Y-31115843D02*
X45165707Y-31140843D01*
X45165707Y-31115843D02*
X45140707Y-31140843D01*
X45140707Y-31229343D02*
X45165707Y-31254343D01*
X45165707Y-31229343D02*
X45140707Y-31254343D01*
X45140707Y-31339343D02*
X45165707Y-31364343D01*
X45165707Y-31339343D02*
X45140707Y-31364343D01*
X45140707Y-32485843D02*
X45165707Y-32510843D01*
X45165707Y-32485843D02*
X45140707Y-32510843D01*
X45140707Y-32605843D02*
X45165707Y-32630843D01*
X45165707Y-32605843D02*
X45140707Y-32630843D01*
X45140707Y-32725843D02*
X45165707Y-32750843D01*
X45165707Y-32725843D02*
X45140707Y-32750843D01*
X45320707Y-31229343D02*
X45345707Y-31254343D01*
X45345707Y-31229343D02*
X45320707Y-31254343D01*
X45320707Y-31339343D02*
X45345707Y-31364343D01*
X45345707Y-31339343D02*
X45320707Y-31364343D01*
X41665708Y-31346343D02*
G75*
G02*
X41605708Y-31346343I-30000J0D01*
G01*
X41605708Y-31346343D02*
G75*
G02*
X41665708Y-31346343I30000J0D01*
G01*
X41605708Y-31376343D02*
X41665708Y-31376343D01*
X41665708Y-31316343D02*
G75*
G02*
X41665708Y-31376343I0J-30000D01*
G01*
X41665708Y-31316343D02*
X41605708Y-31316343D01*
X41605708Y-31316343D02*
G75*
G03*
X41605708Y-31376343I0J-30000D01*
G01*
X41665708Y-32210343D02*
G75*
G02*
X41605708Y-32210343I-30000J0D01*
G01*
X41605708Y-32210343D02*
G75*
G02*
X41665708Y-32210343I30000J0D01*
G01*
X41605708Y-32240343D02*
X41665708Y-32240343D01*
X41665708Y-32180343D02*
G75*
G02*
X41665708Y-32240343I0J-30000D01*
G01*
X41665708Y-32180343D02*
X41605708Y-32180343D01*
X41605708Y-32180343D02*
G75*
G03*
X41605708Y-32240343I0J-30000D01*
G01*
X42083708Y-31346343D02*
G75*
G02*
X42023708Y-31346343I-30000J0D01*
G01*
X42023708Y-31346343D02*
G75*
G02*
X42083708Y-31346343I30000J0D01*
G01*
X41998708Y-31376343D02*
X42108708Y-31376343D01*
X42108708Y-31316343D02*
G75*
G02*
X42108708Y-31376343I0J-30000D01*
G01*
X42108708Y-31316343D02*
X41998708Y-31316343D01*
X41998708Y-31316343D02*
G75*
G03*
X41998708Y-31376343I0J-30000D01*
G01*
X42083708Y-32210343D02*
G75*
G02*
X42023708Y-32210343I-30000J0D01*
G01*
X42023708Y-32210343D02*
G75*
G02*
X42083708Y-32210343I30000J0D01*
G01*
X41998708Y-32240343D02*
X42108708Y-32240343D01*
X42108708Y-32180343D02*
G75*
G02*
X42108708Y-32240343I0J-30000D01*
G01*
X42108708Y-32180343D02*
X41998708Y-32180343D01*
X41998708Y-32180343D02*
G75*
G03*
X41998708Y-32240343I0J-30000D01*
G01*
X42383208Y-31408343D02*
X42383208Y-31508343D01*
X42333208Y-31458343D02*
X42433208Y-31458343D01*
X42383208Y-32128343D02*
X42383208Y-32228343D01*
X42333208Y-32178343D02*
X42433208Y-32178343D01*
D11*
X37439940Y-34859227D02*
X37439940Y-34659227D01*
X37439940Y-34659227D02*
X37487559Y-34659227D01*
X37487559Y-34659227D02*
X37516131Y-34668751D01*
X37516131Y-34668751D02*
X37535178Y-34687799D01*
X37535178Y-34687799D02*
X37544702Y-34706846D01*
X37544702Y-34706846D02*
X37554226Y-34744941D01*
X37554226Y-34744941D02*
X37554226Y-34773513D01*
X37554226Y-34773513D02*
X37544702Y-34811608D01*
X37544702Y-34811608D02*
X37535178Y-34830656D01*
X37535178Y-34830656D02*
X37516131Y-34849703D01*
X37516131Y-34849703D02*
X37487559Y-34859227D01*
X37487559Y-34859227D02*
X37439940Y-34859227D01*
X37639940Y-34859227D02*
X37639940Y-34725894D01*
X37639940Y-34763989D02*
X37649464Y-34744941D01*
X37649464Y-34744941D02*
X37658988Y-34735418D01*
X37658988Y-34735418D02*
X37678036Y-34725894D01*
X37678036Y-34725894D02*
X37697083Y-34725894D01*
X37763750Y-34859227D02*
X37763750Y-34725894D01*
X37763750Y-34659227D02*
X37754226Y-34668751D01*
X37754226Y-34668751D02*
X37763750Y-34678275D01*
X37763750Y-34678275D02*
X37773274Y-34668751D01*
X37773274Y-34668751D02*
X37763750Y-34659227D01*
X37763750Y-34659227D02*
X37763750Y-34678275D01*
X37887559Y-34859227D02*
X37868512Y-34849703D01*
X37868512Y-34849703D02*
X37858988Y-34830656D01*
X37858988Y-34830656D02*
X37858988Y-34659227D01*
X37992321Y-34859227D02*
X37973274Y-34849703D01*
X37973274Y-34849703D02*
X37963750Y-34830656D01*
X37963750Y-34830656D02*
X37963750Y-34659227D01*
X38220893Y-34859227D02*
X38220893Y-34659227D01*
X38220893Y-34659227D02*
X38287559Y-34802084D01*
X38287559Y-34802084D02*
X38354226Y-34659227D01*
X38354226Y-34659227D02*
X38354226Y-34859227D01*
X38535178Y-34859227D02*
X38535178Y-34754465D01*
X38535178Y-34754465D02*
X38525655Y-34735418D01*
X38525655Y-34735418D02*
X38506607Y-34725894D01*
X38506607Y-34725894D02*
X38468512Y-34725894D01*
X38468512Y-34725894D02*
X38449464Y-34735418D01*
X38535178Y-34849703D02*
X38516131Y-34859227D01*
X38516131Y-34859227D02*
X38468512Y-34859227D01*
X38468512Y-34859227D02*
X38449464Y-34849703D01*
X38449464Y-34849703D02*
X38439940Y-34830656D01*
X38439940Y-34830656D02*
X38439940Y-34811608D01*
X38439940Y-34811608D02*
X38449464Y-34792561D01*
X38449464Y-34792561D02*
X38468512Y-34783037D01*
X38468512Y-34783037D02*
X38516131Y-34783037D01*
X38516131Y-34783037D02*
X38535178Y-34773513D01*
X38630417Y-34725894D02*
X38630417Y-34925894D01*
X38630417Y-34735418D02*
X38649464Y-34725894D01*
X38649464Y-34725894D02*
X38687559Y-34725894D01*
X38687559Y-34725894D02*
X38706607Y-34735418D01*
X38706607Y-34735418D02*
X38716131Y-34744941D01*
X38716131Y-34744941D02*
X38725655Y-34763989D01*
X38725655Y-34763989D02*
X38725655Y-34821132D01*
X38725655Y-34821132D02*
X38716131Y-34840180D01*
X38716131Y-34840180D02*
X38706607Y-34849703D01*
X38706607Y-34849703D02*
X38687559Y-34859227D01*
X38687559Y-34859227D02*
X38649464Y-34859227D01*
X38649464Y-34859227D02*
X38630417Y-34849703D01*
X38811369Y-34840180D02*
X38820893Y-34849703D01*
X38820893Y-34849703D02*
X38811369Y-34859227D01*
X38811369Y-34859227D02*
X38801845Y-34849703D01*
X38801845Y-34849703D02*
X38811369Y-34840180D01*
X38811369Y-34840180D02*
X38811369Y-34859227D01*
X38811369Y-34735418D02*
X38820893Y-34744941D01*
X38820893Y-34744941D02*
X38811369Y-34754465D01*
X38811369Y-34754465D02*
X38801845Y-34744941D01*
X38801845Y-34744941D02*
X38811369Y-34735418D01*
X38811369Y-34735418D02*
X38811369Y-34754465D01*
D10*
X37154164Y-35175243D02*
X37179164Y-35200243D01*
X37179164Y-35175243D02*
X37154164Y-35200243D01*
D11*
X37478036Y-35079227D02*
X37497083Y-35079227D01*
X37497083Y-35079227D02*
X37516131Y-35088751D01*
X37516131Y-35088751D02*
X37525655Y-35098275D01*
X37525655Y-35098275D02*
X37535178Y-35117322D01*
X37535178Y-35117322D02*
X37544702Y-35155418D01*
X37544702Y-35155418D02*
X37544702Y-35203037D01*
X37544702Y-35203037D02*
X37535178Y-35241132D01*
X37535178Y-35241132D02*
X37525655Y-35260180D01*
X37525655Y-35260180D02*
X37516131Y-35269703D01*
X37516131Y-35269703D02*
X37497083Y-35279227D01*
X37497083Y-35279227D02*
X37478036Y-35279227D01*
X37478036Y-35279227D02*
X37458988Y-35269703D01*
X37458988Y-35269703D02*
X37449464Y-35260180D01*
X37449464Y-35260180D02*
X37439940Y-35241132D01*
X37439940Y-35241132D02*
X37430417Y-35203037D01*
X37430417Y-35203037D02*
X37430417Y-35155418D01*
X37430417Y-35155418D02*
X37439940Y-35117322D01*
X37439940Y-35117322D02*
X37449464Y-35098275D01*
X37449464Y-35098275D02*
X37458988Y-35088751D01*
X37458988Y-35088751D02*
X37478036Y-35079227D01*
X37630417Y-35260180D02*
X37639940Y-35269703D01*
X37639940Y-35269703D02*
X37630417Y-35279227D01*
X37630417Y-35279227D02*
X37620893Y-35269703D01*
X37620893Y-35269703D02*
X37630417Y-35260180D01*
X37630417Y-35260180D02*
X37630417Y-35279227D01*
X37716131Y-35098275D02*
X37725655Y-35088751D01*
X37725655Y-35088751D02*
X37744702Y-35079227D01*
X37744702Y-35079227D02*
X37792321Y-35079227D01*
X37792321Y-35079227D02*
X37811369Y-35088751D01*
X37811369Y-35088751D02*
X37820893Y-35098275D01*
X37820893Y-35098275D02*
X37830417Y-35117322D01*
X37830417Y-35117322D02*
X37830417Y-35136370D01*
X37830417Y-35136370D02*
X37820893Y-35164941D01*
X37820893Y-35164941D02*
X37706607Y-35279227D01*
X37706607Y-35279227D02*
X37830417Y-35279227D01*
X38011369Y-35079227D02*
X37916131Y-35079227D01*
X37916131Y-35079227D02*
X37906607Y-35174465D01*
X37906607Y-35174465D02*
X37916131Y-35164941D01*
X37916131Y-35164941D02*
X37935178Y-35155418D01*
X37935178Y-35155418D02*
X37982798Y-35155418D01*
X37982798Y-35155418D02*
X38001845Y-35164941D01*
X38001845Y-35164941D02*
X38011369Y-35174465D01*
X38011369Y-35174465D02*
X38020893Y-35193513D01*
X38020893Y-35193513D02*
X38020893Y-35241132D01*
X38020893Y-35241132D02*
X38011369Y-35260180D01*
X38011369Y-35260180D02*
X38001845Y-35269703D01*
X38001845Y-35269703D02*
X37982798Y-35279227D01*
X37982798Y-35279227D02*
X37935178Y-35279227D01*
X37935178Y-35279227D02*
X37916131Y-35269703D01*
X37916131Y-35269703D02*
X37906607Y-35260180D01*
X38144702Y-35079227D02*
X38163750Y-35079227D01*
X38163750Y-35079227D02*
X38182798Y-35088751D01*
X38182798Y-35088751D02*
X38192321Y-35098275D01*
X38192321Y-35098275D02*
X38201845Y-35117322D01*
X38201845Y-35117322D02*
X38211369Y-35155418D01*
X38211369Y-35155418D02*
X38211369Y-35203037D01*
X38211369Y-35203037D02*
X38201845Y-35241132D01*
X38201845Y-35241132D02*
X38192321Y-35260180D01*
X38192321Y-35260180D02*
X38182798Y-35269703D01*
X38182798Y-35269703D02*
X38163750Y-35279227D01*
X38163750Y-35279227D02*
X38144702Y-35279227D01*
X38144702Y-35279227D02*
X38125655Y-35269703D01*
X38125655Y-35269703D02*
X38116131Y-35260180D01*
X38116131Y-35260180D02*
X38106607Y-35241132D01*
X38106607Y-35241132D02*
X38097083Y-35203037D01*
X38097083Y-35203037D02*
X38097083Y-35155418D01*
X38097083Y-35155418D02*
X38106607Y-35117322D01*
X38106607Y-35117322D02*
X38116131Y-35098275D01*
X38116131Y-35098275D02*
X38125655Y-35088751D01*
X38125655Y-35088751D02*
X38144702Y-35079227D01*
X38297083Y-35279227D02*
X38297083Y-35145894D01*
X38297083Y-35164941D02*
X38306607Y-35155418D01*
X38306607Y-35155418D02*
X38325655Y-35145894D01*
X38325655Y-35145894D02*
X38354226Y-35145894D01*
X38354226Y-35145894D02*
X38373274Y-35155418D01*
X38373274Y-35155418D02*
X38382798Y-35174465D01*
X38382798Y-35174465D02*
X38382798Y-35279227D01*
X38382798Y-35174465D02*
X38392321Y-35155418D01*
X38392321Y-35155418D02*
X38411369Y-35145894D01*
X38411369Y-35145894D02*
X38439940Y-35145894D01*
X38439940Y-35145894D02*
X38458988Y-35155418D01*
X38458988Y-35155418D02*
X38468512Y-35174465D01*
X38468512Y-35174465D02*
X38468512Y-35279227D01*
X38563750Y-35279227D02*
X38563750Y-35145894D01*
X38563750Y-35164941D02*
X38573274Y-35155418D01*
X38573274Y-35155418D02*
X38592321Y-35145894D01*
X38592321Y-35145894D02*
X38620893Y-35145894D01*
X38620893Y-35145894D02*
X38639940Y-35155418D01*
X38639940Y-35155418D02*
X38649464Y-35174465D01*
X38649464Y-35174465D02*
X38649464Y-35279227D01*
X38649464Y-35174465D02*
X38658988Y-35155418D01*
X38658988Y-35155418D02*
X38678036Y-35145894D01*
X38678036Y-35145894D02*
X38706607Y-35145894D01*
X38706607Y-35145894D02*
X38725655Y-35155418D01*
X38725655Y-35155418D02*
X38735179Y-35174465D01*
X38735179Y-35174465D02*
X38735179Y-35279227D01*
X39125655Y-35069703D02*
X38954226Y-35326846D01*
X39382798Y-35079227D02*
X39401845Y-35079227D01*
X39401845Y-35079227D02*
X39420893Y-35088751D01*
X39420893Y-35088751D02*
X39430417Y-35098275D01*
X39430417Y-35098275D02*
X39439941Y-35117322D01*
X39439941Y-35117322D02*
X39449464Y-35155418D01*
X39449464Y-35155418D02*
X39449464Y-35203037D01*
X39449464Y-35203037D02*
X39439941Y-35241132D01*
X39439941Y-35241132D02*
X39430417Y-35260180D01*
X39430417Y-35260180D02*
X39420893Y-35269703D01*
X39420893Y-35269703D02*
X39401845Y-35279227D01*
X39401845Y-35279227D02*
X39382798Y-35279227D01*
X39382798Y-35279227D02*
X39363750Y-35269703D01*
X39363750Y-35269703D02*
X39354226Y-35260180D01*
X39354226Y-35260180D02*
X39344702Y-35241132D01*
X39344702Y-35241132D02*
X39335179Y-35203037D01*
X39335179Y-35203037D02*
X39335179Y-35155418D01*
X39335179Y-35155418D02*
X39344702Y-35117322D01*
X39344702Y-35117322D02*
X39354226Y-35098275D01*
X39354226Y-35098275D02*
X39363750Y-35088751D01*
X39363750Y-35088751D02*
X39382798Y-35079227D01*
X39535179Y-35260180D02*
X39544702Y-35269703D01*
X39544702Y-35269703D02*
X39535179Y-35279227D01*
X39535179Y-35279227D02*
X39525655Y-35269703D01*
X39525655Y-35269703D02*
X39535179Y-35260180D01*
X39535179Y-35260180D02*
X39535179Y-35279227D01*
X39668512Y-35079227D02*
X39687560Y-35079227D01*
X39687560Y-35079227D02*
X39706607Y-35088751D01*
X39706607Y-35088751D02*
X39716131Y-35098275D01*
X39716131Y-35098275D02*
X39725655Y-35117322D01*
X39725655Y-35117322D02*
X39735179Y-35155418D01*
X39735179Y-35155418D02*
X39735179Y-35203037D01*
X39735179Y-35203037D02*
X39725655Y-35241132D01*
X39725655Y-35241132D02*
X39716131Y-35260180D01*
X39716131Y-35260180D02*
X39706607Y-35269703D01*
X39706607Y-35269703D02*
X39687560Y-35279227D01*
X39687560Y-35279227D02*
X39668512Y-35279227D01*
X39668512Y-35279227D02*
X39649464Y-35269703D01*
X39649464Y-35269703D02*
X39639941Y-35260180D01*
X39639941Y-35260180D02*
X39630417Y-35241132D01*
X39630417Y-35241132D02*
X39620893Y-35203037D01*
X39620893Y-35203037D02*
X39620893Y-35155418D01*
X39620893Y-35155418D02*
X39630417Y-35117322D01*
X39630417Y-35117322D02*
X39639941Y-35098275D01*
X39639941Y-35098275D02*
X39649464Y-35088751D01*
X39649464Y-35088751D02*
X39668512Y-35079227D01*
X39858988Y-35079227D02*
X39878036Y-35079227D01*
X39878036Y-35079227D02*
X39897083Y-35088751D01*
X39897083Y-35088751D02*
X39906607Y-35098275D01*
X39906607Y-35098275D02*
X39916131Y-35117322D01*
X39916131Y-35117322D02*
X39925655Y-35155418D01*
X39925655Y-35155418D02*
X39925655Y-35203037D01*
X39925655Y-35203037D02*
X39916131Y-35241132D01*
X39916131Y-35241132D02*
X39906607Y-35260180D01*
X39906607Y-35260180D02*
X39897083Y-35269703D01*
X39897083Y-35269703D02*
X39878036Y-35279227D01*
X39878036Y-35279227D02*
X39858988Y-35279227D01*
X39858988Y-35279227D02*
X39839941Y-35269703D01*
X39839941Y-35269703D02*
X39830417Y-35260180D01*
X39830417Y-35260180D02*
X39820893Y-35241132D01*
X39820893Y-35241132D02*
X39811369Y-35203037D01*
X39811369Y-35203037D02*
X39811369Y-35155418D01*
X39811369Y-35155418D02*
X39820893Y-35117322D01*
X39820893Y-35117322D02*
X39830417Y-35098275D01*
X39830417Y-35098275D02*
X39839941Y-35088751D01*
X39839941Y-35088751D02*
X39858988Y-35079227D01*
X40020893Y-35279227D02*
X40058988Y-35279227D01*
X40058988Y-35279227D02*
X40078036Y-35269703D01*
X40078036Y-35269703D02*
X40087560Y-35260180D01*
X40087560Y-35260180D02*
X40106607Y-35231608D01*
X40106607Y-35231608D02*
X40116131Y-35193513D01*
X40116131Y-35193513D02*
X40116131Y-35117322D01*
X40116131Y-35117322D02*
X40106607Y-35098275D01*
X40106607Y-35098275D02*
X40097083Y-35088751D01*
X40097083Y-35088751D02*
X40078036Y-35079227D01*
X40078036Y-35079227D02*
X40039941Y-35079227D01*
X40039941Y-35079227D02*
X40020893Y-35088751D01*
X40020893Y-35088751D02*
X40011369Y-35098275D01*
X40011369Y-35098275D02*
X40001845Y-35117322D01*
X40001845Y-35117322D02*
X40001845Y-35164941D01*
X40001845Y-35164941D02*
X40011369Y-35183989D01*
X40011369Y-35183989D02*
X40020893Y-35193513D01*
X40020893Y-35193513D02*
X40039941Y-35203037D01*
X40039941Y-35203037D02*
X40078036Y-35203037D01*
X40078036Y-35203037D02*
X40097083Y-35193513D01*
X40097083Y-35193513D02*
X40106607Y-35183989D01*
X40106607Y-35183989D02*
X40116131Y-35164941D01*
X40230417Y-35164941D02*
X40211369Y-35155418D01*
X40211369Y-35155418D02*
X40201845Y-35145894D01*
X40201845Y-35145894D02*
X40192322Y-35126846D01*
X40192322Y-35126846D02*
X40192322Y-35117322D01*
X40192322Y-35117322D02*
X40201845Y-35098275D01*
X40201845Y-35098275D02*
X40211369Y-35088751D01*
X40211369Y-35088751D02*
X40230417Y-35079227D01*
X40230417Y-35079227D02*
X40268512Y-35079227D01*
X40268512Y-35079227D02*
X40287560Y-35088751D01*
X40287560Y-35088751D02*
X40297083Y-35098275D01*
X40297083Y-35098275D02*
X40306607Y-35117322D01*
X40306607Y-35117322D02*
X40306607Y-35126846D01*
X40306607Y-35126846D02*
X40297083Y-35145894D01*
X40297083Y-35145894D02*
X40287560Y-35155418D01*
X40287560Y-35155418D02*
X40268512Y-35164941D01*
X40268512Y-35164941D02*
X40230417Y-35164941D01*
X40230417Y-35164941D02*
X40211369Y-35174465D01*
X40211369Y-35174465D02*
X40201845Y-35183989D01*
X40201845Y-35183989D02*
X40192322Y-35203037D01*
X40192322Y-35203037D02*
X40192322Y-35241132D01*
X40192322Y-35241132D02*
X40201845Y-35260180D01*
X40201845Y-35260180D02*
X40211369Y-35269703D01*
X40211369Y-35269703D02*
X40230417Y-35279227D01*
X40230417Y-35279227D02*
X40268512Y-35279227D01*
X40268512Y-35279227D02*
X40287560Y-35269703D01*
X40287560Y-35269703D02*
X40297083Y-35260180D01*
X40297083Y-35260180D02*
X40306607Y-35241132D01*
X40306607Y-35241132D02*
X40306607Y-35203037D01*
X40306607Y-35203037D02*
X40297083Y-35183989D01*
X40297083Y-35183989D02*
X40287560Y-35174465D01*
X40287560Y-35174465D02*
X40268512Y-35164941D01*
X40382798Y-35079227D02*
X40382798Y-35117322D01*
X40458988Y-35079227D02*
X40458988Y-35117322D01*
X40754226Y-35355418D02*
X40744703Y-35345894D01*
X40744703Y-35345894D02*
X40725655Y-35317322D01*
X40725655Y-35317322D02*
X40716131Y-35298275D01*
X40716131Y-35298275D02*
X40706607Y-35269703D01*
X40706607Y-35269703D02*
X40697084Y-35222084D01*
X40697084Y-35222084D02*
X40697084Y-35183989D01*
X40697084Y-35183989D02*
X40706607Y-35136370D01*
X40706607Y-35136370D02*
X40716131Y-35107799D01*
X40716131Y-35107799D02*
X40725655Y-35088751D01*
X40725655Y-35088751D02*
X40744703Y-35060180D01*
X40744703Y-35060180D02*
X40754226Y-35050656D01*
X40820893Y-35098275D02*
X40830417Y-35088751D01*
X40830417Y-35088751D02*
X40849464Y-35079227D01*
X40849464Y-35079227D02*
X40897084Y-35079227D01*
X40897084Y-35079227D02*
X40916131Y-35088751D01*
X40916131Y-35088751D02*
X40925655Y-35098275D01*
X40925655Y-35098275D02*
X40935179Y-35117322D01*
X40935179Y-35117322D02*
X40935179Y-35136370D01*
X40935179Y-35136370D02*
X40925655Y-35164941D01*
X40925655Y-35164941D02*
X40811369Y-35279227D01*
X40811369Y-35279227D02*
X40935179Y-35279227D01*
X41106607Y-35079227D02*
X41068512Y-35079227D01*
X41068512Y-35079227D02*
X41049464Y-35088751D01*
X41049464Y-35088751D02*
X41039941Y-35098275D01*
X41039941Y-35098275D02*
X41020893Y-35126846D01*
X41020893Y-35126846D02*
X41011369Y-35164941D01*
X41011369Y-35164941D02*
X41011369Y-35241132D01*
X41011369Y-35241132D02*
X41020893Y-35260180D01*
X41020893Y-35260180D02*
X41030417Y-35269703D01*
X41030417Y-35269703D02*
X41049464Y-35279227D01*
X41049464Y-35279227D02*
X41087560Y-35279227D01*
X41087560Y-35279227D02*
X41106607Y-35269703D01*
X41106607Y-35269703D02*
X41116131Y-35260180D01*
X41116131Y-35260180D02*
X41125655Y-35241132D01*
X41125655Y-35241132D02*
X41125655Y-35193513D01*
X41125655Y-35193513D02*
X41116131Y-35174465D01*
X41116131Y-35174465D02*
X41106607Y-35164941D01*
X41106607Y-35164941D02*
X41087560Y-35155418D01*
X41087560Y-35155418D02*
X41049464Y-35155418D01*
X41049464Y-35155418D02*
X41030417Y-35164941D01*
X41030417Y-35164941D02*
X41020893Y-35174465D01*
X41020893Y-35174465D02*
X41011369Y-35193513D01*
X41239941Y-35164941D02*
X41220893Y-35155418D01*
X41220893Y-35155418D02*
X41211369Y-35145894D01*
X41211369Y-35145894D02*
X41201845Y-35126846D01*
X41201845Y-35126846D02*
X41201845Y-35117322D01*
X41201845Y-35117322D02*
X41211369Y-35098275D01*
X41211369Y-35098275D02*
X41220893Y-35088751D01*
X41220893Y-35088751D02*
X41239941Y-35079227D01*
X41239941Y-35079227D02*
X41278036Y-35079227D01*
X41278036Y-35079227D02*
X41297084Y-35088751D01*
X41297084Y-35088751D02*
X41306607Y-35098275D01*
X41306607Y-35098275D02*
X41316131Y-35117322D01*
X41316131Y-35117322D02*
X41316131Y-35126846D01*
X41316131Y-35126846D02*
X41306607Y-35145894D01*
X41306607Y-35145894D02*
X41297084Y-35155418D01*
X41297084Y-35155418D02*
X41278036Y-35164941D01*
X41278036Y-35164941D02*
X41239941Y-35164941D01*
X41239941Y-35164941D02*
X41220893Y-35174465D01*
X41220893Y-35174465D02*
X41211369Y-35183989D01*
X41211369Y-35183989D02*
X41201845Y-35203037D01*
X41201845Y-35203037D02*
X41201845Y-35241132D01*
X41201845Y-35241132D02*
X41211369Y-35260180D01*
X41211369Y-35260180D02*
X41220893Y-35269703D01*
X41220893Y-35269703D02*
X41239941Y-35279227D01*
X41239941Y-35279227D02*
X41278036Y-35279227D01*
X41278036Y-35279227D02*
X41297084Y-35269703D01*
X41297084Y-35269703D02*
X41306607Y-35260180D01*
X41306607Y-35260180D02*
X41316131Y-35241132D01*
X41316131Y-35241132D02*
X41316131Y-35203037D01*
X41316131Y-35203037D02*
X41306607Y-35183989D01*
X41306607Y-35183989D02*
X41297084Y-35174465D01*
X41297084Y-35174465D02*
X41278036Y-35164941D01*
X41554226Y-35279227D02*
X41554226Y-35079227D01*
X41639941Y-35279227D02*
X41639941Y-35174465D01*
X41639941Y-35174465D02*
X41630417Y-35155418D01*
X41630417Y-35155418D02*
X41611369Y-35145894D01*
X41611369Y-35145894D02*
X41582798Y-35145894D01*
X41582798Y-35145894D02*
X41563750Y-35155418D01*
X41563750Y-35155418D02*
X41554226Y-35164941D01*
X41763750Y-35279227D02*
X41744703Y-35269703D01*
X41744703Y-35269703D02*
X41735179Y-35260180D01*
X41735179Y-35260180D02*
X41725655Y-35241132D01*
X41725655Y-35241132D02*
X41725655Y-35183989D01*
X41725655Y-35183989D02*
X41735179Y-35164941D01*
X41735179Y-35164941D02*
X41744703Y-35155418D01*
X41744703Y-35155418D02*
X41763750Y-35145894D01*
X41763750Y-35145894D02*
X41792322Y-35145894D01*
X41792322Y-35145894D02*
X41811369Y-35155418D01*
X41811369Y-35155418D02*
X41820893Y-35164941D01*
X41820893Y-35164941D02*
X41830417Y-35183989D01*
X41830417Y-35183989D02*
X41830417Y-35241132D01*
X41830417Y-35241132D02*
X41820893Y-35260180D01*
X41820893Y-35260180D02*
X41811369Y-35269703D01*
X41811369Y-35269703D02*
X41792322Y-35279227D01*
X41792322Y-35279227D02*
X41763750Y-35279227D01*
X41944703Y-35279227D02*
X41925655Y-35269703D01*
X41925655Y-35269703D02*
X41916131Y-35250656D01*
X41916131Y-35250656D02*
X41916131Y-35079227D01*
X42097084Y-35269703D02*
X42078036Y-35279227D01*
X42078036Y-35279227D02*
X42039941Y-35279227D01*
X42039941Y-35279227D02*
X42020893Y-35269703D01*
X42020893Y-35269703D02*
X42011369Y-35250656D01*
X42011369Y-35250656D02*
X42011369Y-35174465D01*
X42011369Y-35174465D02*
X42020893Y-35155418D01*
X42020893Y-35155418D02*
X42039941Y-35145894D01*
X42039941Y-35145894D02*
X42078036Y-35145894D01*
X42078036Y-35145894D02*
X42097084Y-35155418D01*
X42097084Y-35155418D02*
X42106607Y-35174465D01*
X42106607Y-35174465D02*
X42106607Y-35193513D01*
X42106607Y-35193513D02*
X42011369Y-35212561D01*
X42182798Y-35269703D02*
X42201846Y-35279227D01*
X42201846Y-35279227D02*
X42239941Y-35279227D01*
X42239941Y-35279227D02*
X42258988Y-35269703D01*
X42258988Y-35269703D02*
X42268512Y-35250656D01*
X42268512Y-35250656D02*
X42268512Y-35241132D01*
X42268512Y-35241132D02*
X42258988Y-35222084D01*
X42258988Y-35222084D02*
X42239941Y-35212561D01*
X42239941Y-35212561D02*
X42211369Y-35212561D01*
X42211369Y-35212561D02*
X42192322Y-35203037D01*
X42192322Y-35203037D02*
X42182798Y-35183989D01*
X42182798Y-35183989D02*
X42182798Y-35174465D01*
X42182798Y-35174465D02*
X42192322Y-35155418D01*
X42192322Y-35155418D02*
X42211369Y-35145894D01*
X42211369Y-35145894D02*
X42239941Y-35145894D01*
X42239941Y-35145894D02*
X42258988Y-35155418D01*
X42335179Y-35355418D02*
X42344703Y-35345894D01*
X42344703Y-35345894D02*
X42363750Y-35317322D01*
X42363750Y-35317322D02*
X42373274Y-35298275D01*
X42373274Y-35298275D02*
X42382798Y-35269703D01*
X42382798Y-35269703D02*
X42392322Y-35222084D01*
X42392322Y-35222084D02*
X42392322Y-35183989D01*
X42392322Y-35183989D02*
X42382798Y-35136370D01*
X42382798Y-35136370D02*
X42373274Y-35107799D01*
X42373274Y-35107799D02*
X42363750Y-35088751D01*
X42363750Y-35088751D02*
X42344703Y-35060180D01*
X42344703Y-35060180D02*
X42335179Y-35050656D01*
D10*
X37179164Y-35451743D02*
G75*
G02*
X37119164Y-35451743I-30000J0D01*
G01*
X37119164Y-35451743D02*
G75*
G02*
X37179164Y-35451743I30000J0D01*
G01*
D11*
X37478036Y-35343227D02*
X37497083Y-35343227D01*
X37497083Y-35343227D02*
X37516131Y-35352751D01*
X37516131Y-35352751D02*
X37525655Y-35362275D01*
X37525655Y-35362275D02*
X37535178Y-35381322D01*
X37535178Y-35381322D02*
X37544702Y-35419418D01*
X37544702Y-35419418D02*
X37544702Y-35467037D01*
X37544702Y-35467037D02*
X37535178Y-35505132D01*
X37535178Y-35505132D02*
X37525655Y-35524180D01*
X37525655Y-35524180D02*
X37516131Y-35533703D01*
X37516131Y-35533703D02*
X37497083Y-35543227D01*
X37497083Y-35543227D02*
X37478036Y-35543227D01*
X37478036Y-35543227D02*
X37458988Y-35533703D01*
X37458988Y-35533703D02*
X37449464Y-35524180D01*
X37449464Y-35524180D02*
X37439940Y-35505132D01*
X37439940Y-35505132D02*
X37430417Y-35467037D01*
X37430417Y-35467037D02*
X37430417Y-35419418D01*
X37430417Y-35419418D02*
X37439940Y-35381322D01*
X37439940Y-35381322D02*
X37449464Y-35362275D01*
X37449464Y-35362275D02*
X37458988Y-35352751D01*
X37458988Y-35352751D02*
X37478036Y-35343227D01*
X37630417Y-35524180D02*
X37639940Y-35533703D01*
X37639940Y-35533703D02*
X37630417Y-35543227D01*
X37630417Y-35543227D02*
X37620893Y-35533703D01*
X37620893Y-35533703D02*
X37630417Y-35524180D01*
X37630417Y-35524180D02*
X37630417Y-35543227D01*
X37811369Y-35343227D02*
X37773274Y-35343227D01*
X37773274Y-35343227D02*
X37754226Y-35352751D01*
X37754226Y-35352751D02*
X37744702Y-35362275D01*
X37744702Y-35362275D02*
X37725655Y-35390846D01*
X37725655Y-35390846D02*
X37716131Y-35428941D01*
X37716131Y-35428941D02*
X37716131Y-35505132D01*
X37716131Y-35505132D02*
X37725655Y-35524180D01*
X37725655Y-35524180D02*
X37735178Y-35533703D01*
X37735178Y-35533703D02*
X37754226Y-35543227D01*
X37754226Y-35543227D02*
X37792321Y-35543227D01*
X37792321Y-35543227D02*
X37811369Y-35533703D01*
X37811369Y-35533703D02*
X37820893Y-35524180D01*
X37820893Y-35524180D02*
X37830417Y-35505132D01*
X37830417Y-35505132D02*
X37830417Y-35457513D01*
X37830417Y-35457513D02*
X37820893Y-35438465D01*
X37820893Y-35438465D02*
X37811369Y-35428941D01*
X37811369Y-35428941D02*
X37792321Y-35419418D01*
X37792321Y-35419418D02*
X37754226Y-35419418D01*
X37754226Y-35419418D02*
X37735178Y-35428941D01*
X37735178Y-35428941D02*
X37725655Y-35438465D01*
X37725655Y-35438465D02*
X37716131Y-35457513D01*
X37954226Y-35343227D02*
X37973274Y-35343227D01*
X37973274Y-35343227D02*
X37992321Y-35352751D01*
X37992321Y-35352751D02*
X38001845Y-35362275D01*
X38001845Y-35362275D02*
X38011369Y-35381322D01*
X38011369Y-35381322D02*
X38020893Y-35419418D01*
X38020893Y-35419418D02*
X38020893Y-35467037D01*
X38020893Y-35467037D02*
X38011369Y-35505132D01*
X38011369Y-35505132D02*
X38001845Y-35524180D01*
X38001845Y-35524180D02*
X37992321Y-35533703D01*
X37992321Y-35533703D02*
X37973274Y-35543227D01*
X37973274Y-35543227D02*
X37954226Y-35543227D01*
X37954226Y-35543227D02*
X37935178Y-35533703D01*
X37935178Y-35533703D02*
X37925655Y-35524180D01*
X37925655Y-35524180D02*
X37916131Y-35505132D01*
X37916131Y-35505132D02*
X37906607Y-35467037D01*
X37906607Y-35467037D02*
X37906607Y-35419418D01*
X37906607Y-35419418D02*
X37916131Y-35381322D01*
X37916131Y-35381322D02*
X37925655Y-35362275D01*
X37925655Y-35362275D02*
X37935178Y-35352751D01*
X37935178Y-35352751D02*
X37954226Y-35343227D01*
X38144702Y-35343227D02*
X38163750Y-35343227D01*
X38163750Y-35343227D02*
X38182798Y-35352751D01*
X38182798Y-35352751D02*
X38192321Y-35362275D01*
X38192321Y-35362275D02*
X38201845Y-35381322D01*
X38201845Y-35381322D02*
X38211369Y-35419418D01*
X38211369Y-35419418D02*
X38211369Y-35467037D01*
X38211369Y-35467037D02*
X38201845Y-35505132D01*
X38201845Y-35505132D02*
X38192321Y-35524180D01*
X38192321Y-35524180D02*
X38182798Y-35533703D01*
X38182798Y-35533703D02*
X38163750Y-35543227D01*
X38163750Y-35543227D02*
X38144702Y-35543227D01*
X38144702Y-35543227D02*
X38125655Y-35533703D01*
X38125655Y-35533703D02*
X38116131Y-35524180D01*
X38116131Y-35524180D02*
X38106607Y-35505132D01*
X38106607Y-35505132D02*
X38097083Y-35467037D01*
X38097083Y-35467037D02*
X38097083Y-35419418D01*
X38097083Y-35419418D02*
X38106607Y-35381322D01*
X38106607Y-35381322D02*
X38116131Y-35362275D01*
X38116131Y-35362275D02*
X38125655Y-35352751D01*
X38125655Y-35352751D02*
X38144702Y-35343227D01*
X38297083Y-35543227D02*
X38297083Y-35409894D01*
X38297083Y-35428941D02*
X38306607Y-35419418D01*
X38306607Y-35419418D02*
X38325655Y-35409894D01*
X38325655Y-35409894D02*
X38354226Y-35409894D01*
X38354226Y-35409894D02*
X38373274Y-35419418D01*
X38373274Y-35419418D02*
X38382798Y-35438465D01*
X38382798Y-35438465D02*
X38382798Y-35543227D01*
X38382798Y-35438465D02*
X38392321Y-35419418D01*
X38392321Y-35419418D02*
X38411369Y-35409894D01*
X38411369Y-35409894D02*
X38439940Y-35409894D01*
X38439940Y-35409894D02*
X38458988Y-35419418D01*
X38458988Y-35419418D02*
X38468512Y-35438465D01*
X38468512Y-35438465D02*
X38468512Y-35543227D01*
X38563750Y-35543227D02*
X38563750Y-35409894D01*
X38563750Y-35428941D02*
X38573274Y-35419418D01*
X38573274Y-35419418D02*
X38592321Y-35409894D01*
X38592321Y-35409894D02*
X38620893Y-35409894D01*
X38620893Y-35409894D02*
X38639940Y-35419418D01*
X38639940Y-35419418D02*
X38649464Y-35438465D01*
X38649464Y-35438465D02*
X38649464Y-35543227D01*
X38649464Y-35438465D02*
X38658988Y-35419418D01*
X38658988Y-35419418D02*
X38678036Y-35409894D01*
X38678036Y-35409894D02*
X38706607Y-35409894D01*
X38706607Y-35409894D02*
X38725655Y-35419418D01*
X38725655Y-35419418D02*
X38735179Y-35438465D01*
X38735179Y-35438465D02*
X38735179Y-35543227D01*
X39125655Y-35333703D02*
X38954226Y-35590846D01*
X39382798Y-35343227D02*
X39401845Y-35343227D01*
X39401845Y-35343227D02*
X39420893Y-35352751D01*
X39420893Y-35352751D02*
X39430417Y-35362275D01*
X39430417Y-35362275D02*
X39439941Y-35381322D01*
X39439941Y-35381322D02*
X39449464Y-35419418D01*
X39449464Y-35419418D02*
X39449464Y-35467037D01*
X39449464Y-35467037D02*
X39439941Y-35505132D01*
X39439941Y-35505132D02*
X39430417Y-35524180D01*
X39430417Y-35524180D02*
X39420893Y-35533703D01*
X39420893Y-35533703D02*
X39401845Y-35543227D01*
X39401845Y-35543227D02*
X39382798Y-35543227D01*
X39382798Y-35543227D02*
X39363750Y-35533703D01*
X39363750Y-35533703D02*
X39354226Y-35524180D01*
X39354226Y-35524180D02*
X39344702Y-35505132D01*
X39344702Y-35505132D02*
X39335179Y-35467037D01*
X39335179Y-35467037D02*
X39335179Y-35419418D01*
X39335179Y-35419418D02*
X39344702Y-35381322D01*
X39344702Y-35381322D02*
X39354226Y-35362275D01*
X39354226Y-35362275D02*
X39363750Y-35352751D01*
X39363750Y-35352751D02*
X39382798Y-35343227D01*
X39535179Y-35524180D02*
X39544702Y-35533703D01*
X39544702Y-35533703D02*
X39535179Y-35543227D01*
X39535179Y-35543227D02*
X39525655Y-35533703D01*
X39525655Y-35533703D02*
X39535179Y-35524180D01*
X39535179Y-35524180D02*
X39535179Y-35543227D01*
X39668512Y-35343227D02*
X39687560Y-35343227D01*
X39687560Y-35343227D02*
X39706607Y-35352751D01*
X39706607Y-35352751D02*
X39716131Y-35362275D01*
X39716131Y-35362275D02*
X39725655Y-35381322D01*
X39725655Y-35381322D02*
X39735179Y-35419418D01*
X39735179Y-35419418D02*
X39735179Y-35467037D01*
X39735179Y-35467037D02*
X39725655Y-35505132D01*
X39725655Y-35505132D02*
X39716131Y-35524180D01*
X39716131Y-35524180D02*
X39706607Y-35533703D01*
X39706607Y-35533703D02*
X39687560Y-35543227D01*
X39687560Y-35543227D02*
X39668512Y-35543227D01*
X39668512Y-35543227D02*
X39649464Y-35533703D01*
X39649464Y-35533703D02*
X39639941Y-35524180D01*
X39639941Y-35524180D02*
X39630417Y-35505132D01*
X39630417Y-35505132D02*
X39620893Y-35467037D01*
X39620893Y-35467037D02*
X39620893Y-35419418D01*
X39620893Y-35419418D02*
X39630417Y-35381322D01*
X39630417Y-35381322D02*
X39639941Y-35362275D01*
X39639941Y-35362275D02*
X39649464Y-35352751D01*
X39649464Y-35352751D02*
X39668512Y-35343227D01*
X39811369Y-35362275D02*
X39820893Y-35352751D01*
X39820893Y-35352751D02*
X39839941Y-35343227D01*
X39839941Y-35343227D02*
X39887560Y-35343227D01*
X39887560Y-35343227D02*
X39906607Y-35352751D01*
X39906607Y-35352751D02*
X39916131Y-35362275D01*
X39916131Y-35362275D02*
X39925655Y-35381322D01*
X39925655Y-35381322D02*
X39925655Y-35400370D01*
X39925655Y-35400370D02*
X39916131Y-35428941D01*
X39916131Y-35428941D02*
X39801845Y-35543227D01*
X39801845Y-35543227D02*
X39925655Y-35543227D01*
X39992322Y-35343227D02*
X40116131Y-35343227D01*
X40116131Y-35343227D02*
X40049464Y-35419418D01*
X40049464Y-35419418D02*
X40078036Y-35419418D01*
X40078036Y-35419418D02*
X40097083Y-35428941D01*
X40097083Y-35428941D02*
X40106607Y-35438465D01*
X40106607Y-35438465D02*
X40116131Y-35457513D01*
X40116131Y-35457513D02*
X40116131Y-35505132D01*
X40116131Y-35505132D02*
X40106607Y-35524180D01*
X40106607Y-35524180D02*
X40097083Y-35533703D01*
X40097083Y-35533703D02*
X40078036Y-35543227D01*
X40078036Y-35543227D02*
X40020893Y-35543227D01*
X40020893Y-35543227D02*
X40001845Y-35533703D01*
X40001845Y-35533703D02*
X39992322Y-35524180D01*
X40287560Y-35343227D02*
X40249464Y-35343227D01*
X40249464Y-35343227D02*
X40230417Y-35352751D01*
X40230417Y-35352751D02*
X40220893Y-35362275D01*
X40220893Y-35362275D02*
X40201845Y-35390846D01*
X40201845Y-35390846D02*
X40192322Y-35428941D01*
X40192322Y-35428941D02*
X40192322Y-35505132D01*
X40192322Y-35505132D02*
X40201845Y-35524180D01*
X40201845Y-35524180D02*
X40211369Y-35533703D01*
X40211369Y-35533703D02*
X40230417Y-35543227D01*
X40230417Y-35543227D02*
X40268512Y-35543227D01*
X40268512Y-35543227D02*
X40287560Y-35533703D01*
X40287560Y-35533703D02*
X40297083Y-35524180D01*
X40297083Y-35524180D02*
X40306607Y-35505132D01*
X40306607Y-35505132D02*
X40306607Y-35457513D01*
X40306607Y-35457513D02*
X40297083Y-35438465D01*
X40297083Y-35438465D02*
X40287560Y-35428941D01*
X40287560Y-35428941D02*
X40268512Y-35419418D01*
X40268512Y-35419418D02*
X40230417Y-35419418D01*
X40230417Y-35419418D02*
X40211369Y-35428941D01*
X40211369Y-35428941D02*
X40201845Y-35438465D01*
X40201845Y-35438465D02*
X40192322Y-35457513D01*
X40382798Y-35343227D02*
X40382798Y-35381322D01*
X40458988Y-35343227D02*
X40458988Y-35381322D01*
X40754226Y-35619418D02*
X40744703Y-35609894D01*
X40744703Y-35609894D02*
X40725655Y-35581322D01*
X40725655Y-35581322D02*
X40716131Y-35562275D01*
X40716131Y-35562275D02*
X40706607Y-35533703D01*
X40706607Y-35533703D02*
X40697084Y-35486084D01*
X40697084Y-35486084D02*
X40697084Y-35447989D01*
X40697084Y-35447989D02*
X40706607Y-35400370D01*
X40706607Y-35400370D02*
X40716131Y-35371799D01*
X40716131Y-35371799D02*
X40725655Y-35352751D01*
X40725655Y-35352751D02*
X40744703Y-35324180D01*
X40744703Y-35324180D02*
X40754226Y-35314656D01*
X40868512Y-35343227D02*
X40887560Y-35343227D01*
X40887560Y-35343227D02*
X40906607Y-35352751D01*
X40906607Y-35352751D02*
X40916131Y-35362275D01*
X40916131Y-35362275D02*
X40925655Y-35381322D01*
X40925655Y-35381322D02*
X40935179Y-35419418D01*
X40935179Y-35419418D02*
X40935179Y-35467037D01*
X40935179Y-35467037D02*
X40925655Y-35505132D01*
X40925655Y-35505132D02*
X40916131Y-35524180D01*
X40916131Y-35524180D02*
X40906607Y-35533703D01*
X40906607Y-35533703D02*
X40887560Y-35543227D01*
X40887560Y-35543227D02*
X40868512Y-35543227D01*
X40868512Y-35543227D02*
X40849464Y-35533703D01*
X40849464Y-35533703D02*
X40839941Y-35524180D01*
X40839941Y-35524180D02*
X40830417Y-35505132D01*
X40830417Y-35505132D02*
X40820893Y-35467037D01*
X40820893Y-35467037D02*
X40820893Y-35419418D01*
X40820893Y-35419418D02*
X40830417Y-35381322D01*
X40830417Y-35381322D02*
X40839941Y-35362275D01*
X40839941Y-35362275D02*
X40849464Y-35352751D01*
X40849464Y-35352751D02*
X40868512Y-35343227D01*
X41173274Y-35543227D02*
X41173274Y-35343227D01*
X41258988Y-35543227D02*
X41258988Y-35438465D01*
X41258988Y-35438465D02*
X41249465Y-35419418D01*
X41249465Y-35419418D02*
X41230417Y-35409894D01*
X41230417Y-35409894D02*
X41201845Y-35409894D01*
X41201845Y-35409894D02*
X41182798Y-35419418D01*
X41182798Y-35419418D02*
X41173274Y-35428941D01*
X41382798Y-35543227D02*
X41363750Y-35533703D01*
X41363750Y-35533703D02*
X41354226Y-35524180D01*
X41354226Y-35524180D02*
X41344703Y-35505132D01*
X41344703Y-35505132D02*
X41344703Y-35447989D01*
X41344703Y-35447989D02*
X41354226Y-35428941D01*
X41354226Y-35428941D02*
X41363750Y-35419418D01*
X41363750Y-35419418D02*
X41382798Y-35409894D01*
X41382798Y-35409894D02*
X41411369Y-35409894D01*
X41411369Y-35409894D02*
X41430417Y-35419418D01*
X41430417Y-35419418D02*
X41439941Y-35428941D01*
X41439941Y-35428941D02*
X41449465Y-35447989D01*
X41449465Y-35447989D02*
X41449465Y-35505132D01*
X41449465Y-35505132D02*
X41439941Y-35524180D01*
X41439941Y-35524180D02*
X41430417Y-35533703D01*
X41430417Y-35533703D02*
X41411369Y-35543227D01*
X41411369Y-35543227D02*
X41382798Y-35543227D01*
X41563750Y-35543227D02*
X41544703Y-35533703D01*
X41544703Y-35533703D02*
X41535179Y-35514656D01*
X41535179Y-35514656D02*
X41535179Y-35343227D01*
X41716131Y-35533703D02*
X41697084Y-35543227D01*
X41697084Y-35543227D02*
X41658988Y-35543227D01*
X41658988Y-35543227D02*
X41639941Y-35533703D01*
X41639941Y-35533703D02*
X41630417Y-35514656D01*
X41630417Y-35514656D02*
X41630417Y-35438465D01*
X41630417Y-35438465D02*
X41639941Y-35419418D01*
X41639941Y-35419418D02*
X41658988Y-35409894D01*
X41658988Y-35409894D02*
X41697084Y-35409894D01*
X41697084Y-35409894D02*
X41716131Y-35419418D01*
X41716131Y-35419418D02*
X41725655Y-35438465D01*
X41725655Y-35438465D02*
X41725655Y-35457513D01*
X41725655Y-35457513D02*
X41630417Y-35476561D01*
X41801846Y-35533703D02*
X41820893Y-35543227D01*
X41820893Y-35543227D02*
X41858988Y-35543227D01*
X41858988Y-35543227D02*
X41878036Y-35533703D01*
X41878036Y-35533703D02*
X41887560Y-35514656D01*
X41887560Y-35514656D02*
X41887560Y-35505132D01*
X41887560Y-35505132D02*
X41878036Y-35486084D01*
X41878036Y-35486084D02*
X41858988Y-35476561D01*
X41858988Y-35476561D02*
X41830417Y-35476561D01*
X41830417Y-35476561D02*
X41811369Y-35467037D01*
X41811369Y-35467037D02*
X41801846Y-35447989D01*
X41801846Y-35447989D02*
X41801846Y-35438465D01*
X41801846Y-35438465D02*
X41811369Y-35419418D01*
X41811369Y-35419418D02*
X41830417Y-35409894D01*
X41830417Y-35409894D02*
X41858988Y-35409894D01*
X41858988Y-35409894D02*
X41878036Y-35419418D01*
X42125655Y-35467037D02*
X42278036Y-35467037D01*
X42201846Y-35543227D02*
X42201846Y-35390846D01*
X42611369Y-35409894D02*
X42611369Y-35543227D01*
X42563750Y-35333703D02*
X42516131Y-35476561D01*
X42516131Y-35476561D02*
X42639941Y-35476561D01*
X42858989Y-35533703D02*
X42878036Y-35543227D01*
X42878036Y-35543227D02*
X42916131Y-35543227D01*
X42916131Y-35543227D02*
X42935179Y-35533703D01*
X42935179Y-35533703D02*
X42944703Y-35514656D01*
X42944703Y-35514656D02*
X42944703Y-35505132D01*
X42944703Y-35505132D02*
X42935179Y-35486084D01*
X42935179Y-35486084D02*
X42916131Y-35476561D01*
X42916131Y-35476561D02*
X42887560Y-35476561D01*
X42887560Y-35476561D02*
X42868512Y-35467037D01*
X42868512Y-35467037D02*
X42858989Y-35447989D01*
X42858989Y-35447989D02*
X42858989Y-35438465D01*
X42858989Y-35438465D02*
X42868512Y-35419418D01*
X42868512Y-35419418D02*
X42887560Y-35409894D01*
X42887560Y-35409894D02*
X42916131Y-35409894D01*
X42916131Y-35409894D02*
X42935179Y-35419418D01*
X43058989Y-35543227D02*
X43039941Y-35533703D01*
X43039941Y-35533703D02*
X43030417Y-35514656D01*
X43030417Y-35514656D02*
X43030417Y-35343227D01*
X43163750Y-35543227D02*
X43144703Y-35533703D01*
X43144703Y-35533703D02*
X43135179Y-35524180D01*
X43135179Y-35524180D02*
X43125655Y-35505132D01*
X43125655Y-35505132D02*
X43125655Y-35447989D01*
X43125655Y-35447989D02*
X43135179Y-35428941D01*
X43135179Y-35428941D02*
X43144703Y-35419418D01*
X43144703Y-35419418D02*
X43163750Y-35409894D01*
X43163750Y-35409894D02*
X43192322Y-35409894D01*
X43192322Y-35409894D02*
X43211370Y-35419418D01*
X43211370Y-35419418D02*
X43220893Y-35428941D01*
X43220893Y-35428941D02*
X43230417Y-35447989D01*
X43230417Y-35447989D02*
X43230417Y-35505132D01*
X43230417Y-35505132D02*
X43220893Y-35524180D01*
X43220893Y-35524180D02*
X43211370Y-35533703D01*
X43211370Y-35533703D02*
X43192322Y-35543227D01*
X43192322Y-35543227D02*
X43163750Y-35543227D01*
X43287560Y-35409894D02*
X43363750Y-35409894D01*
X43316131Y-35343227D02*
X43316131Y-35514656D01*
X43316131Y-35514656D02*
X43325655Y-35533703D01*
X43325655Y-35533703D02*
X43344703Y-35543227D01*
X43344703Y-35543227D02*
X43363750Y-35543227D01*
X43420893Y-35533703D02*
X43439941Y-35543227D01*
X43439941Y-35543227D02*
X43478036Y-35543227D01*
X43478036Y-35543227D02*
X43497084Y-35533703D01*
X43497084Y-35533703D02*
X43506608Y-35514656D01*
X43506608Y-35514656D02*
X43506608Y-35505132D01*
X43506608Y-35505132D02*
X43497084Y-35486084D01*
X43497084Y-35486084D02*
X43478036Y-35476561D01*
X43478036Y-35476561D02*
X43449465Y-35476561D01*
X43449465Y-35476561D02*
X43430417Y-35467037D01*
X43430417Y-35467037D02*
X43420893Y-35447989D01*
X43420893Y-35447989D02*
X43420893Y-35438465D01*
X43420893Y-35438465D02*
X43430417Y-35419418D01*
X43430417Y-35419418D02*
X43449465Y-35409894D01*
X43449465Y-35409894D02*
X43478036Y-35409894D01*
X43478036Y-35409894D02*
X43497084Y-35419418D01*
X43573274Y-35619418D02*
X43582798Y-35609894D01*
X43582798Y-35609894D02*
X43601846Y-35581322D01*
X43601846Y-35581322D02*
X43611370Y-35562275D01*
X43611370Y-35562275D02*
X43620893Y-35533703D01*
X43620893Y-35533703D02*
X43630417Y-35486084D01*
X43630417Y-35486084D02*
X43630417Y-35447989D01*
X43630417Y-35447989D02*
X43620893Y-35400370D01*
X43620893Y-35400370D02*
X43611370Y-35371799D01*
X43611370Y-35371799D02*
X43601846Y-35352751D01*
X43601846Y-35352751D02*
X43582798Y-35324180D01*
X43582798Y-35324180D02*
X43573274Y-35314656D01*
D10*
X37129164Y-35665743D02*
X37129164Y-35765743D01*
X37079164Y-35715743D02*
X37179164Y-35715743D01*
D11*
X37544702Y-35807227D02*
X37430417Y-35807227D01*
X37487559Y-35807227D02*
X37487559Y-35607227D01*
X37487559Y-35607227D02*
X37468512Y-35635799D01*
X37468512Y-35635799D02*
X37449464Y-35654846D01*
X37449464Y-35654846D02*
X37430417Y-35664370D01*
X37630417Y-35788180D02*
X37639940Y-35797703D01*
X37639940Y-35797703D02*
X37630417Y-35807227D01*
X37630417Y-35807227D02*
X37620893Y-35797703D01*
X37620893Y-35797703D02*
X37630417Y-35788180D01*
X37630417Y-35788180D02*
X37630417Y-35807227D01*
X37763750Y-35607227D02*
X37782798Y-35607227D01*
X37782798Y-35607227D02*
X37801845Y-35616751D01*
X37801845Y-35616751D02*
X37811369Y-35626275D01*
X37811369Y-35626275D02*
X37820893Y-35645322D01*
X37820893Y-35645322D02*
X37830417Y-35683418D01*
X37830417Y-35683418D02*
X37830417Y-35731037D01*
X37830417Y-35731037D02*
X37820893Y-35769132D01*
X37820893Y-35769132D02*
X37811369Y-35788180D01*
X37811369Y-35788180D02*
X37801845Y-35797703D01*
X37801845Y-35797703D02*
X37782798Y-35807227D01*
X37782798Y-35807227D02*
X37763750Y-35807227D01*
X37763750Y-35807227D02*
X37744702Y-35797703D01*
X37744702Y-35797703D02*
X37735178Y-35788180D01*
X37735178Y-35788180D02*
X37725655Y-35769132D01*
X37725655Y-35769132D02*
X37716131Y-35731037D01*
X37716131Y-35731037D02*
X37716131Y-35683418D01*
X37716131Y-35683418D02*
X37725655Y-35645322D01*
X37725655Y-35645322D02*
X37735178Y-35626275D01*
X37735178Y-35626275D02*
X37744702Y-35616751D01*
X37744702Y-35616751D02*
X37763750Y-35607227D01*
X37954226Y-35607227D02*
X37973274Y-35607227D01*
X37973274Y-35607227D02*
X37992321Y-35616751D01*
X37992321Y-35616751D02*
X38001845Y-35626275D01*
X38001845Y-35626275D02*
X38011369Y-35645322D01*
X38011369Y-35645322D02*
X38020893Y-35683418D01*
X38020893Y-35683418D02*
X38020893Y-35731037D01*
X38020893Y-35731037D02*
X38011369Y-35769132D01*
X38011369Y-35769132D02*
X38001845Y-35788180D01*
X38001845Y-35788180D02*
X37992321Y-35797703D01*
X37992321Y-35797703D02*
X37973274Y-35807227D01*
X37973274Y-35807227D02*
X37954226Y-35807227D01*
X37954226Y-35807227D02*
X37935178Y-35797703D01*
X37935178Y-35797703D02*
X37925655Y-35788180D01*
X37925655Y-35788180D02*
X37916131Y-35769132D01*
X37916131Y-35769132D02*
X37906607Y-35731037D01*
X37906607Y-35731037D02*
X37906607Y-35683418D01*
X37906607Y-35683418D02*
X37916131Y-35645322D01*
X37916131Y-35645322D02*
X37925655Y-35626275D01*
X37925655Y-35626275D02*
X37935178Y-35616751D01*
X37935178Y-35616751D02*
X37954226Y-35607227D01*
X38144702Y-35607227D02*
X38163750Y-35607227D01*
X38163750Y-35607227D02*
X38182798Y-35616751D01*
X38182798Y-35616751D02*
X38192321Y-35626275D01*
X38192321Y-35626275D02*
X38201845Y-35645322D01*
X38201845Y-35645322D02*
X38211369Y-35683418D01*
X38211369Y-35683418D02*
X38211369Y-35731037D01*
X38211369Y-35731037D02*
X38201845Y-35769132D01*
X38201845Y-35769132D02*
X38192321Y-35788180D01*
X38192321Y-35788180D02*
X38182798Y-35797703D01*
X38182798Y-35797703D02*
X38163750Y-35807227D01*
X38163750Y-35807227D02*
X38144702Y-35807227D01*
X38144702Y-35807227D02*
X38125655Y-35797703D01*
X38125655Y-35797703D02*
X38116131Y-35788180D01*
X38116131Y-35788180D02*
X38106607Y-35769132D01*
X38106607Y-35769132D02*
X38097083Y-35731037D01*
X38097083Y-35731037D02*
X38097083Y-35683418D01*
X38097083Y-35683418D02*
X38106607Y-35645322D01*
X38106607Y-35645322D02*
X38116131Y-35626275D01*
X38116131Y-35626275D02*
X38125655Y-35616751D01*
X38125655Y-35616751D02*
X38144702Y-35607227D01*
X38297083Y-35807227D02*
X38297083Y-35673894D01*
X38297083Y-35692941D02*
X38306607Y-35683418D01*
X38306607Y-35683418D02*
X38325655Y-35673894D01*
X38325655Y-35673894D02*
X38354226Y-35673894D01*
X38354226Y-35673894D02*
X38373274Y-35683418D01*
X38373274Y-35683418D02*
X38382798Y-35702465D01*
X38382798Y-35702465D02*
X38382798Y-35807227D01*
X38382798Y-35702465D02*
X38392321Y-35683418D01*
X38392321Y-35683418D02*
X38411369Y-35673894D01*
X38411369Y-35673894D02*
X38439940Y-35673894D01*
X38439940Y-35673894D02*
X38458988Y-35683418D01*
X38458988Y-35683418D02*
X38468512Y-35702465D01*
X38468512Y-35702465D02*
X38468512Y-35807227D01*
X38563750Y-35807227D02*
X38563750Y-35673894D01*
X38563750Y-35692941D02*
X38573274Y-35683418D01*
X38573274Y-35683418D02*
X38592321Y-35673894D01*
X38592321Y-35673894D02*
X38620893Y-35673894D01*
X38620893Y-35673894D02*
X38639940Y-35683418D01*
X38639940Y-35683418D02*
X38649464Y-35702465D01*
X38649464Y-35702465D02*
X38649464Y-35807227D01*
X38649464Y-35702465D02*
X38658988Y-35683418D01*
X38658988Y-35683418D02*
X38678036Y-35673894D01*
X38678036Y-35673894D02*
X38706607Y-35673894D01*
X38706607Y-35673894D02*
X38725655Y-35683418D01*
X38725655Y-35683418D02*
X38735179Y-35702465D01*
X38735179Y-35702465D02*
X38735179Y-35807227D01*
X39125655Y-35597703D02*
X38954226Y-35854846D01*
X39382798Y-35607227D02*
X39401845Y-35607227D01*
X39401845Y-35607227D02*
X39420893Y-35616751D01*
X39420893Y-35616751D02*
X39430417Y-35626275D01*
X39430417Y-35626275D02*
X39439941Y-35645322D01*
X39439941Y-35645322D02*
X39449464Y-35683418D01*
X39449464Y-35683418D02*
X39449464Y-35731037D01*
X39449464Y-35731037D02*
X39439941Y-35769132D01*
X39439941Y-35769132D02*
X39430417Y-35788180D01*
X39430417Y-35788180D02*
X39420893Y-35797703D01*
X39420893Y-35797703D02*
X39401845Y-35807227D01*
X39401845Y-35807227D02*
X39382798Y-35807227D01*
X39382798Y-35807227D02*
X39363750Y-35797703D01*
X39363750Y-35797703D02*
X39354226Y-35788180D01*
X39354226Y-35788180D02*
X39344702Y-35769132D01*
X39344702Y-35769132D02*
X39335179Y-35731037D01*
X39335179Y-35731037D02*
X39335179Y-35683418D01*
X39335179Y-35683418D02*
X39344702Y-35645322D01*
X39344702Y-35645322D02*
X39354226Y-35626275D01*
X39354226Y-35626275D02*
X39363750Y-35616751D01*
X39363750Y-35616751D02*
X39382798Y-35607227D01*
X39535179Y-35788180D02*
X39544702Y-35797703D01*
X39544702Y-35797703D02*
X39535179Y-35807227D01*
X39535179Y-35807227D02*
X39525655Y-35797703D01*
X39525655Y-35797703D02*
X39535179Y-35788180D01*
X39535179Y-35788180D02*
X39535179Y-35807227D01*
X39668512Y-35607227D02*
X39687560Y-35607227D01*
X39687560Y-35607227D02*
X39706607Y-35616751D01*
X39706607Y-35616751D02*
X39716131Y-35626275D01*
X39716131Y-35626275D02*
X39725655Y-35645322D01*
X39725655Y-35645322D02*
X39735179Y-35683418D01*
X39735179Y-35683418D02*
X39735179Y-35731037D01*
X39735179Y-35731037D02*
X39725655Y-35769132D01*
X39725655Y-35769132D02*
X39716131Y-35788180D01*
X39716131Y-35788180D02*
X39706607Y-35797703D01*
X39706607Y-35797703D02*
X39687560Y-35807227D01*
X39687560Y-35807227D02*
X39668512Y-35807227D01*
X39668512Y-35807227D02*
X39649464Y-35797703D01*
X39649464Y-35797703D02*
X39639941Y-35788180D01*
X39639941Y-35788180D02*
X39630417Y-35769132D01*
X39630417Y-35769132D02*
X39620893Y-35731037D01*
X39620893Y-35731037D02*
X39620893Y-35683418D01*
X39620893Y-35683418D02*
X39630417Y-35645322D01*
X39630417Y-35645322D02*
X39639941Y-35626275D01*
X39639941Y-35626275D02*
X39649464Y-35616751D01*
X39649464Y-35616751D02*
X39668512Y-35607227D01*
X39801845Y-35607227D02*
X39925655Y-35607227D01*
X39925655Y-35607227D02*
X39858988Y-35683418D01*
X39858988Y-35683418D02*
X39887560Y-35683418D01*
X39887560Y-35683418D02*
X39906607Y-35692941D01*
X39906607Y-35692941D02*
X39916131Y-35702465D01*
X39916131Y-35702465D02*
X39925655Y-35721513D01*
X39925655Y-35721513D02*
X39925655Y-35769132D01*
X39925655Y-35769132D02*
X39916131Y-35788180D01*
X39916131Y-35788180D02*
X39906607Y-35797703D01*
X39906607Y-35797703D02*
X39887560Y-35807227D01*
X39887560Y-35807227D02*
X39830417Y-35807227D01*
X39830417Y-35807227D02*
X39811369Y-35797703D01*
X39811369Y-35797703D02*
X39801845Y-35788180D01*
X40020893Y-35807227D02*
X40058988Y-35807227D01*
X40058988Y-35807227D02*
X40078036Y-35797703D01*
X40078036Y-35797703D02*
X40087560Y-35788180D01*
X40087560Y-35788180D02*
X40106607Y-35759608D01*
X40106607Y-35759608D02*
X40116131Y-35721513D01*
X40116131Y-35721513D02*
X40116131Y-35645322D01*
X40116131Y-35645322D02*
X40106607Y-35626275D01*
X40106607Y-35626275D02*
X40097083Y-35616751D01*
X40097083Y-35616751D02*
X40078036Y-35607227D01*
X40078036Y-35607227D02*
X40039941Y-35607227D01*
X40039941Y-35607227D02*
X40020893Y-35616751D01*
X40020893Y-35616751D02*
X40011369Y-35626275D01*
X40011369Y-35626275D02*
X40001845Y-35645322D01*
X40001845Y-35645322D02*
X40001845Y-35692941D01*
X40001845Y-35692941D02*
X40011369Y-35711989D01*
X40011369Y-35711989D02*
X40020893Y-35721513D01*
X40020893Y-35721513D02*
X40039941Y-35731037D01*
X40039941Y-35731037D02*
X40078036Y-35731037D01*
X40078036Y-35731037D02*
X40097083Y-35721513D01*
X40097083Y-35721513D02*
X40106607Y-35711989D01*
X40106607Y-35711989D02*
X40116131Y-35692941D01*
X40287560Y-35673894D02*
X40287560Y-35807227D01*
X40239941Y-35597703D02*
X40192322Y-35740561D01*
X40192322Y-35740561D02*
X40316131Y-35740561D01*
X40382798Y-35607227D02*
X40382798Y-35645322D01*
X40458988Y-35607227D02*
X40458988Y-35645322D01*
X40754226Y-35883418D02*
X40744703Y-35873894D01*
X40744703Y-35873894D02*
X40725655Y-35845322D01*
X40725655Y-35845322D02*
X40716131Y-35826275D01*
X40716131Y-35826275D02*
X40706607Y-35797703D01*
X40706607Y-35797703D02*
X40697084Y-35750084D01*
X40697084Y-35750084D02*
X40697084Y-35711989D01*
X40697084Y-35711989D02*
X40706607Y-35664370D01*
X40706607Y-35664370D02*
X40716131Y-35635799D01*
X40716131Y-35635799D02*
X40725655Y-35616751D01*
X40725655Y-35616751D02*
X40744703Y-35588180D01*
X40744703Y-35588180D02*
X40754226Y-35578656D01*
X40820893Y-35626275D02*
X40830417Y-35616751D01*
X40830417Y-35616751D02*
X40849464Y-35607227D01*
X40849464Y-35607227D02*
X40897084Y-35607227D01*
X40897084Y-35607227D02*
X40916131Y-35616751D01*
X40916131Y-35616751D02*
X40925655Y-35626275D01*
X40925655Y-35626275D02*
X40935179Y-35645322D01*
X40935179Y-35645322D02*
X40935179Y-35664370D01*
X40935179Y-35664370D02*
X40925655Y-35692941D01*
X40925655Y-35692941D02*
X40811369Y-35807227D01*
X40811369Y-35807227D02*
X40935179Y-35807227D01*
X41173274Y-35807227D02*
X41173274Y-35607227D01*
X41258988Y-35807227D02*
X41258988Y-35702465D01*
X41258988Y-35702465D02*
X41249465Y-35683418D01*
X41249465Y-35683418D02*
X41230417Y-35673894D01*
X41230417Y-35673894D02*
X41201845Y-35673894D01*
X41201845Y-35673894D02*
X41182798Y-35683418D01*
X41182798Y-35683418D02*
X41173274Y-35692941D01*
X41382798Y-35807227D02*
X41363750Y-35797703D01*
X41363750Y-35797703D02*
X41354226Y-35788180D01*
X41354226Y-35788180D02*
X41344703Y-35769132D01*
X41344703Y-35769132D02*
X41344703Y-35711989D01*
X41344703Y-35711989D02*
X41354226Y-35692941D01*
X41354226Y-35692941D02*
X41363750Y-35683418D01*
X41363750Y-35683418D02*
X41382798Y-35673894D01*
X41382798Y-35673894D02*
X41411369Y-35673894D01*
X41411369Y-35673894D02*
X41430417Y-35683418D01*
X41430417Y-35683418D02*
X41439941Y-35692941D01*
X41439941Y-35692941D02*
X41449465Y-35711989D01*
X41449465Y-35711989D02*
X41449465Y-35769132D01*
X41449465Y-35769132D02*
X41439941Y-35788180D01*
X41439941Y-35788180D02*
X41430417Y-35797703D01*
X41430417Y-35797703D02*
X41411369Y-35807227D01*
X41411369Y-35807227D02*
X41382798Y-35807227D01*
X41563750Y-35807227D02*
X41544703Y-35797703D01*
X41544703Y-35797703D02*
X41535179Y-35778656D01*
X41535179Y-35778656D02*
X41535179Y-35607227D01*
X41716131Y-35797703D02*
X41697084Y-35807227D01*
X41697084Y-35807227D02*
X41658988Y-35807227D01*
X41658988Y-35807227D02*
X41639941Y-35797703D01*
X41639941Y-35797703D02*
X41630417Y-35778656D01*
X41630417Y-35778656D02*
X41630417Y-35702465D01*
X41630417Y-35702465D02*
X41639941Y-35683418D01*
X41639941Y-35683418D02*
X41658988Y-35673894D01*
X41658988Y-35673894D02*
X41697084Y-35673894D01*
X41697084Y-35673894D02*
X41716131Y-35683418D01*
X41716131Y-35683418D02*
X41725655Y-35702465D01*
X41725655Y-35702465D02*
X41725655Y-35721513D01*
X41725655Y-35721513D02*
X41630417Y-35740561D01*
X41801846Y-35797703D02*
X41820893Y-35807227D01*
X41820893Y-35807227D02*
X41858988Y-35807227D01*
X41858988Y-35807227D02*
X41878036Y-35797703D01*
X41878036Y-35797703D02*
X41887560Y-35778656D01*
X41887560Y-35778656D02*
X41887560Y-35769132D01*
X41887560Y-35769132D02*
X41878036Y-35750084D01*
X41878036Y-35750084D02*
X41858988Y-35740561D01*
X41858988Y-35740561D02*
X41830417Y-35740561D01*
X41830417Y-35740561D02*
X41811369Y-35731037D01*
X41811369Y-35731037D02*
X41801846Y-35711989D01*
X41801846Y-35711989D02*
X41801846Y-35702465D01*
X41801846Y-35702465D02*
X41811369Y-35683418D01*
X41811369Y-35683418D02*
X41830417Y-35673894D01*
X41830417Y-35673894D02*
X41858988Y-35673894D01*
X41858988Y-35673894D02*
X41878036Y-35683418D01*
X41954227Y-35883418D02*
X41963750Y-35873894D01*
X41963750Y-35873894D02*
X41982798Y-35845322D01*
X41982798Y-35845322D02*
X41992322Y-35826275D01*
X41992322Y-35826275D02*
X42001846Y-35797703D01*
X42001846Y-35797703D02*
X42011369Y-35750084D01*
X42011369Y-35750084D02*
X42011369Y-35711989D01*
X42011369Y-35711989D02*
X42001846Y-35664370D01*
X42001846Y-35664370D02*
X41992322Y-35635799D01*
X41992322Y-35635799D02*
X41982798Y-35616751D01*
X41982798Y-35616751D02*
X41963750Y-35588180D01*
X41963750Y-35588180D02*
X41954227Y-35578656D01*
M02*
