M48
; DRILL file {KiCad 9.0.1-9.0.1-0~ubuntu22.04.1} date 2025-05-08T23:53:08+0530
; FORMAT={-:-/ absolute / metric / decimal}
; #@! TF.CreationDate,2025-05-08T23:53:08+05:30
; #@! TF.GenerationSoftware,Kicad,Pcbnew,9.0.1-9.0.1-0~ubuntu22.04.1
; #@! TF.FileFunction,NonPlated,1,4,NPTH
FMAT,2
METRIC
; #@! TA.AperFunction,NonPlated,NPTH,ComponentDrill
T1C0.500
; #@! TA.AperFunction,NonPlated,NPTH,ComponentDrill
T2C0.650
; #@! TA.AperFunction,NonPlated,NPTH,ComponentDrill
T3C1.000
; #@! TA.AperFunction,NonPlated,NPTH,ComponentDrill
T4C1.500
%
G90
G05
T1
X391.259Y-337.941
X391.259Y-340.141
X392.059Y-337.941
X392.059Y-340.141
X392.859Y-337.941
X392.859Y-340.141
X412.17Y-316.983
X412.17Y-317.783
X412.17Y-318.583
X414.37Y-316.983
X414.37Y-317.783
X414.37Y-318.583
X433.722Y-337.932
X433.722Y-340.132
X434.522Y-337.932
X434.522Y-340.132
X435.322Y-337.932
X435.322Y-340.132
T2
X420.037Y-314.893
X420.037Y-320.673
T3
X387.254Y-302.786
X397.254Y-302.786
X421.471Y-304.723
X421.471Y-330.844
X423.593Y-306.844
X423.593Y-328.723
T4
X379.507Y-331.766
X383.407Y-300.966
X400.507Y-301.066
X426.032Y-301.083
X443.132Y-300.983
X447.032Y-331.783
M30
