M48
; DRILL file {KiCad 9.0.1-9.0.1-0~ubuntu22.04.1} date 2025-04-24T00:12:11+0530
; FORMAT={-:-/ absolute / metric / decimal}
; #@! TF.CreationDate,2025-04-24T00:12:11+05:30
; #@! TF.GenerationSoftware,Kicad,Pcbnew,9.0.1-9.0.1-0~ubuntu22.04.1
; #@! TF.FileFunction,MixedPlating,1,4
FMAT,2
METRIC
; #@! TA.AperFunction,Plated,PTH,ViaDrill
T1C0.200
; #@! TA.AperFunction,Plated,PTH,ComponentDrill
T2C0.600
; #@! TA.AperFunction,Plated,PTH,ComponentDrill
T3C1.000
; #@! TA.AperFunction,NonPlated,NPTH,ComponentDrill
T4C0.500
; #@! TA.AperFunction,NonPlated,NPTH,ComponentDrill
T5C0.650
; #@! TA.AperFunction,NonPlated,NPTH,ComponentDrill
T6C1.000
; #@! TA.AperFunction,NonPlated,NPTH,ComponentDrill
T7C1.500
%
G90
G05
T1
X102.769Y-122.698
X103.4Y-91.9
X104.172Y-95.65
X104.469Y-121.298
X105.669Y-121.298
X106.25Y-91.4
X106.25Y-95.65
X106.95Y-95.65
X106.969Y-121.298
X107.0Y-91.4
X107.65Y-91.4
X107.65Y-95.65
X108.169Y-121.398
X108.372Y-97.3
X109.072Y-98.601
X109.469Y-103.998
X109.569Y-121.298
X109.772Y-99.701
X110.472Y-100.701
X110.769Y-103.998
X111.269Y-96.811
X111.85Y-95.65
X112.8Y-91.9
X125.219Y-107.198
X126.069Y-100.498
X126.46Y-103.748
X131.55Y-111.7
X131.9Y-102.7
X131.9Y-104.9
X132.1Y-113.15
X132.65Y-114.25
X133.078Y-95.735
X133.2Y-115.3
X133.4Y-99.8
X133.646Y-98.346
X134.1Y-109.0
X134.5Y-97.3
X134.5Y-98.9
X134.8Y-102.8
X134.9Y-112.4
X135.1Y-98.05
X135.9Y-98.85
X136.0Y-95.4
X136.5Y-94.9
X136.5Y-95.8
X136.6Y-110.8
X137.0Y-94.4
X137.25Y-92.95
X137.55Y-93.65
X137.758Y-104.418
X137.835Y-112.343
X138.0Y-98.9
X138.083Y-102.85
X138.2Y-106.9
X138.6Y-113.5
X138.8Y-114.6
X138.85Y-118.1
X139.45Y-121.6
X139.551Y-105.102
X139.686Y-117.23
X139.7Y-112.2
X139.714Y-107.25
X139.725Y-113.7
X139.8Y-99.0
X140.1Y-89.0
X140.1Y-115.6
X140.1Y-116.8
X140.378Y-96.578
X140.4Y-116.3
X140.79Y-109.85
X140.8Y-122.35
X140.95Y-108.0
X141.0Y-111.9
X141.668Y-115.26
X141.9Y-121.6
X142.0Y-122.5
X142.605Y-92.562
X142.65Y-90.218
X142.75Y-113.716
X142.998Y-106.575
X143.0Y-119.2
X143.01Y-104.375
X143.2Y-101.8
X143.39Y-93.74
X143.39Y-95.75
X143.4Y-113.697
X143.4Y-86.6
X143.4Y-87.3
X143.536Y-89.26
X143.583Y-116.282
X143.8Y-110.8
X143.802Y-106.575
X144.0Y-123.4
X144.09Y-96.028
X144.097Y-120.062
X144.5Y-103.5
X144.795Y-117.195
X144.9Y-103.0
X145.3Y-117.7
X145.602Y-95.902
X145.754Y-98.409
X145.8Y-124.1
X145.9Y-123.2
X145.95Y-108.65
X146.0Y-116.2
X146.0Y-120.6
X146.4Y-111.1
X146.853Y-115.065
X146.9Y-102.726
X147.096Y-101.526
X147.486Y-103.286
X147.6Y-95.2
X147.6Y-115.6
X147.98Y-117.7
X148.002Y-111.607
X148.038Y-109.809
X148.203Y-121.028
X148.369Y-117.179
X148.4Y-102.3
X148.44Y-106.142
X148.717Y-117.688
X148.9Y-112.6
X148.99Y-105.621
X149.275Y-108.482
X149.36Y-117.74
X149.54Y-106.21
X149.616Y-105.445
X149.99Y-111.25
X149.992Y-106.677
X150.003Y-113.531
X150.183Y-106.0
X150.2Y-90.25
X150.2Y-92.6
X150.294Y-104.568
X150.469Y-116.781
X150.776Y-112.597
X151.269Y-117.699
X151.376Y-115.963
X151.5Y-95.6
X151.783Y-104.293
X151.9Y-111.6
X152.1Y-103.2
X152.294Y-109.7
X152.369Y-117.091
X152.668Y-110.267
X152.7Y-107.1
X152.816Y-98.35
X153.3Y-106.7
X153.356Y-95.488
X153.548Y-105.971
X153.64Y-107.821
X153.651Y-108.765
X153.653Y-111.235
X153.709Y-107.225
X153.777Y-103.85
X153.89Y-123.25
X153.9Y-124.0
X153.958Y-119.023
X153.99Y-94.05
X154.138Y-109.115
X154.2Y-122.4
X154.29Y-105.05
X154.305Y-115.272
X154.363Y-114.37
X154.564Y-115.944
X154.584Y-111.233
X154.6Y-92.5
X154.6Y-93.3
X154.6Y-120.1
X154.65Y-94.35
X154.79Y-117.25
X154.812Y-101.169
X154.95Y-124.0
X154.992Y-104.846
X155.4Y-103.2
X155.456Y-113.356
X155.49Y-117.95
X155.534Y-111.233
X155.538Y-109.679
X155.7Y-96.8
X155.773Y-105.632
X155.99Y-114.85
X155.991Y-106.427
X156.119Y-109.533
X156.279Y-111.179
X156.35Y-123.6
X156.4Y-104.2
X156.463Y-105.929
X156.7Y-90.7
X156.805Y-96.805
X156.9Y-86.6
X156.99Y-118.05
X157.1Y-89.125
X157.147Y-87.311
X157.147Y-105.075
X157.255Y-101.708
X157.3Y-95.3
X157.397Y-96.536
X157.433Y-109.433
X157.433Y-111.233
X157.55Y-123.1
X157.59Y-113.6
X157.682Y-117.442
X157.9Y-90.0
X158.1Y-113.0
X158.25Y-99.1
X158.383Y-109.433
X158.383Y-111.233
X158.39Y-106.082
X158.463Y-90.237
X158.75Y-122.55
X158.882Y-116.242
X159.0Y-114.2
X159.1Y-119.5
X159.332Y-109.433
X159.332Y-111.233
X159.4Y-89.6
X159.4Y-102.1
X159.49Y-114.7
X159.49Y-115.668
X159.8Y-112.2
X159.8Y-113.4
X159.9Y-121.95
X160.2Y-105.0
X160.468Y-109.433
X160.468Y-111.233
X160.9Y-89.9
X161.0Y-121.25
X161.001Y-100.655
X161.181Y-117.5
X161.33Y-99.941
X161.6Y-112.2
X161.6Y-113.4
X161.6Y-114.6
X161.6Y-115.8
X161.6Y-116.935
X161.8Y-90.0
X162.02Y-111.233
X162.1Y-103.465
X162.1Y-104.665
X162.1Y-105.865
X162.1Y-107.0
X162.1Y-108.2
X162.154Y-102.319
X162.25Y-120.3
X163.4Y-112.2
X163.4Y-113.4
X163.4Y-114.6
X163.4Y-115.8
X163.4Y-116.935
X163.5Y-91.5
X163.9Y-99.9
X164.05Y-118.6
X164.9Y-117.65
X165.2Y-99.6
X165.2Y-100.735
X165.2Y-112.2
X165.2Y-113.4
X165.2Y-114.6
X165.2Y-115.8
X165.2Y-116.935
X166.0Y-94.1
X166.0Y-96.4
X167.0Y-96.1
X167.0Y-97.3
X167.0Y-98.5
X167.0Y-99.635
X167.0Y-100.735
X167.0Y-112.2
X167.0Y-113.4
X167.0Y-114.6
X168.8Y-99.635
X168.8Y-100.735
T3
X139.3Y-101.8
X139.3Y-109.0
T4
X127.638Y-104.2
X127.638Y-105.0
X127.638Y-105.8
X129.838Y-104.2
X129.838Y-105.0
X129.838Y-105.8
T5
X135.505Y-102.11
X135.505Y-107.89
T6
X102.722Y-90.003
X112.722Y-90.003
X136.939Y-91.939
X136.939Y-118.061
X139.061Y-94.061
X139.061Y-115.939
T7
X94.975Y-118.982
X98.875Y-88.182
X115.975Y-88.282
X141.5Y-88.3
X158.6Y-88.2
X162.5Y-119.0
T2
G00X131.525Y-100.68
M15
G01X132.125Y-100.68
M16
G05
G00X131.525Y-109.32
M15
G01X132.125Y-109.32
M16
G05
G00X135.455Y-100.68
M15
G01X136.555Y-100.68
M16
G05
G00X135.455Y-109.32
M15
G01X136.555Y-109.32
M16
G05
M30
