%TF.GenerationSoftware,KiCad,Pcbnew,9.0.1-9.0.1-0~ubuntu22.04.1*%
%TF.CreationDate,2025-05-08T23:44:46+05:30*%
%TF.ProjectId,BEEWATCH MK2,42454557-4154-4434-9820-4d4b322e6b69,A*%
%TF.SameCoordinates,Original*%
%TF.FileFunction,Drillmap*%
%TF.FilePolarity,Positive*%
%FSLAX45Y45*%
G04 Gerber Fmt 4.5, Leading zero omitted, Abs format (unit mm)*
G04 Created by KiCad (PCBNEW 9.0.1-9.0.1-0~ubuntu22.04.1) date 2025-05-08 23:44:46*
%MOMM*%
%LPD*%
G01*
G04 APERTURE LIST*
%ADD10C,0.100000*%
%ADD11C,0.200000*%
%ADD12C,0.150000*%
G04 APERTURE END LIST*
D10*
X41454021Y-32011343D02*
X41459028Y-32042232D01*
X39438922Y-34031061D02*
X43219162Y-34030246D01*
X38944577Y-33773824D02*
G75*
G02*
X41200022Y-31545343I254931J1997592D01*
G01*
X43002253Y-30178343D02*
X43932253Y-30178343D01*
X38972922Y-34031061D02*
X37184164Y-34031061D01*
X45464163Y-34542743D02*
X37184164Y-34542743D01*
X43932253Y-30178343D02*
X43932253Y-29823343D01*
X43685162Y-34030246D02*
X45464163Y-34030246D01*
X37184164Y-34031061D02*
X37184164Y-34542743D01*
X43002334Y-29816775D02*
X43002253Y-30178343D01*
X45464163Y-34030246D02*
X45464163Y-34542743D01*
X43685162Y-33776246D02*
X43703882Y-33775508D01*
X38944577Y-33773824D02*
X38972922Y-33777249D01*
X43219160Y-33776246D02*
G75*
G02*
X41459027Y-32042233I234050J1997906D01*
G01*
X41200839Y-32011440D02*
G75*
G02*
X39438922Y-33777061I-2001329J235210D01*
G01*
X41454021Y-31545343D02*
G75*
G02*
X43002333Y-29816771I1999189J-232997D01*
G01*
X43932253Y-29823343D02*
G75*
G02*
X43703882Y-33775508I-479045J-1955000D01*
G01*
X38972922Y-33777061D02*
G75*
G02*
X38972922Y-34031061I0J-127000D01*
G01*
X39438922Y-34031061D02*
G75*
G02*
X39438922Y-33777061I0J127000D01*
G01*
X41200021Y-32011343D02*
G75*
G02*
X41454021Y-32011343I127000J0D01*
G01*
X41454021Y-31545343D02*
G75*
G02*
X41200021Y-31545343I-127000J0D01*
G01*
X43219162Y-33776246D02*
G75*
G02*
X43219162Y-34030246I0J-127000D01*
G01*
X43685162Y-34030246D02*
G75*
G02*
X43685162Y-33776246I0J127000D01*
G01*
D11*
D10*
X39100922Y-33769061D02*
X39150922Y-33819061D01*
X39150922Y-33769061D02*
X39100922Y-33819061D01*
X39100922Y-33989061D02*
X39150922Y-34039061D01*
X39150922Y-33989061D02*
X39100922Y-34039061D01*
X39180922Y-33769061D02*
X39230922Y-33819061D01*
X39230922Y-33769061D02*
X39180922Y-33819061D01*
X39180922Y-33989061D02*
X39230922Y-34039061D01*
X39230922Y-33989061D02*
X39180922Y-34039061D01*
X39260922Y-33769061D02*
X39310922Y-33819061D01*
X39310922Y-33769061D02*
X39260922Y-33819061D01*
X39260922Y-33989061D02*
X39310922Y-34039061D01*
X39310922Y-33989061D02*
X39260922Y-34039061D01*
X41192021Y-31673343D02*
X41242021Y-31723343D01*
X41242021Y-31673343D02*
X41192021Y-31723343D01*
X41192021Y-31753343D02*
X41242021Y-31803343D01*
X41242021Y-31753343D02*
X41192021Y-31803343D01*
X41192021Y-31833343D02*
X41242021Y-31883343D01*
X41242021Y-31833343D02*
X41192021Y-31883343D01*
X41412021Y-31673343D02*
X41462021Y-31723343D01*
X41462021Y-31673343D02*
X41412021Y-31723343D01*
X41412021Y-31753343D02*
X41462021Y-31803343D01*
X41462021Y-31753343D02*
X41412021Y-31803343D01*
X41412021Y-31833343D02*
X41462021Y-31883343D01*
X41462021Y-31833343D02*
X41412021Y-31883343D01*
X43347162Y-33768246D02*
X43397162Y-33818246D01*
X43397162Y-33768246D02*
X43347162Y-33818246D01*
X43347162Y-33988246D02*
X43397162Y-34038246D01*
X43397162Y-33988246D02*
X43347162Y-34038246D01*
X43427162Y-33768246D02*
X43477162Y-33818246D01*
X43477162Y-33768246D02*
X43427162Y-33818246D01*
X43427162Y-33988245D02*
X43477162Y-34038245D01*
X43477162Y-33988245D02*
X43427162Y-34038245D01*
X43507162Y-33768246D02*
X43557162Y-33818246D01*
X43557162Y-33768246D02*
X43507162Y-33818246D01*
X43507162Y-33988246D02*
X43557162Y-34038246D01*
X43557162Y-33988246D02*
X43507162Y-34038246D01*
X42036208Y-31489343D02*
G75*
G02*
X41971208Y-31489343I-32500J0D01*
G01*
X41971208Y-31489343D02*
G75*
G02*
X42036208Y-31489343I32500J0D01*
G01*
X42036208Y-32067343D02*
G75*
G02*
X41971208Y-32067343I-32500J0D01*
G01*
X41971208Y-32067343D02*
G75*
G02*
X42036208Y-32067343I32500J0D01*
G01*
X38725381Y-30228632D02*
X38725381Y-30328632D01*
X38675381Y-30278632D02*
X38775381Y-30278632D01*
X39725381Y-30228632D02*
X39725381Y-30328632D01*
X39675381Y-30278632D02*
X39775381Y-30278632D01*
X42147142Y-30422277D02*
X42147142Y-30522277D01*
X42097142Y-30472277D02*
X42197142Y-30472277D01*
X42147142Y-33034409D02*
X42147142Y-33134409D01*
X42097142Y-33084409D02*
X42197142Y-33084409D01*
X42359274Y-30634409D02*
X42359274Y-30734409D01*
X42309274Y-30684409D02*
X42409274Y-30684409D01*
X42359274Y-32822277D02*
X42359274Y-32922277D01*
X42309274Y-32872277D02*
X42409274Y-32872277D01*
D12*
X38003734Y-33229591D02*
X38003734Y-33123524D01*
X37897667Y-33123524D01*
X37897667Y-33229591D01*
X38003734Y-33229591D01*
X38393734Y-30149591D02*
X38393734Y-30043524D01*
X38287667Y-30043524D01*
X38287667Y-30149591D01*
X38393734Y-30149591D01*
X40103734Y-30159591D02*
X40103734Y-30053524D01*
X39997667Y-30053524D01*
X39997667Y-30159591D01*
X40103734Y-30159591D01*
X42656241Y-30161377D02*
X42656241Y-30055310D01*
X42550174Y-30055310D01*
X42550174Y-30161377D01*
X42656241Y-30161377D01*
X44366241Y-30151377D02*
X44366241Y-30045310D01*
X44260174Y-30045310D01*
X44260174Y-30151377D01*
X44366241Y-30151377D01*
X44756241Y-33231377D02*
X44756241Y-33125310D01*
X44650174Y-33125310D01*
X44650174Y-33231377D01*
X44756241Y-33231377D01*
D11*
X37439940Y-34859227D02*
X37439940Y-34659227D01*
X37439940Y-34659227D02*
X37487559Y-34659227D01*
X37487559Y-34659227D02*
X37516131Y-34668751D01*
X37516131Y-34668751D02*
X37535178Y-34687799D01*
X37535178Y-34687799D02*
X37544702Y-34706846D01*
X37544702Y-34706846D02*
X37554226Y-34744941D01*
X37554226Y-34744941D02*
X37554226Y-34773513D01*
X37554226Y-34773513D02*
X37544702Y-34811608D01*
X37544702Y-34811608D02*
X37535178Y-34830656D01*
X37535178Y-34830656D02*
X37516131Y-34849703D01*
X37516131Y-34849703D02*
X37487559Y-34859227D01*
X37487559Y-34859227D02*
X37439940Y-34859227D01*
X37639940Y-34859227D02*
X37639940Y-34725894D01*
X37639940Y-34763989D02*
X37649464Y-34744941D01*
X37649464Y-34744941D02*
X37658988Y-34735418D01*
X37658988Y-34735418D02*
X37678036Y-34725894D01*
X37678036Y-34725894D02*
X37697083Y-34725894D01*
X37763750Y-34859227D02*
X37763750Y-34725894D01*
X37763750Y-34659227D02*
X37754226Y-34668751D01*
X37754226Y-34668751D02*
X37763750Y-34678275D01*
X37763750Y-34678275D02*
X37773274Y-34668751D01*
X37773274Y-34668751D02*
X37763750Y-34659227D01*
X37763750Y-34659227D02*
X37763750Y-34678275D01*
X37887559Y-34859227D02*
X37868512Y-34849703D01*
X37868512Y-34849703D02*
X37858988Y-34830656D01*
X37858988Y-34830656D02*
X37858988Y-34659227D01*
X37992321Y-34859227D02*
X37973274Y-34849703D01*
X37973274Y-34849703D02*
X37963750Y-34830656D01*
X37963750Y-34830656D02*
X37963750Y-34659227D01*
X38220893Y-34859227D02*
X38220893Y-34659227D01*
X38220893Y-34659227D02*
X38287559Y-34802084D01*
X38287559Y-34802084D02*
X38354226Y-34659227D01*
X38354226Y-34659227D02*
X38354226Y-34859227D01*
X38535178Y-34859227D02*
X38535178Y-34754465D01*
X38535178Y-34754465D02*
X38525655Y-34735418D01*
X38525655Y-34735418D02*
X38506607Y-34725894D01*
X38506607Y-34725894D02*
X38468512Y-34725894D01*
X38468512Y-34725894D02*
X38449464Y-34735418D01*
X38535178Y-34849703D02*
X38516131Y-34859227D01*
X38516131Y-34859227D02*
X38468512Y-34859227D01*
X38468512Y-34859227D02*
X38449464Y-34849703D01*
X38449464Y-34849703D02*
X38439940Y-34830656D01*
X38439940Y-34830656D02*
X38439940Y-34811608D01*
X38439940Y-34811608D02*
X38449464Y-34792561D01*
X38449464Y-34792561D02*
X38468512Y-34783037D01*
X38468512Y-34783037D02*
X38516131Y-34783037D01*
X38516131Y-34783037D02*
X38535178Y-34773513D01*
X38630417Y-34725894D02*
X38630417Y-34925894D01*
X38630417Y-34735418D02*
X38649464Y-34725894D01*
X38649464Y-34725894D02*
X38687559Y-34725894D01*
X38687559Y-34725894D02*
X38706607Y-34735418D01*
X38706607Y-34735418D02*
X38716131Y-34744941D01*
X38716131Y-34744941D02*
X38725655Y-34763989D01*
X38725655Y-34763989D02*
X38725655Y-34821132D01*
X38725655Y-34821132D02*
X38716131Y-34840180D01*
X38716131Y-34840180D02*
X38706607Y-34849703D01*
X38706607Y-34849703D02*
X38687559Y-34859227D01*
X38687559Y-34859227D02*
X38649464Y-34859227D01*
X38649464Y-34859227D02*
X38630417Y-34849703D01*
X38811369Y-34840180D02*
X38820893Y-34849703D01*
X38820893Y-34849703D02*
X38811369Y-34859227D01*
X38811369Y-34859227D02*
X38801845Y-34849703D01*
X38801845Y-34849703D02*
X38811369Y-34840180D01*
X38811369Y-34840180D02*
X38811369Y-34859227D01*
X38811369Y-34735418D02*
X38820893Y-34744941D01*
X38820893Y-34744941D02*
X38811369Y-34754465D01*
X38811369Y-34754465D02*
X38801845Y-34744941D01*
X38801845Y-34744941D02*
X38811369Y-34735418D01*
X38811369Y-34735418D02*
X38811369Y-34754465D01*
D10*
X37129164Y-35162743D02*
X37179164Y-35212743D01*
X37179164Y-35162743D02*
X37129164Y-35212743D01*
D11*
X37478036Y-35079227D02*
X37497083Y-35079227D01*
X37497083Y-35079227D02*
X37516131Y-35088751D01*
X37516131Y-35088751D02*
X37525655Y-35098275D01*
X37525655Y-35098275D02*
X37535178Y-35117322D01*
X37535178Y-35117322D02*
X37544702Y-35155418D01*
X37544702Y-35155418D02*
X37544702Y-35203037D01*
X37544702Y-35203037D02*
X37535178Y-35241132D01*
X37535178Y-35241132D02*
X37525655Y-35260180D01*
X37525655Y-35260180D02*
X37516131Y-35269703D01*
X37516131Y-35269703D02*
X37497083Y-35279227D01*
X37497083Y-35279227D02*
X37478036Y-35279227D01*
X37478036Y-35279227D02*
X37458988Y-35269703D01*
X37458988Y-35269703D02*
X37449464Y-35260180D01*
X37449464Y-35260180D02*
X37439940Y-35241132D01*
X37439940Y-35241132D02*
X37430417Y-35203037D01*
X37430417Y-35203037D02*
X37430417Y-35155418D01*
X37430417Y-35155418D02*
X37439940Y-35117322D01*
X37439940Y-35117322D02*
X37449464Y-35098275D01*
X37449464Y-35098275D02*
X37458988Y-35088751D01*
X37458988Y-35088751D02*
X37478036Y-35079227D01*
X37630417Y-35260180D02*
X37639940Y-35269703D01*
X37639940Y-35269703D02*
X37630417Y-35279227D01*
X37630417Y-35279227D02*
X37620893Y-35269703D01*
X37620893Y-35269703D02*
X37630417Y-35260180D01*
X37630417Y-35260180D02*
X37630417Y-35279227D01*
X37820893Y-35079227D02*
X37725655Y-35079227D01*
X37725655Y-35079227D02*
X37716131Y-35174465D01*
X37716131Y-35174465D02*
X37725655Y-35164941D01*
X37725655Y-35164941D02*
X37744702Y-35155418D01*
X37744702Y-35155418D02*
X37792321Y-35155418D01*
X37792321Y-35155418D02*
X37811369Y-35164941D01*
X37811369Y-35164941D02*
X37820893Y-35174465D01*
X37820893Y-35174465D02*
X37830417Y-35193513D01*
X37830417Y-35193513D02*
X37830417Y-35241132D01*
X37830417Y-35241132D02*
X37820893Y-35260180D01*
X37820893Y-35260180D02*
X37811369Y-35269703D01*
X37811369Y-35269703D02*
X37792321Y-35279227D01*
X37792321Y-35279227D02*
X37744702Y-35279227D01*
X37744702Y-35279227D02*
X37725655Y-35269703D01*
X37725655Y-35269703D02*
X37716131Y-35260180D01*
X37954226Y-35079227D02*
X37973274Y-35079227D01*
X37973274Y-35079227D02*
X37992321Y-35088751D01*
X37992321Y-35088751D02*
X38001845Y-35098275D01*
X38001845Y-35098275D02*
X38011369Y-35117322D01*
X38011369Y-35117322D02*
X38020893Y-35155418D01*
X38020893Y-35155418D02*
X38020893Y-35203037D01*
X38020893Y-35203037D02*
X38011369Y-35241132D01*
X38011369Y-35241132D02*
X38001845Y-35260180D01*
X38001845Y-35260180D02*
X37992321Y-35269703D01*
X37992321Y-35269703D02*
X37973274Y-35279227D01*
X37973274Y-35279227D02*
X37954226Y-35279227D01*
X37954226Y-35279227D02*
X37935178Y-35269703D01*
X37935178Y-35269703D02*
X37925655Y-35260180D01*
X37925655Y-35260180D02*
X37916131Y-35241132D01*
X37916131Y-35241132D02*
X37906607Y-35203037D01*
X37906607Y-35203037D02*
X37906607Y-35155418D01*
X37906607Y-35155418D02*
X37916131Y-35117322D01*
X37916131Y-35117322D02*
X37925655Y-35098275D01*
X37925655Y-35098275D02*
X37935178Y-35088751D01*
X37935178Y-35088751D02*
X37954226Y-35079227D01*
X38144702Y-35079227D02*
X38163750Y-35079227D01*
X38163750Y-35079227D02*
X38182798Y-35088751D01*
X38182798Y-35088751D02*
X38192321Y-35098275D01*
X38192321Y-35098275D02*
X38201845Y-35117322D01*
X38201845Y-35117322D02*
X38211369Y-35155418D01*
X38211369Y-35155418D02*
X38211369Y-35203037D01*
X38211369Y-35203037D02*
X38201845Y-35241132D01*
X38201845Y-35241132D02*
X38192321Y-35260180D01*
X38192321Y-35260180D02*
X38182798Y-35269703D01*
X38182798Y-35269703D02*
X38163750Y-35279227D01*
X38163750Y-35279227D02*
X38144702Y-35279227D01*
X38144702Y-35279227D02*
X38125655Y-35269703D01*
X38125655Y-35269703D02*
X38116131Y-35260180D01*
X38116131Y-35260180D02*
X38106607Y-35241132D01*
X38106607Y-35241132D02*
X38097083Y-35203037D01*
X38097083Y-35203037D02*
X38097083Y-35155418D01*
X38097083Y-35155418D02*
X38106607Y-35117322D01*
X38106607Y-35117322D02*
X38116131Y-35098275D01*
X38116131Y-35098275D02*
X38125655Y-35088751D01*
X38125655Y-35088751D02*
X38144702Y-35079227D01*
X38297083Y-35279227D02*
X38297083Y-35145894D01*
X38297083Y-35164941D02*
X38306607Y-35155418D01*
X38306607Y-35155418D02*
X38325655Y-35145894D01*
X38325655Y-35145894D02*
X38354226Y-35145894D01*
X38354226Y-35145894D02*
X38373274Y-35155418D01*
X38373274Y-35155418D02*
X38382798Y-35174465D01*
X38382798Y-35174465D02*
X38382798Y-35279227D01*
X38382798Y-35174465D02*
X38392321Y-35155418D01*
X38392321Y-35155418D02*
X38411369Y-35145894D01*
X38411369Y-35145894D02*
X38439940Y-35145894D01*
X38439940Y-35145894D02*
X38458988Y-35155418D01*
X38458988Y-35155418D02*
X38468512Y-35174465D01*
X38468512Y-35174465D02*
X38468512Y-35279227D01*
X38563750Y-35279227D02*
X38563750Y-35145894D01*
X38563750Y-35164941D02*
X38573274Y-35155418D01*
X38573274Y-35155418D02*
X38592321Y-35145894D01*
X38592321Y-35145894D02*
X38620893Y-35145894D01*
X38620893Y-35145894D02*
X38639940Y-35155418D01*
X38639940Y-35155418D02*
X38649464Y-35174465D01*
X38649464Y-35174465D02*
X38649464Y-35279227D01*
X38649464Y-35174465D02*
X38658988Y-35155418D01*
X38658988Y-35155418D02*
X38678036Y-35145894D01*
X38678036Y-35145894D02*
X38706607Y-35145894D01*
X38706607Y-35145894D02*
X38725655Y-35155418D01*
X38725655Y-35155418D02*
X38735179Y-35174465D01*
X38735179Y-35174465D02*
X38735179Y-35279227D01*
X39125655Y-35069703D02*
X38954226Y-35326846D01*
X39382798Y-35079227D02*
X39401845Y-35079227D01*
X39401845Y-35079227D02*
X39420893Y-35088751D01*
X39420893Y-35088751D02*
X39430417Y-35098275D01*
X39430417Y-35098275D02*
X39439941Y-35117322D01*
X39439941Y-35117322D02*
X39449464Y-35155418D01*
X39449464Y-35155418D02*
X39449464Y-35203037D01*
X39449464Y-35203037D02*
X39439941Y-35241132D01*
X39439941Y-35241132D02*
X39430417Y-35260180D01*
X39430417Y-35260180D02*
X39420893Y-35269703D01*
X39420893Y-35269703D02*
X39401845Y-35279227D01*
X39401845Y-35279227D02*
X39382798Y-35279227D01*
X39382798Y-35279227D02*
X39363750Y-35269703D01*
X39363750Y-35269703D02*
X39354226Y-35260180D01*
X39354226Y-35260180D02*
X39344702Y-35241132D01*
X39344702Y-35241132D02*
X39335179Y-35203037D01*
X39335179Y-35203037D02*
X39335179Y-35155418D01*
X39335179Y-35155418D02*
X39344702Y-35117322D01*
X39344702Y-35117322D02*
X39354226Y-35098275D01*
X39354226Y-35098275D02*
X39363750Y-35088751D01*
X39363750Y-35088751D02*
X39382798Y-35079227D01*
X39535179Y-35260180D02*
X39544702Y-35269703D01*
X39544702Y-35269703D02*
X39535179Y-35279227D01*
X39535179Y-35279227D02*
X39525655Y-35269703D01*
X39525655Y-35269703D02*
X39535179Y-35260180D01*
X39535179Y-35260180D02*
X39535179Y-35279227D01*
X39668512Y-35079227D02*
X39687560Y-35079227D01*
X39687560Y-35079227D02*
X39706607Y-35088751D01*
X39706607Y-35088751D02*
X39716131Y-35098275D01*
X39716131Y-35098275D02*
X39725655Y-35117322D01*
X39725655Y-35117322D02*
X39735179Y-35155418D01*
X39735179Y-35155418D02*
X39735179Y-35203037D01*
X39735179Y-35203037D02*
X39725655Y-35241132D01*
X39725655Y-35241132D02*
X39716131Y-35260180D01*
X39716131Y-35260180D02*
X39706607Y-35269703D01*
X39706607Y-35269703D02*
X39687560Y-35279227D01*
X39687560Y-35279227D02*
X39668512Y-35279227D01*
X39668512Y-35279227D02*
X39649464Y-35269703D01*
X39649464Y-35269703D02*
X39639941Y-35260180D01*
X39639941Y-35260180D02*
X39630417Y-35241132D01*
X39630417Y-35241132D02*
X39620893Y-35203037D01*
X39620893Y-35203037D02*
X39620893Y-35155418D01*
X39620893Y-35155418D02*
X39630417Y-35117322D01*
X39630417Y-35117322D02*
X39639941Y-35098275D01*
X39639941Y-35098275D02*
X39649464Y-35088751D01*
X39649464Y-35088751D02*
X39668512Y-35079227D01*
X39925655Y-35279227D02*
X39811369Y-35279227D01*
X39868512Y-35279227D02*
X39868512Y-35079227D01*
X39868512Y-35079227D02*
X39849464Y-35107799D01*
X39849464Y-35107799D02*
X39830417Y-35126846D01*
X39830417Y-35126846D02*
X39811369Y-35136370D01*
X40020893Y-35279227D02*
X40058988Y-35279227D01*
X40058988Y-35279227D02*
X40078036Y-35269703D01*
X40078036Y-35269703D02*
X40087560Y-35260180D01*
X40087560Y-35260180D02*
X40106607Y-35231608D01*
X40106607Y-35231608D02*
X40116131Y-35193513D01*
X40116131Y-35193513D02*
X40116131Y-35117322D01*
X40116131Y-35117322D02*
X40106607Y-35098275D01*
X40106607Y-35098275D02*
X40097083Y-35088751D01*
X40097083Y-35088751D02*
X40078036Y-35079227D01*
X40078036Y-35079227D02*
X40039941Y-35079227D01*
X40039941Y-35079227D02*
X40020893Y-35088751D01*
X40020893Y-35088751D02*
X40011369Y-35098275D01*
X40011369Y-35098275D02*
X40001845Y-35117322D01*
X40001845Y-35117322D02*
X40001845Y-35164941D01*
X40001845Y-35164941D02*
X40011369Y-35183989D01*
X40011369Y-35183989D02*
X40020893Y-35193513D01*
X40020893Y-35193513D02*
X40039941Y-35203037D01*
X40039941Y-35203037D02*
X40078036Y-35203037D01*
X40078036Y-35203037D02*
X40097083Y-35193513D01*
X40097083Y-35193513D02*
X40106607Y-35183989D01*
X40106607Y-35183989D02*
X40116131Y-35164941D01*
X40182798Y-35079227D02*
X40316131Y-35079227D01*
X40316131Y-35079227D02*
X40230417Y-35279227D01*
X40382798Y-35079227D02*
X40382798Y-35117322D01*
X40458988Y-35079227D02*
X40458988Y-35117322D01*
X40754226Y-35355418D02*
X40744703Y-35345894D01*
X40744703Y-35345894D02*
X40725655Y-35317322D01*
X40725655Y-35317322D02*
X40716131Y-35298275D01*
X40716131Y-35298275D02*
X40706607Y-35269703D01*
X40706607Y-35269703D02*
X40697084Y-35222084D01*
X40697084Y-35222084D02*
X40697084Y-35183989D01*
X40697084Y-35183989D02*
X40706607Y-35136370D01*
X40706607Y-35136370D02*
X40716131Y-35107799D01*
X40716131Y-35107799D02*
X40725655Y-35088751D01*
X40725655Y-35088751D02*
X40744703Y-35060180D01*
X40744703Y-35060180D02*
X40754226Y-35050656D01*
X40935179Y-35279227D02*
X40820893Y-35279227D01*
X40878036Y-35279227D02*
X40878036Y-35079227D01*
X40878036Y-35079227D02*
X40858988Y-35107799D01*
X40858988Y-35107799D02*
X40839941Y-35126846D01*
X40839941Y-35126846D02*
X40820893Y-35136370D01*
X41049464Y-35164941D02*
X41030417Y-35155418D01*
X41030417Y-35155418D02*
X41020893Y-35145894D01*
X41020893Y-35145894D02*
X41011369Y-35126846D01*
X41011369Y-35126846D02*
X41011369Y-35117322D01*
X41011369Y-35117322D02*
X41020893Y-35098275D01*
X41020893Y-35098275D02*
X41030417Y-35088751D01*
X41030417Y-35088751D02*
X41049464Y-35079227D01*
X41049464Y-35079227D02*
X41087560Y-35079227D01*
X41087560Y-35079227D02*
X41106607Y-35088751D01*
X41106607Y-35088751D02*
X41116131Y-35098275D01*
X41116131Y-35098275D02*
X41125655Y-35117322D01*
X41125655Y-35117322D02*
X41125655Y-35126846D01*
X41125655Y-35126846D02*
X41116131Y-35145894D01*
X41116131Y-35145894D02*
X41106607Y-35155418D01*
X41106607Y-35155418D02*
X41087560Y-35164941D01*
X41087560Y-35164941D02*
X41049464Y-35164941D01*
X41049464Y-35164941D02*
X41030417Y-35174465D01*
X41030417Y-35174465D02*
X41020893Y-35183989D01*
X41020893Y-35183989D02*
X41011369Y-35203037D01*
X41011369Y-35203037D02*
X41011369Y-35241132D01*
X41011369Y-35241132D02*
X41020893Y-35260180D01*
X41020893Y-35260180D02*
X41030417Y-35269703D01*
X41030417Y-35269703D02*
X41049464Y-35279227D01*
X41049464Y-35279227D02*
X41087560Y-35279227D01*
X41087560Y-35279227D02*
X41106607Y-35269703D01*
X41106607Y-35269703D02*
X41116131Y-35260180D01*
X41116131Y-35260180D02*
X41125655Y-35241132D01*
X41125655Y-35241132D02*
X41125655Y-35203037D01*
X41125655Y-35203037D02*
X41116131Y-35183989D01*
X41116131Y-35183989D02*
X41106607Y-35174465D01*
X41106607Y-35174465D02*
X41087560Y-35164941D01*
X41363750Y-35279227D02*
X41363750Y-35079227D01*
X41449465Y-35279227D02*
X41449465Y-35174465D01*
X41449465Y-35174465D02*
X41439941Y-35155418D01*
X41439941Y-35155418D02*
X41420893Y-35145894D01*
X41420893Y-35145894D02*
X41392322Y-35145894D01*
X41392322Y-35145894D02*
X41373274Y-35155418D01*
X41373274Y-35155418D02*
X41363750Y-35164941D01*
X41573274Y-35279227D02*
X41554226Y-35269703D01*
X41554226Y-35269703D02*
X41544703Y-35260180D01*
X41544703Y-35260180D02*
X41535179Y-35241132D01*
X41535179Y-35241132D02*
X41535179Y-35183989D01*
X41535179Y-35183989D02*
X41544703Y-35164941D01*
X41544703Y-35164941D02*
X41554226Y-35155418D01*
X41554226Y-35155418D02*
X41573274Y-35145894D01*
X41573274Y-35145894D02*
X41601846Y-35145894D01*
X41601846Y-35145894D02*
X41620893Y-35155418D01*
X41620893Y-35155418D02*
X41630417Y-35164941D01*
X41630417Y-35164941D02*
X41639941Y-35183989D01*
X41639941Y-35183989D02*
X41639941Y-35241132D01*
X41639941Y-35241132D02*
X41630417Y-35260180D01*
X41630417Y-35260180D02*
X41620893Y-35269703D01*
X41620893Y-35269703D02*
X41601846Y-35279227D01*
X41601846Y-35279227D02*
X41573274Y-35279227D01*
X41754226Y-35279227D02*
X41735179Y-35269703D01*
X41735179Y-35269703D02*
X41725655Y-35250656D01*
X41725655Y-35250656D02*
X41725655Y-35079227D01*
X41906607Y-35269703D02*
X41887560Y-35279227D01*
X41887560Y-35279227D02*
X41849465Y-35279227D01*
X41849465Y-35279227D02*
X41830417Y-35269703D01*
X41830417Y-35269703D02*
X41820893Y-35250656D01*
X41820893Y-35250656D02*
X41820893Y-35174465D01*
X41820893Y-35174465D02*
X41830417Y-35155418D01*
X41830417Y-35155418D02*
X41849465Y-35145894D01*
X41849465Y-35145894D02*
X41887560Y-35145894D01*
X41887560Y-35145894D02*
X41906607Y-35155418D01*
X41906607Y-35155418D02*
X41916131Y-35174465D01*
X41916131Y-35174465D02*
X41916131Y-35193513D01*
X41916131Y-35193513D02*
X41820893Y-35212561D01*
X41992322Y-35269703D02*
X42011369Y-35279227D01*
X42011369Y-35279227D02*
X42049465Y-35279227D01*
X42049465Y-35279227D02*
X42068512Y-35269703D01*
X42068512Y-35269703D02*
X42078036Y-35250656D01*
X42078036Y-35250656D02*
X42078036Y-35241132D01*
X42078036Y-35241132D02*
X42068512Y-35222084D01*
X42068512Y-35222084D02*
X42049465Y-35212561D01*
X42049465Y-35212561D02*
X42020893Y-35212561D01*
X42020893Y-35212561D02*
X42001846Y-35203037D01*
X42001846Y-35203037D02*
X41992322Y-35183989D01*
X41992322Y-35183989D02*
X41992322Y-35174465D01*
X41992322Y-35174465D02*
X42001846Y-35155418D01*
X42001846Y-35155418D02*
X42020893Y-35145894D01*
X42020893Y-35145894D02*
X42049465Y-35145894D01*
X42049465Y-35145894D02*
X42068512Y-35155418D01*
X42144703Y-35355418D02*
X42154227Y-35345894D01*
X42154227Y-35345894D02*
X42173274Y-35317322D01*
X42173274Y-35317322D02*
X42182798Y-35298275D01*
X42182798Y-35298275D02*
X42192322Y-35269703D01*
X42192322Y-35269703D02*
X42201846Y-35222084D01*
X42201846Y-35222084D02*
X42201846Y-35183989D01*
X42201846Y-35183989D02*
X42192322Y-35136370D01*
X42192322Y-35136370D02*
X42182798Y-35107799D01*
X42182798Y-35107799D02*
X42173274Y-35088751D01*
X42173274Y-35088751D02*
X42154227Y-35060180D01*
X42154227Y-35060180D02*
X42144703Y-35050656D01*
X42506608Y-35355418D02*
X42497084Y-35345894D01*
X42497084Y-35345894D02*
X42478036Y-35317322D01*
X42478036Y-35317322D02*
X42468512Y-35298275D01*
X42468512Y-35298275D02*
X42458988Y-35269703D01*
X42458988Y-35269703D02*
X42449465Y-35222084D01*
X42449465Y-35222084D02*
X42449465Y-35183989D01*
X42449465Y-35183989D02*
X42458988Y-35136370D01*
X42458988Y-35136370D02*
X42468512Y-35107799D01*
X42468512Y-35107799D02*
X42478036Y-35088751D01*
X42478036Y-35088751D02*
X42497084Y-35060180D01*
X42497084Y-35060180D02*
X42506608Y-35050656D01*
X42582798Y-35145894D02*
X42582798Y-35279227D01*
X42582798Y-35164941D02*
X42592322Y-35155418D01*
X42592322Y-35155418D02*
X42611369Y-35145894D01*
X42611369Y-35145894D02*
X42639941Y-35145894D01*
X42639941Y-35145894D02*
X42658988Y-35155418D01*
X42658988Y-35155418D02*
X42668512Y-35174465D01*
X42668512Y-35174465D02*
X42668512Y-35279227D01*
X42792322Y-35279227D02*
X42773274Y-35269703D01*
X42773274Y-35269703D02*
X42763750Y-35260180D01*
X42763750Y-35260180D02*
X42754227Y-35241132D01*
X42754227Y-35241132D02*
X42754227Y-35183989D01*
X42754227Y-35183989D02*
X42763750Y-35164941D01*
X42763750Y-35164941D02*
X42773274Y-35155418D01*
X42773274Y-35155418D02*
X42792322Y-35145894D01*
X42792322Y-35145894D02*
X42820893Y-35145894D01*
X42820893Y-35145894D02*
X42839941Y-35155418D01*
X42839941Y-35155418D02*
X42849465Y-35164941D01*
X42849465Y-35164941D02*
X42858988Y-35183989D01*
X42858988Y-35183989D02*
X42858988Y-35241132D01*
X42858988Y-35241132D02*
X42849465Y-35260180D01*
X42849465Y-35260180D02*
X42839941Y-35269703D01*
X42839941Y-35269703D02*
X42820893Y-35279227D01*
X42820893Y-35279227D02*
X42792322Y-35279227D01*
X42916131Y-35145894D02*
X42992322Y-35145894D01*
X42944703Y-35079227D02*
X42944703Y-35250656D01*
X42944703Y-35250656D02*
X42954227Y-35269703D01*
X42954227Y-35269703D02*
X42973274Y-35279227D01*
X42973274Y-35279227D02*
X42992322Y-35279227D01*
X43211369Y-35145894D02*
X43211369Y-35345894D01*
X43211369Y-35155418D02*
X43230417Y-35145894D01*
X43230417Y-35145894D02*
X43268512Y-35145894D01*
X43268512Y-35145894D02*
X43287560Y-35155418D01*
X43287560Y-35155418D02*
X43297084Y-35164941D01*
X43297084Y-35164941D02*
X43306608Y-35183989D01*
X43306608Y-35183989D02*
X43306608Y-35241132D01*
X43306608Y-35241132D02*
X43297084Y-35260180D01*
X43297084Y-35260180D02*
X43287560Y-35269703D01*
X43287560Y-35269703D02*
X43268512Y-35279227D01*
X43268512Y-35279227D02*
X43230417Y-35279227D01*
X43230417Y-35279227D02*
X43211369Y-35269703D01*
X43420893Y-35279227D02*
X43401846Y-35269703D01*
X43401846Y-35269703D02*
X43392322Y-35250656D01*
X43392322Y-35250656D02*
X43392322Y-35079227D01*
X43582798Y-35279227D02*
X43582798Y-35174465D01*
X43582798Y-35174465D02*
X43573274Y-35155418D01*
X43573274Y-35155418D02*
X43554227Y-35145894D01*
X43554227Y-35145894D02*
X43516131Y-35145894D01*
X43516131Y-35145894D02*
X43497084Y-35155418D01*
X43582798Y-35269703D02*
X43563750Y-35279227D01*
X43563750Y-35279227D02*
X43516131Y-35279227D01*
X43516131Y-35279227D02*
X43497084Y-35269703D01*
X43497084Y-35269703D02*
X43487560Y-35250656D01*
X43487560Y-35250656D02*
X43487560Y-35231608D01*
X43487560Y-35231608D02*
X43497084Y-35212561D01*
X43497084Y-35212561D02*
X43516131Y-35203037D01*
X43516131Y-35203037D02*
X43563750Y-35203037D01*
X43563750Y-35203037D02*
X43582798Y-35193513D01*
X43649465Y-35145894D02*
X43725655Y-35145894D01*
X43678036Y-35079227D02*
X43678036Y-35250656D01*
X43678036Y-35250656D02*
X43687560Y-35269703D01*
X43687560Y-35269703D02*
X43706608Y-35279227D01*
X43706608Y-35279227D02*
X43725655Y-35279227D01*
X43868512Y-35269703D02*
X43849465Y-35279227D01*
X43849465Y-35279227D02*
X43811369Y-35279227D01*
X43811369Y-35279227D02*
X43792322Y-35269703D01*
X43792322Y-35269703D02*
X43782798Y-35250656D01*
X43782798Y-35250656D02*
X43782798Y-35174465D01*
X43782798Y-35174465D02*
X43792322Y-35155418D01*
X43792322Y-35155418D02*
X43811369Y-35145894D01*
X43811369Y-35145894D02*
X43849465Y-35145894D01*
X43849465Y-35145894D02*
X43868512Y-35155418D01*
X43868512Y-35155418D02*
X43878036Y-35174465D01*
X43878036Y-35174465D02*
X43878036Y-35193513D01*
X43878036Y-35193513D02*
X43782798Y-35212561D01*
X44049465Y-35279227D02*
X44049465Y-35079227D01*
X44049465Y-35269703D02*
X44030417Y-35279227D01*
X44030417Y-35279227D02*
X43992322Y-35279227D01*
X43992322Y-35279227D02*
X43973274Y-35269703D01*
X43973274Y-35269703D02*
X43963750Y-35260180D01*
X43963750Y-35260180D02*
X43954227Y-35241132D01*
X43954227Y-35241132D02*
X43954227Y-35183989D01*
X43954227Y-35183989D02*
X43963750Y-35164941D01*
X43963750Y-35164941D02*
X43973274Y-35155418D01*
X43973274Y-35155418D02*
X43992322Y-35145894D01*
X43992322Y-35145894D02*
X44030417Y-35145894D01*
X44030417Y-35145894D02*
X44049465Y-35155418D01*
X44125655Y-35355418D02*
X44135179Y-35345894D01*
X44135179Y-35345894D02*
X44154227Y-35317322D01*
X44154227Y-35317322D02*
X44163750Y-35298275D01*
X44163750Y-35298275D02*
X44173274Y-35269703D01*
X44173274Y-35269703D02*
X44182798Y-35222084D01*
X44182798Y-35222084D02*
X44182798Y-35183989D01*
X44182798Y-35183989D02*
X44173274Y-35136370D01*
X44173274Y-35136370D02*
X44163750Y-35107799D01*
X44163750Y-35107799D02*
X44154227Y-35088751D01*
X44154227Y-35088751D02*
X44135179Y-35060180D01*
X44135179Y-35060180D02*
X44125655Y-35050656D01*
D10*
X37179164Y-35451743D02*
G75*
G02*
X37114164Y-35451743I-32500J0D01*
G01*
X37114164Y-35451743D02*
G75*
G02*
X37179164Y-35451743I32500J0D01*
G01*
D11*
X37478036Y-35343227D02*
X37497083Y-35343227D01*
X37497083Y-35343227D02*
X37516131Y-35352751D01*
X37516131Y-35352751D02*
X37525655Y-35362275D01*
X37525655Y-35362275D02*
X37535178Y-35381322D01*
X37535178Y-35381322D02*
X37544702Y-35419418D01*
X37544702Y-35419418D02*
X37544702Y-35467037D01*
X37544702Y-35467037D02*
X37535178Y-35505132D01*
X37535178Y-35505132D02*
X37525655Y-35524180D01*
X37525655Y-35524180D02*
X37516131Y-35533703D01*
X37516131Y-35533703D02*
X37497083Y-35543227D01*
X37497083Y-35543227D02*
X37478036Y-35543227D01*
X37478036Y-35543227D02*
X37458988Y-35533703D01*
X37458988Y-35533703D02*
X37449464Y-35524180D01*
X37449464Y-35524180D02*
X37439940Y-35505132D01*
X37439940Y-35505132D02*
X37430417Y-35467037D01*
X37430417Y-35467037D02*
X37430417Y-35419418D01*
X37430417Y-35419418D02*
X37439940Y-35381322D01*
X37439940Y-35381322D02*
X37449464Y-35362275D01*
X37449464Y-35362275D02*
X37458988Y-35352751D01*
X37458988Y-35352751D02*
X37478036Y-35343227D01*
X37630417Y-35524180D02*
X37639940Y-35533703D01*
X37639940Y-35533703D02*
X37630417Y-35543227D01*
X37630417Y-35543227D02*
X37620893Y-35533703D01*
X37620893Y-35533703D02*
X37630417Y-35524180D01*
X37630417Y-35524180D02*
X37630417Y-35543227D01*
X37811369Y-35343227D02*
X37773274Y-35343227D01*
X37773274Y-35343227D02*
X37754226Y-35352751D01*
X37754226Y-35352751D02*
X37744702Y-35362275D01*
X37744702Y-35362275D02*
X37725655Y-35390846D01*
X37725655Y-35390846D02*
X37716131Y-35428941D01*
X37716131Y-35428941D02*
X37716131Y-35505132D01*
X37716131Y-35505132D02*
X37725655Y-35524180D01*
X37725655Y-35524180D02*
X37735178Y-35533703D01*
X37735178Y-35533703D02*
X37754226Y-35543227D01*
X37754226Y-35543227D02*
X37792321Y-35543227D01*
X37792321Y-35543227D02*
X37811369Y-35533703D01*
X37811369Y-35533703D02*
X37820893Y-35524180D01*
X37820893Y-35524180D02*
X37830417Y-35505132D01*
X37830417Y-35505132D02*
X37830417Y-35457513D01*
X37830417Y-35457513D02*
X37820893Y-35438465D01*
X37820893Y-35438465D02*
X37811369Y-35428941D01*
X37811369Y-35428941D02*
X37792321Y-35419418D01*
X37792321Y-35419418D02*
X37754226Y-35419418D01*
X37754226Y-35419418D02*
X37735178Y-35428941D01*
X37735178Y-35428941D02*
X37725655Y-35438465D01*
X37725655Y-35438465D02*
X37716131Y-35457513D01*
X38011369Y-35343227D02*
X37916131Y-35343227D01*
X37916131Y-35343227D02*
X37906607Y-35438465D01*
X37906607Y-35438465D02*
X37916131Y-35428941D01*
X37916131Y-35428941D02*
X37935178Y-35419418D01*
X37935178Y-35419418D02*
X37982798Y-35419418D01*
X37982798Y-35419418D02*
X38001845Y-35428941D01*
X38001845Y-35428941D02*
X38011369Y-35438465D01*
X38011369Y-35438465D02*
X38020893Y-35457513D01*
X38020893Y-35457513D02*
X38020893Y-35505132D01*
X38020893Y-35505132D02*
X38011369Y-35524180D01*
X38011369Y-35524180D02*
X38001845Y-35533703D01*
X38001845Y-35533703D02*
X37982798Y-35543227D01*
X37982798Y-35543227D02*
X37935178Y-35543227D01*
X37935178Y-35543227D02*
X37916131Y-35533703D01*
X37916131Y-35533703D02*
X37906607Y-35524180D01*
X38144702Y-35343227D02*
X38163750Y-35343227D01*
X38163750Y-35343227D02*
X38182798Y-35352751D01*
X38182798Y-35352751D02*
X38192321Y-35362275D01*
X38192321Y-35362275D02*
X38201845Y-35381322D01*
X38201845Y-35381322D02*
X38211369Y-35419418D01*
X38211369Y-35419418D02*
X38211369Y-35467037D01*
X38211369Y-35467037D02*
X38201845Y-35505132D01*
X38201845Y-35505132D02*
X38192321Y-35524180D01*
X38192321Y-35524180D02*
X38182798Y-35533703D01*
X38182798Y-35533703D02*
X38163750Y-35543227D01*
X38163750Y-35543227D02*
X38144702Y-35543227D01*
X38144702Y-35543227D02*
X38125655Y-35533703D01*
X38125655Y-35533703D02*
X38116131Y-35524180D01*
X38116131Y-35524180D02*
X38106607Y-35505132D01*
X38106607Y-35505132D02*
X38097083Y-35467037D01*
X38097083Y-35467037D02*
X38097083Y-35419418D01*
X38097083Y-35419418D02*
X38106607Y-35381322D01*
X38106607Y-35381322D02*
X38116131Y-35362275D01*
X38116131Y-35362275D02*
X38125655Y-35352751D01*
X38125655Y-35352751D02*
X38144702Y-35343227D01*
X38297083Y-35543227D02*
X38297083Y-35409894D01*
X38297083Y-35428941D02*
X38306607Y-35419418D01*
X38306607Y-35419418D02*
X38325655Y-35409894D01*
X38325655Y-35409894D02*
X38354226Y-35409894D01*
X38354226Y-35409894D02*
X38373274Y-35419418D01*
X38373274Y-35419418D02*
X38382798Y-35438465D01*
X38382798Y-35438465D02*
X38382798Y-35543227D01*
X38382798Y-35438465D02*
X38392321Y-35419418D01*
X38392321Y-35419418D02*
X38411369Y-35409894D01*
X38411369Y-35409894D02*
X38439940Y-35409894D01*
X38439940Y-35409894D02*
X38458988Y-35419418D01*
X38458988Y-35419418D02*
X38468512Y-35438465D01*
X38468512Y-35438465D02*
X38468512Y-35543227D01*
X38563750Y-35543227D02*
X38563750Y-35409894D01*
X38563750Y-35428941D02*
X38573274Y-35419418D01*
X38573274Y-35419418D02*
X38592321Y-35409894D01*
X38592321Y-35409894D02*
X38620893Y-35409894D01*
X38620893Y-35409894D02*
X38639940Y-35419418D01*
X38639940Y-35419418D02*
X38649464Y-35438465D01*
X38649464Y-35438465D02*
X38649464Y-35543227D01*
X38649464Y-35438465D02*
X38658988Y-35419418D01*
X38658988Y-35419418D02*
X38678036Y-35409894D01*
X38678036Y-35409894D02*
X38706607Y-35409894D01*
X38706607Y-35409894D02*
X38725655Y-35419418D01*
X38725655Y-35419418D02*
X38735179Y-35438465D01*
X38735179Y-35438465D02*
X38735179Y-35543227D01*
X39125655Y-35333703D02*
X38954226Y-35590846D01*
X39382798Y-35343227D02*
X39401845Y-35343227D01*
X39401845Y-35343227D02*
X39420893Y-35352751D01*
X39420893Y-35352751D02*
X39430417Y-35362275D01*
X39430417Y-35362275D02*
X39439941Y-35381322D01*
X39439941Y-35381322D02*
X39449464Y-35419418D01*
X39449464Y-35419418D02*
X39449464Y-35467037D01*
X39449464Y-35467037D02*
X39439941Y-35505132D01*
X39439941Y-35505132D02*
X39430417Y-35524180D01*
X39430417Y-35524180D02*
X39420893Y-35533703D01*
X39420893Y-35533703D02*
X39401845Y-35543227D01*
X39401845Y-35543227D02*
X39382798Y-35543227D01*
X39382798Y-35543227D02*
X39363750Y-35533703D01*
X39363750Y-35533703D02*
X39354226Y-35524180D01*
X39354226Y-35524180D02*
X39344702Y-35505132D01*
X39344702Y-35505132D02*
X39335179Y-35467037D01*
X39335179Y-35467037D02*
X39335179Y-35419418D01*
X39335179Y-35419418D02*
X39344702Y-35381322D01*
X39344702Y-35381322D02*
X39354226Y-35362275D01*
X39354226Y-35362275D02*
X39363750Y-35352751D01*
X39363750Y-35352751D02*
X39382798Y-35343227D01*
X39535179Y-35524180D02*
X39544702Y-35533703D01*
X39544702Y-35533703D02*
X39535179Y-35543227D01*
X39535179Y-35543227D02*
X39525655Y-35533703D01*
X39525655Y-35533703D02*
X39535179Y-35524180D01*
X39535179Y-35524180D02*
X39535179Y-35543227D01*
X39668512Y-35343227D02*
X39687560Y-35343227D01*
X39687560Y-35343227D02*
X39706607Y-35352751D01*
X39706607Y-35352751D02*
X39716131Y-35362275D01*
X39716131Y-35362275D02*
X39725655Y-35381322D01*
X39725655Y-35381322D02*
X39735179Y-35419418D01*
X39735179Y-35419418D02*
X39735179Y-35467037D01*
X39735179Y-35467037D02*
X39725655Y-35505132D01*
X39725655Y-35505132D02*
X39716131Y-35524180D01*
X39716131Y-35524180D02*
X39706607Y-35533703D01*
X39706607Y-35533703D02*
X39687560Y-35543227D01*
X39687560Y-35543227D02*
X39668512Y-35543227D01*
X39668512Y-35543227D02*
X39649464Y-35533703D01*
X39649464Y-35533703D02*
X39639941Y-35524180D01*
X39639941Y-35524180D02*
X39630417Y-35505132D01*
X39630417Y-35505132D02*
X39620893Y-35467037D01*
X39620893Y-35467037D02*
X39620893Y-35419418D01*
X39620893Y-35419418D02*
X39630417Y-35381322D01*
X39630417Y-35381322D02*
X39639941Y-35362275D01*
X39639941Y-35362275D02*
X39649464Y-35352751D01*
X39649464Y-35352751D02*
X39668512Y-35343227D01*
X39811369Y-35362275D02*
X39820893Y-35352751D01*
X39820893Y-35352751D02*
X39839941Y-35343227D01*
X39839941Y-35343227D02*
X39887560Y-35343227D01*
X39887560Y-35343227D02*
X39906607Y-35352751D01*
X39906607Y-35352751D02*
X39916131Y-35362275D01*
X39916131Y-35362275D02*
X39925655Y-35381322D01*
X39925655Y-35381322D02*
X39925655Y-35400370D01*
X39925655Y-35400370D02*
X39916131Y-35428941D01*
X39916131Y-35428941D02*
X39801845Y-35543227D01*
X39801845Y-35543227D02*
X39925655Y-35543227D01*
X40106607Y-35343227D02*
X40011369Y-35343227D01*
X40011369Y-35343227D02*
X40001845Y-35438465D01*
X40001845Y-35438465D02*
X40011369Y-35428941D01*
X40011369Y-35428941D02*
X40030417Y-35419418D01*
X40030417Y-35419418D02*
X40078036Y-35419418D01*
X40078036Y-35419418D02*
X40097083Y-35428941D01*
X40097083Y-35428941D02*
X40106607Y-35438465D01*
X40106607Y-35438465D02*
X40116131Y-35457513D01*
X40116131Y-35457513D02*
X40116131Y-35505132D01*
X40116131Y-35505132D02*
X40106607Y-35524180D01*
X40106607Y-35524180D02*
X40097083Y-35533703D01*
X40097083Y-35533703D02*
X40078036Y-35543227D01*
X40078036Y-35543227D02*
X40030417Y-35543227D01*
X40030417Y-35543227D02*
X40011369Y-35533703D01*
X40011369Y-35533703D02*
X40001845Y-35524180D01*
X40287560Y-35343227D02*
X40249464Y-35343227D01*
X40249464Y-35343227D02*
X40230417Y-35352751D01*
X40230417Y-35352751D02*
X40220893Y-35362275D01*
X40220893Y-35362275D02*
X40201845Y-35390846D01*
X40201845Y-35390846D02*
X40192322Y-35428941D01*
X40192322Y-35428941D02*
X40192322Y-35505132D01*
X40192322Y-35505132D02*
X40201845Y-35524180D01*
X40201845Y-35524180D02*
X40211369Y-35533703D01*
X40211369Y-35533703D02*
X40230417Y-35543227D01*
X40230417Y-35543227D02*
X40268512Y-35543227D01*
X40268512Y-35543227D02*
X40287560Y-35533703D01*
X40287560Y-35533703D02*
X40297083Y-35524180D01*
X40297083Y-35524180D02*
X40306607Y-35505132D01*
X40306607Y-35505132D02*
X40306607Y-35457513D01*
X40306607Y-35457513D02*
X40297083Y-35438465D01*
X40297083Y-35438465D02*
X40287560Y-35428941D01*
X40287560Y-35428941D02*
X40268512Y-35419418D01*
X40268512Y-35419418D02*
X40230417Y-35419418D01*
X40230417Y-35419418D02*
X40211369Y-35428941D01*
X40211369Y-35428941D02*
X40201845Y-35438465D01*
X40201845Y-35438465D02*
X40192322Y-35457513D01*
X40382798Y-35343227D02*
X40382798Y-35381322D01*
X40458988Y-35343227D02*
X40458988Y-35381322D01*
X40754226Y-35619418D02*
X40744703Y-35609894D01*
X40744703Y-35609894D02*
X40725655Y-35581322D01*
X40725655Y-35581322D02*
X40716131Y-35562275D01*
X40716131Y-35562275D02*
X40706607Y-35533703D01*
X40706607Y-35533703D02*
X40697084Y-35486084D01*
X40697084Y-35486084D02*
X40697084Y-35447989D01*
X40697084Y-35447989D02*
X40706607Y-35400370D01*
X40706607Y-35400370D02*
X40716131Y-35371799D01*
X40716131Y-35371799D02*
X40725655Y-35352751D01*
X40725655Y-35352751D02*
X40744703Y-35324180D01*
X40744703Y-35324180D02*
X40754226Y-35314656D01*
X40820893Y-35362275D02*
X40830417Y-35352751D01*
X40830417Y-35352751D02*
X40849464Y-35343227D01*
X40849464Y-35343227D02*
X40897084Y-35343227D01*
X40897084Y-35343227D02*
X40916131Y-35352751D01*
X40916131Y-35352751D02*
X40925655Y-35362275D01*
X40925655Y-35362275D02*
X40935179Y-35381322D01*
X40935179Y-35381322D02*
X40935179Y-35400370D01*
X40935179Y-35400370D02*
X40925655Y-35428941D01*
X40925655Y-35428941D02*
X40811369Y-35543227D01*
X40811369Y-35543227D02*
X40935179Y-35543227D01*
X41173274Y-35543227D02*
X41173274Y-35343227D01*
X41258988Y-35543227D02*
X41258988Y-35438465D01*
X41258988Y-35438465D02*
X41249465Y-35419418D01*
X41249465Y-35419418D02*
X41230417Y-35409894D01*
X41230417Y-35409894D02*
X41201845Y-35409894D01*
X41201845Y-35409894D02*
X41182798Y-35419418D01*
X41182798Y-35419418D02*
X41173274Y-35428941D01*
X41382798Y-35543227D02*
X41363750Y-35533703D01*
X41363750Y-35533703D02*
X41354226Y-35524180D01*
X41354226Y-35524180D02*
X41344703Y-35505132D01*
X41344703Y-35505132D02*
X41344703Y-35447989D01*
X41344703Y-35447989D02*
X41354226Y-35428941D01*
X41354226Y-35428941D02*
X41363750Y-35419418D01*
X41363750Y-35419418D02*
X41382798Y-35409894D01*
X41382798Y-35409894D02*
X41411369Y-35409894D01*
X41411369Y-35409894D02*
X41430417Y-35419418D01*
X41430417Y-35419418D02*
X41439941Y-35428941D01*
X41439941Y-35428941D02*
X41449465Y-35447989D01*
X41449465Y-35447989D02*
X41449465Y-35505132D01*
X41449465Y-35505132D02*
X41439941Y-35524180D01*
X41439941Y-35524180D02*
X41430417Y-35533703D01*
X41430417Y-35533703D02*
X41411369Y-35543227D01*
X41411369Y-35543227D02*
X41382798Y-35543227D01*
X41563750Y-35543227D02*
X41544703Y-35533703D01*
X41544703Y-35533703D02*
X41535179Y-35514656D01*
X41535179Y-35514656D02*
X41535179Y-35343227D01*
X41716131Y-35533703D02*
X41697084Y-35543227D01*
X41697084Y-35543227D02*
X41658988Y-35543227D01*
X41658988Y-35543227D02*
X41639941Y-35533703D01*
X41639941Y-35533703D02*
X41630417Y-35514656D01*
X41630417Y-35514656D02*
X41630417Y-35438465D01*
X41630417Y-35438465D02*
X41639941Y-35419418D01*
X41639941Y-35419418D02*
X41658988Y-35409894D01*
X41658988Y-35409894D02*
X41697084Y-35409894D01*
X41697084Y-35409894D02*
X41716131Y-35419418D01*
X41716131Y-35419418D02*
X41725655Y-35438465D01*
X41725655Y-35438465D02*
X41725655Y-35457513D01*
X41725655Y-35457513D02*
X41630417Y-35476561D01*
X41801846Y-35533703D02*
X41820893Y-35543227D01*
X41820893Y-35543227D02*
X41858988Y-35543227D01*
X41858988Y-35543227D02*
X41878036Y-35533703D01*
X41878036Y-35533703D02*
X41887560Y-35514656D01*
X41887560Y-35514656D02*
X41887560Y-35505132D01*
X41887560Y-35505132D02*
X41878036Y-35486084D01*
X41878036Y-35486084D02*
X41858988Y-35476561D01*
X41858988Y-35476561D02*
X41830417Y-35476561D01*
X41830417Y-35476561D02*
X41811369Y-35467037D01*
X41811369Y-35467037D02*
X41801846Y-35447989D01*
X41801846Y-35447989D02*
X41801846Y-35438465D01*
X41801846Y-35438465D02*
X41811369Y-35419418D01*
X41811369Y-35419418D02*
X41830417Y-35409894D01*
X41830417Y-35409894D02*
X41858988Y-35409894D01*
X41858988Y-35409894D02*
X41878036Y-35419418D01*
X41954227Y-35619418D02*
X41963750Y-35609894D01*
X41963750Y-35609894D02*
X41982798Y-35581322D01*
X41982798Y-35581322D02*
X41992322Y-35562275D01*
X41992322Y-35562275D02*
X42001846Y-35533703D01*
X42001846Y-35533703D02*
X42011369Y-35486084D01*
X42011369Y-35486084D02*
X42011369Y-35447989D01*
X42011369Y-35447989D02*
X42001846Y-35400370D01*
X42001846Y-35400370D02*
X41992322Y-35371799D01*
X41992322Y-35371799D02*
X41982798Y-35352751D01*
X41982798Y-35352751D02*
X41963750Y-35324180D01*
X41963750Y-35324180D02*
X41954227Y-35314656D01*
X42316131Y-35619418D02*
X42306607Y-35609894D01*
X42306607Y-35609894D02*
X42287560Y-35581322D01*
X42287560Y-35581322D02*
X42278036Y-35562275D01*
X42278036Y-35562275D02*
X42268512Y-35533703D01*
X42268512Y-35533703D02*
X42258988Y-35486084D01*
X42258988Y-35486084D02*
X42258988Y-35447989D01*
X42258988Y-35447989D02*
X42268512Y-35400370D01*
X42268512Y-35400370D02*
X42278036Y-35371799D01*
X42278036Y-35371799D02*
X42287560Y-35352751D01*
X42287560Y-35352751D02*
X42306607Y-35324180D01*
X42306607Y-35324180D02*
X42316131Y-35314656D01*
X42392322Y-35409894D02*
X42392322Y-35543227D01*
X42392322Y-35428941D02*
X42401846Y-35419418D01*
X42401846Y-35419418D02*
X42420893Y-35409894D01*
X42420893Y-35409894D02*
X42449465Y-35409894D01*
X42449465Y-35409894D02*
X42468512Y-35419418D01*
X42468512Y-35419418D02*
X42478036Y-35438465D01*
X42478036Y-35438465D02*
X42478036Y-35543227D01*
X42601846Y-35543227D02*
X42582798Y-35533703D01*
X42582798Y-35533703D02*
X42573274Y-35524180D01*
X42573274Y-35524180D02*
X42563750Y-35505132D01*
X42563750Y-35505132D02*
X42563750Y-35447989D01*
X42563750Y-35447989D02*
X42573274Y-35428941D01*
X42573274Y-35428941D02*
X42582798Y-35419418D01*
X42582798Y-35419418D02*
X42601846Y-35409894D01*
X42601846Y-35409894D02*
X42630417Y-35409894D01*
X42630417Y-35409894D02*
X42649465Y-35419418D01*
X42649465Y-35419418D02*
X42658988Y-35428941D01*
X42658988Y-35428941D02*
X42668512Y-35447989D01*
X42668512Y-35447989D02*
X42668512Y-35505132D01*
X42668512Y-35505132D02*
X42658988Y-35524180D01*
X42658988Y-35524180D02*
X42649465Y-35533703D01*
X42649465Y-35533703D02*
X42630417Y-35543227D01*
X42630417Y-35543227D02*
X42601846Y-35543227D01*
X42725655Y-35409894D02*
X42801846Y-35409894D01*
X42754227Y-35343227D02*
X42754227Y-35514656D01*
X42754227Y-35514656D02*
X42763750Y-35533703D01*
X42763750Y-35533703D02*
X42782798Y-35543227D01*
X42782798Y-35543227D02*
X42801846Y-35543227D01*
X43020893Y-35409894D02*
X43020893Y-35609894D01*
X43020893Y-35419418D02*
X43039941Y-35409894D01*
X43039941Y-35409894D02*
X43078036Y-35409894D01*
X43078036Y-35409894D02*
X43097084Y-35419418D01*
X43097084Y-35419418D02*
X43106608Y-35428941D01*
X43106608Y-35428941D02*
X43116131Y-35447989D01*
X43116131Y-35447989D02*
X43116131Y-35505132D01*
X43116131Y-35505132D02*
X43106608Y-35524180D01*
X43106608Y-35524180D02*
X43097084Y-35533703D01*
X43097084Y-35533703D02*
X43078036Y-35543227D01*
X43078036Y-35543227D02*
X43039941Y-35543227D01*
X43039941Y-35543227D02*
X43020893Y-35533703D01*
X43230417Y-35543227D02*
X43211369Y-35533703D01*
X43211369Y-35533703D02*
X43201846Y-35514656D01*
X43201846Y-35514656D02*
X43201846Y-35343227D01*
X43392322Y-35543227D02*
X43392322Y-35438465D01*
X43392322Y-35438465D02*
X43382798Y-35419418D01*
X43382798Y-35419418D02*
X43363750Y-35409894D01*
X43363750Y-35409894D02*
X43325655Y-35409894D01*
X43325655Y-35409894D02*
X43306608Y-35419418D01*
X43392322Y-35533703D02*
X43373274Y-35543227D01*
X43373274Y-35543227D02*
X43325655Y-35543227D01*
X43325655Y-35543227D02*
X43306608Y-35533703D01*
X43306608Y-35533703D02*
X43297084Y-35514656D01*
X43297084Y-35514656D02*
X43297084Y-35495608D01*
X43297084Y-35495608D02*
X43306608Y-35476561D01*
X43306608Y-35476561D02*
X43325655Y-35467037D01*
X43325655Y-35467037D02*
X43373274Y-35467037D01*
X43373274Y-35467037D02*
X43392322Y-35457513D01*
X43458989Y-35409894D02*
X43535179Y-35409894D01*
X43487560Y-35343227D02*
X43487560Y-35514656D01*
X43487560Y-35514656D02*
X43497084Y-35533703D01*
X43497084Y-35533703D02*
X43516131Y-35543227D01*
X43516131Y-35543227D02*
X43535179Y-35543227D01*
X43678036Y-35533703D02*
X43658989Y-35543227D01*
X43658989Y-35543227D02*
X43620893Y-35543227D01*
X43620893Y-35543227D02*
X43601846Y-35533703D01*
X43601846Y-35533703D02*
X43592322Y-35514656D01*
X43592322Y-35514656D02*
X43592322Y-35438465D01*
X43592322Y-35438465D02*
X43601846Y-35419418D01*
X43601846Y-35419418D02*
X43620893Y-35409894D01*
X43620893Y-35409894D02*
X43658989Y-35409894D01*
X43658989Y-35409894D02*
X43678036Y-35419418D01*
X43678036Y-35419418D02*
X43687560Y-35438465D01*
X43687560Y-35438465D02*
X43687560Y-35457513D01*
X43687560Y-35457513D02*
X43592322Y-35476561D01*
X43858989Y-35543227D02*
X43858989Y-35343227D01*
X43858989Y-35533703D02*
X43839941Y-35543227D01*
X43839941Y-35543227D02*
X43801846Y-35543227D01*
X43801846Y-35543227D02*
X43782798Y-35533703D01*
X43782798Y-35533703D02*
X43773274Y-35524180D01*
X43773274Y-35524180D02*
X43763750Y-35505132D01*
X43763750Y-35505132D02*
X43763750Y-35447989D01*
X43763750Y-35447989D02*
X43773274Y-35428941D01*
X43773274Y-35428941D02*
X43782798Y-35419418D01*
X43782798Y-35419418D02*
X43801846Y-35409894D01*
X43801846Y-35409894D02*
X43839941Y-35409894D01*
X43839941Y-35409894D02*
X43858989Y-35419418D01*
X43935179Y-35619418D02*
X43944703Y-35609894D01*
X43944703Y-35609894D02*
X43963750Y-35581322D01*
X43963750Y-35581322D02*
X43973274Y-35562275D01*
X43973274Y-35562275D02*
X43982798Y-35533703D01*
X43982798Y-35533703D02*
X43992322Y-35486084D01*
X43992322Y-35486084D02*
X43992322Y-35447989D01*
X43992322Y-35447989D02*
X43982798Y-35400370D01*
X43982798Y-35400370D02*
X43973274Y-35371799D01*
X43973274Y-35371799D02*
X43963750Y-35352751D01*
X43963750Y-35352751D02*
X43944703Y-35324180D01*
X43944703Y-35324180D02*
X43935179Y-35314656D01*
D10*
X37129164Y-35665743D02*
X37129164Y-35765743D01*
X37079164Y-35715743D02*
X37179164Y-35715743D01*
D11*
X37544702Y-35807227D02*
X37430417Y-35807227D01*
X37487559Y-35807227D02*
X37487559Y-35607227D01*
X37487559Y-35607227D02*
X37468512Y-35635799D01*
X37468512Y-35635799D02*
X37449464Y-35654846D01*
X37449464Y-35654846D02*
X37430417Y-35664370D01*
X37630417Y-35788180D02*
X37639940Y-35797703D01*
X37639940Y-35797703D02*
X37630417Y-35807227D01*
X37630417Y-35807227D02*
X37620893Y-35797703D01*
X37620893Y-35797703D02*
X37630417Y-35788180D01*
X37630417Y-35788180D02*
X37630417Y-35807227D01*
X37763750Y-35607227D02*
X37782798Y-35607227D01*
X37782798Y-35607227D02*
X37801845Y-35616751D01*
X37801845Y-35616751D02*
X37811369Y-35626275D01*
X37811369Y-35626275D02*
X37820893Y-35645322D01*
X37820893Y-35645322D02*
X37830417Y-35683418D01*
X37830417Y-35683418D02*
X37830417Y-35731037D01*
X37830417Y-35731037D02*
X37820893Y-35769132D01*
X37820893Y-35769132D02*
X37811369Y-35788180D01*
X37811369Y-35788180D02*
X37801845Y-35797703D01*
X37801845Y-35797703D02*
X37782798Y-35807227D01*
X37782798Y-35807227D02*
X37763750Y-35807227D01*
X37763750Y-35807227D02*
X37744702Y-35797703D01*
X37744702Y-35797703D02*
X37735178Y-35788180D01*
X37735178Y-35788180D02*
X37725655Y-35769132D01*
X37725655Y-35769132D02*
X37716131Y-35731037D01*
X37716131Y-35731037D02*
X37716131Y-35683418D01*
X37716131Y-35683418D02*
X37725655Y-35645322D01*
X37725655Y-35645322D02*
X37735178Y-35626275D01*
X37735178Y-35626275D02*
X37744702Y-35616751D01*
X37744702Y-35616751D02*
X37763750Y-35607227D01*
X37954226Y-35607227D02*
X37973274Y-35607227D01*
X37973274Y-35607227D02*
X37992321Y-35616751D01*
X37992321Y-35616751D02*
X38001845Y-35626275D01*
X38001845Y-35626275D02*
X38011369Y-35645322D01*
X38011369Y-35645322D02*
X38020893Y-35683418D01*
X38020893Y-35683418D02*
X38020893Y-35731037D01*
X38020893Y-35731037D02*
X38011369Y-35769132D01*
X38011369Y-35769132D02*
X38001845Y-35788180D01*
X38001845Y-35788180D02*
X37992321Y-35797703D01*
X37992321Y-35797703D02*
X37973274Y-35807227D01*
X37973274Y-35807227D02*
X37954226Y-35807227D01*
X37954226Y-35807227D02*
X37935178Y-35797703D01*
X37935178Y-35797703D02*
X37925655Y-35788180D01*
X37925655Y-35788180D02*
X37916131Y-35769132D01*
X37916131Y-35769132D02*
X37906607Y-35731037D01*
X37906607Y-35731037D02*
X37906607Y-35683418D01*
X37906607Y-35683418D02*
X37916131Y-35645322D01*
X37916131Y-35645322D02*
X37925655Y-35626275D01*
X37925655Y-35626275D02*
X37935178Y-35616751D01*
X37935178Y-35616751D02*
X37954226Y-35607227D01*
X38144702Y-35607227D02*
X38163750Y-35607227D01*
X38163750Y-35607227D02*
X38182798Y-35616751D01*
X38182798Y-35616751D02*
X38192321Y-35626275D01*
X38192321Y-35626275D02*
X38201845Y-35645322D01*
X38201845Y-35645322D02*
X38211369Y-35683418D01*
X38211369Y-35683418D02*
X38211369Y-35731037D01*
X38211369Y-35731037D02*
X38201845Y-35769132D01*
X38201845Y-35769132D02*
X38192321Y-35788180D01*
X38192321Y-35788180D02*
X38182798Y-35797703D01*
X38182798Y-35797703D02*
X38163750Y-35807227D01*
X38163750Y-35807227D02*
X38144702Y-35807227D01*
X38144702Y-35807227D02*
X38125655Y-35797703D01*
X38125655Y-35797703D02*
X38116131Y-35788180D01*
X38116131Y-35788180D02*
X38106607Y-35769132D01*
X38106607Y-35769132D02*
X38097083Y-35731037D01*
X38097083Y-35731037D02*
X38097083Y-35683418D01*
X38097083Y-35683418D02*
X38106607Y-35645322D01*
X38106607Y-35645322D02*
X38116131Y-35626275D01*
X38116131Y-35626275D02*
X38125655Y-35616751D01*
X38125655Y-35616751D02*
X38144702Y-35607227D01*
X38297083Y-35807227D02*
X38297083Y-35673894D01*
X38297083Y-35692941D02*
X38306607Y-35683418D01*
X38306607Y-35683418D02*
X38325655Y-35673894D01*
X38325655Y-35673894D02*
X38354226Y-35673894D01*
X38354226Y-35673894D02*
X38373274Y-35683418D01*
X38373274Y-35683418D02*
X38382798Y-35702465D01*
X38382798Y-35702465D02*
X38382798Y-35807227D01*
X38382798Y-35702465D02*
X38392321Y-35683418D01*
X38392321Y-35683418D02*
X38411369Y-35673894D01*
X38411369Y-35673894D02*
X38439940Y-35673894D01*
X38439940Y-35673894D02*
X38458988Y-35683418D01*
X38458988Y-35683418D02*
X38468512Y-35702465D01*
X38468512Y-35702465D02*
X38468512Y-35807227D01*
X38563750Y-35807227D02*
X38563750Y-35673894D01*
X38563750Y-35692941D02*
X38573274Y-35683418D01*
X38573274Y-35683418D02*
X38592321Y-35673894D01*
X38592321Y-35673894D02*
X38620893Y-35673894D01*
X38620893Y-35673894D02*
X38639940Y-35683418D01*
X38639940Y-35683418D02*
X38649464Y-35702465D01*
X38649464Y-35702465D02*
X38649464Y-35807227D01*
X38649464Y-35702465D02*
X38658988Y-35683418D01*
X38658988Y-35683418D02*
X38678036Y-35673894D01*
X38678036Y-35673894D02*
X38706607Y-35673894D01*
X38706607Y-35673894D02*
X38725655Y-35683418D01*
X38725655Y-35683418D02*
X38735179Y-35702465D01*
X38735179Y-35702465D02*
X38735179Y-35807227D01*
X39125655Y-35597703D02*
X38954226Y-35854846D01*
X39382798Y-35607227D02*
X39401845Y-35607227D01*
X39401845Y-35607227D02*
X39420893Y-35616751D01*
X39420893Y-35616751D02*
X39430417Y-35626275D01*
X39430417Y-35626275D02*
X39439941Y-35645322D01*
X39439941Y-35645322D02*
X39449464Y-35683418D01*
X39449464Y-35683418D02*
X39449464Y-35731037D01*
X39449464Y-35731037D02*
X39439941Y-35769132D01*
X39439941Y-35769132D02*
X39430417Y-35788180D01*
X39430417Y-35788180D02*
X39420893Y-35797703D01*
X39420893Y-35797703D02*
X39401845Y-35807227D01*
X39401845Y-35807227D02*
X39382798Y-35807227D01*
X39382798Y-35807227D02*
X39363750Y-35797703D01*
X39363750Y-35797703D02*
X39354226Y-35788180D01*
X39354226Y-35788180D02*
X39344702Y-35769132D01*
X39344702Y-35769132D02*
X39335179Y-35731037D01*
X39335179Y-35731037D02*
X39335179Y-35683418D01*
X39335179Y-35683418D02*
X39344702Y-35645322D01*
X39344702Y-35645322D02*
X39354226Y-35626275D01*
X39354226Y-35626275D02*
X39363750Y-35616751D01*
X39363750Y-35616751D02*
X39382798Y-35607227D01*
X39535179Y-35788180D02*
X39544702Y-35797703D01*
X39544702Y-35797703D02*
X39535179Y-35807227D01*
X39535179Y-35807227D02*
X39525655Y-35797703D01*
X39525655Y-35797703D02*
X39535179Y-35788180D01*
X39535179Y-35788180D02*
X39535179Y-35807227D01*
X39668512Y-35607227D02*
X39687560Y-35607227D01*
X39687560Y-35607227D02*
X39706607Y-35616751D01*
X39706607Y-35616751D02*
X39716131Y-35626275D01*
X39716131Y-35626275D02*
X39725655Y-35645322D01*
X39725655Y-35645322D02*
X39735179Y-35683418D01*
X39735179Y-35683418D02*
X39735179Y-35731037D01*
X39735179Y-35731037D02*
X39725655Y-35769132D01*
X39725655Y-35769132D02*
X39716131Y-35788180D01*
X39716131Y-35788180D02*
X39706607Y-35797703D01*
X39706607Y-35797703D02*
X39687560Y-35807227D01*
X39687560Y-35807227D02*
X39668512Y-35807227D01*
X39668512Y-35807227D02*
X39649464Y-35797703D01*
X39649464Y-35797703D02*
X39639941Y-35788180D01*
X39639941Y-35788180D02*
X39630417Y-35769132D01*
X39630417Y-35769132D02*
X39620893Y-35731037D01*
X39620893Y-35731037D02*
X39620893Y-35683418D01*
X39620893Y-35683418D02*
X39630417Y-35645322D01*
X39630417Y-35645322D02*
X39639941Y-35626275D01*
X39639941Y-35626275D02*
X39649464Y-35616751D01*
X39649464Y-35616751D02*
X39668512Y-35607227D01*
X39801845Y-35607227D02*
X39925655Y-35607227D01*
X39925655Y-35607227D02*
X39858988Y-35683418D01*
X39858988Y-35683418D02*
X39887560Y-35683418D01*
X39887560Y-35683418D02*
X39906607Y-35692941D01*
X39906607Y-35692941D02*
X39916131Y-35702465D01*
X39916131Y-35702465D02*
X39925655Y-35721513D01*
X39925655Y-35721513D02*
X39925655Y-35769132D01*
X39925655Y-35769132D02*
X39916131Y-35788180D01*
X39916131Y-35788180D02*
X39906607Y-35797703D01*
X39906607Y-35797703D02*
X39887560Y-35807227D01*
X39887560Y-35807227D02*
X39830417Y-35807227D01*
X39830417Y-35807227D02*
X39811369Y-35797703D01*
X39811369Y-35797703D02*
X39801845Y-35788180D01*
X40020893Y-35807227D02*
X40058988Y-35807227D01*
X40058988Y-35807227D02*
X40078036Y-35797703D01*
X40078036Y-35797703D02*
X40087560Y-35788180D01*
X40087560Y-35788180D02*
X40106607Y-35759608D01*
X40106607Y-35759608D02*
X40116131Y-35721513D01*
X40116131Y-35721513D02*
X40116131Y-35645322D01*
X40116131Y-35645322D02*
X40106607Y-35626275D01*
X40106607Y-35626275D02*
X40097083Y-35616751D01*
X40097083Y-35616751D02*
X40078036Y-35607227D01*
X40078036Y-35607227D02*
X40039941Y-35607227D01*
X40039941Y-35607227D02*
X40020893Y-35616751D01*
X40020893Y-35616751D02*
X40011369Y-35626275D01*
X40011369Y-35626275D02*
X40001845Y-35645322D01*
X40001845Y-35645322D02*
X40001845Y-35692941D01*
X40001845Y-35692941D02*
X40011369Y-35711989D01*
X40011369Y-35711989D02*
X40020893Y-35721513D01*
X40020893Y-35721513D02*
X40039941Y-35731037D01*
X40039941Y-35731037D02*
X40078036Y-35731037D01*
X40078036Y-35731037D02*
X40097083Y-35721513D01*
X40097083Y-35721513D02*
X40106607Y-35711989D01*
X40106607Y-35711989D02*
X40116131Y-35692941D01*
X40287560Y-35673894D02*
X40287560Y-35807227D01*
X40239941Y-35597703D02*
X40192322Y-35740561D01*
X40192322Y-35740561D02*
X40316131Y-35740561D01*
X40382798Y-35607227D02*
X40382798Y-35645322D01*
X40458988Y-35607227D02*
X40458988Y-35645322D01*
X40754226Y-35883418D02*
X40744703Y-35873894D01*
X40744703Y-35873894D02*
X40725655Y-35845322D01*
X40725655Y-35845322D02*
X40716131Y-35826275D01*
X40716131Y-35826275D02*
X40706607Y-35797703D01*
X40706607Y-35797703D02*
X40697084Y-35750084D01*
X40697084Y-35750084D02*
X40697084Y-35711989D01*
X40697084Y-35711989D02*
X40706607Y-35664370D01*
X40706607Y-35664370D02*
X40716131Y-35635799D01*
X40716131Y-35635799D02*
X40725655Y-35616751D01*
X40725655Y-35616751D02*
X40744703Y-35588180D01*
X40744703Y-35588180D02*
X40754226Y-35578656D01*
X40916131Y-35607227D02*
X40878036Y-35607227D01*
X40878036Y-35607227D02*
X40858988Y-35616751D01*
X40858988Y-35616751D02*
X40849464Y-35626275D01*
X40849464Y-35626275D02*
X40830417Y-35654846D01*
X40830417Y-35654846D02*
X40820893Y-35692941D01*
X40820893Y-35692941D02*
X40820893Y-35769132D01*
X40820893Y-35769132D02*
X40830417Y-35788180D01*
X40830417Y-35788180D02*
X40839941Y-35797703D01*
X40839941Y-35797703D02*
X40858988Y-35807227D01*
X40858988Y-35807227D02*
X40897084Y-35807227D01*
X40897084Y-35807227D02*
X40916131Y-35797703D01*
X40916131Y-35797703D02*
X40925655Y-35788180D01*
X40925655Y-35788180D02*
X40935179Y-35769132D01*
X40935179Y-35769132D02*
X40935179Y-35721513D01*
X40935179Y-35721513D02*
X40925655Y-35702465D01*
X40925655Y-35702465D02*
X40916131Y-35692941D01*
X40916131Y-35692941D02*
X40897084Y-35683418D01*
X40897084Y-35683418D02*
X40858988Y-35683418D01*
X40858988Y-35683418D02*
X40839941Y-35692941D01*
X40839941Y-35692941D02*
X40830417Y-35702465D01*
X40830417Y-35702465D02*
X40820893Y-35721513D01*
X41173274Y-35807227D02*
X41173274Y-35607227D01*
X41258988Y-35807227D02*
X41258988Y-35702465D01*
X41258988Y-35702465D02*
X41249465Y-35683418D01*
X41249465Y-35683418D02*
X41230417Y-35673894D01*
X41230417Y-35673894D02*
X41201845Y-35673894D01*
X41201845Y-35673894D02*
X41182798Y-35683418D01*
X41182798Y-35683418D02*
X41173274Y-35692941D01*
X41382798Y-35807227D02*
X41363750Y-35797703D01*
X41363750Y-35797703D02*
X41354226Y-35788180D01*
X41354226Y-35788180D02*
X41344703Y-35769132D01*
X41344703Y-35769132D02*
X41344703Y-35711989D01*
X41344703Y-35711989D02*
X41354226Y-35692941D01*
X41354226Y-35692941D02*
X41363750Y-35683418D01*
X41363750Y-35683418D02*
X41382798Y-35673894D01*
X41382798Y-35673894D02*
X41411369Y-35673894D01*
X41411369Y-35673894D02*
X41430417Y-35683418D01*
X41430417Y-35683418D02*
X41439941Y-35692941D01*
X41439941Y-35692941D02*
X41449465Y-35711989D01*
X41449465Y-35711989D02*
X41449465Y-35769132D01*
X41449465Y-35769132D02*
X41439941Y-35788180D01*
X41439941Y-35788180D02*
X41430417Y-35797703D01*
X41430417Y-35797703D02*
X41411369Y-35807227D01*
X41411369Y-35807227D02*
X41382798Y-35807227D01*
X41563750Y-35807227D02*
X41544703Y-35797703D01*
X41544703Y-35797703D02*
X41535179Y-35778656D01*
X41535179Y-35778656D02*
X41535179Y-35607227D01*
X41716131Y-35797703D02*
X41697084Y-35807227D01*
X41697084Y-35807227D02*
X41658988Y-35807227D01*
X41658988Y-35807227D02*
X41639941Y-35797703D01*
X41639941Y-35797703D02*
X41630417Y-35778656D01*
X41630417Y-35778656D02*
X41630417Y-35702465D01*
X41630417Y-35702465D02*
X41639941Y-35683418D01*
X41639941Y-35683418D02*
X41658988Y-35673894D01*
X41658988Y-35673894D02*
X41697084Y-35673894D01*
X41697084Y-35673894D02*
X41716131Y-35683418D01*
X41716131Y-35683418D02*
X41725655Y-35702465D01*
X41725655Y-35702465D02*
X41725655Y-35721513D01*
X41725655Y-35721513D02*
X41630417Y-35740561D01*
X41801846Y-35797703D02*
X41820893Y-35807227D01*
X41820893Y-35807227D02*
X41858988Y-35807227D01*
X41858988Y-35807227D02*
X41878036Y-35797703D01*
X41878036Y-35797703D02*
X41887560Y-35778656D01*
X41887560Y-35778656D02*
X41887560Y-35769132D01*
X41887560Y-35769132D02*
X41878036Y-35750084D01*
X41878036Y-35750084D02*
X41858988Y-35740561D01*
X41858988Y-35740561D02*
X41830417Y-35740561D01*
X41830417Y-35740561D02*
X41811369Y-35731037D01*
X41811369Y-35731037D02*
X41801846Y-35711989D01*
X41801846Y-35711989D02*
X41801846Y-35702465D01*
X41801846Y-35702465D02*
X41811369Y-35683418D01*
X41811369Y-35683418D02*
X41830417Y-35673894D01*
X41830417Y-35673894D02*
X41858988Y-35673894D01*
X41858988Y-35673894D02*
X41878036Y-35683418D01*
X41954227Y-35883418D02*
X41963750Y-35873894D01*
X41963750Y-35873894D02*
X41982798Y-35845322D01*
X41982798Y-35845322D02*
X41992322Y-35826275D01*
X41992322Y-35826275D02*
X42001846Y-35797703D01*
X42001846Y-35797703D02*
X42011369Y-35750084D01*
X42011369Y-35750084D02*
X42011369Y-35711989D01*
X42011369Y-35711989D02*
X42001846Y-35664370D01*
X42001846Y-35664370D02*
X41992322Y-35635799D01*
X41992322Y-35635799D02*
X41982798Y-35616751D01*
X41982798Y-35616751D02*
X41963750Y-35588180D01*
X41963750Y-35588180D02*
X41954227Y-35578656D01*
X42316131Y-35883418D02*
X42306607Y-35873894D01*
X42306607Y-35873894D02*
X42287560Y-35845322D01*
X42287560Y-35845322D02*
X42278036Y-35826275D01*
X42278036Y-35826275D02*
X42268512Y-35797703D01*
X42268512Y-35797703D02*
X42258988Y-35750084D01*
X42258988Y-35750084D02*
X42258988Y-35711989D01*
X42258988Y-35711989D02*
X42268512Y-35664370D01*
X42268512Y-35664370D02*
X42278036Y-35635799D01*
X42278036Y-35635799D02*
X42287560Y-35616751D01*
X42287560Y-35616751D02*
X42306607Y-35588180D01*
X42306607Y-35588180D02*
X42316131Y-35578656D01*
X42392322Y-35673894D02*
X42392322Y-35807227D01*
X42392322Y-35692941D02*
X42401846Y-35683418D01*
X42401846Y-35683418D02*
X42420893Y-35673894D01*
X42420893Y-35673894D02*
X42449465Y-35673894D01*
X42449465Y-35673894D02*
X42468512Y-35683418D01*
X42468512Y-35683418D02*
X42478036Y-35702465D01*
X42478036Y-35702465D02*
X42478036Y-35807227D01*
X42601846Y-35807227D02*
X42582798Y-35797703D01*
X42582798Y-35797703D02*
X42573274Y-35788180D01*
X42573274Y-35788180D02*
X42563750Y-35769132D01*
X42563750Y-35769132D02*
X42563750Y-35711989D01*
X42563750Y-35711989D02*
X42573274Y-35692941D01*
X42573274Y-35692941D02*
X42582798Y-35683418D01*
X42582798Y-35683418D02*
X42601846Y-35673894D01*
X42601846Y-35673894D02*
X42630417Y-35673894D01*
X42630417Y-35673894D02*
X42649465Y-35683418D01*
X42649465Y-35683418D02*
X42658988Y-35692941D01*
X42658988Y-35692941D02*
X42668512Y-35711989D01*
X42668512Y-35711989D02*
X42668512Y-35769132D01*
X42668512Y-35769132D02*
X42658988Y-35788180D01*
X42658988Y-35788180D02*
X42649465Y-35797703D01*
X42649465Y-35797703D02*
X42630417Y-35807227D01*
X42630417Y-35807227D02*
X42601846Y-35807227D01*
X42725655Y-35673894D02*
X42801846Y-35673894D01*
X42754227Y-35607227D02*
X42754227Y-35778656D01*
X42754227Y-35778656D02*
X42763750Y-35797703D01*
X42763750Y-35797703D02*
X42782798Y-35807227D01*
X42782798Y-35807227D02*
X42801846Y-35807227D01*
X43020893Y-35673894D02*
X43020893Y-35873894D01*
X43020893Y-35683418D02*
X43039941Y-35673894D01*
X43039941Y-35673894D02*
X43078036Y-35673894D01*
X43078036Y-35673894D02*
X43097084Y-35683418D01*
X43097084Y-35683418D02*
X43106608Y-35692941D01*
X43106608Y-35692941D02*
X43116131Y-35711989D01*
X43116131Y-35711989D02*
X43116131Y-35769132D01*
X43116131Y-35769132D02*
X43106608Y-35788180D01*
X43106608Y-35788180D02*
X43097084Y-35797703D01*
X43097084Y-35797703D02*
X43078036Y-35807227D01*
X43078036Y-35807227D02*
X43039941Y-35807227D01*
X43039941Y-35807227D02*
X43020893Y-35797703D01*
X43230417Y-35807227D02*
X43211369Y-35797703D01*
X43211369Y-35797703D02*
X43201846Y-35778656D01*
X43201846Y-35778656D02*
X43201846Y-35607227D01*
X43392322Y-35807227D02*
X43392322Y-35702465D01*
X43392322Y-35702465D02*
X43382798Y-35683418D01*
X43382798Y-35683418D02*
X43363750Y-35673894D01*
X43363750Y-35673894D02*
X43325655Y-35673894D01*
X43325655Y-35673894D02*
X43306608Y-35683418D01*
X43392322Y-35797703D02*
X43373274Y-35807227D01*
X43373274Y-35807227D02*
X43325655Y-35807227D01*
X43325655Y-35807227D02*
X43306608Y-35797703D01*
X43306608Y-35797703D02*
X43297084Y-35778656D01*
X43297084Y-35778656D02*
X43297084Y-35759608D01*
X43297084Y-35759608D02*
X43306608Y-35740561D01*
X43306608Y-35740561D02*
X43325655Y-35731037D01*
X43325655Y-35731037D02*
X43373274Y-35731037D01*
X43373274Y-35731037D02*
X43392322Y-35721513D01*
X43458989Y-35673894D02*
X43535179Y-35673894D01*
X43487560Y-35607227D02*
X43487560Y-35778656D01*
X43487560Y-35778656D02*
X43497084Y-35797703D01*
X43497084Y-35797703D02*
X43516131Y-35807227D01*
X43516131Y-35807227D02*
X43535179Y-35807227D01*
X43678036Y-35797703D02*
X43658989Y-35807227D01*
X43658989Y-35807227D02*
X43620893Y-35807227D01*
X43620893Y-35807227D02*
X43601846Y-35797703D01*
X43601846Y-35797703D02*
X43592322Y-35778656D01*
X43592322Y-35778656D02*
X43592322Y-35702465D01*
X43592322Y-35702465D02*
X43601846Y-35683418D01*
X43601846Y-35683418D02*
X43620893Y-35673894D01*
X43620893Y-35673894D02*
X43658989Y-35673894D01*
X43658989Y-35673894D02*
X43678036Y-35683418D01*
X43678036Y-35683418D02*
X43687560Y-35702465D01*
X43687560Y-35702465D02*
X43687560Y-35721513D01*
X43687560Y-35721513D02*
X43592322Y-35740561D01*
X43858989Y-35807227D02*
X43858989Y-35607227D01*
X43858989Y-35797703D02*
X43839941Y-35807227D01*
X43839941Y-35807227D02*
X43801846Y-35807227D01*
X43801846Y-35807227D02*
X43782798Y-35797703D01*
X43782798Y-35797703D02*
X43773274Y-35788180D01*
X43773274Y-35788180D02*
X43763750Y-35769132D01*
X43763750Y-35769132D02*
X43763750Y-35711989D01*
X43763750Y-35711989D02*
X43773274Y-35692941D01*
X43773274Y-35692941D02*
X43782798Y-35683418D01*
X43782798Y-35683418D02*
X43801846Y-35673894D01*
X43801846Y-35673894D02*
X43839941Y-35673894D01*
X43839941Y-35673894D02*
X43858989Y-35683418D01*
X43935179Y-35883418D02*
X43944703Y-35873894D01*
X43944703Y-35873894D02*
X43963750Y-35845322D01*
X43963750Y-35845322D02*
X43973274Y-35826275D01*
X43973274Y-35826275D02*
X43982798Y-35797703D01*
X43982798Y-35797703D02*
X43992322Y-35750084D01*
X43992322Y-35750084D02*
X43992322Y-35711989D01*
X43992322Y-35711989D02*
X43982798Y-35664370D01*
X43982798Y-35664370D02*
X43973274Y-35635799D01*
X43973274Y-35635799D02*
X43963750Y-35616751D01*
X43963750Y-35616751D02*
X43944703Y-35588180D01*
X43944703Y-35588180D02*
X43935179Y-35578656D01*
D12*
X37157197Y-36032777D02*
X37157197Y-35926710D01*
X37051130Y-35926710D01*
X37051130Y-36032777D01*
X37157197Y-36032777D01*
D11*
X37544702Y-36071227D02*
X37430417Y-36071227D01*
X37487559Y-36071227D02*
X37487559Y-35871227D01*
X37487559Y-35871227D02*
X37468512Y-35899799D01*
X37468512Y-35899799D02*
X37449464Y-35918846D01*
X37449464Y-35918846D02*
X37430417Y-35928370D01*
X37630417Y-36052180D02*
X37639940Y-36061703D01*
X37639940Y-36061703D02*
X37630417Y-36071227D01*
X37630417Y-36071227D02*
X37620893Y-36061703D01*
X37620893Y-36061703D02*
X37630417Y-36052180D01*
X37630417Y-36052180D02*
X37630417Y-36071227D01*
X37820893Y-35871227D02*
X37725655Y-35871227D01*
X37725655Y-35871227D02*
X37716131Y-35966465D01*
X37716131Y-35966465D02*
X37725655Y-35956941D01*
X37725655Y-35956941D02*
X37744702Y-35947418D01*
X37744702Y-35947418D02*
X37792321Y-35947418D01*
X37792321Y-35947418D02*
X37811369Y-35956941D01*
X37811369Y-35956941D02*
X37820893Y-35966465D01*
X37820893Y-35966465D02*
X37830417Y-35985513D01*
X37830417Y-35985513D02*
X37830417Y-36033132D01*
X37830417Y-36033132D02*
X37820893Y-36052180D01*
X37820893Y-36052180D02*
X37811369Y-36061703D01*
X37811369Y-36061703D02*
X37792321Y-36071227D01*
X37792321Y-36071227D02*
X37744702Y-36071227D01*
X37744702Y-36071227D02*
X37725655Y-36061703D01*
X37725655Y-36061703D02*
X37716131Y-36052180D01*
X37954226Y-35871227D02*
X37973274Y-35871227D01*
X37973274Y-35871227D02*
X37992321Y-35880751D01*
X37992321Y-35880751D02*
X38001845Y-35890275D01*
X38001845Y-35890275D02*
X38011369Y-35909322D01*
X38011369Y-35909322D02*
X38020893Y-35947418D01*
X38020893Y-35947418D02*
X38020893Y-35995037D01*
X38020893Y-35995037D02*
X38011369Y-36033132D01*
X38011369Y-36033132D02*
X38001845Y-36052180D01*
X38001845Y-36052180D02*
X37992321Y-36061703D01*
X37992321Y-36061703D02*
X37973274Y-36071227D01*
X37973274Y-36071227D02*
X37954226Y-36071227D01*
X37954226Y-36071227D02*
X37935178Y-36061703D01*
X37935178Y-36061703D02*
X37925655Y-36052180D01*
X37925655Y-36052180D02*
X37916131Y-36033132D01*
X37916131Y-36033132D02*
X37906607Y-35995037D01*
X37906607Y-35995037D02*
X37906607Y-35947418D01*
X37906607Y-35947418D02*
X37916131Y-35909322D01*
X37916131Y-35909322D02*
X37925655Y-35890275D01*
X37925655Y-35890275D02*
X37935178Y-35880751D01*
X37935178Y-35880751D02*
X37954226Y-35871227D01*
X38144702Y-35871227D02*
X38163750Y-35871227D01*
X38163750Y-35871227D02*
X38182798Y-35880751D01*
X38182798Y-35880751D02*
X38192321Y-35890275D01*
X38192321Y-35890275D02*
X38201845Y-35909322D01*
X38201845Y-35909322D02*
X38211369Y-35947418D01*
X38211369Y-35947418D02*
X38211369Y-35995037D01*
X38211369Y-35995037D02*
X38201845Y-36033132D01*
X38201845Y-36033132D02*
X38192321Y-36052180D01*
X38192321Y-36052180D02*
X38182798Y-36061703D01*
X38182798Y-36061703D02*
X38163750Y-36071227D01*
X38163750Y-36071227D02*
X38144702Y-36071227D01*
X38144702Y-36071227D02*
X38125655Y-36061703D01*
X38125655Y-36061703D02*
X38116131Y-36052180D01*
X38116131Y-36052180D02*
X38106607Y-36033132D01*
X38106607Y-36033132D02*
X38097083Y-35995037D01*
X38097083Y-35995037D02*
X38097083Y-35947418D01*
X38097083Y-35947418D02*
X38106607Y-35909322D01*
X38106607Y-35909322D02*
X38116131Y-35890275D01*
X38116131Y-35890275D02*
X38125655Y-35880751D01*
X38125655Y-35880751D02*
X38144702Y-35871227D01*
X38297083Y-36071227D02*
X38297083Y-35937894D01*
X38297083Y-35956941D02*
X38306607Y-35947418D01*
X38306607Y-35947418D02*
X38325655Y-35937894D01*
X38325655Y-35937894D02*
X38354226Y-35937894D01*
X38354226Y-35937894D02*
X38373274Y-35947418D01*
X38373274Y-35947418D02*
X38382798Y-35966465D01*
X38382798Y-35966465D02*
X38382798Y-36071227D01*
X38382798Y-35966465D02*
X38392321Y-35947418D01*
X38392321Y-35947418D02*
X38411369Y-35937894D01*
X38411369Y-35937894D02*
X38439940Y-35937894D01*
X38439940Y-35937894D02*
X38458988Y-35947418D01*
X38458988Y-35947418D02*
X38468512Y-35966465D01*
X38468512Y-35966465D02*
X38468512Y-36071227D01*
X38563750Y-36071227D02*
X38563750Y-35937894D01*
X38563750Y-35956941D02*
X38573274Y-35947418D01*
X38573274Y-35947418D02*
X38592321Y-35937894D01*
X38592321Y-35937894D02*
X38620893Y-35937894D01*
X38620893Y-35937894D02*
X38639940Y-35947418D01*
X38639940Y-35947418D02*
X38649464Y-35966465D01*
X38649464Y-35966465D02*
X38649464Y-36071227D01*
X38649464Y-35966465D02*
X38658988Y-35947418D01*
X38658988Y-35947418D02*
X38678036Y-35937894D01*
X38678036Y-35937894D02*
X38706607Y-35937894D01*
X38706607Y-35937894D02*
X38725655Y-35947418D01*
X38725655Y-35947418D02*
X38735179Y-35966465D01*
X38735179Y-35966465D02*
X38735179Y-36071227D01*
X39125655Y-35861703D02*
X38954226Y-36118846D01*
X39382798Y-35871227D02*
X39401845Y-35871227D01*
X39401845Y-35871227D02*
X39420893Y-35880751D01*
X39420893Y-35880751D02*
X39430417Y-35890275D01*
X39430417Y-35890275D02*
X39439941Y-35909322D01*
X39439941Y-35909322D02*
X39449464Y-35947418D01*
X39449464Y-35947418D02*
X39449464Y-35995037D01*
X39449464Y-35995037D02*
X39439941Y-36033132D01*
X39439941Y-36033132D02*
X39430417Y-36052180D01*
X39430417Y-36052180D02*
X39420893Y-36061703D01*
X39420893Y-36061703D02*
X39401845Y-36071227D01*
X39401845Y-36071227D02*
X39382798Y-36071227D01*
X39382798Y-36071227D02*
X39363750Y-36061703D01*
X39363750Y-36061703D02*
X39354226Y-36052180D01*
X39354226Y-36052180D02*
X39344702Y-36033132D01*
X39344702Y-36033132D02*
X39335179Y-35995037D01*
X39335179Y-35995037D02*
X39335179Y-35947418D01*
X39335179Y-35947418D02*
X39344702Y-35909322D01*
X39344702Y-35909322D02*
X39354226Y-35890275D01*
X39354226Y-35890275D02*
X39363750Y-35880751D01*
X39363750Y-35880751D02*
X39382798Y-35871227D01*
X39535179Y-36052180D02*
X39544702Y-36061703D01*
X39544702Y-36061703D02*
X39535179Y-36071227D01*
X39535179Y-36071227D02*
X39525655Y-36061703D01*
X39525655Y-36061703D02*
X39535179Y-36052180D01*
X39535179Y-36052180D02*
X39535179Y-36071227D01*
X39668512Y-35871227D02*
X39687560Y-35871227D01*
X39687560Y-35871227D02*
X39706607Y-35880751D01*
X39706607Y-35880751D02*
X39716131Y-35890275D01*
X39716131Y-35890275D02*
X39725655Y-35909322D01*
X39725655Y-35909322D02*
X39735179Y-35947418D01*
X39735179Y-35947418D02*
X39735179Y-35995037D01*
X39735179Y-35995037D02*
X39725655Y-36033132D01*
X39725655Y-36033132D02*
X39716131Y-36052180D01*
X39716131Y-36052180D02*
X39706607Y-36061703D01*
X39706607Y-36061703D02*
X39687560Y-36071227D01*
X39687560Y-36071227D02*
X39668512Y-36071227D01*
X39668512Y-36071227D02*
X39649464Y-36061703D01*
X39649464Y-36061703D02*
X39639941Y-36052180D01*
X39639941Y-36052180D02*
X39630417Y-36033132D01*
X39630417Y-36033132D02*
X39620893Y-35995037D01*
X39620893Y-35995037D02*
X39620893Y-35947418D01*
X39620893Y-35947418D02*
X39630417Y-35909322D01*
X39630417Y-35909322D02*
X39639941Y-35890275D01*
X39639941Y-35890275D02*
X39649464Y-35880751D01*
X39649464Y-35880751D02*
X39668512Y-35871227D01*
X39916131Y-35871227D02*
X39820893Y-35871227D01*
X39820893Y-35871227D02*
X39811369Y-35966465D01*
X39811369Y-35966465D02*
X39820893Y-35956941D01*
X39820893Y-35956941D02*
X39839941Y-35947418D01*
X39839941Y-35947418D02*
X39887560Y-35947418D01*
X39887560Y-35947418D02*
X39906607Y-35956941D01*
X39906607Y-35956941D02*
X39916131Y-35966465D01*
X39916131Y-35966465D02*
X39925655Y-35985513D01*
X39925655Y-35985513D02*
X39925655Y-36033132D01*
X39925655Y-36033132D02*
X39916131Y-36052180D01*
X39916131Y-36052180D02*
X39906607Y-36061703D01*
X39906607Y-36061703D02*
X39887560Y-36071227D01*
X39887560Y-36071227D02*
X39839941Y-36071227D01*
X39839941Y-36071227D02*
X39820893Y-36061703D01*
X39820893Y-36061703D02*
X39811369Y-36052180D01*
X40020893Y-36071227D02*
X40058988Y-36071227D01*
X40058988Y-36071227D02*
X40078036Y-36061703D01*
X40078036Y-36061703D02*
X40087560Y-36052180D01*
X40087560Y-36052180D02*
X40106607Y-36023608D01*
X40106607Y-36023608D02*
X40116131Y-35985513D01*
X40116131Y-35985513D02*
X40116131Y-35909322D01*
X40116131Y-35909322D02*
X40106607Y-35890275D01*
X40106607Y-35890275D02*
X40097083Y-35880751D01*
X40097083Y-35880751D02*
X40078036Y-35871227D01*
X40078036Y-35871227D02*
X40039941Y-35871227D01*
X40039941Y-35871227D02*
X40020893Y-35880751D01*
X40020893Y-35880751D02*
X40011369Y-35890275D01*
X40011369Y-35890275D02*
X40001845Y-35909322D01*
X40001845Y-35909322D02*
X40001845Y-35956941D01*
X40001845Y-35956941D02*
X40011369Y-35975989D01*
X40011369Y-35975989D02*
X40020893Y-35985513D01*
X40020893Y-35985513D02*
X40039941Y-35995037D01*
X40039941Y-35995037D02*
X40078036Y-35995037D01*
X40078036Y-35995037D02*
X40097083Y-35985513D01*
X40097083Y-35985513D02*
X40106607Y-35975989D01*
X40106607Y-35975989D02*
X40116131Y-35956941D01*
X40306607Y-36071227D02*
X40192322Y-36071227D01*
X40249464Y-36071227D02*
X40249464Y-35871227D01*
X40249464Y-35871227D02*
X40230417Y-35899799D01*
X40230417Y-35899799D02*
X40211369Y-35918846D01*
X40211369Y-35918846D02*
X40192322Y-35928370D01*
X40382798Y-35871227D02*
X40382798Y-35909322D01*
X40458988Y-35871227D02*
X40458988Y-35909322D01*
X40754226Y-36147418D02*
X40744703Y-36137894D01*
X40744703Y-36137894D02*
X40725655Y-36109322D01*
X40725655Y-36109322D02*
X40716131Y-36090275D01*
X40716131Y-36090275D02*
X40706607Y-36061703D01*
X40706607Y-36061703D02*
X40697084Y-36014084D01*
X40697084Y-36014084D02*
X40697084Y-35975989D01*
X40697084Y-35975989D02*
X40706607Y-35928370D01*
X40706607Y-35928370D02*
X40716131Y-35899799D01*
X40716131Y-35899799D02*
X40725655Y-35880751D01*
X40725655Y-35880751D02*
X40744703Y-35852180D01*
X40744703Y-35852180D02*
X40754226Y-35842656D01*
X40916131Y-35871227D02*
X40878036Y-35871227D01*
X40878036Y-35871227D02*
X40858988Y-35880751D01*
X40858988Y-35880751D02*
X40849464Y-35890275D01*
X40849464Y-35890275D02*
X40830417Y-35918846D01*
X40830417Y-35918846D02*
X40820893Y-35956941D01*
X40820893Y-35956941D02*
X40820893Y-36033132D01*
X40820893Y-36033132D02*
X40830417Y-36052180D01*
X40830417Y-36052180D02*
X40839941Y-36061703D01*
X40839941Y-36061703D02*
X40858988Y-36071227D01*
X40858988Y-36071227D02*
X40897084Y-36071227D01*
X40897084Y-36071227D02*
X40916131Y-36061703D01*
X40916131Y-36061703D02*
X40925655Y-36052180D01*
X40925655Y-36052180D02*
X40935179Y-36033132D01*
X40935179Y-36033132D02*
X40935179Y-35985513D01*
X40935179Y-35985513D02*
X40925655Y-35966465D01*
X40925655Y-35966465D02*
X40916131Y-35956941D01*
X40916131Y-35956941D02*
X40897084Y-35947418D01*
X40897084Y-35947418D02*
X40858988Y-35947418D01*
X40858988Y-35947418D02*
X40839941Y-35956941D01*
X40839941Y-35956941D02*
X40830417Y-35966465D01*
X40830417Y-35966465D02*
X40820893Y-35985513D01*
X41173274Y-36071227D02*
X41173274Y-35871227D01*
X41258988Y-36071227D02*
X41258988Y-35966465D01*
X41258988Y-35966465D02*
X41249465Y-35947418D01*
X41249465Y-35947418D02*
X41230417Y-35937894D01*
X41230417Y-35937894D02*
X41201845Y-35937894D01*
X41201845Y-35937894D02*
X41182798Y-35947418D01*
X41182798Y-35947418D02*
X41173274Y-35956941D01*
X41382798Y-36071227D02*
X41363750Y-36061703D01*
X41363750Y-36061703D02*
X41354226Y-36052180D01*
X41354226Y-36052180D02*
X41344703Y-36033132D01*
X41344703Y-36033132D02*
X41344703Y-35975989D01*
X41344703Y-35975989D02*
X41354226Y-35956941D01*
X41354226Y-35956941D02*
X41363750Y-35947418D01*
X41363750Y-35947418D02*
X41382798Y-35937894D01*
X41382798Y-35937894D02*
X41411369Y-35937894D01*
X41411369Y-35937894D02*
X41430417Y-35947418D01*
X41430417Y-35947418D02*
X41439941Y-35956941D01*
X41439941Y-35956941D02*
X41449465Y-35975989D01*
X41449465Y-35975989D02*
X41449465Y-36033132D01*
X41449465Y-36033132D02*
X41439941Y-36052180D01*
X41439941Y-36052180D02*
X41430417Y-36061703D01*
X41430417Y-36061703D02*
X41411369Y-36071227D01*
X41411369Y-36071227D02*
X41382798Y-36071227D01*
X41563750Y-36071227D02*
X41544703Y-36061703D01*
X41544703Y-36061703D02*
X41535179Y-36042656D01*
X41535179Y-36042656D02*
X41535179Y-35871227D01*
X41716131Y-36061703D02*
X41697084Y-36071227D01*
X41697084Y-36071227D02*
X41658988Y-36071227D01*
X41658988Y-36071227D02*
X41639941Y-36061703D01*
X41639941Y-36061703D02*
X41630417Y-36042656D01*
X41630417Y-36042656D02*
X41630417Y-35966465D01*
X41630417Y-35966465D02*
X41639941Y-35947418D01*
X41639941Y-35947418D02*
X41658988Y-35937894D01*
X41658988Y-35937894D02*
X41697084Y-35937894D01*
X41697084Y-35937894D02*
X41716131Y-35947418D01*
X41716131Y-35947418D02*
X41725655Y-35966465D01*
X41725655Y-35966465D02*
X41725655Y-35985513D01*
X41725655Y-35985513D02*
X41630417Y-36004561D01*
X41801846Y-36061703D02*
X41820893Y-36071227D01*
X41820893Y-36071227D02*
X41858988Y-36071227D01*
X41858988Y-36071227D02*
X41878036Y-36061703D01*
X41878036Y-36061703D02*
X41887560Y-36042656D01*
X41887560Y-36042656D02*
X41887560Y-36033132D01*
X41887560Y-36033132D02*
X41878036Y-36014084D01*
X41878036Y-36014084D02*
X41858988Y-36004561D01*
X41858988Y-36004561D02*
X41830417Y-36004561D01*
X41830417Y-36004561D02*
X41811369Y-35995037D01*
X41811369Y-35995037D02*
X41801846Y-35975989D01*
X41801846Y-35975989D02*
X41801846Y-35966465D01*
X41801846Y-35966465D02*
X41811369Y-35947418D01*
X41811369Y-35947418D02*
X41830417Y-35937894D01*
X41830417Y-35937894D02*
X41858988Y-35937894D01*
X41858988Y-35937894D02*
X41878036Y-35947418D01*
X41954227Y-36147418D02*
X41963750Y-36137894D01*
X41963750Y-36137894D02*
X41982798Y-36109322D01*
X41982798Y-36109322D02*
X41992322Y-36090275D01*
X41992322Y-36090275D02*
X42001846Y-36061703D01*
X42001846Y-36061703D02*
X42011369Y-36014084D01*
X42011369Y-36014084D02*
X42011369Y-35975989D01*
X42011369Y-35975989D02*
X42001846Y-35928370D01*
X42001846Y-35928370D02*
X41992322Y-35899799D01*
X41992322Y-35899799D02*
X41982798Y-35880751D01*
X41982798Y-35880751D02*
X41963750Y-35852180D01*
X41963750Y-35852180D02*
X41954227Y-35842656D01*
X42316131Y-36147418D02*
X42306607Y-36137894D01*
X42306607Y-36137894D02*
X42287560Y-36109322D01*
X42287560Y-36109322D02*
X42278036Y-36090275D01*
X42278036Y-36090275D02*
X42268512Y-36061703D01*
X42268512Y-36061703D02*
X42258988Y-36014084D01*
X42258988Y-36014084D02*
X42258988Y-35975989D01*
X42258988Y-35975989D02*
X42268512Y-35928370D01*
X42268512Y-35928370D02*
X42278036Y-35899799D01*
X42278036Y-35899799D02*
X42287560Y-35880751D01*
X42287560Y-35880751D02*
X42306607Y-35852180D01*
X42306607Y-35852180D02*
X42316131Y-35842656D01*
X42392322Y-35937894D02*
X42392322Y-36071227D01*
X42392322Y-35956941D02*
X42401846Y-35947418D01*
X42401846Y-35947418D02*
X42420893Y-35937894D01*
X42420893Y-35937894D02*
X42449465Y-35937894D01*
X42449465Y-35937894D02*
X42468512Y-35947418D01*
X42468512Y-35947418D02*
X42478036Y-35966465D01*
X42478036Y-35966465D02*
X42478036Y-36071227D01*
X42601846Y-36071227D02*
X42582798Y-36061703D01*
X42582798Y-36061703D02*
X42573274Y-36052180D01*
X42573274Y-36052180D02*
X42563750Y-36033132D01*
X42563750Y-36033132D02*
X42563750Y-35975989D01*
X42563750Y-35975989D02*
X42573274Y-35956941D01*
X42573274Y-35956941D02*
X42582798Y-35947418D01*
X42582798Y-35947418D02*
X42601846Y-35937894D01*
X42601846Y-35937894D02*
X42630417Y-35937894D01*
X42630417Y-35937894D02*
X42649465Y-35947418D01*
X42649465Y-35947418D02*
X42658988Y-35956941D01*
X42658988Y-35956941D02*
X42668512Y-35975989D01*
X42668512Y-35975989D02*
X42668512Y-36033132D01*
X42668512Y-36033132D02*
X42658988Y-36052180D01*
X42658988Y-36052180D02*
X42649465Y-36061703D01*
X42649465Y-36061703D02*
X42630417Y-36071227D01*
X42630417Y-36071227D02*
X42601846Y-36071227D01*
X42725655Y-35937894D02*
X42801846Y-35937894D01*
X42754227Y-35871227D02*
X42754227Y-36042656D01*
X42754227Y-36042656D02*
X42763750Y-36061703D01*
X42763750Y-36061703D02*
X42782798Y-36071227D01*
X42782798Y-36071227D02*
X42801846Y-36071227D01*
X43020893Y-35937894D02*
X43020893Y-36137894D01*
X43020893Y-35947418D02*
X43039941Y-35937894D01*
X43039941Y-35937894D02*
X43078036Y-35937894D01*
X43078036Y-35937894D02*
X43097084Y-35947418D01*
X43097084Y-35947418D02*
X43106608Y-35956941D01*
X43106608Y-35956941D02*
X43116131Y-35975989D01*
X43116131Y-35975989D02*
X43116131Y-36033132D01*
X43116131Y-36033132D02*
X43106608Y-36052180D01*
X43106608Y-36052180D02*
X43097084Y-36061703D01*
X43097084Y-36061703D02*
X43078036Y-36071227D01*
X43078036Y-36071227D02*
X43039941Y-36071227D01*
X43039941Y-36071227D02*
X43020893Y-36061703D01*
X43230417Y-36071227D02*
X43211369Y-36061703D01*
X43211369Y-36061703D02*
X43201846Y-36042656D01*
X43201846Y-36042656D02*
X43201846Y-35871227D01*
X43392322Y-36071227D02*
X43392322Y-35966465D01*
X43392322Y-35966465D02*
X43382798Y-35947418D01*
X43382798Y-35947418D02*
X43363750Y-35937894D01*
X43363750Y-35937894D02*
X43325655Y-35937894D01*
X43325655Y-35937894D02*
X43306608Y-35947418D01*
X43392322Y-36061703D02*
X43373274Y-36071227D01*
X43373274Y-36071227D02*
X43325655Y-36071227D01*
X43325655Y-36071227D02*
X43306608Y-36061703D01*
X43306608Y-36061703D02*
X43297084Y-36042656D01*
X43297084Y-36042656D02*
X43297084Y-36023608D01*
X43297084Y-36023608D02*
X43306608Y-36004561D01*
X43306608Y-36004561D02*
X43325655Y-35995037D01*
X43325655Y-35995037D02*
X43373274Y-35995037D01*
X43373274Y-35995037D02*
X43392322Y-35985513D01*
X43458989Y-35937894D02*
X43535179Y-35937894D01*
X43487560Y-35871227D02*
X43487560Y-36042656D01*
X43487560Y-36042656D02*
X43497084Y-36061703D01*
X43497084Y-36061703D02*
X43516131Y-36071227D01*
X43516131Y-36071227D02*
X43535179Y-36071227D01*
X43678036Y-36061703D02*
X43658989Y-36071227D01*
X43658989Y-36071227D02*
X43620893Y-36071227D01*
X43620893Y-36071227D02*
X43601846Y-36061703D01*
X43601846Y-36061703D02*
X43592322Y-36042656D01*
X43592322Y-36042656D02*
X43592322Y-35966465D01*
X43592322Y-35966465D02*
X43601846Y-35947418D01*
X43601846Y-35947418D02*
X43620893Y-35937894D01*
X43620893Y-35937894D02*
X43658989Y-35937894D01*
X43658989Y-35937894D02*
X43678036Y-35947418D01*
X43678036Y-35947418D02*
X43687560Y-35966465D01*
X43687560Y-35966465D02*
X43687560Y-35985513D01*
X43687560Y-35985513D02*
X43592322Y-36004561D01*
X43858989Y-36071227D02*
X43858989Y-35871227D01*
X43858989Y-36061703D02*
X43839941Y-36071227D01*
X43839941Y-36071227D02*
X43801846Y-36071227D01*
X43801846Y-36071227D02*
X43782798Y-36061703D01*
X43782798Y-36061703D02*
X43773274Y-36052180D01*
X43773274Y-36052180D02*
X43763750Y-36033132D01*
X43763750Y-36033132D02*
X43763750Y-35975989D01*
X43763750Y-35975989D02*
X43773274Y-35956941D01*
X43773274Y-35956941D02*
X43782798Y-35947418D01*
X43782798Y-35947418D02*
X43801846Y-35937894D01*
X43801846Y-35937894D02*
X43839941Y-35937894D01*
X43839941Y-35937894D02*
X43858989Y-35947418D01*
X43935179Y-36147418D02*
X43944703Y-36137894D01*
X43944703Y-36137894D02*
X43963750Y-36109322D01*
X43963750Y-36109322D02*
X43973274Y-36090275D01*
X43973274Y-36090275D02*
X43982798Y-36061703D01*
X43982798Y-36061703D02*
X43992322Y-36014084D01*
X43992322Y-36014084D02*
X43992322Y-35975989D01*
X43992322Y-35975989D02*
X43982798Y-35928370D01*
X43982798Y-35928370D02*
X43973274Y-35899799D01*
X43973274Y-35899799D02*
X43963750Y-35880751D01*
X43963750Y-35880751D02*
X43944703Y-35852180D01*
X43944703Y-35852180D02*
X43935179Y-35842656D01*
M02*
